<svg width="32" height="32" viewBox="0 0 32 32" fill="none" xmlns="http://www.w3.org/2000/svg">
<g clip-path="url(#clip0_10_191)">
<path d="M31.7708 2.04163C31.7708 1.02188 30.9364 0.1875 29.9167 0.1875H1.81444C0.896689 0.1875 0.145752 0.938437 0.145752 1.85619V30.1438C0.145752 31.0616 0.896689 31.8125 1.81444 31.8125H29.9166C30.9364 31.8125 31.7708 30.9781 31.7708 29.9584V2.04163Z" fill="#597B91"/>
<path d="M29.9167 30.5571H1.81444C0.896689 30.5571 0.145752 29.8062 0.145752 28.8884V30.1438C0.145752 31.0615 0.896689 31.8124 1.81444 31.8124H29.9166C30.9364 31.8124 31.7708 30.9781 31.7708 29.9583V28.703C31.7708 29.7228 30.9364 30.5571 29.9167 30.5571Z" fill="#2B5770"/>
<path d="M8.23627 14.0547H6.08002C5.99051 14.0547 5.90467 14.0903 5.84137 14.1536C5.77808 14.2169 5.74252 14.3027 5.74252 14.3922V15.9124C5.74252 16.0019 5.77808 16.0878 5.84137 16.1511C5.90467 16.2143 5.99051 16.2499 6.08002 16.2499H7.8414C7.93091 16.2499 8.01675 16.2855 8.08004 16.3488C8.14334 16.4121 8.1789 16.4979 8.1789 16.5874V17.3477C8.1789 17.4372 8.14334 17.523 8.08004 17.5863C8.01675 17.6496 7.93091 17.6852 7.8414 17.6852H6.07996C5.99045 17.6852 5.9046 17.7207 5.84131 17.784C5.77802 17.8473 5.74246 17.9331 5.74246 18.0227V20.6524C5.74246 20.7419 5.7069 20.8278 5.64361 20.8911C5.58031 20.9543 5.49447 20.9899 5.40496 20.9899H4.06577C3.97626 20.9899 3.89042 20.9543 3.82712 20.8911C3.76383 20.8278 3.72827 20.7419 3.72827 20.6524V12.969C3.72827 12.8795 3.76383 12.7936 3.82712 12.7303C3.89042 12.667 3.97626 12.6315 4.06577 12.6315H8.34402C8.39241 12.6315 8.44023 12.6419 8.48425 12.662C8.52826 12.6821 8.56744 12.7114 8.59912 12.748C8.63081 12.7846 8.65426 12.8275 8.66788 12.874C8.6815 12.9204 8.68498 12.9692 8.67808 13.0171L8.57027 13.7653C8.55872 13.8456 8.5186 13.9191 8.45725 13.9723C8.3959 14.0255 8.31745 14.0547 8.23627 14.0547ZM12.3641 12.6315C14.6436 12.6315 15.8135 13.4396 15.8135 15.1764C15.8135 16.1622 15.3952 16.7976 14.5323 17.2838C14.3661 17.3775 14.307 17.5877 14.4046 17.7516L16.0286 20.48C16.1626 20.705 16.0003 20.9898 15.7385 20.9898H14.2791C14.2179 20.9898 14.158 20.9732 14.1055 20.9418C14.0531 20.9104 14.0102 20.8653 13.9814 20.8113L12.4715 17.9842C12.4427 17.9303 12.3998 17.8852 12.3473 17.8538C12.2949 17.8223 12.2349 17.8057 12.1738 17.8057H11.9538C11.8643 17.8057 11.7784 17.8413 11.7151 17.9046C11.6518 17.9679 11.6163 18.0537 11.6163 18.1432V20.6523C11.6163 20.7419 11.5807 20.8277 11.5174 20.891C11.4541 20.9543 11.3683 20.9898 11.2788 20.9898H9.93958C9.85007 20.9898 9.76423 20.9543 9.70094 20.891C9.63764 20.8277 9.60208 20.7419 9.60208 20.6523V12.969C9.60208 12.8795 9.63764 12.7936 9.70094 12.7303C9.76423 12.667 9.85007 12.6315 9.93958 12.6315H12.3641ZM12.4485 16.4308C13.2928 16.4308 13.7511 16.0569 13.7511 15.1764C13.7511 14.3803 13.2808 14.0306 12.3159 14.0306H11.9538C11.8643 14.0306 11.7785 14.0662 11.7152 14.1294C11.6519 14.1927 11.6163 14.2786 11.6163 14.3681V16.0933C11.6163 16.1828 11.6519 16.2686 11.7152 16.3319C11.7785 16.3952 11.8643 16.4308 11.9538 16.4308H12.4485ZM21.6965 14.0547H19.3955C19.3059 14.0547 19.2201 14.0903 19.1568 14.1536C19.0935 14.2169 19.058 14.3027 19.058 14.3922V15.7073C19.058 15.7968 19.0935 15.8826 19.1568 15.9459C19.2201 16.0092 19.3059 16.0448 19.3955 16.0448H21.2774C21.3669 16.0448 21.4527 16.0803 21.516 16.1436C21.5793 16.2069 21.6149 16.2928 21.6149 16.3823V17.1064C21.6149 17.1959 21.5793 17.2818 21.516 17.3451C21.4527 17.4083 21.3669 17.4439 21.2774 17.4439H19.3955C19.3059 17.4439 19.2201 17.4795 19.1568 17.5428C19.0935 17.6061 19.058 17.6919 19.058 17.7814V19.205C19.058 19.2945 19.0935 19.3804 19.1568 19.4437C19.2201 19.507 19.3059 19.5425 19.3955 19.5425H21.8564C21.9459 19.5425 22.0317 19.5781 22.095 19.6414C22.1583 19.7047 22.1939 19.7905 22.1939 19.88V20.6523C22.1939 20.7419 22.1583 20.8277 22.095 20.891C22.0317 20.9543 21.9459 20.9898 21.8564 20.9898H17.3813C17.2918 20.9898 17.2059 20.9543 17.1426 20.891C17.0793 20.8277 17.0438 20.7419 17.0438 20.6523V12.969C17.0438 12.8795 17.0793 12.7936 17.1426 12.7303C17.2059 12.667 17.2918 12.6315 17.3813 12.6315H21.8043C21.8527 12.6315 21.9005 12.6419 21.9445 12.662C21.9885 12.6821 22.0277 12.7114 22.0594 12.748C22.0911 12.7846 22.1145 12.8275 22.1281 12.874C22.1418 12.9204 22.1452 12.9692 22.1383 13.0171L22.0305 13.7653C22.0189 13.8456 21.9788 13.9191 21.9174 13.9723C21.8561 14.0254 21.7776 14.0547 21.6965 14.0547ZM28.0285 14.0547H25.7275C25.638 14.0547 25.5522 14.0903 25.4889 14.1536C25.4256 14.2169 25.39 14.3027 25.39 14.3922V15.7073C25.39 15.7968 25.4256 15.8826 25.4889 15.9459C25.5522 16.0092 25.638 16.0448 25.7275 16.0448H27.6095C27.699 16.0448 27.7848 16.0803 27.8481 16.1436C27.9114 16.2069 27.947 16.2928 27.947 16.3823V17.1064C27.947 17.1959 27.9114 17.2818 27.8481 17.3451C27.7848 17.4083 27.699 17.4439 27.6095 17.4439H25.7275C25.638 17.4439 25.5522 17.4795 25.4889 17.5428C25.4256 17.6061 25.39 17.6919 25.39 17.7814V19.205C25.39 19.2945 25.4256 19.3804 25.4889 19.4437C25.5522 19.507 25.638 19.5425 25.7275 19.5425H28.1885C28.278 19.5425 28.3638 19.5781 28.4271 19.6414C28.4904 19.7047 28.526 19.7905 28.526 19.88V20.6523C28.526 20.7419 28.4904 20.8277 28.4271 20.891C28.3638 20.9543 28.278 20.9898 28.1885 20.9898H23.7133C23.6238 20.9898 23.538 20.9543 23.4747 20.891C23.4114 20.8277 23.3758 20.7419 23.3758 20.6523V12.969C23.3758 12.8795 23.4114 12.7936 23.4747 12.7303C23.538 12.667 23.6238 12.6315 23.7133 12.6315H28.1363C28.1847 12.6315 28.2325 12.6419 28.2766 12.662C28.3206 12.6821 28.3598 12.7114 28.3914 12.748C28.4231 12.7846 28.4466 12.8275 28.4602 12.874C28.4738 12.9204 28.4773 12.9692 28.4704 13.0171L28.3626 13.7653C28.351 13.8456 28.3109 13.9191 28.2495 13.9723C28.1882 14.0255 28.1097 14.0547 28.0285 14.0547Z" fill="white"/>
</g>
<defs>
<clipPath id="clip0_10_191">
<rect width="32" height="32" fill="white"/>
</clipPath>
</defs>
</svg>
