<svg width="38" height="34" viewBox="0 0 38 34" fill="none" xmlns="http://www.w3.org/2000/svg">
<path d="M35.4825 33.1114H2.54914C1.8493 33.1114 1.28247 32.6175 1.28247 32.0076V12.1243H36.7491V32.0076C36.7491 32.6175 36.1823 33.1114 35.4825 33.1114Z" fill="url(#paint0_radial_10_359)"/>
<path opacity="0.2" d="M35.7991 12.9521V32.0076C35.7991 32.1594 35.6566 32.2836 35.4825 32.2836H2.54914C2.37497 32.2836 2.23247 32.1594 2.23247 32.0076V12.9521H35.7991ZM36.7491 12.1243H1.28247V32.0076C1.28247 32.6175 1.8493 33.1114 2.54914 33.1114H35.4825C36.1823 33.1114 36.7491 32.6175 36.7491 32.0076V12.1243Z" fill="#424242"/>
<path d="M13.1165 8.73865L18.0945 13.228H23.0693L18.0945 8.73865H13.1165Z" fill="url(#paint1_linear_10_359)"/>
<path d="M0.674561 8.73865V13.228H8.13839L3.16356 8.73865H0.674561Z" fill="url(#paint2_linear_10_359)"/>
<path d="M3.16357 8.73865L8.13841 13.228H13.1164L8.13841 8.73865H3.16357Z" fill="url(#paint3_linear_10_359)"/>
<path d="M8.13843 8.73865L13.1164 13.228H18.0944L13.1164 8.73865H8.13843Z" fill="url(#paint4_linear_10_359)"/>
<path d="M33.022 8.73865H28.0471L33.022 13.228H38L33.022 8.73865Z" fill="url(#paint5_linear_10_359)"/>
<path d="M38 8.73865H33.022L38 13.228V8.73865Z" fill="url(#paint6_linear_10_359)"/>
<path d="M23.0691 8.73865L28.0471 13.228H33.0219L28.0471 8.73865H23.0691Z" fill="url(#paint7_linear_10_359)"/>
<path d="M18.0942 8.73865L23.0691 13.228H28.0471L23.0691 8.73865H18.0942Z" fill="url(#paint8_linear_10_359)"/>
<path d="M12.3342 2.85865L17.9456 6.7382L22.8792 6.16702L17.2679 2.28748L12.3342 2.85865Z" fill="url(#paint9_linear_10_359)"/>
<path d="M0 4.28794L0.677667 8.73866L8.07817 7.88053L2.46683 4.00098L0 4.28794Z" fill="url(#paint10_linear_10_359)"/>
<path d="M2.4668 4.00098L8.07813 7.88053L13.0118 7.30936L7.40046 3.42981L2.4668 4.00098Z" fill="url(#paint11_linear_10_359)"/>
<path d="M7.40039 3.42981L13.0117 7.30936L17.9454 6.73819L12.3341 2.85864L7.40039 3.42981Z" fill="url(#paint12_linear_10_359)"/>
<path d="M32.0657 0.571167L27.1321 1.14234L32.7434 5.02189L37.6771 4.45072L32.0657 0.571167Z" fill="url(#paint13_linear_10_359)"/>
<path d="M36.9993 0L32.0657 0.571171L37.677 4.45072L36.9993 0Z" fill="url(#paint14_linear_10_359)"/>
<path d="M22.2014 1.71626L27.8127 5.59305L32.7432 5.02188L27.1319 1.14233L22.2014 1.71626Z" fill="url(#paint15_linear_10_359)"/>
<path d="M17.2678 2.28748L22.8792 6.16703L27.8128 5.5931L22.2015 1.71631L17.2678 2.28748Z" fill="url(#paint16_linear_10_359)"/>
<g opacity="0.2">
<path d="M37.0501 9.56643V12.4002H1.62456V9.56643H37.0501ZM38.0001 8.73865H0.674561V13.228H38.0001V8.73865Z" fill="#424242"/>
<path d="M36.1823 0.929878L36.6098 3.73883L32.6167 4.20239L27.6862 4.77356L7.9515 7.05824L1.49467 7.80877L1.06717 4.99982L2.5935 4.82322L32.1955 1.3962L36.1823 0.929878ZM36.9993 0L7.39733 3.42703L2.46683 4.00096L0 4.28792L0.677667 8.73864L8.07817 7.88051L37.6802 4.45348L36.9993 0Z" fill="#424242"/>
</g>
<path d="M3.81592 17.6456H34.2159V18.7493H3.81592V17.6456Z" fill="url(#paint17_linear_10_359)"/>
<path d="M3.81592 22.066H34.2159V23.1698H3.81592V22.066Z" fill="url(#paint18_linear_10_359)"/>
<path d="M3.81592 26.4836H34.2159V27.5874H3.81592V26.4836Z" fill="url(#paint19_linear_10_359)"/>
<path d="M25.3491 30.9012V27.0354H26.6158V30.9012H25.3491Z" fill="url(#paint20_linear_10_359)"/>
<path d="M11.4158 30.9012V27.0354H12.6824V30.9012H11.4158Z" fill="url(#paint21_linear_10_359)"/>
<path d="M3.81592 15.4381H8.88259V16.5418H3.81592V15.4381Z" fill="#B2DFDB"/>
<path d="M3.81592 19.8557H11.4159V20.9594H3.81592V19.8557Z" fill="#B2DFDB"/>
<path d="M3.81592 24.2733H8.88259V25.377H3.81592V24.2733Z" fill="#B2DFDB"/>
<defs>
<radialGradient id="paint0_radial_10_359" cx="0" cy="0" r="1" gradientUnits="userSpaceOnUse" gradientTransform="translate(18.6985 13.4345) scale(24.3061 21.1961)">
<stop stop-color="#00796B"/>
<stop offset="0.2831" stop-color="#007365"/>
<stop offset="0.6536" stop-color="#006355"/>
<stop offset="1" stop-color="#004D40"/>
</radialGradient>
<linearGradient id="paint1_linear_10_359" x1="18.0932" y1="7.07784" x2="18.0932" y2="13.3985" gradientUnits="userSpaceOnUse">
<stop offset="0.0042918" stop-color="#FAFAFA"/>
<stop offset="1" stop-color="#EEEEEE"/>
</linearGradient>
<linearGradient id="paint2_linear_10_359" x1="4.40743" y1="8.83164" x2="4.40743" y2="13.3508" gradientUnits="userSpaceOnUse">
<stop stop-color="#616161"/>
<stop offset="1" stop-color="#212121"/>
</linearGradient>
<linearGradient id="paint3_linear_10_359" x1="8.13967" y1="7.07784" x2="8.13967" y2="13.3985" gradientUnits="userSpaceOnUse">
<stop offset="0.0042918" stop-color="#FAFAFA"/>
<stop offset="1" stop-color="#EEEEEE"/>
</linearGradient>
<linearGradient id="paint4_linear_10_359" x1="13.1164" y1="8.83164" x2="13.1164" y2="13.3508" gradientUnits="userSpaceOnUse">
<stop stop-color="#616161"/>
<stop offset="1" stop-color="#212121"/>
</linearGradient>
<linearGradient id="paint5_linear_10_359" x1="33.022" y1="8.83164" x2="33.022" y2="13.3508" gradientUnits="userSpaceOnUse">
<stop stop-color="#616161"/>
<stop offset="1" stop-color="#212121"/>
</linearGradient>
<linearGradient id="paint6_linear_10_359" x1="35.511" y1="7.07784" x2="35.511" y2="13.3985" gradientUnits="userSpaceOnUse">
<stop offset="0.0042918" stop-color="#FAFAFA"/>
<stop offset="1" stop-color="#EEEEEE"/>
</linearGradient>
<linearGradient id="paint7_linear_10_359" x1="28.0465" y1="7.07784" x2="28.0465" y2="13.3985" gradientUnits="userSpaceOnUse">
<stop offset="0.0042918" stop-color="#FAFAFA"/>
<stop offset="1" stop-color="#EEEEEE"/>
</linearGradient>
<linearGradient id="paint8_linear_10_359" x1="23.0697" y1="8.83164" x2="23.0697" y2="13.3508" gradientUnits="userSpaceOnUse">
<stop stop-color="#616161"/>
<stop offset="1" stop-color="#212121"/>
</linearGradient>
<linearGradient id="paint9_linear_10_359" x1="17.0157" y1="0.641286" x2="17.744" y2="6.93309" gradientUnits="userSpaceOnUse">
<stop offset="0.0042918" stop-color="#FAFAFA"/>
<stop offset="1" stop-color="#EEEEEE"/>
</linearGradient>
<linearGradient id="paint10_linear_10_359" x1="3.71366" y1="3.95189" x2="4.23444" y2="8.45051" gradientUnits="userSpaceOnUse">
<stop stop-color="#616161"/>
<stop offset="1" stop-color="#212121"/>
</linearGradient>
<linearGradient id="paint11_linear_10_359" x1="7.14885" y1="1.78444" x2="7.87724" y2="8.07641" gradientUnits="userSpaceOnUse">
<stop offset="0.0042918" stop-color="#FAFAFA"/>
<stop offset="1" stop-color="#EEEEEE"/>
</linearGradient>
<linearGradient id="paint12_linear_10_359" x1="12.3472" y1="2.95132" x2="12.868" y2="7.44994" gradientUnits="userSpaceOnUse">
<stop stop-color="#616161"/>
<stop offset="1" stop-color="#212121"/>
</linearGradient>
<linearGradient id="paint13_linear_10_359" x1="32.0824" y1="0.664732" x2="32.6032" y2="5.16335" gradientUnits="userSpaceOnUse">
<stop stop-color="#616161"/>
<stop offset="1" stop-color="#212121"/>
</linearGradient>
<linearGradient id="paint14_linear_10_359" x1="34.2814" y1="-1.35943" x2="35.0098" y2="4.93235" gradientUnits="userSpaceOnUse">
<stop offset="0.0042918" stop-color="#FAFAFA"/>
<stop offset="1" stop-color="#EEEEEE"/>
</linearGradient>
<linearGradient id="paint15_linear_10_359" x1="26.8826" y1="-0.501951" x2="27.611" y2="5.78996" gradientUnits="userSpaceOnUse">
<stop offset="0.0042918" stop-color="#FAFAFA"/>
<stop offset="1" stop-color="#EEEEEE"/>
</linearGradient>
<linearGradient id="paint16_linear_10_359" x1="22.2141" y1="1.80828" x2="22.7348" y2="6.3069" gradientUnits="userSpaceOnUse">
<stop stop-color="#616161"/>
<stop offset="1" stop-color="#212121"/>
</linearGradient>
<linearGradient id="paint17_linear_10_359" x1="3.81528" y1="18.1989" x2="34.2159" y2="18.1989" gradientUnits="userSpaceOnUse">
<stop offset="0.0042918" stop-color="#FAFAFA"/>
<stop offset="1" stop-color="#EEEEEE"/>
</linearGradient>
<linearGradient id="paint18_linear_10_359" x1="3.81528" y1="22.6173" x2="34.2159" y2="22.6173" gradientUnits="userSpaceOnUse">
<stop offset="0.0042918" stop-color="#FAFAFA"/>
<stop offset="1" stop-color="#EEEEEE"/>
</linearGradient>
<linearGradient id="paint19_linear_10_359" x1="3.81528" y1="27.0355" x2="34.2159" y2="27.0355" gradientUnits="userSpaceOnUse">
<stop offset="0.0042918" stop-color="#FAFAFA"/>
<stop offset="1" stop-color="#EEEEEE"/>
</linearGradient>
<linearGradient id="paint20_linear_10_359" x1="25.3485" y1="28.9697" x2="26.6152" y2="28.9697" gradientUnits="userSpaceOnUse">
<stop offset="0.0042918" stop-color="#FAFAFA"/>
<stop offset="1" stop-color="#EEEEEE"/>
</linearGradient>
<linearGradient id="paint21_linear_10_359" x1="11.4151" y1="28.9697" x2="12.6818" y2="28.9697" gradientUnits="userSpaceOnUse">
<stop offset="0.0042918" stop-color="#FAFAFA"/>
<stop offset="1" stop-color="#EEEEEE"/>
</linearGradient>
</defs>
</svg>
