<svg width="32" height="32" viewBox="0 0 32 32" fill="none" xmlns="http://www.w3.org/2000/svg">
<path d="M5.06311 28.0113C6.06614 27.8167 6.64799 26.4668 6.36271 24.9961C6.07742 23.5254 5.03304 22.491 4.03001 22.6855C3.02698 22.8801 2.44513 24.23 2.73041 25.7007C3.0157 27.1714 4.06008 28.2058 5.06311 28.0113Z" fill="#616161"/>
<path d="M3.85256 15.01C3.69256 18.2975 3.94256 21.95 4.35506 25.4625" stroke="#616161" stroke-width="6" stroke-miterlimit="10"/>
<path d="M29.2669 25.6979C29.5523 24.2273 28.9705 22.8773 27.9675 22.6827C26.9645 22.488 25.92 23.5224 25.6347 24.9931C25.3493 26.4637 25.931 27.8137 26.934 28.0083C27.9371 28.2029 28.9815 27.1685 29.2669 25.6979Z" fill="#616161"/>
<path d="M28.1475 15.01C28.3075 18.2975 28.0575 21.95 27.645 25.4625" stroke="#616161" stroke-width="6" stroke-miterlimit="10"/>
<path d="M28.4826 16.6525C27.1901 16.5925 26.1176 15.6225 25.9501 14.34C25.7626 12.8875 25.2801 11.21 24.0701 9.6C22.1676 7.0725 19.3826 5.735 16.0126 5.735C13.6501 5.735 10.3301 6.405 7.92758 9.6C6.70258 11.23 6.22508 12.9425 6.04258 14.4175C5.89008 15.64 4.90008 16.5875 3.66758 16.645L3.51758 16.6525C2.65258 16.6925 1.93758 15.9775 1.98758 15.115C2.10758 13.0075 2.63758 9.265 4.75008 6.455C7.39508 2.935 11.3951 1 16.0126 1C20.6126 1 24.6026 2.935 27.2476 6.45C29.3626 9.2625 29.8901 13.0075 30.0126 15.1125C30.0626 15.9775 29.3476 16.6925 28.4826 16.6525Z" fill="#616161"/>
<path d="M9.68239 30.8224C7.25239 31.1599 4.46489 29.3674 3.90239 25.2199C3.34239 21.0899 5.30489 18.5799 7.29489 18.1949L9.68239 30.8224Z" fill="#424242"/>
<path d="M9.82243 17.34L7.70743 17.7025C7.28931 17.7831 6.90453 17.986 6.60187 18.2855C6.29922 18.5851 6.09233 18.9677 6.00743 19.385C5.77243 20.5375 5.62243 22.38 6.10743 24.8925C6.59493 27.4025 7.42243 29.055 8.07493 30.0375C8.55493 30.7625 9.42493 31.1275 10.2799 30.96L12.3949 30.5975C13.4174 30.4 13.6699 27.27 12.9574 23.61C12.2474 19.95 10.8449 17.1425 9.82243 17.34Z" fill="#757575"/>
<path opacity="0.5" d="M12.602 30.0343C13.4546 29.8689 13.6139 26.9933 12.9579 23.6115C12.3019 20.2296 11.0789 17.6222 10.2263 17.7876C9.37377 17.953 9.21442 20.8286 9.87044 24.2104C10.5265 27.5922 11.7494 30.1997 12.602 30.0343Z" fill="#424242"/>
<path d="M12.4626 23.7075C12.9076 25.9975 13.0051 27.905 12.6826 27.9675C12.3601 28.03 11.7351 26.225 11.2926 23.935C10.8476 21.645 10.7501 19.7375 11.0726 19.675C11.3951 19.6125 12.0176 21.4175 12.4626 23.7075Z" fill="url(#paint0_linear_10_175)"/>
<path d="M22.3174 30.8224C24.7474 31.1599 27.5349 29.3674 28.0974 25.2199C28.6574 21.0899 26.6949 18.5799 24.7049 18.1949L22.3174 30.8224Z" fill="#424242"/>
<path d="M22.1774 17.34L24.2924 17.7025C24.7105 17.7831 25.0953 17.986 25.398 18.2855C25.7006 18.5851 25.9075 18.9677 25.9924 19.385C26.2274 20.5375 26.3774 22.38 25.8924 24.8925C25.4049 27.4025 24.5774 29.055 23.9249 30.0375C23.69 30.3923 23.3551 30.6694 22.9625 30.8336C22.57 30.9979 22.1375 31.0419 21.7199 30.96L19.6049 30.5975C18.5824 30.4 18.3299 27.27 19.0424 23.61C19.7524 19.95 21.1549 17.1425 22.1774 17.34Z" fill="#757575"/>
<path opacity="0.5" d="M22.1284 24.2086C22.7847 20.8269 22.6255 17.9512 21.773 17.7858C20.9204 17.6204 19.6973 20.2277 19.041 23.6095C18.3848 26.9913 18.5439 29.8669 19.3965 30.0324C20.2491 30.1978 21.4722 27.5904 22.1284 24.2086Z" fill="#424242"/>
<path d="M19.5375 23.7075C19.0925 25.9975 18.995 27.905 19.3175 27.9675C19.64 28.03 20.265 26.225 20.7075 23.935C21.1525 21.645 21.25 19.7375 20.9275 19.675C20.605 19.6125 19.9825 21.4175 19.5375 23.7075Z" fill="url(#paint1_linear_10_175)"/>
<path d="M29.7724 15.5249C29.0649 16.0049 28.1924 15.4649 27.9249 14.7349C27.6149 12.9149 27.0024 10.8024 25.8024 9.05995C23.5549 5.61245 19.7774 3.88495 15.9999 3.88245C12.2224 3.88495 8.44493 5.61245 6.19743 9.05995C4.99743 10.8024 4.38743 12.9174 4.07493 14.7349C3.80743 15.4649 2.93493 16.0049 2.22743 15.5249C2.16993 15.4849 2.08243 15.3849 1.99243 15.3299C2.06243 16.0924 2.72743 16.6849 3.51743 16.6499L3.73493 16.6399C5.27993 16.6524 5.89243 15.6699 6.03493 14.4824C6.21243 12.9949 6.68493 11.2524 7.92993 9.59995C10.3274 6.41245 13.6374 5.73745 15.9999 5.73495C18.3624 5.73745 21.6724 6.41245 24.0699 9.59995C25.2949 11.2299 25.7724 12.9424 25.9549 14.4174C26.1099 15.6549 26.7099 16.6524 28.3974 16.6474L28.4799 16.6524C29.2699 16.6899 29.9349 16.0949 30.0049 15.3324C29.9174 15.3849 29.8299 15.4849 29.7724 15.5249Z" fill="#424242"/>
<path d="M3.66256 10.4025C3.43006 10.2375 3.24756 10.055 3.58006 8.80001C3.98256 7.28751 5.85006 4.36001 9.61256 2.42001C10.3101 2.06001 12.0051 1.52251 12.5226 2.45501C13.0126 3.34001 10.6451 3.98501 9.81006 4.43251C7.62506 5.60751 6.04756 7.26501 5.20006 8.57501C4.93006 8.99251 4.21756 10.7925 3.66256 10.4025Z" fill="#757575"/>
<defs>
<linearGradient id="paint0_linear_10_175" x1="11.3676" y1="23.9363" x2="12.0867" y2="23.7968" gradientUnits="userSpaceOnUse">
<stop offset="0.202" stop-color="#212121"/>
<stop offset="1" stop-color="#212121" stop-opacity="0"/>
</linearGradient>
<linearGradient id="paint1_linear_10_175" x1="20.6408" y1="23.9225" x2="19.9217" y2="23.7829" gradientUnits="userSpaceOnUse">
<stop offset="0.202" stop-color="#212121"/>
<stop offset="1" stop-color="#212121" stop-opacity="0"/>
</linearGradient>
</defs>
</svg>
