<svg width="34" height="35" viewBox="0 0 34 35" fill="none" xmlns="http://www.w3.org/2000/svg">
<path d="M16.7994 0.54248C8.40139 0.54248 0.611816 6.70666 0.611816 17.7498C0.611816 28.873 8.39023 34.9879 16.7994 34.9879C25.2086 34.9879 32.987 29.0241 32.987 17.7498C32.9507 6.58029 25.1723 0.54248 16.7994 0.54248Z" fill="url(#paint0_radial_10_397)"/>
<path d="M26.8328 25.0574C29.8031 25.0574 32.211 23.0193 32.211 20.5051C32.211 17.991 29.8031 15.9529 26.8328 15.9529C23.8625 15.9529 21.4546 17.991 21.4546 20.5051C21.4546 23.0193 23.8625 25.0574 26.8328 25.0574Z" fill="url(#paint1_radial_10_397)"/>
<path d="M7.22633 25.0574C10.1966 25.0574 12.6045 23.0193 12.6045 20.5051C12.6045 17.991 10.1966 15.9529 7.22633 15.9529C4.25604 15.9529 1.84814 17.991 1.84814 20.5051C1.84814 23.0193 4.25604 25.0574 7.22633 25.0574Z" fill="url(#paint2_radial_10_397)"/>
<path d="M16.9332 23.5224C19.1867 23.5224 21.0136 21.505 21.0136 19.0164C21.0136 16.5278 19.1867 14.5104 16.9332 14.5104C14.6796 14.5104 12.8528 16.5278 12.8528 19.0164C12.8528 21.505 14.6796 23.5224 16.9332 23.5224Z" fill="url(#paint3_radial_10_397)"/>
<path d="M9.85259 3.74619e-05C8.81714 -0.00612672 7.9045 0.748985 7.61982 1.84929C5.8336 0.382216 3.31057 0.792134 1.98208 2.76159C1.46296 3.53211 1.18386 4.46907 1.18386 5.43376C1.18386 6.03785 1.29271 6.63269 1.50761 7.18747C0.14004 7.97032 -0.395825 9.8319 0.313079 11.3421C1.02198 12.8524 2.70773 13.4441 4.0753 12.6613C4.99911 12.1311 5.58242 11.0771 5.58242 9.92745C5.58242 9.90895 5.58242 9.89046 5.58242 9.87197C7.66168 9.66547 9.25532 7.73916 9.25532 5.43376C9.25532 5.29507 9.25532 5.15637 9.23579 5.02076C9.43674 5.08549 9.64606 5.11631 9.85538 5.11631C11.1336 5.11631 12.1719 3.96977 12.1719 2.55817C12.1719 1.14657 11.1336 3.74619e-05 9.85538 3.74619e-05H9.85259Z" fill="url(#paint4_linear_10_397)"/>
<path d="M30.1876 7.52954C31.6752 10.1801 32.4511 13.3362 32.4511 16.8467C32.4511 22.0554 30.7486 26.4628 27.539 29.6065C24.5806 32.4729 20.5616 34.0756 16.2635 34.0756C11.223 34.0756 5.93695 31.8102 2.81665 27.0053C5.81973 32.4482 11.4686 35.0002 16.8217 35.0002C21.1198 35.0002 25.1388 33.3975 28.0972 30.5312C31.3068 27.3874 33.0093 22.9801 33.0093 17.7713C33.0093 13.8447 32.0408 10.3558 30.1876 7.52954Z" fill="#ADBCC3"/>
<path d="M32.4816 7.18729C33.358 4.92504 32.4063 2.30526 30.3549 1.33748C29.8525 1.10016 29.3139 0.979962 28.7696 0.979962C27.9017 0.979962 27.0588 1.28817 26.3638 1.86452C26.015 0.50532 24.7367 -0.280612 23.5059 0.101567C22.2751 0.483746 21.5634 1.89842 21.9095 3.25763C22.1913 4.35485 23.0956 5.11304 24.1283 5.11613C24.3376 5.11613 24.5441 5.08222 24.7451 5.02058C24.7367 5.15928 24.7367 5.29489 24.7451 5.43358C24.7451 7.73898 26.3387 9.66529 28.418 9.87179V9.92727C28.4208 11.6286 29.6711 13.0094 31.2117 13.0063C32.7524 13.0032 34.0027 11.6224 33.9999 9.9211C33.9999 8.77148 33.4166 7.71741 32.4928 7.18729H32.4816Z" fill="url(#paint5_linear_10_397)"/>
<path d="M11.3514 11.0031C10.182 11.0031 9.11865 12.0941 9.11865 13.9064C9.11865 15.7186 10.182 16.8066 11.3514 16.8066C12.5236 16.8066 13.5842 15.7156 13.5842 13.9064C13.5842 12.0972 12.5348 11.0031 11.3514 11.0031Z" fill="#422B0D"/>
<path d="M11.2536 12.2144C10.8572 12.0048 10.38 12.1898 10.1874 12.6274C10.0395 12.9695 10.1065 13.3795 10.3549 13.6445C10.7512 13.8541 11.2284 13.6692 11.421 13.2315C11.5689 12.8894 11.5019 12.4795 11.2536 12.2144Z" fill="#896024"/>
<path d="M22.8976 11.0031C21.7282 11.0031 20.6648 12.0941 20.6648 13.9064C20.6648 15.7186 21.7282 16.8066 22.8976 16.8066C24.067 16.8066 25.1303 15.7156 25.1303 13.9064C25.1303 12.0972 24.067 11.0031 22.8976 11.0031Z" fill="#422B0D"/>
<path d="M22.7943 12.2144C22.398 12.0048 21.9208 12.1898 21.7282 12.6274C21.5803 12.9695 21.6472 13.3795 21.8956 13.6445C22.2919 13.8541 22.7692 13.6692 22.9618 13.2315C23.1097 12.8894 23.0427 12.4795 22.7943 12.2144Z" fill="#896024"/>
<path d="M17.003 29.6497C13.4473 29.6497 10.9131 27.6125 10.1512 26.3303C9.8637 25.9204 9.8023 25.3656 9.99487 24.891C10.1428 24.592 10.4303 24.4071 10.7401 24.4102C10.8545 24.4102 10.9689 24.4318 11.0778 24.4718C13.0035 25.1129 15.0047 25.4304 17.0169 25.418C19.0181 25.4304 21.0108 25.1098 22.9282 24.4718C23.037 24.4318 23.1515 24.4133 23.2659 24.4102C23.5757 24.4071 23.8632 24.592 24.0111 24.891C24.2037 25.3656 24.1423 25.9204 23.8548 26.3303C23.0929 27.6125 20.5615 29.6497 17.003 29.6497Z" fill="#422B0D" stroke="url(#paint6_linear_10_397)" stroke-width="2.95879" stroke-miterlimit="10"/>
<defs>
<radialGradient id="paint0_radial_10_397" cx="0" cy="0" r="1" gradientUnits="userSpaceOnUse" gradientTransform="translate(16.7994 17.7652) scale(15.8945 17.5525)">
<stop offset="0.5" stop-color="white"/>
<stop offset="0.76" stop-color="#FDFDFD"/>
<stop offset="0.87" stop-color="#F6F6F6"/>
<stop offset="0.96" stop-color="#E9E9E9"/>
<stop offset="1" stop-color="#E0E0E0"/>
</radialGradient>
<radialGradient id="paint1_radial_10_397" cx="0" cy="0" r="1" gradientUnits="userSpaceOnUse" gradientTransform="translate(26.8323 20.4904) scale(5.85265 4.71809)">
<stop stop-color="#ED7770"/>
<stop offset="0.08" stop-color="#ED7770" stop-opacity="0.97"/>
<stop offset="0.21" stop-color="#ED7770" stop-opacity="0.88"/>
<stop offset="0.35" stop-color="#ED7770" stop-opacity="0.74"/>
<stop offset="0.52" stop-color="#ED7770" stop-opacity="0.55"/>
<stop offset="0.71" stop-color="#ED7770" stop-opacity="0.29"/>
<stop offset="0.9" stop-color="#ED7770" stop-opacity="0"/>
</radialGradient>
<radialGradient id="paint2_radial_10_397" cx="0" cy="0" r="1" gradientUnits="userSpaceOnUse" gradientTransform="translate(7.22633 20.4904) scale(5.85265 4.71809)">
<stop stop-color="#ED7770"/>
<stop offset="0.08" stop-color="#ED7770" stop-opacity="0.97"/>
<stop offset="0.21" stop-color="#ED7770" stop-opacity="0.88"/>
<stop offset="0.35" stop-color="#ED7770" stop-opacity="0.74"/>
<stop offset="0.52" stop-color="#ED7770" stop-opacity="0.55"/>
<stop offset="0.71" stop-color="#ED7770" stop-opacity="0.29"/>
<stop offset="0.9" stop-color="#ED7770" stop-opacity="0"/>
</radialGradient>
<radialGradient id="paint3_radial_10_397" cx="0" cy="0" r="1" gradientUnits="userSpaceOnUse" gradientTransform="translate(17.4746 17.2257) scale(5.58192 6.16418)">
<stop stop-color="#FF4900"/>
<stop offset="0.38" stop-color="#FE4700"/>
<stop offset="0.59" stop-color="#FA3F00"/>
<stop offset="0.76" stop-color="#F43100"/>
<stop offset="0.9" stop-color="#EB1E00"/>
<stop offset="1" stop-color="#E30C00"/>
</radialGradient>
<linearGradient id="paint4_linear_10_397" x1="6.08591" y1="-0.46844" x2="6.08591" y2="11.8907" gradientUnits="userSpaceOnUse">
<stop stop-color="#FF4900"/>
<stop offset="1" stop-color="#E30C00"/>
</linearGradient>
<linearGradient id="paint5_linear_10_397" x1="27.9131" y1="-0.46862" x2="27.9131" y2="11.8906" gradientUnits="userSpaceOnUse">
<stop stop-color="#FF4900"/>
<stop offset="1" stop-color="#E30C00"/>
</linearGradient>
<linearGradient id="paint6_linear_10_397" x1="9.32563" y1="27.0299" x2="24.6803" y2="27.0299" gradientUnits="userSpaceOnUse">
<stop stop-color="#FF4900"/>
<stop offset="1" stop-color="#E30C00"/>
</linearGradient>
</defs>
</svg>
