<svg width="31" height="32" viewBox="0 0 31 32" fill="none" xmlns="http://www.w3.org/2000/svg">
<path d="M15.5 0C6.94917 0 0 7.17333 0 16C0 24.8267 6.94917 32 15.5 32C24.0508 32 31 24.8267 31 16C31 7.17333 24.0508 0 15.5 0ZM15.5 20C13.3558 20 11.625 18.2133 11.625 16C11.625 13.7867 13.3558 12 15.5 12C17.6442 12 19.375 13.7867 19.375 16C19.4008 18.2133 17.67 20 15.5 20Z" fill="url(#paint0_linear_10_207)"/>
<path opacity="0.7" d="M25.2134 26.0267C26.8667 24.32 28.0034 22.2933 28.6492 20.1333L19.2976 15.1733C19.5559 16.4533 19.2201 17.84 18.2384 18.8267C17.2826 19.8133 15.9392 20.1867 14.6992 19.92L19.4784 29.5467C21.5709 28.9067 23.5601 27.7333 25.2134 26.0267Z" fill="white"/>
<path opacity="0.7" d="M5.81254 6.00004C4.15921 7.7067 3.02254 9.73337 2.37671 11.8934L11.7025 16.8267C11.4442 15.5467 11.78 14.16 12.7617 13.1734C13.7175 12.1867 15.0609 11.8134 16.3009 12.08L11.5217 2.45337C9.42921 3.09337 7.46588 4.29337 5.81254 6.00004Z" fill="white"/>
<path d="M15.5 9.62671C12.0642 9.62671 9.30005 12.48 9.30005 16.0267C9.30005 19.5734 12.0642 22.4267 15.5 22.4267C18.9359 22.4267 21.7001 19.5734 21.7001 16.0267C21.7001 12.48 18.9359 9.62671 15.5 9.62671ZM15.5 20C13.3559 20 11.625 18.2134 11.625 16C11.625 13.7867 13.3559 12 15.5 12C17.6442 12 19.3751 13.7867 19.3751 16C19.4009 18.2134 17.67 20 15.5 20Z" fill="#BDBDBD"/>
<path opacity="0.2" d="M15.5 0.8C23.6117 0.8 30.225 7.62667 30.225 16C30.225 24.3733 23.6117 31.2 15.5 31.2C7.38833 31.2 0.775 24.3733 0.775 16C0.775 7.62667 7.38833 0.8 15.5 0.8ZM15.5 20.8C18.0575 20.8 20.15 18.64 20.15 16C20.15 13.36 18.0575 11.2 15.5 11.2C12.9425 11.2 10.85 13.36 10.85 16C10.85 18.64 12.9425 20.8 15.5 20.8ZM15.5 0C6.94917 0 0 7.17333 0 16C0 24.8267 6.94917 32 15.5 32C24.0508 32 31 24.8267 31 16C31 7.17333 24.0508 0 15.5 0ZM15.5 20C13.3558 20 11.625 18.2133 11.625 16C11.625 13.7867 13.3558 12 15.5 12C17.6442 12 19.375 13.7867 19.375 16C19.4008 18.2133 17.67 20 15.5 20Z" fill="#424242"/>
<defs>
<linearGradient id="paint0_linear_10_207" x1="15.5" y1="0" x2="15.5" y2="32" gradientUnits="userSpaceOnUse">
<stop stop-color="#F5F5F5"/>
<stop offset="1" stop-color="#E0E0E0"/>
</linearGradient>
</defs>
</svg>
