<svg width="34" height="27" viewBox="0 0 34 27" fill="none" xmlns="http://www.w3.org/2000/svg">
<path d="M13.6208 6.94385H33.9999V26.1174H13.6208V6.94385Z" fill="#F06292"/>
<path d="M19.2991 6.94385H22.7008V26.1174H19.2991V6.94385Z" fill="#F48FB1"/>
<path d="M24.957 6.94385H28.3587V26.1174H24.957V6.94385Z" fill="#F48FB1"/>
<path d="M30.5955 6.94385H33.9972V26.1174H30.5955V6.94385Z" fill="#F48FB1"/>
<path d="M13.6208 6.94385H17.0226V26.1174H13.6208V6.94385Z" fill="#F48FB1"/>
<path opacity="0.2" d="M33.1466 7.59749V25.4638H14.4713V7.59749H33.1466ZM33.997 6.94385H13.6208V26.1174H33.9999V6.94385H33.997Z" fill="#424242"/>
<path d="M30.3461 9.95716C30.9723 9.95716 31.48 9.56697 31.48 9.08564C31.48 8.60431 30.9723 8.21411 30.3461 8.21411C29.7198 8.21411 29.2122 8.60431 29.2122 9.08564C29.2122 9.56697 29.7198 9.95716 30.3461 9.95716Z" fill="#AD1457"/>
<path d="M17.306 9.95716C17.9323 9.95716 18.4399 9.56697 18.4399 9.08564C18.4399 8.60431 17.9323 8.21411 17.306 8.21411C16.6798 8.21411 16.1721 8.60431 16.1721 9.08564C16.1721 9.56697 16.6798 9.95716 17.306 9.95716Z" fill="#AD1457"/>
<path d="M31.1965 5.66274C31.1965 2.53396 27.8968 0 23.8289 0C19.7582 0 16.4614 2.53614 16.4614 5.66274V8.92225C16.4614 9.28393 16.8413 9.57589 17.3119 9.57589C17.7824 9.57589 18.1623 9.28393 18.1623 8.92225V8.2686H18.1594V5.7695C18.1594 3.40985 20.5406 1.3988 23.6078 1.30947C26.8309 1.21578 29.4928 3.20504 29.4928 5.66274V8.2686H29.4729V8.91353C29.4729 9.27957 29.8585 9.57589 30.3347 9.57589C30.8109 9.57589 31.1965 9.27957 31.1965 8.91353V5.66274Z" fill="url(#paint0_linear_10_383)"/>
<path opacity="0.2" d="M23.8289 0.217882C27.7352 0.217882 30.913 2.66033 30.913 5.66274V8.91353C30.913 9.15756 30.655 9.35801 30.3347 9.35801C30.0144 9.35801 29.7564 9.15974 29.7564 8.91353V8.34922C29.7706 8.32307 29.7762 8.29693 29.7762 8.2686V5.66274C29.7762 3.13967 27.1059 1.08941 23.8261 1.08941C23.7496 1.08941 23.673 1.09159 23.5965 1.09377C20.4443 1.18528 17.8788 3.28347 17.8788 5.7695V8.2686C17.8788 8.27732 17.8788 8.28603 17.8816 8.29475V8.92007C17.8816 9.15974 17.6265 9.35583 17.3147 9.35583C17.0029 9.35583 16.7477 9.15974 16.7477 8.92007V5.66274C16.7449 2.66033 19.9227 0.217882 23.8289 0.217882ZM23.8289 0C19.7582 0 16.4614 2.53614 16.4614 5.66274V8.92225C16.4614 9.28393 16.8413 9.57589 17.3119 9.57589C17.7824 9.57589 18.1623 9.28393 18.1623 8.92225V8.2686H18.1594V5.7695C18.1594 3.40985 20.5406 1.3988 23.6078 1.30947C23.6815 1.30729 23.7552 1.30729 23.8261 1.30729C26.9528 1.30729 29.4928 3.26169 29.4928 5.66274V8.2686H29.4729V8.91353C29.4729 9.27957 29.8585 9.57589 30.3347 9.57589C30.8109 9.57589 31.1965 9.27957 31.1965 8.91353V5.66274C31.1965 2.53614 27.8996 0 23.8289 0Z" fill="#424242"/>
<path opacity="0.4" d="M28.4893 26.1175H20.2686V14.7332L28.4893 26.1175Z" fill="url(#paint1_linear_10_383)"/>
<path d="M0 14.8115H20.4102V26.1414H0V14.8115Z" fill="#C5E1A5"/>
<path d="M20.4102 16.5756V19.1901H-4.95911e-05V16.5756H20.4102Z" fill="#AED581"/>
<path d="M20.4102 21.8047V24.4193H-5.14984e-05V21.8047H20.4102Z" fill="#AED581"/>
<path d="M15.8888 17.583C16.515 17.583 17.0227 17.1928 17.0227 16.7115C17.0227 16.2302 16.515 15.84 15.8888 15.84C15.2625 15.84 14.7549 16.2302 14.7549 16.7115C14.7549 17.1928 15.2625 17.583 15.8888 17.583Z" fill="#7CB342"/>
<path d="M4.54967 17.583C5.17591 17.583 5.68357 17.1928 5.68357 16.7115C5.68357 16.2302 5.17591 15.84 4.54967 15.84C3.92344 15.84 3.41577 16.2302 3.41577 16.7115C3.41577 17.1928 3.92344 17.583 4.54967 17.583Z" fill="#7CB342"/>
<path d="M3.67959 17.6441C3.67959 20.4155 6.57954 22.6619 10.1542 22.6619C13.7288 22.6619 16.6287 20.4155 16.6287 17.6441V16.6876C16.6287 16.3673 16.2942 16.108 15.8804 16.108C15.4665 16.108 15.132 16.3673 15.132 16.6876V17.265H15.1348V17.5482C15.1348 19.6377 13.0428 21.42 10.3469 21.5006C7.51218 21.5834 5.17351 19.8207 5.17351 17.6441V17.265H5.19051V16.6919C5.19051 16.3673 4.85318 16.1058 4.43364 16.1058C4.01693 16.1058 3.67676 16.3673 3.67676 16.6919V17.6441H3.67959Z" fill="#F06292"/>
<path opacity="0.2" d="M15.8804 16.3259C16.1355 16.3259 16.3453 16.4893 16.3453 16.6876V17.6441C16.3453 20.2913 13.5672 22.444 10.1542 22.444C6.74112 22.444 3.96307 20.2913 3.96307 17.6441V16.6941C3.96307 16.4915 4.17567 16.3259 4.43647 16.3259C4.69727 16.3259 4.90987 16.4915 4.90987 16.6941V17.1887C4.89854 17.2127 4.89287 17.2388 4.89287 17.265V17.6441C4.89287 19.8926 7.25421 21.7206 10.157 21.7206C10.225 21.7206 10.2931 21.7206 10.3611 21.7185C13.1505 21.6357 15.4211 19.7662 15.4211 17.5504V17.2671C15.4211 17.2584 15.4211 17.2497 15.4183 17.241V16.6876C15.4155 16.4893 15.6224 16.3259 15.8804 16.3259ZM15.8804 16.108C15.4665 16.108 15.132 16.3673 15.132 16.6876V17.265H15.1348V17.5482C15.1348 19.6377 13.0428 21.42 10.3469 21.5006C10.2817 21.5028 10.2194 21.5028 10.1542 21.5028C7.40729 21.5028 5.17351 19.7706 5.17351 17.6441V17.265H5.19051V16.6919C5.19051 16.3673 4.85318 16.1058 4.43364 16.1058C4.01693 16.1058 3.67676 16.3673 3.67676 16.6919V17.6419C3.67676 20.4134 6.57671 22.6597 10.1513 22.6597C13.726 22.6597 16.6259 20.4134 16.6259 17.6419V16.6854C16.6287 16.3673 16.2942 16.108 15.8804 16.108Z" fill="#424242"/>
<path opacity="0.2" d="M19.5598 15.4652V25.4877H0.850425V15.4652H19.5598ZM20.4102 14.8115H0V26.1414H20.4102V14.8115Z" fill="#424242"/>
<defs>
<linearGradient id="paint0_linear_10_383" x1="23.8292" y1="0.407438" x2="23.8292" y2="9.60356" gradientUnits="userSpaceOnUse">
<stop offset="0.4739" stop-color="#AED581"/>
<stop offset="1" stop-color="#8BC34A"/>
</linearGradient>
<linearGradient id="paint1_linear_10_383" x1="19.7478" y1="20.4253" x2="27.4972" y2="20.4253" gradientUnits="userSpaceOnUse">
<stop offset="0.3169" stop-color="#E91E63"/>
<stop offset="0.8143" stop-color="#F06292" stop-opacity="0.3"/>
</linearGradient>
</defs>
</svg>
