<svg width="33" height="37" viewBox="0 0 33 37" fill="none" xmlns="http://www.w3.org/2000/svg">
<path d="M3.33726 28.1404C3.33726 28.1404 3.78001 36.5822 17.3031 36.4571C30.8261 36.332 31.0229 28.5783 31.2197 27.2646C31.4165 25.9509 26.1554 23.3235 16.4176 23.8865C6.67976 24.4496 2.80158 24.6337 3.33726 28.1404Z" fill="url(#paint0_linear_10_659)"/>
<path d="M2.30451 21.1479C2.30451 21.1479 1.5174 22.3991 1.61579 23.254C1.71418 24.109 1.32062 23.6502 1.61579 24.8353C1.91095 26.0204 1.66498 26.6808 2.79646 27.2056C3.92793 27.7303 3.38679 28.1265 4.61666 28.5888C5.84652 29.051 6.58444 29.2456 7.46995 29.8399C8.35545 30.4342 8.69981 30.7609 9.7329 30.6949C10.766 30.6288 11.9959 30.7609 11.9959 30.7609L13.9144 31.1571C13.9144 31.1571 14.2096 31.2892 15.5871 31.4212C16.9645 31.5533 17.4565 30.959 18.1452 30.893C18.8339 30.8269 19.867 31.2231 20.4573 31.025C21.0477 30.8269 22.3759 30.1701 22.3759 30.1701C22.3759 30.1701 23.6058 29.051 24.2945 29.117C24.9832 29.1831 26.1147 28.8529 26.6558 28.4602C27.197 28.064 28.4269 27.9319 28.4269 27.9319C28.4269 27.9319 29.2632 27.4697 30.0503 26.9449C30.8374 26.4166 31.2309 26.4166 31.5753 26.0899C31.9197 25.7598 32.07 25.725 32.4116 24.9048C32.6986 24.2097 32.6576 23.2575 32.4116 22.2705C32.1656 21.2835 28.2793 18.7151 28.2793 18.7151L5.21519 17.3319L2.30451 21.1479Z" fill="url(#paint1_radial_10_659)"/>
<path d="M3.5889 19.1808C3.5889 19.1808 1.74957 20.3381 1.99554 20.9637C2.24151 21.5892 2.39183 21.5128 2.39183 21.5128C2.39183 21.5128 4.8625 22.1731 9.43486 23.6536C14.0072 25.1341 16.2866 26.1003 17.4317 27.1777C18.8584 28.5227 19.2219 29.2282 20.1566 29.0023C21.0913 28.7764 21.78 27.1812 23.6002 25.4747C25.4204 23.7683 26.1173 23.532 28.5907 22.8126C30.9274 22.1314 32.1081 21.9854 32.2065 21.1896C32.3049 20.3937 31.9605 18.5343 31.5178 18.2494C31.075 17.9644 9.24082 18.0791 9.24082 18.0791C4.66572 17.8497 3.5889 19.1808 3.5889 19.1808Z" fill="url(#paint2_linear_10_659)"/>
<path d="M5.43362 16.3901L5.17944 18.3085L5.55387 20.5606C5.61673 20.9428 5.79984 21.2765 6.05948 21.4781C7.00511 22.2183 9.69168 23.7788 15.3655 23.5355C22.7693 23.2192 25.3957 21.8569 27.7051 20.571C29.5472 19.5457 29.8724 16.1642 29.9298 14.8365C22.6654 20.6544 13.0342 20.9185 5.43362 16.3901Z" fill="url(#paint3_linear_10_659)"/>
<path d="M28.7409 15.7296C28.7463 15.4203 28.7409 15.2327 28.7409 15.2327L6.33544 15.1006L6.01294 17.94C13.1598 21.8325 22.1023 21.2833 28.7409 15.7296Z" fill="#972F00"/>
<path d="M2.00087 14.3153C1.71664 14.6698 1.26295 14.4196 0.888526 14.2667C0.5141 14.1138 0.0522171 14.3536 0.104145 14.8645C0.139674 15.2051 0.325521 15.2954 0.563295 15.4379C0.801069 15.5769 1.03611 15.6916 0.872127 15.9627C0.702679 16.2442 0.492236 15.994 0.205267 16.2998C-0.34134 16.8837 0.336453 17.9437 0.699946 17.9298C1.25475 17.9089 1.37501 17.5162 1.67837 17.2555L1.68657 17.3112C1.7385 17.6517 2.05007 17.8116 2.27417 17.6135L2.29331 17.5961C2.47915 17.4328 2.74972 17.471 2.86724 17.7178C3.01483 18.0306 2.82078 18.4163 2.79072 18.7813C2.74972 19.3026 3.14055 19.8065 3.5341 19.7405C3.92766 19.6744 4.2119 19.0628 4.07524 18.5693C4.07524 19.1357 4.43327 19.6605 4.85963 19.7196C5.28598 19.7787 5.7178 19.3616 5.80525 18.8056C5.83259 19.0523 5.91184 19.2852 6.02663 19.4833C6.20428 19.7891 6.58417 19.7926 6.76182 19.4868C6.85747 19.3199 7.01052 19.2122 7.16357 19.2643C6.88207 19.5215 7.05425 20.1714 7.37675 20.3278C7.69925 20.4842 8.05181 20.3174 8.37157 20.1506C8.96191 19.8413 9.55498 19.5319 10.1453 19.2226C10.5525 19.0106 10.9625 18.7952 11.3861 18.6527C12.4165 18.3051 13.0642 18.6735 13.8814 19.2748C14.2531 19.5493 14.7122 19.5424 15.0784 19.2574C15.2151 19.1496 15.3244 19.0593 15.3435 19.0245C15.841 18.8751 15.8765 19.6293 15.6961 20.0115C15.5759 20.2653 15.5267 20.5746 15.625 20.8456C15.841 21.4399 16.4832 21.2071 16.7866 20.731C17.0818 20.2722 17.3059 20.0254 17.7486 19.883C18.2214 19.73 18.6669 19.9003 19.096 19.7127C19.4404 19.5632 19.6809 19.1948 20.0444 19.1879C20.6675 19.174 20.7003 20.2618 21.3535 20.2514C21.9493 20.2409 22.0367 19.6014 22.4795 19.4103C22.8703 19.2435 23.0507 19.5076 23.0726 20.0463C23.0944 20.585 23.1874 20.9638 23.5536 21.2071C24.2642 21.6797 25.0731 19.8134 25.7099 20.4425C26.109 20.8352 25.9067 21.8535 26.3495 22.1559C26.6146 22.3366 26.9398 22.1142 27.153 21.8396C27.3662 21.5651 27.7269 20.6754 28.0084 20.5398C28.6206 20.2409 29.2383 21.3843 29.8013 20.9534C30.0691 20.7483 30.1211 20.5711 30.2386 20.1923C30.3534 19.8134 30.5256 19.4068 30.8235 19.306C30.9656 19.2574 31.1186 19.3408 31.2197 19.4763C31.4521 19.7822 31.8319 19.8517 32.108 19.6084C32.8268 18.9759 33.1575 17.6865 32.9279 16.2199C32.6382 14.371 30.9054 13.8601 31.053 12.7584C30.0992 13.3978 29.8068 13.9643 28.7983 13.4986C28.3145 13.2762 27.8472 12.9217 27.3334 12.9182C26.4615 12.9148 25.7837 13.8983 24.9611 14.2771C24.1876 14.6351 23.3267 14.43 22.5615 14.0373C21.799 13.6446 21.0966 13.0712 20.3423 12.6506C18.7762 11.7783 16.9916 11.6045 15.3463 12.1606C14.1137 12.5776 12.8947 13.3978 11.6376 13.1407C10.7165 12.953 9.92121 12.2058 9.04937 11.7748C7.15811 10.8469 5.34884 13.1059 3.48764 13.2345C2.86724 13.2762 2.26871 12.0772 1.64558 12.741C1.35587 13.0503 1.39687 13.523 1.50073 13.8705C1.53352 13.9609 1.88882 14.4544 2.00087 14.3153Z" fill="url(#paint4_linear_10_659)"/>
<path d="M8.2075 1.98103C5.7751 2.95762 2.89722 5.98471 2.30688 9.56786C1.71655 13.151 2.76603 14.489 6.11127 15.6533C9.4565 16.8176 11.8151 16.821 16.2098 17.2381C20.6018 17.6551 25.9148 17.6551 28.5385 16.0704C31.1623 14.4856 33.0617 14.7358 30.8343 7.98307C28.6069 1.23035 20.8041 0.371918 16.9942 0.0626068C11.878 -0.354443 9.45377 1.48057 8.2075 1.98103Z" fill="url(#paint5_linear_10_659)"/>
<path d="M8.92915 4.11835C9.0412 4.48327 8.89088 4.69875 8.7515 4.76478C8.61758 4.83081 8.39074 4.80996 8.27595 4.43809C8.14476 4.00367 8.16936 3.44065 8.32515 3.36419C8.48093 3.28773 8.79796 3.6874 8.92915 4.11835Z" fill="#FADC8B"/>
<path d="M13.4413 6.09931C13.1653 6.27308 12.9849 6.09931 12.9193 5.92901C12.8564 5.76567 12.8537 5.47373 13.1352 5.29649C13.4632 5.09144 13.9059 5.07406 13.9797 5.26521C14.0535 5.45983 13.7693 5.89426 13.4413 6.09931Z" fill="#FADC8B"/>
<path d="M10.9269 7.08297C10.8941 7.47221 10.6864 7.57647 10.536 7.55562C10.3939 7.53824 10.1971 7.38533 10.2299 6.98913C10.2682 6.5269 10.4923 6.04034 10.659 6.06119C10.823 6.08205 10.9624 6.62074 10.9269 7.08297Z" fill="#FADC8B"/>
<path d="M14.6496 3.32251C14.5075 3.67006 14.2834 3.66658 14.1495 3.5797C14.0237 3.49629 13.8843 3.26343 14.0292 2.90894C14.1986 2.49537 14.5485 2.14783 14.6961 2.24514C14.8436 2.34592 14.819 2.90894 14.6496 3.32251Z" fill="#FADC8B"/>
<path d="M23.2857 3.65267C22.9932 3.53451 22.955 3.253 23.0014 3.0688C23.0452 2.89503 23.2009 2.68303 23.4988 2.8012C23.8459 2.94021 24.1766 3.31903 24.1274 3.52061C24.0755 3.72913 23.6355 3.79169 23.2857 3.65267Z" fill="#FADC8B"/>
<path d="M19.1096 2.66581C19.3145 2.95775 19.2326 3.22536 19.1205 3.35047C19.0139 3.47211 18.7925 3.55205 18.5848 3.25316C18.3416 2.90562 18.2104 2.36693 18.3361 2.22444C18.4591 2.08542 18.8663 2.31827 19.1096 2.66581Z" fill="#FADC8B"/>
<path d="M25.4446 5.65109C25.3107 5.30007 25.4446 5.07069 25.5785 4.98728C25.707 4.90735 25.9366 4.90387 26.0732 5.26184C26.2345 5.67889 26.2454 6.24538 26.0951 6.33574C25.9475 6.42958 25.6059 6.06814 25.4446 5.65109Z" fill="#FADC8B"/>
<path d="M23.8298 9.36626C23.5292 9.44272 23.387 9.21681 23.3597 9.03262C23.3324 8.85537 23.387 8.57039 23.6959 8.49393C24.0539 8.40357 24.4857 8.53216 24.5185 8.74068C24.5513 8.94573 24.1878 9.2759 23.8298 9.36626Z" fill="#FADC8B"/>
<path d="M20.5828 6.36005C20.8889 6.34615 21.0009 6.59638 21.0064 6.78405C21.0119 6.96477 20.9217 7.23238 20.6074 7.24976C20.2412 7.26713 19.8312 7.05513 19.8257 6.84313C19.8203 6.63113 20.2193 6.3809 20.5828 6.36005Z" fill="#FADC8B"/>
<path d="M17.2045 7.98307C17.1061 8.35146 16.882 8.39664 16.7399 8.33409C16.6033 8.275 16.4393 8.07343 16.5404 7.69461C16.6579 7.25323 16.9613 6.84313 17.1198 6.91264C17.2811 6.97868 17.322 7.54169 17.2045 7.98307Z" fill="#FADC8B"/>
<path opacity="0.2" d="M15.5294 1.08433C15.9858 1.08433 16.4587 1.10518 16.9397 1.14341C19.9487 1.39016 27.9429 2.04007 30.0446 8.40355C30.9027 11.0032 31.1569 12.6088 30.818 13.3143C30.6048 13.7592 30.6704 14.3361 30.9738 14.6836C31.0503 14.7705 31.1296 14.8609 31.2143 14.9512C31.6215 15.3996 32.0069 15.8201 32.0998 16.4248C32.2529 17.4049 32.0807 18.2841 31.6598 18.6873C31.6543 18.6908 31.6461 18.6977 31.6407 18.7012C31.3236 18.9514 31.1679 19.4345 31.2608 19.8933C31.3455 20.3138 31.3728 20.6683 31.3728 20.8733C31.2252 21.0679 31.1378 21.3251 31.1323 21.5997C31.1269 21.9264 31.2334 22.2357 31.4275 22.4477C31.5341 22.5624 31.5887 22.6388 31.6133 22.6771C31.7855 23.4139 31.8019 24.036 31.6516 24.3939C31.463 24.8492 31.4138 24.8944 31.2334 25.0577C31.1788 25.1064 31.1214 25.1585 31.0585 25.2211C30.9929 25.2836 30.8863 25.3323 30.6868 25.4226L30.5611 25.4782C30.2687 25.6103 30.0555 25.937 30.0063 26.3262C29.9571 26.7155 30.0774 27.1117 30.3233 27.355C30.3315 27.3654 30.3397 27.3723 30.3479 27.3793C30.2414 28.2725 30.0118 30.0936 28.4266 31.807C26.2839 34.1251 22.5397 35.3276 17.3004 35.3762H17.0107C13.455 35.3762 8.64491 34.7263 5.90641 31.6367C4.33764 29.8642 4.19553 28.13 4.19279 28.0709C4.19006 28.0257 4.18459 27.9805 4.17913 27.9354C4.15726 27.7859 4.14633 27.6469 4.14633 27.5218C4.1518 27.1395 3.99875 26.7815 3.74458 26.58C3.5642 26.4375 3.35102 26.3089 3.09411 26.1907C2.69509 26.0065 2.69509 26.0065 2.60763 25.4226C2.56937 25.1724 2.52291 24.8631 2.43545 24.5121C2.40266 24.3835 2.38626 24.2966 2.37533 24.2375C2.46552 23.9734 2.52838 23.6398 2.46552 23.108C2.46005 23.0003 2.55571 22.5798 2.88914 21.982C3.06405 21.6692 3.09138 21.2695 2.97659 20.9289C3.08865 20.8177 3.26083 20.6683 3.50953 20.4806C3.75004 20.2999 3.90583 19.9801 3.92769 19.6257C3.94682 19.3059 3.85116 18.9931 3.67352 18.7707C3.67898 18.7498 3.68172 18.729 3.68718 18.7081C3.76097 18.3815 3.89763 17.7698 3.61066 17.1581C3.38928 16.6889 2.99572 16.4074 2.55571 16.4074C2.45732 16.4074 2.35893 16.4213 2.26327 16.4491C2.19221 16.3657 2.10749 16.2962 2.01456 16.251C1.92711 16.2058 1.83692 16.178 1.74673 16.1711C1.80412 15.9348 1.79592 15.7228 1.77406 15.5768C2.17581 15.5316 2.44638 15.2953 2.61037 15.0937C2.93286 14.6906 2.952 14.0407 2.65956 13.6097C2.76342 13.5576 2.85907 13.4776 2.93833 13.3734C3.17337 13.0745 3.2499 12.6331 3.13784 12.2369C2.97113 11.6565 2.97659 10.8572 3.15151 9.79371C3.66258 6.68669 6.25897 3.90636 8.47546 3.01666C8.71597 2.91935 8.97834 2.78728 9.27897 2.63784C10.4952 2.01921 12.3482 1.08433 15.5294 1.08433ZM15.5294 0C11.4025 0 9.32817 1.52918 8.20762 1.97751C5.77522 2.9541 2.89734 5.98118 2.307 9.56433C2.09929 10.8259 2.09929 11.8025 2.32613 12.5984C2.23594 12.5567 2.14575 12.5289 2.05283 12.5289C1.91891 12.5289 1.78499 12.5845 1.64834 12.7304C1.35864 13.0397 1.39963 13.5124 1.50349 13.8599C1.52808 13.9468 1.80412 14.3361 1.94897 14.3361C1.9681 14.3361 1.98723 14.3291 2.0009 14.3117C1.89431 14.4473 1.76313 14.4959 1.62374 14.4959C1.3887 14.4959 1.1236 14.3639 0.888554 14.2666C0.812029 14.2353 0.732771 14.2214 0.656246 14.2214C0.350146 14.2214 0.0631776 14.4577 0.104173 14.8643C0.139703 15.2049 0.325549 15.2953 0.563323 15.4378C0.801097 15.5768 1.03614 15.6915 0.872156 15.9626C0.702708 16.2441 0.492264 15.9938 0.205295 16.2962C-0.335846 16.8731 0.328282 17.9227 0.694509 17.9227H0.702708C1.25751 17.9227 1.37777 17.5091 1.68113 17.2485L1.68933 17.3041C1.7276 17.5439 1.88885 17.6933 2.06103 17.6933C2.13482 17.6933 2.20861 17.6655 2.27694 17.6064L2.29607 17.5891C2.36986 17.523 2.45732 17.4917 2.54477 17.4917C2.67323 17.4917 2.79895 17.5647 2.87 17.7142C3.01759 18.027 2.82354 18.4127 2.79621 18.7777C2.77435 19.0765 2.89187 19.365 3.06952 19.5457C2.54477 19.9384 1.83418 20.564 1.9927 20.9672C2.06649 21.1548 2.12935 21.273 2.18401 21.3564C1.9681 21.7457 1.53902 22.6145 1.61281 23.2609C1.7112 24.1159 1.31764 23.6571 1.61281 24.8422C1.90798 26.0274 1.662 26.6877 2.79348 27.2125C3.01212 27.3133 3.16791 27.4106 3.28816 27.5044C3.28543 27.706 3.30182 27.918 3.33462 28.1474C3.33462 28.1474 3.77191 36.4675 17.0053 36.4675H17.3004C30.8235 36.3424 31.0203 28.5887 31.217 27.275C31.2498 27.0491 31.1214 26.785 30.8399 26.507C31.1405 26.368 31.3619 26.288 31.5614 26.0969C31.9058 25.7667 32.0561 25.732 32.3977 24.9118C32.6847 24.2167 32.6437 23.2644 32.3977 22.2774C32.354 22.1071 32.2009 21.8847 31.9768 21.6379C32.1025 21.5128 32.1791 21.3703 32.2009 21.1965C32.2474 20.8212 32.1927 20.206 32.0779 19.6326C32.0889 19.6257 32.0998 19.6187 32.108 19.6118C32.8268 18.9792 33.1575 17.6898 32.9279 16.2232C32.7503 15.0902 32.0342 14.4612 31.5368 13.8912C32.0124 12.9042 31.9058 11.2777 30.8235 7.99692C28.5933 1.2442 20.7987 0.38577 16.9889 0.0764588C16.4778 0.0208522 15.9913 0 15.5294 0Z" fill="#424242"/>
<defs>
<linearGradient id="paint0_linear_10_659" x1="17.2585" y1="27.1256" x2="17.2585" y2="36.1339" gradientUnits="userSpaceOnUse">
<stop stop-color="#FFC044"/>
<stop offset="0.8473" stop-color="#CA4300"/>
</linearGradient>
<radialGradient id="paint1_radial_10_659" cx="0" cy="0" r="1" gradientUnits="userSpaceOnUse" gradientTransform="translate(17.0542 24.3848) scale(15.5914 7.53805)">
<stop stop-color="#583223"/>
<stop offset="0.1013" stop-color="#7B3915"/>
<stop offset="0.225" stop-color="#A04106"/>
<stop offset="0.2906" stop-color="#AE4400"/>
<stop offset="0.3208" stop-color="#A84302"/>
<stop offset="0.7241" stop-color="#623A15"/>
<stop offset="0.9458" stop-color="#603813"/>
</radialGradient>
<linearGradient id="paint2_linear_10_659" x1="17.0977" y1="18.1138" x2="17.0977" y2="28.8243" gradientUnits="userSpaceOnUse">
<stop offset="0.0049261" stop-color="#FBC02D"/>
<stop offset="0.0811" stop-color="#FCCA30"/>
<stop offset="0.2088" stop-color="#FDD534"/>
<stop offset="0.3596" stop-color="#FDD835"/>
<stop offset="0.6897" stop-color="#FFF59D"/>
<stop offset="1" stop-color="#FDD835"/>
</linearGradient>
<linearGradient id="paint3_linear_10_659" x1="6.97489" y1="19.5656" x2="29.3095" y2="19.2336" gradientUnits="userSpaceOnUse">
<stop stop-color="#FF3D2A"/>
<stop offset="0.0408" stop-color="#F63424"/>
<stop offset="0.1741" stop-color="#DD1D14"/>
<stop offset="0.3141" stop-color="#CC0D09"/>
<stop offset="0.4638" stop-color="#C10302"/>
<stop offset="0.6404" stop-color="#BE0000"/>
<stop offset="0.9902" stop-color="#FF1500"/>
</linearGradient>
<linearGradient id="paint4_linear_10_659" x1="16.5032" y1="16.5438" x2="16.5032" y2="22.6487" gradientUnits="userSpaceOnUse">
<stop stop-color="#518F00"/>
<stop offset="0.1974" stop-color="#619E15"/>
<stop offset="0.404" stop-color="#6FAA27"/>
<stop offset="0.4245" stop-color="#72AD2B"/>
<stop offset="0.5468" stop-color="#80B93C"/>
<stop offset="0.6779" stop-color="#88C147"/>
<stop offset="0.8325" stop-color="#8BC34A"/>
<stop offset="1" stop-color="#8CC63F"/>
</linearGradient>
<linearGradient id="paint5_linear_10_659" x1="8.02357" y1="1.7169" x2="30.0327" y2="14.6013" gradientUnits="userSpaceOnUse">
<stop stop-color="#FFC044"/>
<stop offset="0.8473" stop-color="#CA4300"/>
</linearGradient>
</defs>
</svg>
