<svg width="24" height="38" viewBox="0 0 24 38" fill="none" xmlns="http://www.w3.org/2000/svg">
<path d="M12.3933 37.439C12.3933 37.439 12.1636 27.5744 16.4442 22.1108C20.2951 17.1973 24.0001 16.9113 24.0001 16.9113C24.0001 16.9113 22.4516 20.7465 19.1033 25.6222C15.8604 30.3376 13.2634 30.413 12.3933 37.439Z" fill="#7CB342"/>
<path opacity="0.2" d="M22.4163 18.3447C21.6461 19.8977 20.3436 22.2994 18.4681 25.0312C17.5033 26.4364 16.5764 27.436 15.7603 28.3163C15.0685 29.0613 14.428 29.7529 13.8605 30.5576C14.3631 28.0176 15.3009 24.9652 17.0439 22.7458C19.0815 20.146 21.0786 18.92 22.4163 18.3447ZM23.9999 16.9113C23.9999 16.9113 20.2949 17.2005 16.444 22.1108C12.1607 27.5744 12.3931 37.439 12.3931 37.439C13.266 30.413 15.863 30.3376 19.1004 25.6222C22.4487 20.7465 23.9999 16.9113 23.9999 16.9113Z" fill="#424242"/>
<path d="M11.6068 37.439C11.6068 37.439 11.8365 27.5744 7.55591 22.1108C3.70229 17.2005 0 16.9113 0 16.9113C0 16.9113 1.5809 21.8593 5.05349 26.6187C8.3396 31.1235 10.7339 30.413 11.6068 37.439Z" fill="#7CB342"/>
<path opacity="0.2" d="M1.39444 18.2693C2.72942 18.8068 4.81838 20.0234 6.95597 22.7489C8.77199 25.0658 9.71512 28.2848 10.2016 30.8877C9.67459 30.2118 9.08546 29.6554 8.4477 29.0581C7.62076 28.2817 6.68303 27.3983 5.66963 26.012C3.54555 23.0947 2.1376 20.08 1.39444 18.2693ZM0 16.9113C0 16.9113 1.5809 21.8593 5.05349 26.6187C8.3396 31.1235 10.7339 30.413 11.6068 37.439C11.6068 37.439 11.8365 27.5744 7.55591 22.1108C3.70229 17.2005 0 16.9113 0 16.9113Z" fill="#424242"/>
<path d="M7.36667 10.6868C7.32884 15.8958 7.56935 20.3346 11.6419 19.7467C16.0549 19.1117 15.5576 15.5626 15.336 11.1552C15.1442 7.30433 12.7688 2.92529 11.3014 0.561296C10.7717 -0.290621 9.69344 -0.149159 9.33402 0.825358C8.5233 3.02903 7.39369 6.77935 7.36667 10.6868Z" fill="#880E4F"/>
<path d="M15.474 19.9102C14.693 20.4446 13.4634 19.9636 12.0771 19.9636C10.5989 19.9636 9.2936 20.3975 8.52612 19.8002C8.65314 20.7181 9.38549 21.7618 10.7313 22.1327V37.725H13.0607V22.183C14.4633 21.8812 15.274 20.8281 15.474 19.9102Z" fill="#7CB342"/>
<path opacity="0.2" d="M12.0771 20.6238C12.5203 20.6238 12.9554 20.6772 13.3742 20.7275C13.7012 20.7684 14.0093 20.8061 14.3093 20.8187C13.9796 21.1456 13.5283 21.4097 12.9581 21.5323C12.6878 21.5889 12.4932 21.8624 12.4932 22.183V37.0649H11.2988V22.1327C11.2988 21.8278 11.1177 21.5606 10.861 21.4883C10.3367 21.3437 9.92867 21.0828 9.63681 20.7747H9.70707C10.0476 20.7747 10.407 20.7401 10.788 20.7024C11.2042 20.6647 11.6339 20.6238 12.0771 20.6238ZM8.52612 19.8002C8.65314 20.7181 9.38549 21.7618 10.7313 22.1327V37.725H13.0607V22.183C14.4633 21.8812 15.274 20.8281 15.474 19.9102C15.1929 20.102 14.8578 20.1617 14.4768 20.1617C13.7931 20.1617 12.9689 19.9636 12.0771 19.9636C11.2015 19.9636 10.3854 20.1145 9.70707 20.1145C9.24226 20.1145 8.8396 20.0454 8.52612 19.8002Z" fill="#424242"/>
<path d="M8.93686 10.0958C8.25315 15.2451 7.93697 19.6744 12.0392 19.7813C16.4847 19.8976 16.4333 16.3013 16.763 11.9034C17.0522 8.05877 15.247 3.32765 14.0903 0.740458C13.6742 -0.193193 12.5878 -0.230916 12.1122 0.671299C11.0339 2.71464 9.45031 6.23548 8.93686 10.0958Z" fill="url(#paint0_linear_10_984)"/>
<path d="M18.2033 12.5761C17.6061 17.8794 16.3387 22.1956 12.377 20.9507C8.08286 19.6052 9.00708 16.075 9.76105 11.6299C10.4177 7.74442 13.3039 3.67031 15.0415 1.49808C15.6685 0.715319 16.7197 1.03282 16.9575 2.07964C17.4953 4.44678 18.6492 8.59948 18.2033 12.5761Z" fill="url(#paint1_linear_10_984)"/>
<path d="M5.74523 12.4096C6.32895 17.628 7.09643 22.029 11.0608 20.7936C15.3577 19.4544 14.4415 15.9839 13.6957 11.6111C13.0444 7.78849 10.1718 3.78354 8.43682 1.65217C7.81256 0.885132 6.76133 1.19949 6.52082 2.2306C5.98034 4.56315 5.30744 8.4958 5.74523 12.4096Z" fill="url(#paint2_linear_10_984)"/>
<path opacity="0.2" d="M10.4285 0.944791C10.4988 0.944791 10.6042 0.973083 10.6906 1.11455C10.8285 1.3346 10.9825 1.59237 11.1473 1.87215C11.2987 2.12993 11.55 2.28082 11.8148 2.28082H11.8446C12.1229 2.26825 12.3742 2.09221 12.5148 1.81243C12.6283 1.58294 12.7418 1.36603 12.8471 1.16484C12.9417 0.985657 13.066 0.960509 13.1336 0.960509C13.2039 0.960509 13.3309 0.988801 13.4174 1.17742C13.5903 1.56722 13.7687 1.98532 13.9497 2.42229C14.0659 2.70835 14.2956 2.9064 14.5659 2.95041C14.6037 2.9567 14.6442 2.95984 14.6821 2.95984C14.9091 2.95984 15.1307 2.84667 15.2847 2.64862C15.4225 2.47258 15.555 2.29968 15.682 2.1425C15.7549 2.05134 15.836 2.00733 15.9198 2.00733C16.0306 2.00733 16.1684 2.08906 16.2197 2.32169C16.2792 2.5889 16.3495 2.87811 16.4224 3.18618C16.9791 5.54389 17.8223 9.11188 17.4466 12.4567C16.671 19.3443 15.0442 20.2277 13.7092 20.2277C13.3822 20.2277 13.0201 20.1648 12.6337 20.0453C12.3688 19.9636 12.1229 19.8662 11.8797 19.7561C11.7824 19.7121 11.6824 19.6901 11.5797 19.6901C11.4932 19.6901 11.4068 19.7058 11.3257 19.7373C11.169 19.797 11.0311 19.8473 10.8987 19.8882C10.5204 20.0045 10.1718 20.0642 9.861 20.0642C9.19621 20.0642 8.34766 19.8379 7.68016 18.0617C7.10726 16.5371 6.8208 14.2831 6.5965 12.2901C6.18574 8.62462 6.78027 4.93088 7.35047 2.47887C7.40182 2.25253 7.54234 2.1708 7.65584 2.1708C7.74232 2.1708 7.82339 2.21481 7.89365 2.30283C8.02607 2.4663 8.1666 2.64234 8.30982 2.82781C8.46386 3.02586 8.68275 3.13588 8.90976 3.13588C8.9611 3.13588 9.01245 3.1296 9.06379 3.12017C9.33944 3.05729 9.56914 2.8341 9.66913 2.52602C9.81506 2.07963 9.9691 1.63324 10.1258 1.20257C10.2096 0.96994 10.3636 0.944791 10.4285 0.944791ZM10.4285 0.00170898C10.0015 0.00170898 9.58265 0.284633 9.38268 0.825334C9.23404 1.23086 9.0746 1.68668 8.91246 2.18966C8.76383 2.00104 8.6206 1.81871 8.48548 1.6521C8.24767 1.35975 7.9504 1.22457 7.65854 1.22457C7.18022 1.22457 6.71811 1.58923 6.56948 2.22738C6.0263 4.55994 5.3561 8.49259 5.79389 12.4064C6.31005 17.0243 6.97214 21.001 9.861 21.001C10.2366 21.001 10.6501 20.935 11.1068 20.7904C11.2744 20.7401 11.4284 20.6835 11.5797 20.6238C11.8365 20.7432 12.1148 20.8501 12.4202 20.9476C12.885 21.0922 13.3147 21.1613 13.7065 21.1613C16.671 21.1613 17.7196 17.2507 18.2465 12.5698C18.6924 8.59318 17.5385 4.44048 17.0007 2.07335C16.8548 1.42576 16.3954 1.05796 15.9171 1.05796C15.6252 1.05796 15.3252 1.19628 15.0847 1.49492C14.955 1.65525 14.8172 1.83129 14.6767 2.01362C14.4875 1.54836 14.301 1.11769 14.1308 0.737313C13.9146 0.256341 13.5227 0.0142834 13.1282 0.0142834C12.7553 0.0142834 12.3823 0.231192 12.1526 0.668153C12.0445 0.875631 11.9283 1.09883 11.8094 1.3346C11.6473 1.05796 11.4878 0.797041 11.3419 0.558127C11.1122 0.184038 10.769 0.00170898 10.4285 0.00170898Z" fill="#424242"/>
<defs>
<linearGradient id="paint0_linear_10_984" x1="12.8478" y1="1.41244" x2="12.4821" y2="17.9666" gradientUnits="userSpaceOnUse">
<stop stop-color="#AD1457"/>
<stop offset="0.0743" stop-color="#C12262"/>
<stop offset="0.174" stop-color="#D42F6D"/>
<stop offset="0.2902" stop-color="#E23974"/>
<stop offset="0.436" stop-color="#EA3E79"/>
<stop offset="0.7066" stop-color="#EC407A"/>
</linearGradient>
<linearGradient id="paint1_linear_10_984" x1="15.9485" y1="1.55872" x2="11.3256" y2="20.3459" gradientUnits="userSpaceOnUse">
<stop offset="0.1477" stop-color="#EC407A"/>
<stop offset="0.4963" stop-color="#CD2B69"/>
<stop offset="0.8245" stop-color="#AD1457"/>
</linearGradient>
<linearGradient id="paint2_linear_10_984" x1="11.1603" y1="19.9662" x2="6.36559" y2="1.57245" gradientUnits="userSpaceOnUse">
<stop offset="0.0965" stop-color="#D81B60"/>
<stop offset="0.2099" stop-color="#DA2366"/>
<stop offset="0.3858" stop-color="#DF3975"/>
<stop offset="0.6022" stop-color="#E85D8E"/>
<stop offset="0.8488" stop-color="#F48EB0"/>
<stop offset="0.8544" stop-color="#F48FB1"/>
</linearGradient>
</defs>
</svg>
