<svg width="30" height="39" viewBox="0 0 30 39" fill="none" xmlns="http://www.w3.org/2000/svg">
<path d="M15 38.95C23.2843 38.95 30 30.2308 30 19.475C30 8.71926 23.2843 0 15 0C6.71573 0 0 8.71926 0 19.475C0 30.2308 6.71573 38.95 15 38.95Z" fill="url(#paint0_radial_10_1003)"/>
<path opacity="0.4" d="M30 18.7934H23.325C23.275 16.1967 23.05 13.665 22.6 11.328H28.625C28.475 10.8736 28.3 10.4516 28.125 10.0296H22.325C21.475 6.26447 20.15 3.34321 18.6 1.558C18.05 0.941293 17.475 0.454417 16.875 0.129834C16.25 0.0649168 15.625 0 15 0C14.45 0 13.875 0.0324584 13.35 0.129834C12.75 0.421959 12.175 0.908834 11.625 1.52554C10.025 3.2783 8.675 6.26446 7.825 10.0621H1.875C1.7 10.4841 1.525 10.906 1.375 11.3604H7.55C7.1 13.6974 6.875 16.2292 6.825 18.8259H0V19.5075V20.1242H6.825C6.85 22.7209 7.1 25.2526 7.525 27.5896H1.35C1.5 28.044 1.675 28.466 1.85 28.8879H7.8C8.65 32.7505 10 35.7042 11.575 37.457C12.125 38.0737 12.725 38.5281 13.325 38.8527C13.875 38.9176 14.425 38.9825 15 38.9825C15.625 38.9825 16.25 38.9176 16.875 38.8202C17.475 38.4956 18.075 38.0087 18.625 37.392C20.2 35.6068 21.5 32.6856 22.35 28.8879H28.15C28.325 28.466 28.5 28.044 28.65 27.5896H22.6C23.05 25.2526 23.275 22.7209 23.3 20.1242H30C30 19.9294 30 19.7022 30 19.5075C30 19.2478 30 19.0206 30 18.7934ZM22.3 18.7934H15.5V11.328H21.575C22.025 13.665 22.275 16.1643 22.3 18.7934ZM20.075 6.16709C20.55 7.33559 20.95 8.63393 21.3 10.0296H15.5V1.00621C17.2 1.26588 18.8 3.08354 20.075 6.16709ZM10.075 6.16709C11.3 3.18092 12.875 1.36325 14.5 1.03867V10.0296H8.85C9.2 8.60147 9.6 7.30313 10.075 6.16709ZM8.575 11.328H14.5V18.7934H7.825C7.875 16.1643 8.125 13.665 8.575 11.328ZM7.825 20.0917H14.5V27.5572H8.55C8.1 25.2202 7.85 22.7209 7.825 20.0917ZM10.075 32.783C9.6 31.6145 9.175 30.2837 8.825 28.8555H14.5V37.9114C12.875 37.5868 11.3 35.7691 10.075 32.783ZM20.075 32.783C19.45 34.3085 18.725 35.5419 17.95 36.4183C17.175 37.2947 16.35 37.814 15.5 37.9438V28.8555H21.3C20.975 30.2837 20.55 31.6145 20.075 32.783ZM21.575 27.5572H15.5V20.0917H22.325C22.275 22.7209 22.025 25.2202 21.575 27.5572Z" fill="#01579B"/>
<path opacity="0.2" d="M15 0.973751C22.85 0.973751 29.25 9.28309 29.25 19.475C29.25 29.6669 22.85 37.9763 15 37.9763C7.15 37.9763 0.75 29.6669 0.75 19.475C0.75 9.28309 7.15 0.973751 15 0.973751ZM15 0C6.725 0 0 8.7313 0 19.475C0 30.2187 6.725 38.95 15 38.95C23.275 38.95 30 30.2187 30 19.475C30 8.7313 23.275 0 15 0Z" fill="#424242"/>
<defs>
<radialGradient id="paint0_radial_10_1003" cx="0" cy="0" r="1" gradientUnits="userSpaceOnUse" gradientTransform="translate(15 -0.0811439) scale(30.0875 39.0636)">
<stop stop-color="#42A5F5"/>
<stop offset="0.3522" stop-color="#42A5F5"/>
<stop offset="0.6798" stop-color="#2B8BE2"/>
<stop offset="1" stop-color="#1976D2"/>
</radialGradient>
</defs>
</svg>
