<svg width="26" height="43" viewBox="0 0 26 43" fill="none" xmlns="http://www.w3.org/2000/svg">
<path d="M14.9072 34.368C15.7776 36.0829 14.2167 37.9098 15.444 39.2362C17.7186 41.686 20.5039 35.019 24 41.8575" stroke="#64B5F6" stroke-width="3.26802" stroke-miterlimit="10"/>
<path d="M14.5097 36.0408L16.1431 35.6908C16.5957 35.5963 16.8974 35.0784 16.8191 34.5324C16.8046 34.4344 16.7785 34.3434 16.7437 34.2559C16.2156 32.996 15.5077 31.8551 14.6547 30.8892C14.5271 31.9006 14.028 33.472 13.6044 34.6689C13.4246 35.1764 13.6218 35.7608 14.0425 35.9778C14.1905 36.0513 14.353 36.0758 14.5097 36.0408Z" fill="#F44336"/>
<path d="M0.310733 16.6732C2.50993 27.7884 11.5272 32.8456 14.8521 31.8832C18.1771 30.9207 24.1654 20.6839 22.1287 10.3841C20.6867 3.11514 14.6345 -1.36455 8.6085 0.374827C2.58247 2.11421 -1.13122 9.41471 0.310733 16.6837V16.6732Z" fill="#F44336"/>
<path d="M14.1994 32.9717L15.6965 32.5412C16.1694 32.4047 16.4624 31.8342 16.3493 31.2638C16.2361 30.6933 15.7632 30.3398 15.2903 30.4763L13.7845 30.9068C13.3116 31.0433 13.0186 31.6137 13.1317 32.1842C13.2449 32.7547 13.7178 33.1081 14.1907 32.9717H14.1994Z" fill="#C62828"/>
<path d="M15.6064 3.33912C14.4256 2.47118 12.7341 1.89372 11.7767 3.5316C11.2661 4.40304 11.7477 6.03393 12.8009 6.40141C14.5823 7.02786 14.8927 7.80131 15.2554 8.42777C15.6935 9.16272 16.1084 10.0832 16.8482 10.2266C17.588 10.3701 18.0087 9.69818 17.9768 8.40327C17.971 6.33141 17.0745 4.41354 15.6064 3.33912Z" fill="#FF847A"/>
</svg>
