<svg width="26" height="38" viewBox="0 0 26 38" fill="none" xmlns="http://www.w3.org/2000/svg">
<path d="M23.6726 37.725H2.50461C1.66233 37.725 0.953035 36.8477 0.797877 35.613L0.177246 30.4791H25.9999L25.3793 35.613C25.2463 36.8477 24.5148 37.725 23.6726 37.725Z" fill="#6D6C6B"/>
<path d="M24.2267 32.8185H1.95048C0.9752 32.8185 0.177246 31.6488 0.177246 30.2191V2.63286C0.177246 1.20318 0.9752 0.0334473 1.95048 0.0334473H24.2267C25.202 0.0334473 25.9999 1.20318 25.9999 2.63286V30.2191C25.9999 31.6488 25.202 32.8185 24.2267 32.8185Z" fill="#504F4F"/>
<path d="M8.09034 15.695H3.21396C2.4825 15.695 1.88403 14.8177 1.88403 13.7454V3.70517C1.88403 2.63292 2.4825 1.75562 3.21396 1.75562H8.09034C8.8218 1.75562 9.42026 2.63292 9.42026 3.70517V13.7454C9.42026 14.8177 8.8218 15.695 8.09034 15.695Z" fill="#E53A35"/>
<path d="M1.81763 28.562V20.7638C1.81763 19.6915 2.41609 18.8142 3.14755 18.8142H14.2746C15.006 18.8142 15.6045 19.6915 15.6045 20.7638V28.562C15.6045 29.6343 15.006 30.5116 14.2746 30.5116H3.14755C2.41609 30.5116 1.81763 29.6343 1.81763 28.562Z" fill="#E53A35"/>
<path d="M17.3555 28.3997V20.9264C17.3555 19.8541 17.9539 18.9768 18.6854 18.9768H22.9633C23.6948 18.9768 24.2932 19.8541 24.2932 20.9264V28.3997C24.2932 29.4719 23.6948 30.3492 22.9633 30.3492H18.6854C17.9539 30.3492 17.3555 29.4719 17.3555 28.3997Z" fill="#E53A35"/>
<path d="M23.185 15.8574H12.2574C11.526 15.8574 10.9275 14.9801 10.9275 13.9079V3.70517C10.9275 2.63292 11.526 1.75562 12.2574 1.75562H23.1628C23.8942 1.75562 24.4927 2.63292 24.4927 3.70517V13.9404C24.5149 15.0126 23.9164 15.8574 23.185 15.8574Z" fill="#E53A35"/>
<path d="M15.3385 22.59C15.2941 22.46 15.2276 22.3625 15.1611 22.2326C15.139 21.547 14.7599 20.9946 14.3166 20.9296C14.2723 20.8971 14.2501 20.8321 14.2058 20.7996C14.1615 20.0815 13.7603 19.4967 13.2505 19.4967C13.2062 19.4967 13.184 19.4967 13.1397 19.4967C12.9623 19.5292 12.7606 19.3992 12.6498 19.1717C12.4725 18.8468 12.2043 18.6486 11.9161 18.6486C11.7831 18.6486 11.6501 18.6811 11.5371 18.7786C11.4041 18.8761 11.2268 18.8436 11.1137 18.6811C10.9364 18.4537 10.7125 18.3237 10.4687 18.3237C10.3136 18.3237 10.1584 18.3887 10.0232 18.4861C9.89021 18.5836 9.69072 18.5836 9.57768 18.4212C9.40035 18.1612 9.17648 18.0312 8.9105 18.0312C8.71101 18.0312 8.53147 18.1287 8.37631 18.2587C8.24332 18.3887 8.04383 18.3887 7.90862 18.2587C7.75347 18.1287 7.57614 18.0312 7.3966 18.0312C7.10845 18.0312 6.86242 18.1937 6.68509 18.4861C6.57427 18.6811 6.37478 18.7461 6.19524 18.6486C6.10658 18.6161 6.01792 18.5836 5.92926 18.5836C5.7076 18.5836 5.5059 18.6811 5.35074 18.8761C5.17342 19.071 4.94954 19.1685 4.75006 19.1035C4.68356 19.071 4.61706 19.071 4.55057 19.071C4.10504 19.071 3.72823 19.5259 3.6174 20.1465C3.59524 20.179 3.57307 20.179 3.55091 20.2115C3.52874 20.2115 3.50658 20.2115 3.48441 20.2115C3.01672 20.2115 2.63991 20.6989 2.55125 21.3845C2.52908 21.417 2.50692 21.4495 2.46259 21.5145C2.1966 21.547 1.95057 21.7094 1.79541 22.0019V22.7524V29.1405C1.79541 29.238 1.79541 29.3354 1.81758 29.4329V29.4979C1.81758 29.5954 1.83974 29.6929 1.86191 29.7579V29.7903C1.88407 29.8878 1.90624 29.9528 1.9284 30.0178V30.0503C1.95057 30.1478 1.9949 30.2127 2.01706 30.2777V30.3102C2.08356 30.4727 2.19439 30.6027 2.28305 30.7001C2.5047 30.9276 2.7729 31.0901 3.08322 31.0901H14.2457C14.8686 31.0901 15.3806 30.4694 15.5357 29.6571C15.5357 29.6246 15.5357 29.6246 15.5579 29.5921C15.5801 29.4622 15.6022 29.2997 15.6022 29.1372V23.3373V22.7492C15.5601 22.6874 15.4493 22.6225 15.3385 22.59Z" fill="url(#paint0_radial_10_971)"/>
<path d="M8.44508 23.2658C9.08164 23.2658 9.59768 22.6548 9.59768 21.9011C9.59768 21.1474 9.08164 20.5364 8.44508 20.5364C7.80852 20.5364 7.29248 21.1474 7.29248 21.9011C7.29248 22.6548 7.80852 23.2658 8.44508 23.2658Z" fill="#B0BEC5"/>
<path d="M8.44508 22.6809C9.08164 22.6809 9.59768 22.0699 9.59768 21.3162C9.59768 20.5625 9.08164 19.9515 8.44508 19.9515C7.80852 19.9515 7.29248 20.5625 7.29248 21.3162C7.29248 22.0699 7.80852 22.6809 8.44508 22.6809Z" fill="url(#paint1_radial_10_971)"/>
<path opacity="0.2" d="M4.3718 27.5573C4.40074 27.2915 4.13021 27.0072 3.76755 26.9224C3.40489 26.8375 3.08744 26.9842 3.0585 27.25C3.02956 27.5158 3.3001 27.8001 3.66275 27.8849C4.02541 27.9698 4.34286 27.8231 4.3718 27.5573Z" fill="#B0BEC5"/>
<path opacity="0.2" d="M5.84132 29.2538C5.87026 28.9879 5.65853 28.7174 5.3684 28.6496C5.07827 28.5817 4.81962 28.7421 4.79068 29.008C4.76174 29.2738 4.97348 29.5443 5.2636 29.6122C5.55373 29.68 5.81238 29.5196 5.84132 29.2538Z" fill="#B0BEC5"/>
<path opacity="0.2" d="M2.28305 26.645C2.10573 26.8074 1.95057 26.9049 1.79541 26.9049V25.9626C1.83974 25.8976 1.88407 25.8652 1.90624 25.8327C2.21655 25.5402 2.54903 25.4752 2.6377 25.7027C2.77069 25.9301 2.59336 26.3525 2.28305 26.645Z" fill="#B0BEC5"/>
<path opacity="0.2" d="M2.57125 29.0495C2.48259 29.2769 2.19444 29.3094 1.92845 29.1145C1.88412 29.082 1.83979 29.082 1.81763 29.017V28.1072C1.92845 28.0747 2.08361 28.1397 2.23877 28.2372C2.50475 28.4321 2.65991 28.7896 2.57125 29.0495Z" fill="#90A4AE"/>
<path opacity="0.2" d="M3.89055 30.8363C4.15534 30.6113 4.29534 30.2401 4.20325 30.0072C4.11116 29.7743 3.82186 29.7679 3.55707 29.9929C3.29229 30.2179 3.15229 30.5891 3.24438 30.822C3.33646 31.0549 3.62577 31.0613 3.89055 30.8363Z" fill="#90A4AE"/>
<path opacity="0.2" d="M14.9277 28.3964C15.2904 28.3115 15.5609 28.0273 15.532 27.7614C15.503 27.4956 15.1856 27.3489 14.8229 27.4338C14.4603 27.5186 14.1897 27.8029 14.2187 28.0687C14.2476 28.3345 14.565 28.4812 14.9277 28.3964Z" fill="#B0BEC5"/>
<path opacity="0.2" d="M12.2654 29.6281C12.628 29.5432 12.8985 29.259 12.8696 28.9931C12.8407 28.7273 12.5232 28.5806 12.1606 28.6655C11.7979 28.7503 11.5274 29.0346 11.5563 29.3004C11.5852 29.5662 11.9027 29.7129 12.2654 29.6281Z" fill="#B0BEC5"/>
<path opacity="0.2" d="M15.6044 25.3453V25.8327C15.4714 25.9952 15.1832 25.8977 14.8951 25.6378C14.5848 25.3453 14.4074 24.9229 14.5183 24.6955C14.6069 24.468 14.9394 24.533 15.2497 24.8255C15.4049 24.9879 15.5379 25.1504 15.6044 25.3453Z" fill="#B0BEC5"/>
<path opacity="0.2" d="M14.7028 30.8115C14.7948 30.5786 14.6548 30.2074 14.3901 29.9825C14.1253 29.7575 13.836 29.7639 13.7439 29.9968C13.6518 30.2297 13.7918 30.6008 14.0566 30.8258C14.3214 31.0508 14.6107 31.0444 14.7028 30.8115Z" fill="#90A4AE"/>
<path opacity="0.2" d="M7.97805 30.5778C8.01615 30.3144 7.80435 30.0255 7.50499 29.9324C7.20562 29.8393 6.93204 29.9773 6.89394 30.2406C6.85584 30.504 7.06764 30.7929 7.36701 30.886C7.66637 30.9791 7.93995 30.8411 7.97805 30.5778Z" fill="#B0BEC5"/>
<path opacity="0.2" d="M9.0168 28.9178C9.43239 28.8848 9.76123 28.6401 9.75128 28.3713C9.74132 28.1025 9.39635 27.9114 8.98076 27.9445C8.56517 27.9776 8.23634 28.2223 8.24629 28.4911C8.25624 28.7598 8.60121 28.9509 9.0168 28.9178Z" fill="#B0BEC5"/>
<path opacity="0.2" d="M7.4716 28.1963C7.75209 28.0168 7.91992 27.6713 7.84648 27.4246C7.77303 27.1779 7.4861 27.1234 7.20562 27.3029C6.92513 27.4823 6.7573 27.8278 6.83075 28.0745C6.9042 28.3212 7.19112 28.3757 7.4716 28.1963Z" fill="#B0BEC5"/>
<path opacity="0.2" d="M6.20395 26.7404C6.27187 26.4903 6.09643 26.153 5.81209 25.9871C5.52774 25.8211 5.24218 25.8894 5.17425 26.1395C5.10633 26.3895 5.28177 26.7268 5.56612 26.8928C5.85046 27.0587 6.13602 26.9905 6.20395 26.7404Z" fill="#B0BEC5"/>
<path opacity="0.2" d="M4.80895 24.7782C4.86278 24.3366 4.75988 23.9402 4.57912 23.8928C4.39836 23.8455 4.20819 24.1651 4.15436 24.6067C4.10052 25.0484 4.20342 25.4448 4.38418 25.4921C4.56494 25.5395 4.75511 25.2198 4.80895 24.7782Z" fill="#D0D8DC"/>
<path opacity="0.2" d="M8.17434 25.4841C8.20203 25.218 7.97921 24.9474 7.67666 24.8798C7.37411 24.8121 7.10639 24.973 7.0787 25.2391C7.05101 25.5052 7.27383 25.7758 7.57638 25.8434C7.87893 25.9111 8.14665 25.7502 8.17434 25.4841Z" fill="#D0D8DC"/>
<path opacity="0.2" d="M13.4081 24.5201C13.6694 24.2866 13.8038 23.911 13.7082 23.6812C13.6127 23.4513 13.3234 23.4543 13.062 23.6877C12.8007 23.9212 12.6663 24.2968 12.7619 24.5267C12.8574 24.7565 13.1468 24.7536 13.4081 24.5201Z" fill="#B0BEC5"/>
<path opacity="0.2" d="M3.29965 24.1269C3.36757 23.8768 3.19213 23.5395 2.90779 23.3736C2.62345 23.2076 2.33788 23.2758 2.26996 23.5259C2.20203 23.776 2.37748 24.1133 2.66182 24.2792C2.94616 24.4452 3.23173 24.377 3.29965 24.1269Z" fill="#B0BEC5"/>
<path opacity="0.2" d="M10.5683 30.8447C10.8403 30.639 10.9925 30.2783 10.9084 30.0391C10.8242 29.7999 10.5354 29.7727 10.2635 29.9784C9.99148 30.1841 9.83925 30.5448 9.92344 30.784C10.0076 31.0232 10.2964 31.0504 10.5683 30.8447Z" fill="#90A4AE"/>
<path opacity="0.2" d="M10.8696 25.4805C11.2192 25.3156 11.457 24.9742 11.4008 24.718C11.3445 24.4618 11.0155 24.3877 10.6659 24.5526C10.3164 24.7175 10.0786 25.0589 10.1348 25.3151C10.191 25.5714 10.52 25.6454 10.8696 25.4805Z" fill="#D0D8DC"/>
<path opacity="0.2" d="M13.3011 21.8746C13.3882 21.6376 13.1968 21.2385 12.8735 20.9831C12.5502 20.7277 12.2175 20.7128 12.1304 20.9497C12.0433 21.1867 12.2347 21.5858 12.558 21.8412C12.8813 22.0966 13.214 22.1116 13.3011 21.8746Z" fill="#D0D8DC"/>
<path opacity="0.2" d="M4.06136 22.2619C4.27268 22.0473 4.35921 21.6939 4.25463 21.4727C4.15006 21.2514 3.89398 21.246 3.68267 21.4606C3.47135 21.6753 3.38482 22.0286 3.4894 22.2499C3.59397 22.4711 3.85005 22.4765 4.06136 22.2619Z" fill="#D0D8DC"/>
<path opacity="0.2" d="M6.1993 24.5023C6.41062 24.2877 6.49715 23.9343 6.39257 23.713C6.288 23.4918 6.03192 23.4864 5.82061 23.701C5.60929 23.9156 5.52276 24.269 5.62734 24.4902C5.73191 24.7115 5.98799 24.7169 6.1993 24.5023Z" fill="#D0D8DC"/>
<path opacity="0.2" d="M11.607 23.1071C11.8183 22.8925 11.9049 22.5392 11.8003 22.3179C11.6957 22.0966 11.4396 22.0912 11.2283 22.3059C11.017 22.5205 10.9305 22.8738 11.0351 23.0951C11.1396 23.3164 11.3957 23.3217 11.607 23.1071Z" fill="#D0D8DC"/>
<path opacity="0.2" d="M11.1983 20.1904C11.2661 19.9403 11.1274 19.6247 10.8885 19.4856C10.6496 19.3465 10.401 19.4364 10.3332 19.6866C10.2654 19.9367 10.4041 20.2523 10.643 20.3914C10.8819 20.5306 11.1305 20.4406 11.1983 20.1904Z" fill="#D0D8DC"/>
<path opacity="0.2" d="M5.6044 21.9737C5.84826 21.8545 5.99884 21.5508 5.94072 21.2954C5.8826 21.0401 5.6378 20.9298 5.39394 21.0491C5.15008 21.1683 4.99951 21.472 5.05762 21.7274C5.11574 21.9827 5.36054 22.093 5.6044 21.9737Z" fill="#D0D8DC"/>
<path opacity="0.2" d="M6.93023 19.6705C6.94914 19.4028 6.75718 19.1543 6.50147 19.1154C6.24576 19.0766 6.02313 19.2622 6.00422 19.53C5.9853 19.7977 6.17727 20.0462 6.43298 20.0851C6.68869 20.1239 6.91131 19.9383 6.93023 19.6705Z" fill="#D0D8DC"/>
<path opacity="0.2" d="M13.18 27.0149C13.5293 26.8484 13.7664 26.506 13.7096 26.25C13.6528 25.994 13.3237 25.9214 12.9744 26.0879C12.6252 26.2543 12.3881 26.5968 12.4448 26.8528C12.5016 27.1088 12.8308 27.1814 13.18 27.0149Z" fill="#B0BEC5"/>
<path opacity="0.2" d="M11.5249 27.9205C11.6101 27.6821 11.4155 27.2863 11.0902 27.0365C10.7649 26.7867 10.4321 26.7775 10.3469 27.0159C10.2617 27.2543 10.4563 27.6501 10.7816 27.8999C11.107 28.1497 11.4397 28.1589 11.5249 27.9205Z" fill="#B0BEC5"/>
<path opacity="0.1" d="M7.07077 22.421C6.71613 22.5834 6.38365 22.5185 6.33932 22.2585C6.27282 21.9986 6.51664 21.6736 6.87128 21.5112C7.22593 21.3487 7.55841 21.4137 7.60274 21.6736C7.64707 21.9011 7.42542 22.2585 7.07077 22.421Z" fill="#D0D8DC"/>
<path d="M8.95496 4.97241C9.13228 5.65476 9.13228 7.14942 9.13228 7.14942C9.13228 7.14942 7.29255 7.86426 5.58582 7.86426C3.92342 7.86426 2.06152 7.14942 2.06152 7.14942C2.06152 7.14942 2.06152 5.75224 2.23885 4.97241C2.57133 3.44526 3.63527 2.08057 5.58582 2.08057C7.53637 2.08057 8.55598 3.47775 8.95496 4.97241Z" fill="url(#paint2_radial_10_971)"/>
<path d="M9.13223 6.922C9.13223 8.51414 8.24562 9.5864 5.58577 9.5864C2.92592 9.5864 2.03931 8.51414 2.03931 6.922C2.03931 5.32986 3.63521 4.03015 5.58577 4.03015C7.53632 4.03015 9.13223 5.32986 9.13223 6.922Z" fill="url(#paint3_linear_10_971)"/>
<path d="M8.22343 6.27212L8.64457 6.01218L8.48941 5.32983L8.13477 6.07717L8.22343 6.27212Z" fill="#568B3E"/>
<path d="M7.82433 6.14219L7.86867 5.55733L7.64701 5.26489L7.55835 6.14219H7.82433Z" fill="#568B3E"/>
<path d="M5.4969 5.68724L5.54123 5.13486L5.34175 4.80994L5.31958 5.26483V5.71973L5.4969 5.68724Z" fill="#568B3E"/>
<path d="M4.80996 5.62222L4.96511 5.7197L5.00944 5.16732L4.76562 5.03735L4.80996 5.62222Z" fill="#568B3E"/>
<path d="M3.56856 5.88225L3.63506 5.42736L3.23608 5.26489L3.30258 6.07721L3.56856 5.88225Z" fill="#568B3E"/>
<path d="M8.04596 5.03734C7.80214 4.7774 7.60266 5.16732 7.64699 5.32978C7.66915 5.45975 7.75781 5.52473 7.73565 5.6547C7.71348 5.78468 7.64699 5.81717 7.51399 5.78468C7.35884 5.78468 7.29234 5.62221 7.27017 5.45975C7.18151 4.8099 6.91553 4.64743 6.69388 4.8099C6.51655 4.93987 6.71604 5.16732 6.56088 5.26479C6.38356 5.36227 6.27273 5.29729 6.20624 5.16732C6.13974 5.06984 6.2284 4.87488 6.09541 4.64743C5.89592 4.25752 5.38612 4.48497 5.31962 4.7774C5.25313 5.06984 5.43045 5.06984 5.45261 5.26479C5.47478 5.45975 5.16446 5.62221 5.00931 5.52473C4.69899 5.32978 5.03147 5.36227 5.00931 5.06984C4.96497 4.67993 4.58816 4.8099 4.4995 4.87488C4.25568 5.06984 4.34434 5.26479 4.30001 5.39476C4.16702 5.6872 3.96753 5.52473 3.85671 5.42726C3.74588 5.32978 3.72371 4.93987 3.39123 5.10233C3.16958 5.19981 3.25824 5.42726 3.3469 5.58972C3.39123 5.65471 3.36907 5.75218 3.32474 5.81717C3.10308 5.94714 2.94792 5.75218 2.8371 5.6547C2.70411 5.52473 2.48245 5.55723 2.39379 5.71969C2.28296 5.91465 2.63761 6.01212 2.50462 6.20708C2.39379 6.36954 2.23863 6.14209 2.1943 6.04462C2.01698 5.6872 1.70666 6.46702 1.95048 6.53201C2.1943 6.62948 2.14997 6.92192 2.10564 7.05189C2.01698 7.27934 1.83966 6.75946 1.90615 7.63676C1.95048 8.25412 2.23863 8.57904 2.46029 8.80649C2.74844 9.09893 8.20112 9.52133 8.95474 8.87148C9.13207 8.70902 9.66404 7.63676 9.53104 7.24685C9.33156 6.66198 9.30939 7.40931 9.1764 7.18186C8.88825 6.72696 9.33156 6.66198 9.24289 6.36954C9.1764 6.07711 9.1099 6.30456 9.02124 6.20708C8.91041 6.04462 8.95474 5.94714 8.99907 5.81717C9.04341 5.6872 8.75526 5.29729 8.57793 5.29729C8.37844 5.29729 8.62226 5.62221 8.48927 5.71969C8.35628 5.81717 8.28978 5.71969 8.15679 5.55723C8.00163 5.36227 8.20112 5.19981 8.04596 5.03734Z" fill="url(#paint4_linear_10_971)"/>
<path d="M8.95496 8.87156C9.13228 9.55391 9.13228 11.0486 9.13228 11.0486C9.13228 11.0486 7.29255 11.7634 5.58582 11.7634C3.92342 11.7634 2.06152 11.0486 2.06152 11.0486C2.06152 11.0486 2.06152 9.65139 2.23885 8.87156C2.57133 7.34441 3.63527 6.01221 5.58582 6.01221C7.53637 6.01221 8.55598 7.3769 8.95496 8.87156Z" fill="url(#paint5_radial_10_971)"/>
<path d="M9.13223 10.821C9.13223 12.4132 8.24562 13.4854 5.58577 13.4854C2.92592 13.4854 2.03931 12.4132 2.03931 10.821C2.03931 9.22888 3.63521 7.96167 5.58577 7.96167C7.53632 7.96167 9.13223 9.22888 9.13223 10.821Z" fill="url(#paint6_linear_10_971)"/>
<path d="M4.52981 6.88809C4.71031 6.83872 4.84208 6.6843 4.82412 6.54318C4.80616 6.40206 4.64527 6.32768 4.46477 6.37704C4.28427 6.42641 4.1525 6.58083 4.17046 6.72195C4.18842 6.86307 4.34931 6.93746 4.52981 6.88809Z" fill="#FDD836"/>
<path d="M5.53282 6.62874C5.71591 6.60826 5.8583 6.47561 5.85084 6.33247C5.84339 6.18932 5.68892 6.08989 5.50583 6.11037C5.32274 6.13086 5.18036 6.2635 5.18781 6.40665C5.19526 6.54979 5.34973 6.64923 5.53282 6.62874Z" fill="#FDD836"/>
<path d="M5.22227 7.11617C5.40537 7.09569 5.54775 6.96304 5.5403 6.81989C5.53284 6.67675 5.37838 6.57731 5.19529 6.5978C5.01219 6.61828 4.86981 6.75093 4.87726 6.89407C4.88472 7.03722 5.03918 7.13666 5.22227 7.11617Z" fill="#F9BF2C"/>
<path d="M6.55989 6.97254C6.56238 6.82902 6.41558 6.70713 6.23201 6.7003C6.04845 6.69346 5.89762 6.80426 5.89513 6.94778C5.89264 7.0913 6.03944 7.21318 6.22301 7.22002C6.40658 7.22686 6.5574 7.11606 6.55989 6.97254Z" fill="#F9BF2C"/>
<path d="M5.66096 7.47377C5.84434 7.4602 5.98901 7.33298 5.98407 7.1896C5.97913 7.04623 5.82647 6.94099 5.64308 6.95456C5.4597 6.96813 5.31504 7.09535 5.31997 7.23873C5.32491 7.3821 5.47757 7.48734 5.66096 7.47377Z" fill="#FDD836"/>
<path d="M6.91039 6.5376C6.92453 6.39555 6.7887 6.24888 6.60701 6.21001C6.42531 6.17114 6.26655 6.25479 6.25241 6.39684C6.23827 6.5389 6.3741 6.68556 6.5558 6.72443C6.73749 6.7633 6.89625 6.67965 6.91039 6.5376Z" fill="#FDD836"/>
<path d="M4.06575 7.44713C4.23277 7.33529 4.33518 7.13876 4.29449 7.00818C4.2538 6.8776 4.08542 6.8624 3.91839 6.97425C3.75137 7.08609 3.64895 7.28262 3.68964 7.4132C3.73034 7.54378 3.89872 7.55898 4.06575 7.44713Z" fill="#F9BF2C"/>
<path d="M6.25069 7.83177C6.43432 7.83177 6.58318 7.71539 6.58318 7.57183C6.58318 7.42827 6.43432 7.31189 6.25069 7.31189C6.06707 7.31189 5.91821 7.42827 5.91821 7.57183C5.91821 7.71539 6.06707 7.83177 6.25069 7.83177Z" fill="#F9BF2C"/>
<path d="M7.25557 7.04191C7.2615 6.8986 7.11772 6.76921 6.93443 6.7529C6.75114 6.73659 6.59774 6.83953 6.5918 6.98284C6.58587 7.12614 6.72964 7.25553 6.91294 7.27185C7.09623 7.28816 7.24963 7.18521 7.25557 7.04191Z" fill="#F9BF2C"/>
<path d="M3.9088 8.07513C4.0828 7.98915 4.1985 7.80917 4.16722 7.67313C4.13594 7.5371 3.96953 7.49651 3.79553 7.58249C3.62153 7.66846 3.50583 7.84844 3.53711 7.98448C3.56839 8.12052 3.7348 8.1611 3.9088 8.07513Z" fill="#F9A823"/>
<path d="M7.38921 7.65904C7.40498 7.51735 7.27084 7.36735 7.0896 7.32401C6.90837 7.28067 6.74866 7.36041 6.73289 7.5021C6.71713 7.6438 6.85127 7.7938 7.0325 7.83714C7.21374 7.88047 7.37344 7.80074 7.38921 7.65904Z" fill="#F9A823"/>
<path d="M8.17972 8.13144C8.21797 7.99927 8.11194 7.8069 7.9429 7.70176C7.77385 7.59662 7.60581 7.61852 7.56755 7.75069C7.5293 7.88285 7.63533 8.07522 7.80437 8.18036C7.97342 8.28551 8.14146 8.2636 8.17972 8.13144Z" fill="#F9A823"/>
<path d="M7.91267 7.27865C7.94194 7.14165 7.82362 6.96537 7.64839 6.88491C7.47316 6.80445 7.30737 6.85029 7.2781 6.98729C7.24883 7.12429 7.36715 7.30058 7.54238 7.38103C7.71762 7.46149 7.8834 7.41565 7.91267 7.27865Z" fill="#F9A823"/>
<path d="M3.44161 7.44465C3.59965 7.30758 3.68735 7.0963 3.63748 6.97274C3.58761 6.84917 3.41906 6.86012 3.26102 6.99718C3.10297 7.13425 3.01528 7.34553 3.06515 7.46909C3.11501 7.59266 3.28356 7.58171 3.44161 7.44465Z" fill="#F9A823"/>
<path d="M3.23409 8.18232C3.39213 8.04525 3.47983 7.83397 3.42996 7.71041C3.38009 7.58684 3.21155 7.59779 3.0535 7.73485C2.89545 7.87192 2.80776 8.0832 2.85763 8.20676C2.90749 8.33033 3.07604 8.31938 3.23409 8.18232Z" fill="#F9A823"/>
<path d="M8.62221 10.3336L8.57788 9.74878L8.79953 9.81376L8.73304 10.5936L8.62221 10.3336Z" fill="#568B3E"/>
<path d="M2.92578 10.2687L2.50464 10.0087L2.6598 9.35889L3.01444 10.1062L2.92578 10.2687Z" fill="#568B3E"/>
<path d="M3.32485 10.1712L3.28052 9.58638L3.50217 9.29395L3.59083 10.1712H3.32485Z" fill="#568B3E"/>
<path d="M5.65224 9.71629L5.60791 9.13142L5.8074 8.83899L5.82956 9.29389V9.71629H5.65224Z" fill="#568B3E"/>
<path d="M6.33938 9.6513L6.18422 9.71628L6.13989 9.16391L6.38371 9.03394L6.33938 9.6513Z" fill="#568B3E"/>
<path d="M7.55844 9.91131L7.49194 9.45641L7.89092 9.29395L7.84659 10.1063L7.55844 9.91131Z" fill="#568B3E"/>
<path d="M3.08103 9.06652C3.32484 8.80658 3.52433 9.19649 3.48 9.35896C3.45784 9.45643 3.36918 9.55391 3.39134 9.68388C3.41351 9.81385 3.48 9.84635 3.61299 9.81385C3.76815 9.81385 3.83465 9.65139 3.85681 9.48893C3.94548 8.83907 4.21146 8.67661 4.43311 8.83907C4.61044 8.96904 4.41095 9.19649 4.56611 9.29397C4.74343 9.39145 4.85426 9.32646 4.92075 9.19649C4.98725 9.09902 4.89859 8.90406 5.03158 8.67661C5.23107 8.2867 5.74087 8.51415 5.80737 8.77409C5.87386 9.03403 5.69654 9.03403 5.67438 9.26148C5.65221 9.48893 5.96253 9.6189 6.11768 9.52142C6.428 9.32646 6.09552 9.35896 6.11768 9.06652C6.16201 8.67661 6.53883 8.80658 6.62749 8.87157C6.87131 9.06652 6.78264 9.26148 6.82698 9.39145C6.95997 9.68388 7.15946 9.52142 7.27028 9.42394C7.38111 9.32646 7.40328 8.93655 7.73576 9.09902C7.95741 9.19649 7.86875 9.42394 7.78009 9.58641C7.73576 9.65139 7.75792 9.74887 7.80225 9.81385C8.02391 9.94382 8.17906 9.74887 8.28989 9.65139C8.42288 9.55391 8.64454 9.55391 8.7332 9.71638C8.84403 9.91133 8.48938 10.0088 8.62237 10.2038C8.7332 10.3662 8.88836 10.1388 8.93269 10.0413C9.11001 9.68388 9.376 10.3662 9.17651 10.5287C8.91052 10.7561 9.28733 10.7886 9.28733 10.9186C9.28733 11.9584 8.95485 12.4783 8.6667 12.7707C8.37855 13.0631 2.92587 13.4855 2.17224 12.8357C1.83976 12.5432 1.64027 11.211 1.86193 10.9511C2.06142 10.6912 1.8176 10.6587 1.88409 10.3662C1.95059 10.0738 2.01709 10.3012 2.10575 10.2038C2.21657 10.0413 2.17224 9.94382 2.12791 9.81385C2.10575 9.68388 2.3939 9.29397 2.59339 9.29397C2.79287 9.29397 2.54906 9.6189 2.68205 9.71638C2.81504 9.81385 2.88154 9.71638 3.01453 9.55391C3.14752 9.39145 2.94803 9.19649 3.08103 9.06652Z" fill="url(#paint7_linear_10_971)"/>
<path opacity="0.5" d="M8.71106 12.7707C8.40075 13.0631 3.14755 13.5505 2.2166 12.8357C1.83979 12.5108 1.81763 11.2111 1.81763 11.2111L1.99495 10.7237C1.99495 10.7237 2.23877 11.4385 2.41609 11.536C2.59342 11.6335 2.2166 9.91135 2.2166 9.91135C2.2166 9.91135 2.90373 11.341 3.16972 11.3735C3.4357 11.406 3.39137 9.81387 3.39137 9.81387C3.39137 9.81387 3.79035 11.9909 4.012 12.0234C4.23365 12.0559 4.18932 9.65141 4.38881 9.39147C4.5883 9.13152 4.94295 12.3483 5.18677 12.5108C5.40842 12.6732 5.36409 9.71639 5.58574 9.39147C5.85173 9.00155 5.63007 11.9259 6.05122 12.0884C6.45019 12.2508 6.36153 9.74889 6.827 9.58642C7.07082 9.48894 6.71618 11.9909 7.07082 12.0884C7.66929 12.2183 7.78012 10.1063 8.1126 9.94384C8.31209 9.84636 8.09043 11.9259 8.22342 12.0559C8.40075 12.2508 9.35386 11.0161 9.35386 11.0161C9.35386 11.0161 9.35386 12.1858 8.71106 12.7707Z" fill="url(#paint8_linear_10_971)"/>
<path d="M9.13228 14.9476V15.0776C9.08795 15.1751 9.02145 15.305 8.95496 15.37C8.68897 15.4675 8.20134 15.63 7.60287 15.7599H3.6131C2.99247 15.63 2.48267 15.4675 2.23885 15.37C2.17235 15.305 2.12802 15.2076 2.06152 15.1101C2.06152 15.0126 2.06152 14.8826 2.06152 14.7527C2.06152 14.6877 2.06152 14.6227 2.06152 14.5577C2.06152 14.4277 2.08369 14.2653 2.08369 14.1353C2.10585 13.7779 2.15018 13.4205 2.21668 13.1605C2.54916 11.6334 3.6131 10.2687 5.56365 10.2687C7.51421 10.2687 8.51165 11.6334 8.91063 13.1605C8.99929 13.4855 9.04362 13.9403 9.06579 14.3952V14.4602C9.13228 14.5902 9.13228 14.7852 9.13228 14.9476C9.13228 14.9151 9.13228 14.9476 9.13228 14.9476Z" fill="url(#paint9_radial_10_971)"/>
<path d="M9.13228 15.0776C9.13228 15.0451 9.13228 14.9801 9.13228 14.9476C9.13228 14.7852 9.08795 14.6552 9.06579 14.4927C9.06579 14.4603 9.04362 14.4278 9.04362 14.3953C9.02146 14.2978 8.97712 14.2328 8.95496 14.1353C8.84413 13.9079 8.71114 13.6804 8.53382 13.4855C7.89102 12.7381 6.82708 12.2183 5.60799 12.2183C4.23373 12.2183 3.05897 12.8356 2.4605 13.7779C2.41617 13.8429 2.37184 13.9079 2.34967 13.9729C2.30534 14.0703 2.26101 14.1678 2.21668 14.2653C2.17235 14.3628 2.15019 14.4603 2.12802 14.5577C2.10585 14.6227 2.10585 14.6877 2.08369 14.7202C2.06152 14.8177 2.06152 14.9476 2.06152 15.0451C2.06152 15.0451 2.06152 15.0776 2.08369 15.0776C2.12802 15.1751 2.19452 15.2726 2.26101 15.3376C2.4605 15.5975 2.70432 15.7275 2.99247 15.7275H3.65743H7.62504H8.26783C8.53382 15.7275 8.7998 15.5975 8.97712 15.3376C9.02146 15.2726 9.08795 15.1751 9.13228 15.0776Z" fill="url(#paint10_linear_10_971)"/>
<path d="M8.22343 14.4277L8.64457 14.2003L8.48941 13.5179L8.13477 14.2653L8.22343 14.4277Z" fill="#568B3E"/>
<path d="M7.82433 14.3303L7.86867 13.7454L7.64701 13.453L7.55835 14.3303H7.82433Z" fill="#568B3E"/>
<path d="M5.4969 13.8753L5.54123 13.2905L5.34175 12.998L5.31958 13.4529V13.8753H5.4969Z" fill="#568B3E"/>
<path d="M4.80996 13.8105L4.96511 13.8755L5.00944 13.3231L4.76562 13.1931L4.80996 13.8105Z" fill="#568B3E"/>
<path d="M3.56856 14.0704L3.63506 13.6155L3.23608 13.453L3.30258 14.2653L3.56856 14.0704Z" fill="#568B3E"/>
<path d="M9.1766 14.9801C9.1766 15.0126 9.15443 15.0451 9.13227 15.0776C9.08794 15.1751 9.02144 15.305 8.95494 15.37C8.75546 15.5975 8.51164 15.7599 8.24565 15.7599H2.97029C2.70431 15.7599 2.43832 15.5975 2.23883 15.37C2.17234 15.305 2.12801 15.2076 2.06151 15.1101C2.06151 15.1101 2.06151 15.0776 2.03934 15.0776C2.01718 15.0126 1.99501 14.9801 1.97285 14.9151C2.01718 14.8501 2.01718 14.7852 1.90635 14.6877C1.83986 14.6227 1.81769 14.5252 1.83985 14.4277C1.83985 14.3952 1.83986 14.3628 1.86202 14.3303C1.90635 14.1678 2.01718 14.0053 2.12801 14.1353C2.15017 14.1353 2.15017 14.1678 2.17234 14.2003C2.17234 14.2003 2.1945 14.2653 2.21667 14.2653C2.28316 14.3628 2.39399 14.4277 2.48265 14.3303C2.59348 14.1678 2.39399 14.0703 2.37182 13.9728C2.37182 13.9404 2.37182 13.9079 2.39399 13.8754C2.41616 13.8429 2.46049 13.8104 2.48265 13.7779C2.59348 13.7129 2.72647 13.7129 2.8373 13.8104C2.94812 13.9079 3.10328 14.1028 3.30277 14.0053H3.32494C3.3471 13.9728 3.36927 13.9404 3.36927 13.9079C3.36927 13.8754 3.36927 13.8429 3.36927 13.8429V13.8104C3.3471 13.7454 3.30277 13.7129 3.28061 13.6479C3.23627 13.5179 3.25844 13.4205 3.4136 13.3555C3.74608 13.193 3.76824 13.5829 3.87907 13.6804C3.96773 13.7454 4.14506 13.9079 4.27805 13.7129C4.30021 13.6804 4.30021 13.6804 4.32238 13.6479C4.34454 13.5829 4.34454 13.5179 4.34454 13.4205C4.36671 13.323 4.38887 13.2255 4.52187 13.128C4.61053 13.0631 4.98734 12.9331 5.03167 13.323V13.4205C4.98734 13.6154 4.78785 13.6154 5.00951 13.7779C5.00951 13.7779 5.03167 13.7779 5.03167 13.8104C5.12033 13.8754 5.25332 13.8429 5.34199 13.7779C5.40848 13.7454 5.47498 13.6479 5.47498 13.5504C5.47498 13.388 5.38632 13.3555 5.36415 13.2255C5.34199 13.1605 5.34199 13.128 5.36415 13.0306C5.40848 12.7706 5.91829 12.5432 6.13994 12.9331C6.27293 13.1605 6.18427 13.3555 6.25077 13.453C6.33943 13.6154 6.42809 13.6479 6.60541 13.5504C6.76057 13.453 6.58325 13.2255 6.73841 13.0955C6.93789 12.9331 7.22604 13.0955 7.31471 13.7454C7.33687 13.9079 7.42553 14.0703 7.55853 14.0703H7.64719C7.73585 14.0703 7.78018 14.0378 7.78018 13.9404C7.80234 13.8104 7.73585 13.7454 7.69152 13.6154C7.69152 13.6154 7.69152 13.5829 7.69152 13.5504C7.69152 13.3555 7.86884 13.0955 8.09049 13.323C8.24565 13.4855 8.04616 13.6479 8.17916 13.8104C8.24565 13.9079 8.28998 13.9728 8.35648 14.0053C8.40081 14.0378 8.46731 14.0378 8.5338 14.0053C8.62246 13.9404 8.5338 13.7454 8.5338 13.6479C8.5338 13.6154 8.5338 13.5829 8.57813 13.5829H8.62246C8.82195 13.5829 9.1101 13.9728 9.04361 14.1028C9.02144 14.1353 8.99927 14.2003 8.99927 14.2328C8.99927 14.2978 8.99927 14.3628 9.06577 14.4602C9.08794 14.4602 9.08794 14.4927 9.1101 14.4927C9.13227 14.4927 9.15443 14.4927 9.19876 14.4602H9.24309C9.26526 14.4602 9.28743 14.5252 9.30959 14.6227C9.26526 14.7527 9.08794 14.8177 9.1766 14.9801Z" fill="url(#paint11_linear_10_971)"/>
<path opacity="0.5" d="M9.28742 14.6877C9.26526 14.7852 9.22093 14.8827 9.1766 14.9801C9.1766 15.0126 9.15443 15.0451 9.13227 15.0776C9.08794 15.1751 9.02144 15.3051 8.95494 15.3701C8.75546 15.5975 8.51164 15.76 8.24565 15.76H2.97029C2.70431 15.76 2.43832 15.5975 2.23883 15.3701C2.17234 15.3051 2.12801 15.2076 2.06151 15.1101C2.06151 15.1101 2.06151 15.0776 2.03934 15.0776C2.01718 15.0126 1.99501 14.9801 1.97285 14.9152C2.01718 14.8502 2.01718 14.7852 1.90635 14.6877C1.83986 14.6227 1.81769 14.5252 1.83985 14.4278H1.86202C1.92852 14.4603 1.99501 14.4928 2.06151 14.5252H2.08367C2.08367 14.5252 2.10584 14.5252 2.10584 14.5577C2.30533 14.7202 2.30533 15.1426 2.48265 15.2401C2.65997 15.3376 2.50482 14.0054 2.48265 13.8754C2.52698 13.9729 3.10328 15.63 3.36927 15.6625C3.54659 15.695 3.45793 14.7527 3.39143 14.1678C3.36927 14.0379 3.36927 13.9079 3.3471 13.8429C3.3471 13.8104 3.3471 13.7779 3.3471 13.7779C3.3471 13.7779 3.3471 13.7779 3.3471 13.7454C3.36927 13.7779 3.39143 13.9404 3.45793 14.1353C3.59092 14.5577 3.83474 15.1751 3.9899 15.2076C4.16722 15.2401 4.16722 14.1678 4.23372 13.6155C4.25588 13.4855 4.27805 13.388 4.30021 13.323C4.30021 13.323 4.30021 13.323 4.32238 13.2905C4.52187 13.0306 4.92084 15.5325 5.1425 15.695C5.31982 15.825 5.31982 14.5902 5.40848 13.8429C5.43065 13.6155 5.47498 13.453 5.51931 13.388C5.78529 12.9981 5.58581 15.0776 6.00695 15.2401C6.40592 15.4025 6.27293 13.583 6.71624 13.4205C6.96006 13.323 6.67191 15.1751 7.00439 15.2401C7.60286 15.3701 7.78018 14.1028 8.11266 13.9729C8.15699 13.9404 8.17916 13.9729 8.17916 14.0703V14.3953C8.15699 14.7202 8.09049 15.1426 8.17916 15.2401C8.31215 15.3701 8.77762 14.8177 9.04361 14.4603C9.06577 14.4278 9.08794 14.3953 9.08794 14.3953L9.1101 14.3628C9.1766 14.2653 9.22093 14.2003 9.22093 14.2003L9.28742 14.6877Z" fill="url(#paint12_linear_10_971)"/>
<path d="M4.404 2.98941C4.5993 2.96756 4.75082 2.8193 4.74244 2.65826C4.73405 2.49722 4.56894 2.38439 4.37364 2.40624C4.17834 2.42809 4.02682 2.57635 4.0352 2.73739C4.04358 2.89842 4.2087 3.01126 4.404 2.98941Z" fill="#FDD836"/>
<path d="M4.88976 3.31454C5.07285 3.29405 5.21523 3.1614 5.20778 3.01826C5.20032 2.87511 5.04586 2.77568 4.86277 2.79616C4.67968 2.81665 4.53729 2.94929 4.54474 3.09244C4.5522 3.23558 4.70666 3.33502 4.88976 3.31454Z" fill="#F9BF2C"/>
<path d="M5.85477 2.7293C5.85757 2.56784 5.70111 2.43104 5.5053 2.42375C5.30949 2.41646 5.14849 2.54143 5.14569 2.70289C5.14289 2.86435 5.29936 3.00115 5.49516 3.00844C5.69097 3.01574 5.85197 2.89076 5.85477 2.7293Z" fill="#FDD836"/>
<path d="M6.89217 3.04322C6.89465 2.8997 6.74786 2.77781 6.56429 2.77097C6.38072 2.76414 6.22989 2.87494 6.2274 3.01846C6.22492 3.16198 6.37171 3.28386 6.55528 3.2907C6.73885 3.29754 6.88968 3.18674 6.89217 3.04322Z" fill="#F9BF2C"/>
<path d="M5.66096 3.54225C5.84434 3.52868 5.98901 3.40146 5.98407 3.25808C5.97913 3.11471 5.82647 3.00948 5.64308 3.02304C5.4597 3.03661 5.31504 3.16384 5.31997 3.30721C5.32491 3.45059 5.47757 3.55582 5.66096 3.54225Z" fill="#FDD836"/>
<path d="M4.06355 3.51635C4.23057 3.4045 4.33299 3.20798 4.2923 3.07739C4.25161 2.94681 4.08322 2.93162 3.91619 3.04346C3.74917 3.1553 3.64676 3.35183 3.68745 3.48241C3.72814 3.613 3.89653 3.62819 4.06355 3.51635Z" fill="#F9BF2C"/>
<path d="M3.91564 4.17596C4.08964 4.08998 4.20534 3.91 4.17406 3.77396C4.14278 3.63793 3.97637 3.59734 3.80236 3.68332C3.62836 3.76929 3.51266 3.94927 3.54394 4.08531C3.57522 4.22135 3.74164 4.26193 3.91564 4.17596Z" fill="#F9A823"/>
<path d="M7.41045 3.73595C7.42622 3.59425 7.29208 3.44425 7.11084 3.40092C6.92961 3.35758 6.7699 3.43731 6.75414 3.57901C6.73837 3.7207 6.87251 3.8707 7.05374 3.91404C7.23498 3.95738 7.39469 3.87764 7.41045 3.73595Z" fill="#F9A823"/>
<path d="M7.93074 3.35763C7.96001 3.22063 7.84169 3.04435 7.66645 2.96389C7.49122 2.88343 7.32544 2.92927 7.29617 3.06627C7.26689 3.20327 7.38522 3.37955 7.56045 3.46001C7.73568 3.54047 7.90147 3.49463 7.93074 3.35763Z" fill="#F9A823"/>
<path d="M3.43941 3.51386C3.59745 3.37679 3.68515 3.16551 3.63528 3.04195C3.58541 2.91839 3.41687 2.92933 3.25882 3.0664C3.10078 3.20346 3.01308 3.41474 3.06295 3.53831C3.11282 3.66187 3.28136 3.65092 3.43941 3.51386Z" fill="#F9A823"/>
<path d="M3.23384 4.24982C3.39189 4.11276 3.47958 3.90147 3.42972 3.77791C3.37985 3.65435 3.2113 3.66529 3.05326 3.80236C2.89521 3.93942 2.80752 4.15071 2.85738 4.27427C2.90725 4.39783 3.0758 4.38689 3.23384 4.24982Z" fill="#F9A823"/>
<path d="M4.84557 11.0152C5.02866 10.9947 5.17104 10.8621 5.16359 10.7189C5.15614 10.5758 5.00167 10.4764 4.81858 10.4968C4.63549 10.5173 4.4931 10.65 4.50055 10.7931C4.50801 10.9363 4.66247 11.0357 4.84557 11.0152Z" fill="#FDD836"/>
<path d="M4.88976 11.5351C5.07285 11.5146 5.21523 11.382 5.20778 11.2388C5.20032 11.0957 5.04586 10.9963 4.86277 11.0167C4.67968 11.0372 4.53729 11.1699 4.54474 11.313C4.5522 11.4562 4.70666 11.5556 4.88976 11.5351Z" fill="#F9BF2C"/>
<path d="M6.20857 10.7874C6.21106 10.6438 6.06426 10.522 5.8807 10.5151C5.69713 10.5083 5.5463 10.6191 5.54381 10.7626C5.54132 10.9061 5.68812 11.028 5.87169 11.0348C6.05526 11.0417 6.20609 10.9309 6.20857 10.7874Z" fill="#FDD836"/>
<path d="M6.8907 11.2717C6.89319 11.1282 6.74639 11.0063 6.56282 10.9995C6.37926 10.9927 6.22843 11.1035 6.22594 11.247C6.22345 11.3905 6.37025 11.5124 6.55382 11.5192C6.73739 11.5261 6.88821 11.4153 6.8907 11.2717Z" fill="#F9BF2C"/>
<path d="M5.66096 11.7626C5.84434 11.749 5.98901 11.6218 5.98407 11.4784C5.97913 11.335 5.82647 11.2298 5.64308 11.2434C5.4597 11.2569 5.31504 11.3842 5.31997 11.5275C5.32491 11.6709 5.47757 11.7762 5.66096 11.7626Z" fill="#FDD836"/>
<path d="M6.90722 10.8339C6.92136 10.6918 6.78553 10.5451 6.60383 10.5063C6.42214 10.4674 6.26338 10.5511 6.24924 10.6931C6.2351 10.8352 6.37093 10.9818 6.55262 11.0207C6.73432 11.0596 6.89308 10.9759 6.90722 10.8339Z" fill="#FDD836"/>
<path d="M4.06111 11.7373C4.22813 11.6254 4.33055 11.4289 4.28985 11.2983C4.24916 11.1678 4.08078 11.1526 3.91375 11.2644C3.74673 11.3763 3.64431 11.5728 3.68501 11.7034C3.7257 11.8339 3.89408 11.8491 4.06111 11.7373Z" fill="#F9BF2C"/>
<path d="M3.91539 12.3958C4.0894 12.3098 4.20509 12.1299 4.17382 11.9938C4.14254 11.8578 3.97612 11.8172 3.80212 11.9032C3.62812 11.9891 3.51242 12.1691 3.5437 12.3052C3.57498 12.4412 3.74139 12.4818 3.91539 12.3958Z" fill="#F9A823"/>
<path d="M7.40923 11.9637C7.425 11.822 7.29086 11.672 7.10962 11.6287C6.92838 11.5854 6.76868 11.6651 6.75291 11.8068C6.73715 11.9485 6.87129 12.0985 7.05252 12.1418C7.23376 12.1852 7.39346 12.1054 7.40923 11.9637Z" fill="#F9A823"/>
<path d="M8.43751 12.4401C8.47325 12.3064 8.36362 12.1184 8.19265 12.0202C8.02167 11.922 7.8541 11.9507 7.81837 12.0844C7.78263 12.2181 7.89226 12.406 8.06323 12.5043C8.23421 12.6025 8.40178 12.5738 8.43751 12.4401Z" fill="#F9A823"/>
<path d="M7.92952 11.5846C7.95879 11.4476 7.84047 11.2713 7.66523 11.1908C7.49 11.1104 7.32422 11.1562 7.29495 11.2932C7.26567 11.4302 7.384 11.6065 7.55923 11.6869C7.73446 11.7674 7.90025 11.7216 7.92952 11.5846Z" fill="#F9A823"/>
<path d="M3.45772 11.7211C3.61576 11.5841 3.70346 11.3728 3.65359 11.2492C3.60372 11.1257 3.43518 11.1366 3.27713 11.2737C3.11909 11.4107 3.03139 11.622 3.08126 11.7456C3.13113 11.8691 3.29967 11.8582 3.45772 11.7211Z" fill="#F9A823"/>
<path d="M3.15425 12.6662C3.3123 12.5291 3.39999 12.3179 3.35013 12.1943C3.30026 12.0707 3.13171 12.0817 2.97367 12.2187C2.81562 12.3558 2.72793 12.5671 2.77779 12.6907C2.82766 12.8142 2.99621 12.8033 3.15425 12.6662Z" fill="#F9A823"/>
<path d="M24.005 21.4884C23.9386 20.7671 23.4709 20.8321 23.4265 20.8321C23.3379 20.5364 23.094 20.5039 22.8702 20.5039C22.7594 20.5039 22.6485 20.5364 22.5377 20.6339C22.4047 20.7314 22.2717 20.7314 22.1587 20.6339C22.0478 20.5689 21.9149 20.5039 21.8262 20.5039C21.7375 20.5039 21.6045 20.5364 21.4937 20.6339C21.3607 20.7314 21.2277 20.7314 21.1147 20.6339C21.0039 20.5689 20.8709 20.5039 20.7822 20.5039C20.6935 20.5039 20.5605 20.5364 20.4497 20.6339C20.3167 20.7314 20.1837 20.7314 20.0707 20.6339C19.9599 20.5689 19.8269 20.5039 19.7382 20.5039C19.6495 20.5039 19.5166 20.5364 19.4057 20.6339C19.2727 20.7314 19.1397 20.7314 19.0267 20.6339C18.9159 20.5689 18.7829 20.5039 18.6942 20.5039C18.4726 20.5039 18.16 20.5364 18.0935 20.8321C18.0492 20.8321 17.6923 20.9296 17.5815 21.4234C17.4264 21.7191 17.3599 22.0473 17.3599 22.4405V29.3744C17.3599 30.3264 17.8719 31.0835 18.5169 31.0835H23.1428C23.7878 31.0835 24.2998 30.3264 24.2998 29.3744V22.4437C24.2045 22.1123 24.138 21.7516 24.005 21.4884Z" fill="url(#paint13_linear_10_971)"/>
<path opacity="0.2" d="M19.4833 23.1034C19.3725 23.1359 19.0179 23.3308 18.907 23.2983C18.4859 23.2008 18.1534 22.7784 18.0204 22.421C17.9096 22.1286 18.3751 22.0961 18.4194 22.1936C18.6189 22.7134 19.1952 22.3235 19.4612 22.356C19.8823 22.421 20.1926 22.8109 19.4833 23.1034Z" fill="#434343"/>
<path d="M19.7715 22.7134C19.7715 22.7134 19.6829 22.8758 19.1731 22.8758L17.8653 21.3162C17.7767 21.1862 17.954 20.9913 18.0648 20.8938L18.1313 20.8288C18.1978 20.7963 18.2643 20.7638 18.3308 20.7963L19.9932 21.4461C20.1262 21.5111 20.1705 21.6736 20.1262 21.8036L19.838 22.5834C19.8159 22.6484 19.7937 22.6809 19.7715 22.7134Z" fill="#F47C20"/>
<path d="M19.1066 22.8433L18.1757 22.5508C18.1313 22.5183 18.087 22.4859 18.0648 22.4209L17.821 21.3161C17.7767 21.1861 17.9097 21.0562 18.0205 21.0887L19.5277 21.7385C19.6164 21.771 19.6386 21.8685 19.6164 21.966L19.3947 22.6808C19.3504 22.8108 19.2396 22.8758 19.1066 22.8433Z" fill="#F37021"/>
<path opacity="0.2" d="M19.6163 25.4428C19.7272 25.5077 19.705 25.7677 20.2591 25.7352C20.8133 25.7027 21.3231 25.4753 21.4782 25.0528C21.5891 24.7604 21.1236 24.7279 21.0793 24.8254C20.8798 25.3453 20.3035 24.9554 20.0375 24.9879C19.6385 25.0204 19.4612 25.3453 19.6163 25.4428Z" fill="#434343"/>
<path d="M19.9709 25.4103L21.2787 24.9229L21.3673 24.2081L20.9905 23.7532C20.9462 23.6882 20.8797 23.6557 20.8132 23.6557L19.8158 23.5258C19.7049 23.5907 19.5054 23.9482 19.5498 24.1106L19.6163 25.1179L19.9709 25.4103Z" fill="#F47C20"/>
<path d="M20.1484 25.4103L21.1902 25.0854C21.2567 25.0529 21.3232 24.9879 21.3454 24.8904L21.434 24.598C21.5005 24.3705 21.3897 24.1431 21.2345 24.1106L20.1263 23.9806C19.9933 23.9481 19.8824 24.1106 19.8824 24.3055L19.8603 25.0529C19.8381 25.2803 19.9933 25.4428 20.1484 25.4103Z" fill="#F37021"/>
<path opacity="0.2" d="M22.3205 28.5295C22.4313 28.5945 22.4091 28.8545 22.9632 28.822C23.5174 28.7895 24.0272 28.562 24.1823 28.1396C24.2932 27.8472 23.8277 27.8147 23.7834 27.9122C23.5839 28.4321 23.0076 28.0422 22.7416 28.0747C22.3426 28.1071 22.1653 28.4321 22.3205 28.5295Z" fill="#434343"/>
<path d="M22.653 28.497L23.9607 28.0096L24.0494 27.2948L23.6726 26.8399C23.6283 26.7749 23.5618 26.7424 23.4953 26.7424L22.3648 27.0024C22.254 27.0674 22.0545 27.4248 22.0989 27.5872L22.2983 28.2046C22.3205 28.2371 22.653 28.497 22.653 28.497Z" fill="#F47C20"/>
<path d="M22.8304 28.4971L23.8721 28.1722C23.9386 28.1397 24.0051 28.0747 24.0273 27.9772L24.116 27.6848C24.1825 27.4573 24.0716 27.2299 23.9165 27.1974L22.6752 27.3274C22.5422 27.2949 22.4314 27.4573 22.4314 27.6523L22.5644 28.1397C22.5422 28.3671 22.6752 28.5296 22.8304 28.4971Z" fill="#F37021"/>
<path opacity="0.2" d="M20.104 29.7968C19.9932 29.8617 20.0153 30.1217 19.4612 30.0892C18.9071 30.0567 18.3973 29.8293 18.2421 29.4069C18.1313 29.1144 18.5967 29.0819 18.6411 29.1794C18.8406 29.6993 19.4169 29.3094 19.6829 29.3419C20.0818 29.3744 20.2592 29.6993 20.104 29.7968Z" fill="#434343"/>
<path d="M19.7714 29.7644L18.4637 29.277L18.375 28.5621L18.7518 28.1072C18.7961 28.0423 18.8626 28.0098 18.9291 28.0098L20.0596 28.2697C20.1704 28.3347 20.3699 28.6921 20.3256 28.8546L20.1261 29.4719C20.1039 29.5044 19.7714 29.7644 19.7714 29.7644Z" fill="#F47C20"/>
<path d="M19.5943 29.7643L18.5526 29.4394C18.4861 29.4069 18.4196 29.3419 18.3974 29.2444L18.3087 28.952C18.2423 28.7245 18.3531 28.4971 18.5082 28.4646L19.7495 28.5946C19.8825 28.5621 19.9933 28.7245 19.9933 28.9195L19.8603 29.4069C19.8825 29.6343 19.7495 29.8293 19.5943 29.7643Z" fill="#F37021"/>
<path d="M18.5524 22.9409C18.5967 23.0708 18.7519 23.2008 18.7519 23.2008L19.3282 23.0383C19.3282 23.0383 19.3946 22.9733 19.4168 22.9084C19.5055 22.7459 19.2617 21.9011 18.9513 22.096C18.641 22.291 18.4637 22.6809 18.5524 22.9409Z" fill="#FCB316"/>
<path d="M18.8206 22.9646C18.9265 22.9199 19.0013 22.8277 18.9878 22.7587C18.9742 22.6897 18.8774 22.6701 18.7715 22.7148C18.6657 22.7595 18.5908 22.8517 18.6044 22.9207C18.6179 22.9896 18.7148 23.0093 18.8206 22.9646Z" fill="#F78F1E"/>
<path d="M21.6113 25.1829C21.4339 24.9554 21.2566 25.0854 21.0793 25.2153C20.9685 25.3128 20.8576 25.4428 20.8133 25.6702C20.769 25.8977 21.1901 26.5475 21.4339 26.1901C21.6777 25.8327 21.7664 25.3778 21.6113 25.1829Z" fill="#FCB316"/>
<path d="M21.4885 25.5031C21.5762 25.4054 21.6233 25.2799 21.5937 25.2227C21.5641 25.1656 21.4689 25.1985 21.3812 25.2962C21.2935 25.3939 21.2464 25.5195 21.2761 25.5766C21.3057 25.6338 21.4008 25.6009 21.4885 25.5031Z" fill="#F78F1E"/>
<path d="M22.5201 29.8293C22.6088 30.1542 22.7861 30.1867 22.9856 30.1867C23.1186 30.1867 23.2516 30.1217 23.3624 29.9918C23.4732 29.8618 23.3181 28.952 22.9856 29.1145C22.6531 29.2119 22.4315 29.5369 22.5201 29.8293Z" fill="#FCB316"/>
<path d="M22.7577 29.897C22.8668 29.8736 22.9494 29.7971 22.9423 29.726C22.9352 29.655 22.8411 29.6164 22.7321 29.6398C22.623 29.6632 22.5404 29.7397 22.5475 29.8107C22.5546 29.8818 22.6487 29.9204 22.7577 29.897Z" fill="#F78F1E"/>
<path d="M17.6214 27.7497C17.71 28.0746 17.8874 28.1071 18.0869 28.1071C18.2199 28.1071 18.3528 28.0421 18.4637 27.9122C18.5745 27.7822 18.4193 26.8724 18.0869 27.0349C17.7544 27.1323 17.5549 27.4573 17.6214 27.7497Z" fill="#FCB316"/>
<path d="M17.8791 27.8144C17.9881 27.791 18.0707 27.7144 18.0636 27.6434C18.0565 27.5724 17.9624 27.5338 17.8534 27.5571C17.7444 27.5805 17.6618 27.6571 17.6688 27.7281C17.6759 27.7991 17.7701 27.8377 17.8791 27.8144Z" fill="#F78F1E"/>
<path opacity="0.2" d="M23.2294 22.291C23.4253 22.291 23.584 22.1746 23.584 22.0311C23.584 21.8875 23.4253 21.7711 23.2294 21.7711C23.0335 21.7711 22.8748 21.8875 22.8748 22.0311C22.8748 22.1746 23.0335 22.291 23.2294 22.291Z" fill="#434343"/>
<path d="M23.2294 22.0311C23.4253 22.0311 23.584 21.7983 23.584 21.5112C23.584 21.2241 23.4253 20.9913 23.2294 20.9913C23.0335 20.9913 22.8748 21.2241 22.8748 21.5112C22.8748 21.7983 23.0335 22.0311 23.2294 22.0311Z" fill="url(#paint14_radial_10_971)"/>
<path opacity="0.2" d="M18.641 25.6052C18.8369 25.6052 18.9957 25.4888 18.9957 25.3453C18.9957 25.2017 18.8369 25.0853 18.641 25.0853C18.4452 25.0853 18.2864 25.2017 18.2864 25.3453C18.2864 25.4888 18.4452 25.6052 18.641 25.6052Z" fill="#434343"/>
<path d="M18.6191 25.3453C18.8149 25.3453 18.9737 25.1125 18.9737 24.8254C18.9737 24.5383 18.8149 24.3055 18.6191 24.3055C18.4232 24.3055 18.2644 24.5383 18.2644 24.8254C18.2644 25.1125 18.4232 25.3453 18.6191 25.3453Z" fill="url(#paint15_radial_10_971)"/>
<path opacity="0.2" d="M22.5421 26.3851C22.738 26.3851 22.8968 26.2687 22.8968 26.1252C22.8968 25.9816 22.738 25.8652 22.5421 25.8652C22.3463 25.8652 22.1875 25.9816 22.1875 26.1252C22.1875 26.2687 22.3463 26.3851 22.5421 26.3851Z" fill="#434343"/>
<path d="M22.5421 26.0926C22.738 26.0926 22.8968 25.8599 22.8968 25.5727C22.8968 25.2856 22.738 25.0529 22.5421 25.0529C22.3463 25.0529 22.1875 25.2856 22.1875 25.5727C22.1875 25.8599 22.3463 26.0926 22.5421 26.0926Z" fill="url(#paint16_radial_10_971)"/>
<path opacity="0.2" d="M21.2345 29.8943C21.4304 29.8943 21.5892 29.7779 21.5892 29.6343C21.5892 29.4908 21.4304 29.3744 21.2345 29.3744C21.0387 29.3744 20.8799 29.4908 20.8799 29.6343C20.8799 29.7779 21.0387 29.8943 21.2345 29.8943Z" fill="#434343"/>
<path d="M21.2345 29.6018C21.4304 29.6018 21.5892 29.369 21.5892 29.0819C21.5892 28.7948 21.4304 28.562 21.2345 28.562C21.0387 28.562 20.8799 28.7948 20.8799 29.0819C20.8799 29.369 21.0387 29.6018 21.2345 29.6018Z" fill="url(#paint17_radial_10_971)"/>
<path opacity="0.2" d="M23.2736 23.9481C23.2736 24.1756 23.0963 24.2731 22.653 24.2081C22.3427 24.1431 22.2319 24.2081 22.2319 24.0131C22.2319 23.8182 22.2097 23.2658 22.6752 23.1683C23.1185 23.0383 23.2736 23.6232 23.2736 23.9481Z" fill="#434343"/>
<path d="M22.6973 23.5907C22.9633 23.5907 23.2292 23.9806 23.2292 23.9806C23.2514 23.9156 23.2071 23.3308 23.1406 23.2658L22.6973 22.8759C22.6529 22.8434 22.5643 22.8434 22.5421 22.9409L22.2761 23.4607L22.2983 24.0131C22.4313 24.0781 22.4313 23.5907 22.6973 23.5907Z" fill="#AF5C2B"/>
<path d="M22.6086 24.0456C22.6529 24.0781 22.7859 24.1106 22.8524 24.1106C22.9854 24.0781 22.9854 24.0456 23.1406 24.0456C23.2736 24.0781 23.2292 23.9156 23.1406 23.8182L22.6973 23.4282C22.6529 23.3958 22.5643 23.3958 22.5421 23.4932L22.2761 24.0131C22.4756 24.1106 22.5199 23.9806 22.6086 24.0456Z" fill="#8B4A22"/>
<path d="M22.6309 23.3957C22.5866 23.3957 22.5645 23.3632 22.5645 23.2983V22.9733C22.5645 22.9083 22.5866 22.8759 22.6309 22.8759C22.6753 22.8759 22.6974 22.9083 22.6974 22.9733V23.2983C22.6974 23.3308 22.6753 23.3957 22.6309 23.3957Z" fill="#C56E39"/>
<path opacity="0.2" d="M21.6335 22.6808C21.6335 22.9083 21.4562 23.0058 21.0129 22.9408C20.7025 22.8758 20.5917 22.9408 20.5917 22.7458C20.5917 22.5509 20.5696 21.9985 21.035 21.901C21.4783 21.8035 21.6335 22.3559 21.6335 22.6808Z" fill="#434343"/>
<path d="M21.0571 22.356C21.3231 22.356 21.5891 22.7459 21.5891 22.7459C21.6113 22.6809 21.5669 22.096 21.5004 22.031L21.0571 21.6411C21.0128 21.6086 20.9241 21.6086 20.902 21.7061L20.636 22.226L20.6582 22.7784C20.769 22.8434 20.7911 22.356 21.0571 22.356Z" fill="#AF5C2B"/>
<path d="M20.9685 22.7784C21.0128 22.8109 21.1458 22.8434 21.2123 22.8434C21.3453 22.8109 21.3453 22.7784 21.5004 22.7784C21.6334 22.8109 21.5891 22.6484 21.5004 22.5509L21.0571 22.161C21.0128 22.1285 20.9241 22.1285 20.902 22.226L20.636 22.7459C20.8355 22.8759 20.8576 22.7459 20.9685 22.7784Z" fill="#8B4A22"/>
<path d="M20.9906 22.1285C20.9462 22.1285 20.9241 22.096 20.9241 22.031V21.7061C20.9241 21.6411 20.9462 21.6086 20.9906 21.6086C21.0349 21.6086 21.0571 21.6411 21.0571 21.7061V22.031C21.0571 22.096 21.0349 22.1285 20.9906 22.1285Z" fill="#C56E39"/>
<path opacity="0.2" d="M19.8603 26.9374C19.8603 27.1649 19.683 27.2624 19.2397 27.1974C18.9294 27.1324 18.8185 27.1974 18.8185 27.0024C18.8185 26.8075 18.7964 26.2551 19.2618 26.1576C19.7051 26.0601 19.8603 26.6125 19.8603 26.9374Z" fill="#434343"/>
<path d="M19.2839 26.6124C19.5499 26.6124 19.8159 27.0024 19.8159 27.0024C19.8381 26.9374 19.7937 26.3525 19.7272 26.2875L19.2839 25.8976C19.2396 25.8651 19.1509 25.8651 19.1288 25.9626L18.8628 26.4825L18.885 27.0348C19.018 27.0998 19.0179 26.6124 19.2839 26.6124Z" fill="#AF5C2B"/>
<path d="M19.1953 27.0349C19.2396 27.0674 19.3726 27.0999 19.4391 27.0999C19.5721 27.0674 19.5721 27.0349 19.7272 27.0349C19.8602 27.0674 19.8159 26.9049 19.7272 26.8074L19.2839 26.4175C19.2396 26.385 19.1509 26.385 19.1288 26.4825L18.8628 27.0024C19.0623 27.1323 19.1066 26.9699 19.1953 27.0349Z" fill="#8B4A22"/>
<path d="M19.2174 26.3851C19.173 26.3851 19.1509 26.3526 19.1509 26.2876V25.9627C19.1509 25.8977 19.173 25.8652 19.2174 25.8652C19.2617 25.8652 19.2839 25.8977 19.2839 25.9627V26.2876C19.2839 26.3526 19.2617 26.3851 19.2174 26.3851Z" fill="#C56E39"/>
<path opacity="0.2" d="M21.8552 11.536C22.1876 12.1533 22.3871 12.8682 22.3871 13.648C22.3871 14.4928 22.1655 15.2726 21.7665 15.89H16.8679C16.469 15.2726 16.2473 14.4928 16.2473 13.648C16.2473 12.6407 16.5798 11.7634 17.0896 11.0811C16.7793 10.6587 16.602 10.1388 16.602 9.61891C16.602 8.12425 17.9762 6.88953 19.6829 6.88953C21.3897 6.88953 22.7639 8.09175 22.7639 9.61891C22.7639 10.3662 22.4093 11.0161 21.8552 11.536Z" fill="#212121"/>
<path d="M22.0988 14.1028C22.0988 14.7527 21.9437 15.37 21.6999 15.8899H17.2225C16.9565 15.37 16.8235 14.7527 16.8235 14.1028C16.8235 14.0378 16.8235 14.0053 16.8235 13.9404C16.89 12.1858 18.0426 10.7886 19.4612 10.7886C20.8798 10.7886 22.0102 12.1858 22.0988 13.9404V14.1028Z" fill="#1E5F30"/>
<path d="M22.0988 13.7454V13.9079C22.0767 14.6552 21.855 15.3376 21.5004 15.8574H17.422C17.0673 15.3051 16.8457 14.6552 16.8235 13.9079C16.8235 13.8429 16.8235 13.7779 16.8235 13.7454C16.8235 11.8933 17.9983 10.3987 19.4612 10.3987C20.9241 10.3987 22.0988 11.8933 22.0988 13.7454Z" fill="#4D803B"/>
<path d="M21.6335 13.6805C21.6335 14.5902 21.2788 15.4026 20.7469 15.89H18.1757C17.6437 15.4026 17.2891 14.5902 17.2891 13.6805C17.2891 12.1533 18.2643 10.9186 19.4613 10.9186C20.6582 10.9186 21.6335 12.1533 21.6335 13.6805Z" fill="#B7CE7A"/>
<path d="M19.4612 15.63C20.3182 15.63 21.0128 14.7571 21.0128 13.6804C21.0128 12.6037 20.3182 11.7308 19.4612 11.7308C18.6043 11.7308 17.9097 12.6037 17.9097 13.6804C17.9097 14.7571 18.6043 15.63 19.4612 15.63Z" fill="#B3CA62"/>
<path d="M21.4607 5.27849C22.3164 4.47552 22.6517 3.00372 22.2095 1.99112C21.7673 0.978518 20.7152 0.808572 19.8595 1.61154C19.0038 2.4145 18.6685 3.8863 19.1107 4.89891C19.5528 5.91151 20.605 6.08145 21.4607 5.27849Z" fill="#568B3E"/>
<path opacity="0.2" d="M22.4905 13.0019C22.7335 11.9669 21.814 10.5644 20.4366 9.86929C19.0593 9.17419 17.7457 9.44974 17.5026 10.4847C17.2595 11.5197 18.1791 12.9223 19.5564 13.6174C20.9338 14.3125 22.2474 14.0369 22.4905 13.0019Z" fill="#212121"/>
<path d="M19.261 9.78925C20.339 9.37773 20.9153 7.3689 20.5482 5.3024C20.1811 3.23589 19.0096 1.89426 17.9316 2.30578C16.8536 2.7173 16.2773 4.72614 16.6444 6.79264C17.0115 8.85914 18.183 10.2008 19.261 9.78925Z" fill="#1E5F30"/>
<path d="M19.4847 9.71784C20.5627 9.30632 21.139 7.29749 20.7719 5.23098C20.4048 3.16448 19.2333 1.82285 18.1553 2.23437C17.0773 2.64589 16.501 4.65472 16.8681 6.72123C17.2352 8.78773 18.4067 10.1294 19.4847 9.71784Z" fill="#568B3E"/>
<path d="M19.4093 9.02519C20.2978 8.68602 20.7729 7.03147 20.4706 5.32965C20.1683 3.62782 19.203 2.52316 18.3145 2.86233C17.4261 3.20149 16.9509 4.85604 17.2532 6.55787C17.5555 8.25969 18.5208 9.36435 19.4093 9.02519Z" fill="#CEE298"/>
<path d="M19.253 8.1447C19.8809 7.90503 20.2148 6.7253 19.9989 5.50971C19.7829 4.29412 19.0989 3.50299 18.471 3.74266C17.8432 3.98234 17.5093 5.16207 17.7252 6.37766C17.9412 7.59325 18.6252 8.38438 19.253 8.1447Z" fill="#C4DC72"/>
<path d="M23.4675 6.03957C23.9031 4.55613 23.2627 2.72659 22.0372 1.95318C20.8116 1.17977 19.4649 1.75536 19.0293 3.2388C18.5936 4.72224 19.234 6.55178 20.4596 7.32519C21.6852 8.09861 23.0319 7.52302 23.4675 6.03957Z" fill="#1E5F30"/>
<path d="M23.5422 5.76858C23.9778 4.28514 23.3374 2.4556 22.1119 1.68218C20.8863 0.908772 19.5396 1.48436 19.104 2.9678C18.6683 4.45124 19.3087 6.28078 20.5343 7.0542C21.7599 7.82761 23.1066 7.25202 23.5422 5.76858Z" fill="#568B3E"/>
<path d="M23.1757 5.45197C23.5339 4.23226 23.0039 2.72579 21.992 2.0872C20.98 1.4486 19.8693 1.91969 19.5111 3.13941C19.1529 4.35912 19.6829 5.86559 20.6949 6.50418C21.7068 7.14278 22.8175 6.67169 23.1757 5.45197Z" fill="#CEE298"/>
<path d="M22.7685 5.19494C23.0444 4.25543 22.63 3.09116 21.8429 2.59447C21.0559 2.09778 20.1942 2.45676 19.9183 3.39628C19.6424 4.33579 20.0568 5.50006 20.8438 5.99674C21.6309 6.49343 22.4926 6.13445 22.7685 5.19494Z" fill="#C4DC72"/>
<path d="M22.9898 12.0675C24.2999 11.696 25.1923 10.1095 24.983 8.52378C24.7738 6.93811 23.5422 5.95378 22.2322 6.32523C20.9221 6.69668 20.0297 8.28325 20.2389 9.86892C20.4482 11.4546 21.6798 12.4389 22.9898 12.0675Z" fill="#1E5F30"/>
<path d="M22.9407 11.5478C24.2508 11.1764 25.1432 9.5898 24.934 8.00413C24.7248 6.41845 23.4931 5.43413 22.1831 5.80558C20.873 6.17703 19.9806 7.76359 20.1899 9.34927C20.3991 10.9349 21.6307 11.9193 22.9407 11.5478Z" fill="#4D803B"/>
<path d="M22.8733 10.9693C23.955 10.6626 24.6924 9.35703 24.5204 8.05325C24.3484 6.74948 23.332 5.94119 22.2503 6.24789C21.1686 6.55459 20.4312 7.86014 20.6032 9.16392C20.7753 10.4677 21.7916 11.276 22.8733 10.9693Z" fill="#B7CE7A"/>
<path d="M22.8185 10.5546C23.7079 10.3024 24.3139 9.22676 24.1721 8.15203C24.0303 7.07729 23.1944 6.41048 22.305 6.66266C21.4156 6.91483 20.8095 7.99051 20.9513 9.06524C21.0931 10.14 21.9291 10.8068 22.8185 10.5546Z" fill="#B3CA62"/>
<path opacity="0.2" d="M14.1415 10.7236C15.8431 10.7236 17.2225 9.60344 17.2225 8.22166C17.2225 6.83988 15.8431 5.71973 14.1415 5.71973C12.44 5.71973 11.0605 6.83988 11.0605 8.22166C11.0605 9.60344 12.44 10.7236 14.1415 10.7236Z" fill="#212121"/>
<path d="M21.9667 11.2035C22.3324 9.92987 21.5403 8.22591 20.1976 7.39756C18.8549 6.56921 17.4701 6.93014 17.1044 8.20373C16.7388 9.47732 17.5308 11.1813 18.8735 12.0096C20.2162 12.838 21.6011 12.477 21.9667 11.2035Z" fill="#1E5F30"/>
<path d="M22.0497 10.5838C22.4154 9.31025 21.6233 7.60629 20.2806 6.77793C18.9379 5.94958 17.5531 6.31052 17.1874 7.5841C16.8218 8.85769 17.6139 10.5616 18.9565 11.39C20.2992 12.2184 21.6841 11.8574 22.0497 10.5838Z" fill="#568B3E"/>
<path d="M21.6234 10.2817C21.9273 9.22312 21.2773 7.81198 20.1715 7.1298C19.0658 6.44763 17.923 6.75276 17.6191 7.81132C17.3152 8.86989 17.9652 10.281 19.071 10.9632C20.1767 11.6454 21.3195 11.3403 21.6234 10.2817Z" fill="#F9EBBB"/>
<path d="M21.2351 10.0422C21.482 9.18216 20.9596 8.03913 20.0682 7.48922C19.1768 6.93931 18.2541 7.19075 18.0072 8.05083C17.7602 8.91092 18.2827 10.0539 19.174 10.6039C20.0654 11.1538 20.9881 10.9023 21.2351 10.0422Z" fill="#DEE67C"/>
<path d="M22.5228 15.6816C23.7638 15.4803 24.6978 14.3628 24.6089 13.1856C24.5201 12.0085 23.442 11.2174 22.2009 11.4188C20.9599 11.6201 20.0259 12.7376 20.1148 13.9148C20.2037 15.0919 21.2817 15.883 22.5228 15.6816Z" fill="#1E5F30"/>
<path opacity="0.2" d="M23.2514 15.89H21.2122C20.6359 15.5975 20.2369 15.0127 20.1704 14.2978C20.1704 14.2653 20.1704 14.2328 20.1704 14.2003C20.1704 14.1353 20.1704 14.0704 20.1704 14.0054C20.1926 13.648 20.3034 13.2905 20.5029 12.9656C20.7024 12.6407 20.9905 12.3158 21.3452 12.1208C21.6112 11.9583 21.9215 11.8284 22.254 11.7634C22.5199 11.7309 22.7859 11.7309 23.0297 11.7634C23.4066 11.8284 23.739 11.9908 24.005 12.2183C24.2488 12.4457 24.4483 12.7057 24.5592 13.0306C24.5813 13.0956 24.6035 13.1281 24.6035 13.1931C24.6257 13.2905 24.6478 13.388 24.6478 13.518C24.7365 14.5578 24.138 15.4675 23.2514 15.89Z" fill="#212121"/>
<path d="M22.4783 15.3242C23.7194 15.1229 24.6534 14.0054 24.5645 12.8282C24.4756 11.651 23.3975 10.86 22.1565 11.0613C20.9155 11.2627 19.9815 12.3802 20.0703 13.5573C20.1592 14.7345 21.2373 15.5255 22.4783 15.3242Z" fill="#568B3E"/>
<path d="M22.4539 14.9364C23.476 14.7705 24.2444 13.8409 24.1704 12.8599C24.0963 11.879 23.2078 11.2182 22.1857 11.384C21.1637 11.5498 20.3952 12.4794 20.4693 13.4604C20.5434 14.4414 21.4319 15.1022 22.4539 14.9364Z" fill="#F9EBBB"/>
<path d="M22.427 14.581C23.2543 14.4468 23.877 13.7018 23.8177 12.917C23.7585 12.1323 23.0398 11.6049 22.2124 11.7391C21.3851 11.8734 20.7624 12.6184 20.8216 13.4031C20.8809 14.1879 21.5996 14.7153 22.427 14.581Z" fill="#DEE67C"/>
<path d="M11.8141 8.15667C11.0162 6.82447 11.0383 5.32981 11.0162 4.9074C10.9497 3.38025 11.526 3.28277 12.7007 2.60042C14.2301 1.69063 17.4663 1.30072 17.5549 3.38025C17.6879 6.2396 16.8456 8.25415 15.0281 9.29391C13.6982 10.0737 12.5456 9.3589 11.8141 8.15667Z" fill="#CCB795"/>
<path d="M11.2158 6.27219C10.5508 4.42011 11.1715 2.2431 12.7009 1.3333C14.2303 0.423508 16.9123 0.81342 17.4443 2.73049C17.9763 4.64755 16.2252 7.70186 14.6514 8.31923C12.9669 8.96908 11.8143 7.96181 11.2158 6.27219Z" fill="url(#paint18_radial_10_971)"/>
<path d="M12.1689 5.5248C11.8364 4.32257 12.1468 3.05536 13.0777 2.50298C14.0086 1.95061 15.0504 2.30803 15.3829 3.47776C15.7154 4.6475 15.2056 6.20714 14.2525 6.75952C13.3215 7.34439 12.4792 6.72703 12.1689 5.5248Z" fill="url(#paint19_radial_10_971)"/>
<path opacity="0.2" d="M17.2003 15.4675C17.2003 15.5975 17.1781 15.76 17.1559 15.8899H12.2352C11.7697 15.8899 11.3486 15.5325 11.127 14.9477C11.4151 13.8104 12.6564 12.9331 14.1414 12.9331C15.826 12.9656 17.2003 14.0703 17.2003 15.4675Z" fill="#212121"/>
<path d="M16.1807 15.8899H12.2352C12.1244 15.8899 12.0358 15.8574 11.9249 15.8249C11.8806 15.7599 11.8584 15.7274 11.8141 15.6624C11.2821 14.7851 11.127 13.8428 11.0605 13.193C11.0383 12.8356 11.0162 12.5756 11.0162 12.4132C10.9497 10.886 11.526 10.7885 12.7007 10.1062C14.0971 9.29386 16.9565 8.87146 17.4884 10.4311C17.5328 10.5611 17.5549 10.691 17.5549 10.8535C17.6658 13.063 17.2225 14.7526 16.1807 15.8899Z" fill="#CCB795"/>
<path d="M14.6513 15.8574C14.6069 15.8574 14.5626 15.8899 14.5183 15.8899H12.9224C12.1466 15.5974 11.5924 14.8176 11.2156 13.7778C11.1491 13.5829 11.0826 13.3879 11.0605 13.193C10.7058 11.5033 11.3486 9.68376 12.7229 8.87144C14.2523 7.96165 16.9343 8.31906 17.4663 10.2686C17.4884 10.3336 17.4884 10.3986 17.5106 10.4311C17.8653 12.4131 16.1807 15.2725 14.6513 15.8574Z" fill="url(#paint20_radial_10_971)"/>
<path d="M12.1689 13.0305C11.8364 11.8283 12.1468 10.5611 13.0777 10.0087C14.0086 9.45634 15.0504 9.81376 15.3829 10.9835C15.7154 12.1532 15.2056 13.7129 14.2525 14.2653C13.3215 14.8501 12.4792 14.2328 12.1689 13.0305Z" fill="url(#paint21_radial_10_971)"/>
<defs>
<radialGradient id="paint0_radial_10_971" cx="0" cy="0" r="1" gradientUnits="userSpaceOnUse" gradientTransform="translate(8.72994 17.2547) scale(10.6086 15.5513)">
<stop offset="0.4088" stop-color="white"/>
<stop offset="0.724" stop-color="#ECEFF0"/>
<stop offset="0.9654" stop-color="#D0D8DC"/>
</radialGradient>
<radialGradient id="paint1_radial_10_971" cx="0" cy="0" r="1" gradientUnits="userSpaceOnUse" gradientTransform="translate(8.12546 20.9008) scale(0.998795 1.67513)">
<stop offset="0.1384" stop-color="#F47C20"/>
<stop offset="0.8823" stop-color="#E45325"/>
</radialGradient>
<radialGradient id="paint2_radial_10_971" cx="0" cy="0" r="1" gradientUnits="userSpaceOnUse" gradientTransform="translate(5.59691 2.91368) scale(3.57663 4.26437)">
<stop offset="0.0529" stop-color="#FFCB28"/>
<stop offset="1" stop-color="#F9A01B"/>
</radialGradient>
<linearGradient id="paint3_linear_10_971" x1="5.58577" y1="9.5799" x2="5.58577" y2="4.04315" gradientUnits="userSpaceOnUse">
<stop offset="0.0303" stop-color="#F37021"/>
<stop offset="1" stop-color="#F9A01B"/>
</linearGradient>
<linearGradient id="paint4_linear_10_971" x1="5.70638" y1="3.35682" x2="5.70638" y2="9.18048" gradientUnits="userSpaceOnUse">
<stop stop-color="#BFCA33"/>
<stop offset="0.8669" stop-color="#679F42"/>
</linearGradient>
<radialGradient id="paint5_radial_10_971" cx="0" cy="0" r="1" gradientUnits="userSpaceOnUse" gradientTransform="translate(5.59691 6.81997) scale(3.57663 4.26437)">
<stop offset="0.0574" stop-color="#FFCB28"/>
<stop offset="1" stop-color="#F9A01B"/>
</radialGradient>
<linearGradient id="paint6_linear_10_971" x1="5.58577" y1="13.4854" x2="5.58577" y2="7.94867" gradientUnits="userSpaceOnUse">
<stop offset="0.0303" stop-color="#F37021"/>
<stop offset="1" stop-color="#F9A01B"/>
</linearGradient>
<linearGradient id="paint7_linear_10_971" x1="5.52782" y1="7.3717" x2="5.52782" y2="13.1954" gradientUnits="userSpaceOnUse">
<stop stop-color="#BFCA33"/>
<stop offset="0.8669" stop-color="#679F42"/>
</linearGradient>
<linearGradient id="paint8_linear_10_971" x1="5.58574" y1="12.5998" x2="5.58574" y2="8.73645" gradientUnits="userSpaceOnUse">
<stop stop-color="#346A34" stop-opacity="0.6"/>
<stop offset="0.9267" stop-color="#679F42" stop-opacity="0"/>
</linearGradient>
<radialGradient id="paint9_radial_10_971" cx="0" cy="0" r="1" gradientUnits="userSpaceOnUse" gradientTransform="translate(5.5969 14.9657) scale(3.54739 5.20019)">
<stop offset="0.0603" stop-color="#FFCB28"/>
<stop offset="1" stop-color="#F9A01B"/>
</radialGradient>
<linearGradient id="paint10_linear_10_971" x1="5.5969" y1="12.2103" x2="5.5969" y2="15.7553" gradientUnits="userSpaceOnUse">
<stop offset="0.0303" stop-color="#F37021"/>
<stop offset="1" stop-color="#F9A01B"/>
</linearGradient>
<linearGradient id="paint11_linear_10_971" x1="5.57056" y1="17.8113" x2="5.57056" y2="13.9444" gradientUnits="userSpaceOnUse">
<stop stop-color="#BFCA33"/>
<stop offset="1" stop-color="#679F42"/>
</linearGradient>
<linearGradient id="paint12_linear_10_971" x1="5.55947" y1="13.6983" x2="5.55947" y2="16.1428" gradientUnits="userSpaceOnUse">
<stop stop-color="#346A34" stop-opacity="0.6"/>
<stop offset="0.9267" stop-color="#679F42" stop-opacity="0"/>
</linearGradient>
<linearGradient id="paint13_linear_10_971" x1="20.8243" y1="29.8529" x2="20.8243" y2="19.2732" gradientUnits="userSpaceOnUse">
<stop stop-color="#8D401E"/>
<stop offset="0.6486" stop-color="#BB5B27"/>
</linearGradient>
<radialGradient id="paint14_radial_10_971" cx="0" cy="0" r="1" gradientUnits="userSpaceOnUse" gradientTransform="translate(23.1718 21.404) scale(0.35254 0.516795)">
<stop offset="0.2043" stop-color="#8BC249"/>
<stop offset="1" stop-color="#679F42"/>
</radialGradient>
<radialGradient id="paint15_radial_10_971" cx="0" cy="0" r="1" gradientUnits="userSpaceOnUse" gradientTransform="translate(18.5734 24.713) scale(0.352541 0.516797)">
<stop offset="0.2043" stop-color="#8BC249"/>
<stop offset="1" stop-color="#679F42"/>
</radialGradient>
<radialGradient id="paint16_radial_10_971" cx="0" cy="0" r="1" gradientUnits="userSpaceOnUse" gradientTransform="translate(22.4801 25.472) scale(0.35254 0.516795)">
<stop offset="0.2043" stop-color="#8BC249"/>
<stop offset="1" stop-color="#679F42"/>
</radialGradient>
<radialGradient id="paint17_radial_10_971" cx="0" cy="0" r="1" gradientUnits="userSpaceOnUse" gradientTransform="translate(21.1791 28.9812) scale(0.35254 0.516795)">
<stop offset="0.2043" stop-color="#8BC249"/>
<stop offset="1" stop-color="#679F42"/>
</radialGradient>
<radialGradient id="paint18_radial_10_971" cx="0" cy="0" r="1" gradientUnits="userSpaceOnUse" gradientTransform="translate(12.8505 2.80677) scale(5.84457 8.62164)">
<stop offset="0.4485" stop-color="#FFF3E1"/>
<stop offset="1" stop-color="#FFE0B2"/>
</radialGradient>
<radialGradient id="paint19_radial_10_971" cx="0" cy="0" r="1" gradientUnits="userSpaceOnUse" gradientTransform="translate(13.7896 4.81466) scale(1.66444 2.45531)">
<stop stop-color="#F36E21"/>
<stop offset="1" stop-color="#FAAA43"/>
</radialGradient>
<radialGradient id="paint20_radial_10_971" cx="0" cy="0" r="1" gradientUnits="userSpaceOnUse" gradientTransform="translate(12.8508 14.0152) scale(5.8383 8.55847)">
<stop offset="0.4485" stop-color="#FFF3E1"/>
<stop offset="1" stop-color="#FFE0B2"/>
</radialGradient>
<radialGradient id="paint21_radial_10_971" cx="0" cy="0" r="1" gradientUnits="userSpaceOnUse" gradientTransform="translate(13.7896 12.3271) scale(1.66444 2.45531)">
<stop stop-color="#F36E21"/>
<stop offset="1" stop-color="#FAAA43"/>
</radialGradient>
</defs>
</svg>
