<svg width="40" height="40" viewBox="0 0 40 40" fill="none" xmlns="http://www.w3.org/2000/svg">
<path d="M1.33331 7.8158C0.596658 7.8158 0 8.39919 0 9.11948V10.4232C0 11.0359 0.43666 11.5476 1.01999 11.6877C1.11998 11.7105 1.22665 11.7268 1.33331 11.7268H2.66996C2.66996 11.8181 5.83325 27.6481 5.83325 27.6481C5.95325 28.2477 6.44991 28.678 7.02657 28.678H28.0196L31.4196 11.7268H32.9095V11.6877L33.3295 10.4232V7.8158H1.33331Z" fill="url(#paint0_linear_10_1024)"/>
<path d="M0 10.4231C0 11.0358 0.43666 11.5475 1.01999 11.6877H32.9129L33.3329 10.4231H0Z" fill="#F57C00"/>
<path d="M5.51323 14.4775L7.8832 24.9102C7.94987 25.2101 8.21986 25.4219 8.53319 25.4219H9.99984C10.3665 25.4219 10.6665 25.1286 10.6665 24.7701V14.3374C10.6665 13.9789 10.3665 13.6855 9.99984 13.6855H6.16322C5.73656 13.6855 5.4199 14.0701 5.51323 14.4775Z" fill="#F57C00"/>
<path d="M26.4863 14.4775L24.1163 24.9102C24.0496 25.2101 23.7796 25.4219 23.4663 25.4219H21.9997C21.633 25.4219 21.333 25.1286 21.333 24.7701V14.3374C21.333 13.9789 21.633 13.6855 21.9997 13.6855H25.8363C26.2596 13.6855 26.5796 14.0701 26.4863 14.4775Z" fill="#F57C00"/>
<path d="M14.0766 13.6855H17.9198C18.3165 13.6855 18.6265 14.0245 18.5832 14.4091L17.3998 24.8385C17.3632 25.1677 17.0765 25.4187 16.7365 25.4187H15.2632C14.9232 25.4187 14.6365 25.1677 14.5999 24.8385L13.4132 14.4058C13.3699 14.0212 13.6799 13.6855 14.0766 13.6855Z" fill="#F57C00"/>
<path opacity="0.2" d="M32.3329 8.79356V10.27L32.1729 10.7523H31.4229C30.9462 10.7523 30.5329 11.0848 30.4429 11.5411L27.1996 27.7035H7.02657C6.94657 27.7035 6.84324 27.6122 6.81324 27.4623C5.96658 23.2286 3.76328 12.1962 3.65661 11.5965C3.58995 11.1174 3.17329 10.7523 2.66663 10.7523H1.33331C1.32665 10.7523 1.30331 10.7523 1.25665 10.7393C1.13332 10.71 0.999986 10.5992 0.999986 10.4232V9.11948C0.999986 8.94022 1.14998 8.79356 1.33331 8.79356H32.3329ZM33.3329 7.8158H1.33331C0.596658 7.8158 0 8.39919 0 9.11948V10.4232C0 11.0359 0.43666 11.5476 1.01999 11.6877C1.11998 11.7105 1.22665 11.7268 1.33331 11.7268H2.66996C2.66996 11.8181 5.83325 27.6481 5.83325 27.6481C5.95325 28.2477 6.44991 28.678 7.02657 28.678H28.0196L31.4229 11.7268H32.9129V11.6877L33.3329 10.4232V7.8158Z" fill="#424242"/>
<path opacity="0.2" d="M9.99984 14.3374V24.7701H8.53319L6.16322 14.3374H9.99984ZM9.99984 13.6855H6.16322C5.73656 13.6855 5.4199 14.0734 5.51323 14.4775L7.8832 24.9102C7.94987 25.2101 8.21986 25.4219 8.53319 25.4219H9.99984C10.3665 25.4219 10.6665 25.1286 10.6665 24.7701V14.3374C10.6665 13.9756 10.3665 13.6855 9.99984 13.6855Z" fill="#424242"/>
<path opacity="0.2" d="M25.8363 14.3374L23.4663 24.7701H21.9997V14.3374H25.8363ZM25.8363 13.6855H21.9997C21.633 13.6855 21.333 13.9789 21.333 14.3374V24.7701C21.333 25.1286 21.633 25.4219 21.9997 25.4219H23.4663C23.7796 25.4219 24.0496 25.2101 24.1163 24.9102L26.4863 14.4775C26.5796 14.0701 26.2596 13.6855 25.8363 13.6855Z" fill="#424242"/>
<path opacity="0.2" d="M26.0705 14.5398L22.7154 24.9568H18.5496L15.1944 14.5398H26.0705ZM26.0705 13.8889H15.2039C14.0823 13.8889 13.2058 14.2274 13.3283 14.6114L16.6835 25.0284C16.7872 25.3571 17.5977 25.6077 18.5591 25.6077H22.7248C23.6861 25.6077 24.4966 25.3571 24.6003 25.0284L27.9555 14.6114C28.0686 14.2241 27.2015 13.8889 26.0705 13.8889Z" fill="#424242"/>
<path d="M34.8427 1.17025C34.0561 1.42773 33.4461 2.04372 33.2094 2.81941L25.3895 28.3064C25.2929 28.6258 25.3229 28.968 25.4729 29.2646L26.6929 31.6503C26.9162 32.0838 26.5929 32.5955 26.0962 32.5955H2.66653C1.88654 32.5955 1.26322 33.2506 1.33989 34.0263C1.40655 34.7042 2.02654 35.2029 2.7232 35.2029H29.2828C29.6061 35.2029 29.9328 35.1083 30.1828 34.9063C30.6761 34.5021 30.7961 33.8438 30.5261 33.3158L28.6428 29.6361C28.2895 28.9484 28.2195 28.1532 28.4462 27.4166L35.6427 3.95361C35.6927 3.78413 35.8127 3.65051 35.9694 3.56903L34.8627 1.16699L34.8427 1.17025Z" fill="url(#paint1_linear_10_1024)"/>
<path d="M39.8161 0.635747C39.4995 0.0947189 38.8162 -0.126907 38.2128 0.0719045L34.8662 1.16374L35.9729 3.56577C36.0062 3.54948 36.0362 3.52992 36.0729 3.52014L39.0862 2.53586C39.8728 2.27839 40.2528 1.37885 39.8161 0.635747Z" fill="#F57C00"/>
<path opacity="0.2" d="M38.656 0.651963C38.9027 0.651963 39.126 0.769294 39.236 0.958328C39.3793 1.20277 39.3293 1.41788 39.286 1.52869C39.2127 1.7112 39.0627 1.85461 38.8727 1.91653L35.8594 2.90081C35.7727 2.93015 35.7094 2.96274 35.6561 2.99207C35.3361 3.15829 35.1061 3.43206 35.0027 3.7645L27.8095 27.2243C27.5328 28.1238 27.6195 29.082 28.0462 29.9229L29.9295 33.6025C30.0695 33.873 29.9961 34.2022 29.7528 34.401C29.6395 34.4955 29.4695 34.5477 29.2828 34.5477H2.7232C2.34987 34.5477 2.03321 34.2902 2.00321 33.961C1.98321 33.772 2.04654 33.5927 2.17321 33.4559C2.29987 33.319 2.47654 33.244 2.66653 33.244H26.0962C26.5629 33.244 26.9862 33.0126 27.2295 32.6248C27.4728 32.2369 27.4962 31.7643 27.2895 31.3569L26.0695 28.9712C25.9929 28.8213 25.9795 28.6518 26.0262 28.4921L33.8461 3.00511C34.0228 2.43149 34.4727 1.97846 35.0527 1.78942L35.0727 1.78291L38.4194 0.691073C38.4994 0.665 38.576 0.651963 38.656 0.651963ZM38.656 0.00012207C38.506 0.00012207 38.356 0.0229364 38.2094 0.0718245L34.8627 1.16366L34.8427 1.17018C34.0561 1.42765 33.4461 2.04364 33.2094 2.81933L25.3895 28.3063C25.2929 28.6257 25.3229 28.9679 25.4729 29.2645L26.6929 31.6503C26.9162 32.0837 26.5929 32.5954 26.0962 32.5954H2.66653C1.88654 32.5954 1.26322 33.2505 1.33989 34.0262C1.40655 34.7041 2.02654 35.2028 2.7232 35.2028H29.2828C29.6061 35.2028 29.9328 35.1083 30.1828 34.9062C30.6761 34.5021 30.7961 33.8437 30.5261 33.3157L28.6428 29.6361C28.2895 28.9484 28.2195 28.1531 28.4462 27.4165L35.6427 3.95354C35.6927 3.78406 35.8127 3.65043 35.9694 3.56895C36.0027 3.55265 36.0327 3.5331 36.0694 3.52332L39.0827 2.53904C39.866 2.28156 40.246 1.38202 39.8127 0.638926C39.576 0.225007 39.126 0.00012207 38.656 0.00012207Z" fill="#424242"/>
<path d="M7.99988 39.1106C9.47262 39.1106 10.6665 37.9432 10.6665 36.5032C10.6665 35.0632 9.47262 33.8959 7.99988 33.8959C6.52714 33.8959 5.33325 35.0632 5.33325 36.5032C5.33325 37.9432 6.52714 39.1106 7.99988 39.1106Z" fill="#37474F"/>
<path d="M25.3329 39.1106C26.8056 39.1106 27.9995 37.9432 27.9995 36.5032C27.9995 35.0632 26.8056 33.8959 25.3329 33.8959C23.8602 33.8959 22.6663 35.0632 22.6663 36.5032C22.6663 37.9432 23.8602 39.1106 25.3329 39.1106Z" fill="#37474F"/>
<path d="M8.66648 37.8069H7.33316C6.9665 37.8069 6.6665 37.5136 6.6665 37.1551V33.8959H9.33313V37.1551C9.33313 37.5136 9.03314 37.8069 8.66648 37.8069Z" fill="#B0BEC5"/>
<path d="M7.99991 36.5033C8.36809 36.5033 8.66657 36.2114 8.66657 35.8514C8.66657 35.4914 8.36809 35.1996 7.99991 35.1996C7.63172 35.1996 7.33325 35.4914 7.33325 35.8514C7.33325 36.2114 7.63172 36.5033 7.99991 36.5033Z" fill="#FAFAFA" stroke="#757575" stroke-width="0.750993" stroke-miterlimit="10"/>
<path d="M25.9997 37.8069H24.6664C24.2998 37.8069 23.9998 37.5136 23.9998 37.1551V33.8959H26.6664V37.1551C26.6664 37.5136 26.3664 37.8069 25.9997 37.8069Z" fill="#B0BEC5"/>
<path d="M25.3329 36.5033C25.7011 36.5033 25.9996 36.2114 25.9996 35.8514C25.9996 35.4914 25.7011 35.1996 25.3329 35.1996C24.9647 35.1996 24.6663 35.4914 24.6663 35.8514C24.6663 36.2114 24.9647 36.5033 25.3329 36.5033Z" fill="#FAFAFA" stroke="#757575" stroke-width="0.750993" stroke-miterlimit="10"/>
<defs>
<linearGradient id="paint0_linear_10_1024" x1="16.6661" y1="7.28813" x2="16.6661" y2="30.4972" gradientUnits="userSpaceOnUse">
<stop stop-color="#FFA726"/>
<stop offset="1" stop-color="#FB8C00"/>
</linearGradient>
<linearGradient id="paint1_linear_10_1024" x1="18.6523" y1="-5.02158" x2="18.6523" y2="40.7565" gradientUnits="userSpaceOnUse">
<stop stop-color="#90A4AE"/>
<stop offset="1" stop-color="#607D8B"/>
</linearGradient>
</defs>
</svg>
