<svg width="37" height="38" viewBox="0 0 37 38" fill="none" xmlns="http://www.w3.org/2000/svg">
<path d="M4.7824 8.75415C4.7824 8.75415 4.69113 15.4161 8.88945 16.5508C13.0573 17.7222 19.0202 20.0648 20.8759 20.5041C24.0095 21.2361 30.3374 22.0414 32.0106 19.0033C35.1137 13.3297 31.6455 6.37488 25.8348 5.02053C20.0241 3.66617 9.46748 4.50807 7.03367 6.22846C4.59987 7.94886 4.7824 8.75415 4.7824 8.75415Z" fill="url(#paint0_linear_10_785)"/>
<path opacity="0.6" d="M24.2522 18.2928C24.6379 17.4637 24.6535 16.5915 24.2869 16.3447C23.9204 16.0978 23.3106 16.5698 22.9249 17.3989C22.5392 18.228 22.5237 19.1002 22.8902 19.3471C23.2568 19.5939 23.8666 19.1219 24.2522 18.2928Z" fill="#B0BEC5"/>
<path opacity="0.2" d="M20.3049 15.4994C21.0309 15.0322 21.4653 14.3067 21.2751 13.8788C21.0849 13.451 20.3422 13.4829 19.6163 13.95C18.8903 14.4172 18.4559 15.1427 18.6461 15.5706C18.8363 15.9984 19.579 15.9665 20.3049 15.4994Z" fill="#D0D8DC"/>
<path opacity="0.2" d="M16.3329 17.4209C17.0725 16.9858 17.5286 16.2798 17.3515 15.8439C17.1744 15.408 16.4312 15.4073 15.6915 15.8424C14.9519 16.2774 14.4959 16.9835 14.673 17.4194C14.8501 17.8553 15.5933 17.8559 16.3329 17.4209Z" fill="#D0D8DC"/>
<path opacity="0.6" d="M20.1317 17.9951C20.8714 17.56 21.3274 16.854 21.1503 16.4181C20.9732 15.9822 20.23 15.9815 19.4904 16.4166C18.7507 16.8517 18.2947 17.5577 18.4718 17.9936C18.6489 18.4295 19.3921 18.4301 20.1317 17.9951Z" fill="#B0BEC5"/>
<path opacity="0.2" d="M13.0424 16.4197C13.601 15.692 13.8137 14.8353 13.5175 14.5061C13.2213 14.1769 12.5283 14.4999 11.9697 15.2276C11.4111 15.9553 11.1984 16.812 11.4946 17.1412C11.7908 17.4704 12.4838 17.1474 13.0424 16.4197Z" fill="#D0D8DC"/>
<path opacity="0.2" d="M7.32733 11.5463C7.88594 10.8186 8.09864 9.96185 7.80241 9.63265C7.50619 9.30346 6.81321 9.62649 6.25461 10.3542C5.696 11.0819 5.4833 11.9386 5.77953 12.2678C6.07575 12.597 6.76873 12.274 7.32733 11.5463Z" fill="#D0D8DC"/>
<path opacity="0.2" d="M8.44742 14.8809C9.21729 14.6694 9.76559 14.0985 9.67209 13.6058C9.57859 13.1131 8.87869 12.8852 8.10882 13.0967C7.33895 13.3082 6.79064 13.879 6.88415 14.3717C6.97765 14.8645 7.67755 15.0924 8.44742 14.8809Z" fill="#D0D8DC"/>
<path opacity="0.2" d="M11.1511 10.5178C11.8197 9.90578 12.1637 9.09662 11.9195 8.71051C11.6754 8.32441 10.9355 8.50756 10.2669 9.11959C9.59836 9.73163 9.25433 10.5408 9.4985 10.9269C9.74266 11.313 10.4826 11.1298 11.1511 10.5178Z" fill="#D0D8DC"/>
<path opacity="0.2" d="M17.1315 11.9668C17.5519 11.6321 17.592 10.8141 17.2212 10.1397C16.8503 9.46532 16.2089 9.18989 15.7885 9.52455C15.3681 9.8592 15.328 10.6772 15.6988 11.3516C16.0697 12.026 16.7111 12.3014 17.1315 11.9668Z" fill="#D0D8DC"/>
<path opacity="0.2" d="M12.4477 13.4303C13.197 13.02 13.6691 12.3293 13.502 11.8876C13.335 11.446 12.592 11.4207 11.8427 11.8311C11.0933 12.2415 10.6213 12.9322 10.7883 13.3738C10.9554 13.8154 11.6983 13.8407 12.4477 13.4303Z" fill="#D0D8DC"/>
<path opacity="0.2" d="M17.0582 13.4304C17.8236 13.3012 18.3949 12.7745 18.3342 12.254C18.2736 11.7335 17.6039 11.4163 16.8385 11.5454C16.0731 11.6746 15.5018 12.2013 15.5625 12.7218C15.6232 13.2423 16.2928 13.5595 17.0582 13.4304Z" fill="#D0D8DC"/>
<path d="M36.9088 17.3561C36.9088 17.3561 34.4142 14.1715 32.7714 10.5111C31.1285 6.85071 23.9184 -3.10561 11.6277 0.957447C7.18596 2.42161 5.39103 4.28842 4.35666 5.60617C3.68736 6.48467 3.2006 7.43638 3.01807 8.27827C6.72962 5.8624 10.5629 6.88731 13.7572 8.75412C20.2068 12.4877 26.4435 17.1365 33.8057 18.7104C36.0266 18.3078 36.9088 17.3561 36.9088 17.3561Z" fill="url(#paint1_linear_10_785)"/>
<path d="M2.98754 8.27828C2.68332 9.55942 3.07881 10.5111 4.35656 10.2183C6.48614 9.77904 7.916 7.94884 11.0191 9.12017C14.1222 10.2915 22.2146 16.9901 27.5994 18.2712C30.307 18.9301 32.3149 18.8935 33.7752 18.6738C21.1194 14.6108 20.7543 11.9753 14.0309 8.20507C10.4715 6.19184 5.0867 6.37486 2.98754 8.27828Z" fill="#EF4137"/>
<g opacity="0.6">
<path opacity="0.6" d="M7.03371 9.303C6.15145 8.13167 5.93849 6.19165 6.88159 4.61768C6.88159 4.61768 6.88159 4.65428 6.91202 4.65428C6.97286 4.8373 7.06413 5.02032 7.1554 5.16674L7.18582 5.20334C6.57737 6.33807 6.45568 7.58261 7.33793 8.79055C7.39878 8.86375 7.39878 9.01017 7.36836 9.11998L7.03371 9.303Z" fill="#FBCBBD"/>
<path opacity="0.6" d="M13.027 0.664551C12.6315 1.03059 12.236 1.32342 11.8101 1.57965C11.3842 1.61626 10.9279 1.65286 10.502 1.68947C10.867 1.50645 11.2017 1.32342 11.5667 1.1038C11.5972 1.1038 11.6276 1.0672 11.658 1.0672C12.0839 0.92078 12.5707 0.774363 13.027 0.664551Z" fill="#FBCBBD"/>
<path opacity="0.6" d="M10.1672 2.45821C10.7453 2.16538 11.2624 1.87254 11.7796 1.57971C11.3537 1.61632 10.8974 1.65292 10.4715 1.68952C9.16329 2.385 7.85511 3.08048 6.91201 4.58125L6.88159 4.61785C6.97286 4.83748 7.06413 5.0571 7.15539 5.24012C7.82469 4.1054 9.01117 3.08048 10.1672 2.45821Z" fill="#FBCBBD"/>
<path opacity="0.6" d="M15.917 3.6294C17.5903 2.82411 19.1114 2.05542 20.5413 0.774275C20.2675 0.737671 19.9937 0.737671 19.6894 0.737671C18.7463 1.54296 17.712 2.12863 16.6472 2.64108C15.7953 3.04373 14.7305 3.00713 13.97 3.666C13.2703 4.25167 12.966 5.38639 12.7227 6.22829C12.9052 6.3015 13.0877 6.3747 13.2703 6.44791C13.3007 6.3015 13.3615 6.19168 13.4224 6.04527C13.9396 4.69092 14.8218 4.14185 15.917 3.6294Z" fill="#FBCBBD"/>
<path opacity="0.6" d="M13.027 10.2915C12.8141 10.1816 12.6315 10.0718 12.449 9.96201C12.3273 8.79068 12.3577 7.43633 12.7228 6.22839C12.9053 6.3016 13.0879 6.37481 13.2704 6.44802C12.8445 7.72916 12.8749 9.04691 13.027 10.2915Z" fill="#FBCBBD"/>
<path opacity="0.6" d="M20.8153 0.518121C20.7241 0.591329 20.6328 0.664537 20.5415 0.77435C20.2677 0.77435 19.9939 0.737745 19.6897 0.737745C19.8418 0.627933 19.9635 0.518121 20.0852 0.371704C20.359 0.408308 20.572 0.481517 20.8153 0.518121Z" fill="#FBCBBD"/>
<path opacity="0.8" d="M17.4686 11.7921C17.4078 12.1947 17.2861 12.5974 17.134 12.9268C17.0123 12.8536 16.8906 12.7804 16.7993 12.7072C17.1644 12.0117 17.1644 11.3894 17.1644 10.694H17.4078H17.499C17.499 11.06 17.5295 11.4261 17.4686 11.7921Z" fill="#FBCBBD"/>
<path opacity="0.6" d="M25.6221 2.56786C25.4091 2.78748 25.2266 2.9705 25.0136 3.15352C24.8007 3.08031 24.5877 2.9705 24.3748 2.89729C24.6486 2.71427 24.9224 2.53125 25.1962 2.27502C25.3179 2.38484 25.47 2.49465 25.6221 2.56786Z" fill="#FBCBBD"/>
<path opacity="0.6" d="M17.1949 8.97357C17.1036 9.63244 17.134 10.1815 17.134 10.694C17.2253 10.6574 17.347 10.694 17.4687 10.694V10.6574C17.4382 10.0351 17.4687 9.41282 17.5599 8.86375C17.4382 8.86375 17.3166 8.82715 17.2253 8.82715C17.2253 8.86375 17.1949 8.93696 17.1949 8.97357Z" fill="#FBCBBD"/>
<path opacity="0.6" d="M19.0203 6.11852C20.8152 4.32492 23.0969 4.72756 25.0135 3.19019C24.8006 3.11698 24.5876 3.00717 24.3746 2.93396C22.6101 3.99548 19.9025 3.95888 18.2901 5.60606C17.3775 6.52116 17.4687 7.54608 17.2253 8.82722C17.347 8.82722 17.4687 8.86383 17.56 8.86383C17.7425 7.87552 18.1684 6.96041 19.0203 6.11852Z" fill="#FBCBBD"/>
<path opacity="0.6" d="M22.7013 12.7072C22.9143 12.7072 23.0968 12.7072 23.2794 12.7438C23.0968 12.0484 23.1881 11.3163 23.5836 10.511C23.3706 10.511 23.1577 10.5476 22.9143 10.5476C22.6101 11.3163 22.5188 12.0118 22.7013 12.7072Z" fill="#FBCBBD"/>
<path opacity="0.6" d="M23.8573 10.0352C24.6787 8.75409 25.8652 8.60768 26.9908 8.13182C27.721 7.83899 28.3903 7.43634 28.9987 6.96049C28.8466 6.81407 28.6641 6.66766 28.4815 6.52124C27.5993 7.18011 26.6562 7.61936 25.561 8.02201C24.4962 8.42465 23.7356 8.8273 23.0967 10.0718C23.0055 10.2183 22.9446 10.3647 22.8838 10.5111C23.0967 10.5111 23.3097 10.4745 23.5531 10.4745C23.6444 10.3281 23.7356 10.1817 23.8573 10.0352Z" fill="#FBCBBD"/>
<path opacity="0.6" d="M29.8508 6.2283C29.577 6.48452 29.3032 6.74075 28.999 6.96038C28.8469 6.81396 28.6643 6.66754 28.5122 6.52113C28.8164 6.3015 29.1207 6.04527 29.4249 5.75244C29.577 5.89886 29.6987 6.08188 29.8508 6.2283Z" fill="#FBCBBD"/>
<path opacity="0.8" d="M22.9447 16.4775C22.7621 16.3677 22.5796 16.2945 22.4275 16.1847C22.61 15.1598 23.4923 14.3911 22.9143 13.2563C22.823 13.0733 22.7621 12.8903 22.7013 12.7073C22.8838 12.7073 23.0968 12.7073 23.2793 12.7439C23.3402 12.9269 23.3706 13.0733 23.4619 13.2563C23.5531 13.476 23.7052 13.6224 23.7357 13.9152C23.8574 14.7571 23.0968 15.6356 22.9447 16.4775Z" fill="#FBCBBD"/>
<path opacity="0.8" d="M28.3601 18.5639C28.1471 18.5273 27.9646 18.4907 27.7516 18.4175C28.8468 16.6971 27.5995 15.8186 27.6299 14.0982C27.6299 13.9152 27.6604 13.6956 27.7212 13.5126C27.9342 13.5858 28.1776 13.6224 28.3905 13.6956C28.1776 14.4277 28.2688 15.0133 28.4818 15.8186C28.786 16.8802 28.8164 17.722 28.3601 18.5639Z" fill="#FBCBBD"/>
<path d="M32.7106 10.511C31.9804 10.694 31.0678 10.8038 30.3985 11.1333C29.6379 11.4993 29.1816 12.085 28.7557 12.8903C28.6035 13.2197 28.4819 13.4759 28.421 13.7322C28.208 13.659 27.9647 13.5858 27.7517 13.5492C27.9342 12.9635 28.3602 12.3778 28.7557 11.8288C29.4249 10.8771 30.0638 10.5476 31.0373 10.2914C31.4328 10.1816 32.0109 10.145 32.4976 10.0352C32.5585 10.2182 32.6497 10.3646 32.7106 10.511Z" fill="#FBCBBD"/>
</g>
<path opacity="0.2" d="M17.347 1.10386C25.7436 1.10386 30.7937 8.27827 32.0411 11.0602C33.1971 13.6225 34.7183 15.9285 35.6005 17.1731C35.1746 17.3927 34.5661 17.6123 33.7143 17.7587C33.1971 17.8319 32.6495 17.9051 32.0715 17.9051C31.7673 17.9051 31.4935 18.0882 31.3109 18.4176L31.2805 18.4542C30.7025 19.4791 28.9684 20.0648 26.4433 20.0648C24.2833 20.0648 22.1841 19.6621 21.1194 19.4059C20.3284 19.2229 18.5943 18.6372 16.6168 17.9418C14.183 17.0999 11.445 16.1115 9.16328 15.4893C7.91595 15.1232 6.30355 13.9153 5.84722 10.0719C5.81679 9.77904 5.66468 9.4862 5.45172 9.30318C5.29961 9.19337 5.11707 9.12016 4.93454 9.12016C4.87369 9.12016 4.78243 9.12016 4.69116 9.15677C4.50862 9.19337 4.38693 9.22997 4.26524 9.26658C4.17397 9.26658 4.08271 9.30318 4.02186 9.30318C3.96102 9.30318 3.90017 9.30318 3.90017 9.30318C3.90017 9.26658 3.90017 9.19337 3.90017 9.12016V9.04695C3.90017 8.90054 3.93059 8.75412 3.96102 8.5711C4.11313 7.87562 4.53904 7.07033 5.08665 6.37485C6.12102 5.05711 7.85511 3.37332 11.9622 2.01896C13.7875 1.39669 15.6129 1.10386 17.347 1.10386ZM17.347 0.0057373C15.6129 0.0057373 13.7267 0.29857 11.6884 0.957444C7.24665 2.42161 5.45172 4.28842 4.41735 5.60617C3.74806 6.48467 3.2613 7.43637 3.07876 8.27827C3.01792 8.5711 2.98749 8.82733 2.98749 9.04695C2.95707 9.85224 3.29172 10.4013 4.05228 10.4013C4.17397 10.4013 4.29566 10.4013 4.44778 10.3647C4.63031 10.3281 4.78243 10.2915 4.93454 10.2183C5.17792 12.2315 5.99933 15.7455 8.9199 16.5508C13.0878 17.7221 19.081 20.0648 20.9368 20.4674C22.3667 20.7969 24.4354 21.1629 26.4433 21.1629C28.8467 21.1629 31.1588 20.6505 32.0715 19.0033C32.0715 19.0033 32.0715 18.9667 32.1019 18.9667C32.7712 18.9667 33.3492 18.8935 33.8664 18.8203C36.1177 18.4542 36.9999 17.5025 36.9999 17.5025C36.9999 17.5025 36.9695 17.4659 36.9391 17.4293C36.9695 17.3927 36.9999 17.3927 36.9999 17.3927C36.9999 17.3927 34.4749 14.2081 32.8321 10.5111C31.463 7.43637 26.1999 0.0057373 17.347 0.0057373Z" fill="#434343"/>
<path d="M1.8925 25.2992C1.8925 25.2992 1.80123 31.9611 5.99955 33.0959C10.1979 34.2672 16.1607 36.6099 18.0165 37.0491C21.15 37.7812 27.4779 38.5865 29.1511 35.5483C32.2542 29.8747 28.7861 22.9199 22.9754 21.5656C17.1646 20.2112 6.608 21.0531 4.1742 22.7735C1.74039 24.4939 1.8925 25.2992 1.8925 25.2992Z" fill="url(#paint2_linear_10_785)"/>
<path opacity="0.6" d="M21.3748 34.8686C21.7605 34.0395 21.776 33.1673 21.4095 32.9205C21.0429 32.6736 20.4332 33.1456 20.0475 33.9747C19.6618 34.8038 19.6463 35.6761 20.0128 35.9229C20.3793 36.1697 20.9891 35.6977 21.3748 34.8686Z" fill="#B0BEC5"/>
<path opacity="0.6" d="M24.8823 35.4775C25.6444 35.2285 26.173 34.6313 26.0629 34.1435C25.9529 33.6558 25.2458 33.4622 24.4837 33.7111C23.7216 33.9601 23.193 34.5573 23.303 35.045C23.4131 35.5328 24.1201 35.7264 24.8823 35.4775Z" fill="#B0BEC5"/>
<path opacity="0.2" d="M17.4229 32.0765C18.1488 31.6093 18.5832 30.8838 18.393 30.456C18.2029 30.0281 17.4602 30.06 16.7342 30.5272C16.0082 30.9943 15.5738 31.7199 15.764 32.1477C15.9542 32.5755 16.6969 32.5437 17.4229 32.0765Z" fill="#D0D8DC"/>
<path opacity="0.2" d="M13.4357 33.9663C14.1753 33.5312 14.6314 32.8252 14.4543 32.3893C14.2772 31.9534 13.534 31.9527 12.7943 32.3878C12.0547 32.8228 11.5987 33.5289 11.7758 33.9648C11.9529 34.4007 12.696 34.4013 13.4357 33.9663Z" fill="#D0D8DC"/>
<path opacity="0.6" d="M17.2479 34.5774C17.9876 34.1423 18.4436 33.4363 18.2665 33.0004C18.0894 32.5645 17.3462 32.5638 16.6066 32.9989C15.8669 33.4339 15.4109 34.14 15.588 34.5759C15.7651 35.0118 16.5083 35.0124 17.2479 34.5774Z" fill="#B0BEC5"/>
<path opacity="0.2" d="M10.1642 32.9978C10.7229 32.2702 10.9356 31.4134 10.6393 31.0842C10.3431 30.755 9.65013 31.078 9.09152 31.8057C8.53292 32.5334 8.32021 33.3902 8.61644 33.7194C8.91266 34.0485 9.60564 33.7255 10.1642 32.9978Z" fill="#D0D8DC"/>
<path opacity="0.2" d="M4.42694 28.0983C4.98555 27.3706 5.19825 26.5139 4.90202 26.1847C4.6058 25.8555 3.91282 26.1785 3.35422 26.9062C2.79561 27.6339 2.58291 28.4906 2.87914 28.8198C3.17536 29.149 3.86834 28.826 4.42694 28.0983Z" fill="#D0D8DC"/>
<path opacity="0.2" d="M5.56314 31.4617C6.33301 31.2502 6.88132 30.6794 6.78781 30.1866C6.69431 29.6939 5.99441 29.466 5.22454 29.6775C4.45467 29.889 3.90637 30.4598 3.99987 30.9526C4.09337 31.4453 4.79327 31.6732 5.56314 31.4617Z" fill="#D0D8DC"/>
<path opacity="0.2" d="M8.26928 27.0961C8.93783 26.484 9.28186 25.6749 9.03769 25.2888C8.79353 24.9027 8.05362 25.0858 7.38508 25.6978C6.71653 26.3099 6.3725 27.119 6.61666 27.5051C6.86083 27.8912 7.60073 27.7081 8.26928 27.0961Z" fill="#D0D8DC"/>
<path opacity="0.2" d="M14.277 28.5256C14.6974 28.191 14.7375 27.373 14.3667 26.6986C13.9958 26.0242 13.3544 25.7487 12.934 26.0834C12.5136 26.418 12.4735 27.236 12.8443 27.9104C13.2152 28.5848 13.8566 28.8603 14.277 28.5256Z" fill="#D0D8DC"/>
<path opacity="0.2" d="M9.56145 30.0175C10.3108 29.6071 10.7829 28.9164 10.6158 28.4748C10.4487 28.0332 9.70581 28.0079 8.95645 28.4183C8.20709 28.8287 7.73504 29.5194 7.90211 29.961C8.06917 30.4026 8.81208 30.4279 9.56145 30.0175Z" fill="#D0D8DC"/>
<path opacity="0.2" d="M14.171 30.0118C14.9364 29.8826 15.5077 29.356 15.447 28.8354C15.3863 28.3149 14.7167 27.9977 13.9513 28.1268C13.1859 28.256 12.6146 28.7827 12.6753 29.3032C12.736 29.8237 13.4056 30.141 14.171 30.0118Z" fill="#D0D8DC"/>
<path d="M34.0187 33.9378C34.0187 33.9378 31.524 30.7532 29.8812 27.0928C28.2384 23.4324 21.0282 13.4761 8.73752 17.5391C4.29582 19.0033 2.50089 20.8701 1.46652 22.1878C0.797226 23.0663 0.310465 24.018 0.12793 24.8599C3.83949 22.4441 7.67273 23.469 10.8671 25.3358C17.3167 29.0694 23.5533 33.6815 30.9156 35.2921C33.1364 34.8895 34.0187 33.9378 34.0187 33.9378Z" fill="url(#paint3_linear_10_785)"/>
<path d="M0.0974043 24.86C-0.206822 26.1411 0.188672 27.0928 1.46642 26.8C3.596 26.3607 4.96502 24.6769 8.09855 25.8483C11.2321 27.0196 19.3245 33.5717 24.7093 34.8529C27.4169 35.5118 29.4248 35.4752 30.8851 35.2555C18.2293 31.1559 17.8642 28.557 11.1712 24.7501C7.58136 22.7369 2.19656 22.9199 0.0974043 24.86Z" fill="#CB2027"/>
<g opacity="0.6">
<path opacity="0.6" d="M4.11325 25.8849C4.1741 25.8849 4.60001 25.6653 4.41748 25.4457C3.53522 24.2377 3.65691 22.9932 4.26537 21.8585C4.14368 21.6755 4.05241 21.4558 3.99156 21.2362C3.04846 22.7736 2.8355 26.0313 4.11325 25.8849Z" fill="#A31E22"/>
<path opacity="0.6" d="M10.1369 17.2463C9.7414 17.6124 9.3459 17.9052 8.91999 18.1614C8.49407 18.198 8.03773 18.2346 7.61182 18.2713C7.97689 18.0882 8.31154 17.9052 8.67661 17.6856C8.70703 17.6856 8.73745 17.649 8.76788 17.649C9.22421 17.466 9.68055 17.3562 10.1369 17.2463Z" fill="#A31E22"/>
<path opacity="0.6" d="M7.27709 19.0399C7.85512 18.747 8.37231 18.4542 8.88949 18.1614C8.46357 18.198 8.00724 18.2346 7.58132 18.2712C6.27315 18.9667 4.96498 19.6621 4.02188 21.1629L3.99146 21.1995C4.08272 21.4557 4.17399 21.6388 4.26526 21.8218C4.93456 20.6871 6.12104 19.6621 7.27709 19.0399Z" fill="#A31E22"/>
<path opacity="0.6" d="M13.0271 20.2113C14.7004 19.406 16.2215 18.6373 17.6514 17.3562C17.3776 17.3562 17.1038 17.3196 16.7995 17.3196C15.8564 18.1249 14.8221 18.7105 13.7573 19.223C12.9054 19.6256 11.8407 19.589 11.0801 20.2479C10.3804 20.8336 10.0761 21.9683 9.83276 22.8102C10.0153 22.8834 10.1978 22.9566 10.3804 23.0298C10.4108 22.8834 10.4716 22.7736 10.5325 22.6272C11.0497 21.2728 11.9319 20.7238 13.0271 20.2113Z" fill="#A31E22"/>
<path opacity="0.6" d="M10.1369 26.8366C9.92393 26.7268 9.74139 26.617 9.55885 26.5072C9.43716 25.3358 9.46759 23.9815 9.83266 22.7736C10.0152 22.8468 10.1977 22.92 10.3803 22.9932C9.95435 24.3109 9.98477 25.5921 10.1369 26.8366Z" fill="#A31E22"/>
<path opacity="0.6" d="M17.925 17.0999C17.8338 17.1731 17.7425 17.2463 17.6817 17.3195C17.4079 17.3195 17.1341 17.2829 16.8298 17.2829C16.9819 17.1731 17.1036 17.0633 17.2253 16.9169L17.925 17.0999Z" fill="#A31E22"/>
<path opacity="0.6" d="M14.5786 28.374C14.5177 28.7766 14.4265 29.1427 14.2743 29.4721C14.1527 29.3989 14.031 29.3257 13.9397 29.2525C14.2743 28.557 14.2743 27.9348 14.2743 27.2759H14.5177H14.609C14.609 27.6419 14.6394 27.9714 14.5786 28.374Z" fill="#A31E22"/>
<path opacity="0.6" d="M22.7317 19.1498C22.5187 19.3694 22.3362 19.5524 22.1233 19.7354C21.9103 19.6622 21.6973 19.5524 21.4844 19.4792C21.7582 19.2962 22.032 19.1132 22.3058 18.8569C22.4275 18.9667 22.5796 19.04 22.7317 19.1498Z" fill="#A31E22"/>
<path opacity="0.6" d="M14.3047 25.5555C14.2135 26.2143 14.2439 26.7634 14.2439 27.2759C14.3351 27.2393 14.4568 27.2393 14.5785 27.2759V27.2393C14.5481 26.617 14.5785 25.9947 14.6698 25.4457C14.5481 25.4457 14.4264 25.4091 14.3351 25.4091C14.3351 25.4457 14.3351 25.4823 14.3047 25.5555Z" fill="#A31E22"/>
<path opacity="0.6" d="M16.1301 22.6637C17.9251 20.8701 20.2068 21.2727 22.1234 19.7354C21.9104 19.6621 21.6975 19.5523 21.4845 19.4791C19.72 20.5406 17.0124 20.504 15.4 22.1512C14.4873 23.0663 14.5786 24.0912 14.3352 25.3724C14.4569 25.3724 14.5786 25.409 14.6699 25.409C14.8524 24.4207 15.2783 23.5056 16.1301 22.6637Z" fill="#A31E22"/>
<g opacity="0.6">
<path opacity="0.6" d="M19.8112 29.2524C20.0241 29.2524 20.2067 29.2524 20.3892 29.289C20.2067 28.5935 20.2979 27.8614 20.6934 27.0562C20.4805 27.0562 20.2675 27.0928 20.0241 27.0928C19.7199 27.898 19.6287 28.5935 19.8112 29.2524Z" fill="#A31E22"/>
<path opacity="0.6" d="M20.9672 26.5803C21.7886 25.2991 22.9751 25.1527 24.1007 24.6769C24.8308 24.384 25.5001 23.9814 26.1086 23.5055C25.9565 23.3591 25.7739 23.2127 25.5914 23.0663C24.7092 23.7252 23.7661 24.1644 22.6708 24.5671C21.606 24.9697 20.8455 25.3723 20.2066 26.6169C20.1153 26.7633 20.0545 26.9097 19.9937 27.0561C20.2066 27.0561 20.4196 27.0195 20.6629 27.0195C20.7846 26.9097 20.8455 26.7267 20.9672 26.5803Z" fill="#A31E22"/>
<path opacity="0.6" d="M26.9607 22.8101C26.6869 23.0663 26.4131 23.3225 26.1088 23.5422C25.9567 23.3957 25.7742 23.2493 25.6221 23.1029C25.9263 22.8833 26.2305 22.6271 26.5347 22.3342C26.6869 22.4806 26.8085 22.6271 26.9607 22.8101Z" fill="#A31E22"/>
<path opacity="0.8" d="M20.085 32.9128C19.9024 32.8396 19.7199 32.7298 19.5374 32.62C19.7503 31.6317 20.5717 30.8996 20.0241 29.7649C19.9328 29.5819 19.872 29.3988 19.8112 29.2158C19.9937 29.2158 20.2066 29.2158 20.3892 29.2524C20.45 29.4354 20.4805 29.5819 20.5717 29.7649C20.663 29.9845 20.8151 30.1309 20.8455 30.4238C20.9672 31.3023 20.2979 32.1075 20.085 32.9128Z" fill="#A31E22"/>
</g>
<path opacity="0.6" d="M25.5003 35.0725C25.3178 35.0359 25.1048 34.9993 24.8919 34.9261C25.8958 33.2789 24.6789 32.4004 24.7398 30.7166C24.7398 30.5336 24.8006 30.314 24.8615 30.131C25.0744 30.2042 25.3178 30.2408 25.5308 30.314C25.3178 31.0461 25.4091 31.6318 25.622 32.437C25.8958 33.4254 25.9263 34.2306 25.5003 35.0725Z" fill="#A31E22"/>
<path opacity="0.6" d="M29.8202 27.0928C29.0901 27.2758 28.1774 27.3856 27.5081 27.6784C26.7475 28.0445 26.2912 28.6302 25.8653 29.4354C25.7132 29.7649 25.5915 30.0211 25.5306 30.2773C25.3177 30.2041 25.0743 30.1309 24.8613 30.0943C25.0439 29.5087 25.4698 28.923 25.8653 28.3739C26.5346 27.4222 27.1734 27.0928 28.147 26.8365C28.5425 26.7267 29.1205 26.6901 29.6073 26.5803C29.6681 26.7633 29.7594 26.9464 29.8202 27.0928Z" fill="#A31E22"/>
</g>
<path opacity="0.2" d="M14.396 17.539C22.7927 17.539 27.8428 24.7135 29.0901 27.4954C30.2462 30.0577 31.7673 32.3637 32.6496 33.6083C32.2237 33.8279 31.6152 34.0475 30.7634 34.1939C30.2766 34.2671 29.7594 34.3037 29.1814 34.3037H29.1206C28.8163 34.3037 28.5121 34.4868 28.36 34.8162C28.36 34.8528 28.3296 34.8528 28.3296 34.8894C27.7211 35.9509 26.0175 36.5366 23.4924 36.5366C21.3324 36.5366 19.2332 36.1339 18.1684 35.8777C17.3774 35.6947 15.6434 35.109 13.6659 34.4135C11.2321 33.5716 8.49404 32.5833 6.21235 31.9611C4.96502 31.6316 3.35263 30.3871 2.89629 26.5437C2.86587 26.2508 2.71375 25.958 2.50079 25.775C2.34868 25.6652 2.16615 25.5919 1.98361 25.5919C1.92277 25.5919 1.8315 25.5919 1.74023 25.6286C1.55769 25.6652 1.436 25.7018 1.31431 25.7384C1.22305 25.775 1.13178 25.775 1.07093 25.775C1.01009 25.775 0.949243 25.775 0.949243 25.775C0.949243 25.7384 0.949243 25.6652 0.949243 25.5919V25.5187C0.949243 25.3723 0.979665 25.2259 1.01009 25.0429C1.1622 24.3474 1.58812 23.5421 2.13572 22.8466C3.17009 21.5289 4.90418 19.8451 9.01123 18.4907C10.8062 17.8319 12.6315 17.539 14.396 17.539ZM14.396 16.4409C12.6619 16.4409 10.7757 16.7338 8.73742 17.3926C4.29573 18.8568 2.50079 20.7236 1.46643 22.0413C0.79713 22.9198 0.310368 23.8716 0.127833 24.7134C0.0669876 25.0063 0.036565 25.2625 0.036565 25.4821C0.00614242 26.2874 0.340791 26.8365 1.10136 26.8365C1.22305 26.8365 1.34474 26.8365 1.49685 26.7999C1.67938 26.7633 1.8315 26.7267 1.98361 26.6535C2.22699 28.6667 3.07882 32.1807 5.96897 32.986C10.1673 34.1573 16.1301 36.5 17.9859 36.9392C19.4158 37.2687 21.4845 37.5981 23.4924 37.5981C25.8958 37.5981 28.2079 37.0856 29.1206 35.4385C29.1206 35.4019 29.151 35.4019 29.151 35.3652H29.2118C29.8507 35.3652 30.3983 35.3286 30.9155 35.2188C33.1668 34.8528 34.049 33.9011 34.049 33.9011C34.049 33.9011 34.0186 33.8645 33.9882 33.8279C34.0186 33.7913 34.049 33.7913 34.049 33.7913C34.049 33.7913 31.5544 30.6067 29.9115 26.9463C28.5121 23.9082 23.249 16.4409 14.396 16.4409Z" fill="#434343"/>
<defs>
<linearGradient id="paint0_linear_10_785" x1="18.6451" y1="5.03702" x2="23.0326" y2="19.761" gradientUnits="userSpaceOnUse">
<stop offset="0.1001" stop-color="#F5F5F5"/>
<stop offset="1" stop-color="#D0D8DC"/>
</linearGradient>
<linearGradient id="paint1_linear_10_785" x1="9.2697" y1="1.85953" x2="34.2414" y2="17.0534" gradientUnits="userSpaceOnUse">
<stop offset="0.2588" stop-color="#F4805C"/>
<stop offset="1" stop-color="#F05323"/>
</linearGradient>
<linearGradient id="paint2_linear_10_785" x1="15.7712" y1="21.5964" x2="20.1588" y2="36.3211" gradientUnits="userSpaceOnUse">
<stop offset="0.1001" stop-color="#F5F5F5"/>
<stop offset="1" stop-color="#D0D8DC"/>
</linearGradient>
<linearGradient id="paint3_linear_10_785" x1="6.37461" y1="18.4378" x2="31.3469" y2="33.632" gradientUnits="userSpaceOnUse">
<stop offset="0.2588" stop-color="#F05454"/>
<stop offset="1" stop-color="#ED1C24"/>
</linearGradient>
</defs>
</svg>
