<svg width="42" height="39" viewBox="0 0 42 39" fill="none" xmlns="http://www.w3.org/2000/svg">
<path opacity="0.5" d="M6.58887 7.90662L9.60434 31.1482L13.5451 33.348L22.5521 34.2712L31.93 31.849L32.3926 31.2944L35.8379 8.50685L28.8259 10.1613L17.1479 11.0845L8.01621 8.72013L6.58887 7.90662Z" fill="white"/>
<path opacity="0.7" d="M5.56495 6.15773C5.52557 5.28328 10.1554 1.74281 21.7087 1.89515C33.262 2.0475 36.5826 5.02734 36.6384 6.56601C36.6942 8.10468 34.5384 27.6169 34.5384 27.6169L34.0396 30.7491C34.0396 30.7491 34.0396 33.4181 33.764 33.933C33.4884 34.448 31.6115 37.7234 21.4692 37.8178C10.4212 37.9184 8.32776 33.7807 8.1637 33.3176C7.99635 32.8544 7.99635 29.4663 7.99635 29.4663L5.61745 9.08273C5.62073 9.08273 5.62073 7.33687 5.56495 6.15773Z" fill="#E0E0E0"/>
<path d="M8.94141 20.6C8.94141 20.6 9.56484 25.8924 9.66984 26.645C9.82734 27.7754 10.1555 28.3238 10.4672 28.5828C10.7789 28.8418 14.4867 32.0836 21.0591 32.2268C27.6314 32.3701 31.4573 29.1495 31.9627 28.5249C32.2416 28.1776 32.3663 27.0776 32.4614 26.6145C32.5533 26.1514 33.1767 21.1484 33.1767 21.1484L8.94141 20.6Z" fill="url(#paint0_radial_10_1029)"/>
<path d="M12.6722 27.431C12.18 28.5522 14.0011 29.576 16.1569 30.2433C19.5333 31.2883 24.0876 31.2122 26.6864 30.2676C28.3598 29.6582 29.5279 28.924 29.2589 27.8301C28.9898 26.7363 27.0539 27.757 25.6954 27.9033C22.9359 28.2018 20.0681 28.2506 17.3873 27.9033C14.7065 27.5559 13.0233 26.6327 12.6722 27.431Z" fill="#CF701E"/>
<path d="M9.41064 20.1765L10.7527 22.2331L15.225 23.7291L20.3241 24.1435L26.0597 24.0551L29.7085 23.3025L31.9233 21.8827L33.121 20.0119C33.121 20.0119 32.235 18.001 26.9686 17.221C21.6989 16.4379 16.0585 17.3368 16.0585 17.3368L11.1858 18.5555L9.41064 20.1765Z" fill="#DD821D"/>
<path d="M11.8191 21.7852C11.8191 21.7852 12.5147 20.795 13.9355 20.2191C15.6516 19.5214 18.3553 19.3721 19.5628 19.7712C20.7671 20.1703 20.5538 21.2154 20.0714 21.6633C19.5891 22.1112 19.0542 22.5347 18.8377 22.9826C18.6211 23.4305 18.4636 24.0521 18.4636 24.0521L15.2217 23.7291L12.6755 22.8577L11.8191 21.7852ZM27.8447 19.9357C27.8283 20.405 28.3828 20.536 28.7142 20.6091C29.0457 20.6822 29.3442 20.8589 29.3442 21.0631C29.3442 21.2672 29.2688 21.5384 29.0292 21.709C28.7602 21.901 28.6486 22.2118 28.793 22.4128C28.9833 22.6779 29.551 22.8668 30.2138 22.4281C30.9324 21.9528 31.2342 21.3403 31.0669 20.5512C30.8602 19.5823 29.9611 19.2624 29.1408 19.2014C28.3992 19.1496 27.8611 19.4361 27.8447 19.9357Z" fill="#F6AF3B"/>
<path d="M10.6049 20.5451C10.6049 20.5451 11.2644 18.7413 15.0707 18.1259C19.1493 17.4677 22.4043 17.6932 23.9497 17.7115C25.6297 17.7298 28.3729 18.2904 28.4746 17.8212C28.5763 17.352 26.6469 16.8553 23.9399 16.6908C21.2296 16.5263 15.3233 16.2216 11.5499 17.9857C7.77645 19.7499 9.42036 20.6913 9.42036 20.6913L10.6049 20.5451Z" fill="#F6AF3B"/>
<path d="M32.0479 19.4452C31.4835 19.5061 31.7985 20.0576 31.6673 20.7157C31.3621 22.2452 27.3852 23.6803 21.6824 23.5859C16.0321 23.4914 11.5729 22.2452 10.7362 20.6456C10.3818 19.9692 10.431 19.4695 9.62055 19.4939C8.81008 19.5183 8.80352 20.3775 9.01352 20.8102C9.44336 21.7029 10.1948 23.2324 15.576 24.3628C21.7349 25.6577 27.6379 24.832 30.5024 23.6559C33.2029 22.5469 33.2127 21.3251 33.2652 20.737C33.3177 20.149 32.9371 19.3507 32.0479 19.4452Z" fill="#F8C977"/>
<path d="M10.3982 12.0077C10.3982 12.0077 10.5557 16.3861 11.0413 18.0405C11.399 19.2623 12.0388 20.0057 12.9707 20.0453C13.6794 20.0758 14.6802 19.4482 14.818 17.94C14.969 16.2459 14.9854 12.7603 14.9854 12.7603C14.9854 12.7603 13.9879 12.7207 12.6393 12.547C11.399 12.3885 10.3982 12.0077 10.3982 12.0077Z" fill="white"/>
<path d="M35.8379 8.50693C35.8379 8.50693 33.2392 26.3098 33.1539 27.492C33.0653 28.6955 32.9242 29.7284 33.7543 29.7528C34.4926 29.7741 34.6501 27.294 34.7945 26.1879C34.9422 25.0789 37.4261 6.78849 37.4261 6.78849L36.7042 5.82263L35.8379 8.50693Z" fill="#9E9E9E"/>
<path d="M4.97754 6.68481C4.97754 6.68481 7.6977 27.2817 7.7666 27.9215C7.83551 28.5614 7.82895 29.8533 8.83629 29.7771C9.66316 29.7161 9.31863 28.3054 9.21363 27.6656C9.11191 27.0258 6.90691 7.9645 6.90691 7.9645L4.97754 6.68481ZM9.48926 31.2152C9.18082 32.2054 11.1102 35.3498 20.8227 35.4686C28.6058 35.5631 32.7139 33.1043 32.5335 31.3097C32.3629 29.5821 27.9529 33.6314 21.0983 33.4211C12.7279 33.1683 10.1029 29.2561 9.48926 31.2152Z" fill="#D5D5D5"/>
<path d="M10.1785 31.6631C10.2015 32.2816 10.9955 33.0738 13.1448 33.8569C15.5204 34.7191 17.476 34.8227 17.5449 34.0823C17.6269 33.217 16.1044 33.3572 13.8305 32.5924C11.619 31.8459 10.1391 30.6424 10.1785 31.6631Z" fill="#FEFEFE"/>
<path d="M21.3674 1.28575C10.5327 1.20958 5.20395 3.7202 4.93488 6.10895C4.67895 8.36973 8.82973 11.8889 21.2788 11.8462C33.2783 11.8066 37.4028 8.85114 37.4422 6.60864C37.4849 4.15591 33.0093 1.36801 21.3674 1.28575ZM21.41 10.1004C10.7099 9.85052 6.94629 7.10528 6.99223 6.10895C7.03816 5.10958 10.618 2.53192 21.3214 2.61723C31.7099 2.6995 35.4702 5.44473 35.4702 6.15161C35.4702 6.85848 32.1135 10.3502 21.41 10.1004Z" fill="#C0C0C0"/>
<path d="M21.1575 10.7676C32.7337 10.8742 35.8116 7.62322 35.8509 6.51721C35.8903 5.41119 34.7353 5.26799 34.7353 5.26799C34.7353 5.26799 34.883 5.83775 34.7353 6.19729C34.312 7.23322 30.9651 9.55494 21.082 9.62502C11.3465 9.6951 7.66171 7.29416 7.46483 6.26736C7.34999 5.66104 7.77327 5.37463 7.61905 5.16135C7.46483 4.94807 6.65764 5.41119 6.42796 6.26736C6.1228 7.40385 7.57968 10.6427 21.1575 10.7676Z" fill="white"/>
<defs>
<radialGradient id="paint0_radial_10_1029" cx="0" cy="0" r="1" gradientUnits="userSpaceOnUse" gradientTransform="translate(21.4413 20.9996) rotate(90.4992) scale(8.95724 16.2499)">
<stop offset="0.671" stop-color="#AC5810"/>
<stop offset="0.767" stop-color="#A8560F"/>
<stop offset="0.864" stop-color="#9C4F0D"/>
<stop offset="0.96" stop-color="#884409"/>
</radialGradient>
</defs>
</svg>
