<svg width="32" height="43" viewBox="0 0 32 43" fill="none" xmlns="http://www.w3.org/2000/svg">
<path d="M0.0998205 20.1774C0.559762 18.2853 3.2491 12.21 6.37787 8.06591C10.8953 2.07968 18.8344 -0.696087 18.9955 0.1484C19.2504 1.4953 19.9154 2.38611 20.3783 5.1013C20.8411 7.81649 22.8596 15.2743 24.383 18.6844C25.9063 22.0944 28.6748 27.1185 28.6367 28.273C28.5986 29.4275 30.3769 32.467 30.6141 33.8851C30.8514 35.3033 32.3104 40.8263 31.909 41.3074C31.5077 41.7884 28.3437 40.4771 24.2922 37.7441C22.0891 36.2582 18.2602 33.5502 16.6753 33.1119C15.0904 32.6736 9.48907 28.7541 7.67567 26.4736C5.86227 24.1931 4.50588 23.5411 3.56549 23.0707C2.6251 22.6004 2.44933 22.7144 1.63784 22.2155C0.700381 21.6383 -0.327896 21.934 0.0998205 20.1774Z" fill="url(#paint0_linear_10_709)"/>
<path d="M3.8789 20.5266C3.8789 20.5266 4.35934 18.492 7.2186 14.4691C10.0779 10.4462 11.5016 8.53635 13.7984 7.29991C16.3618 5.91737 18.5003 4.22127 19.8743 3.95403C20.5364 3.82575 20.967 5.52185 21.9689 9.15635C22.9709 12.7909 23.9318 14.601 24.3595 16.7888C24.8253 19.1869 25.1417 18.0858 25.4083 19.4292C25.8067 21.4424 26.1641 22.3368 27.1396 24.4391C28.0742 26.4523 28.4286 28.7435 28.4286 28.7435C29.3632 30.5714 29.703 32.0003 30.4588 34.5444C31.2674 37.2667 32.2927 39.9035 31.9207 41.6068C31.5486 43.31 29.0556 40.2349 26.9639 38.6992C24.8721 37.1634 20.8264 35.111 18.8226 33.2331C18.1429 32.5953 15.1577 31.7045 13.2945 30.436C11.1823 28.9965 10.0163 28.2731 7.81916 26.0461C5.79776 23.9972 6.39832 24.3179 4.96283 23.1064C3.52735 21.8949 3.83202 21.8664 3.8789 20.5266Z" fill="url(#paint1_linear_10_709)"/>
<path opacity="0.2" d="M18.31 1.10336C18.4125 1.45256 18.5297 1.7875 18.6557 2.12957C18.8725 2.73176 19.1185 3.4159 19.3353 4.39935C19.3969 4.68085 19.5521 4.91602 19.7601 5.05855C20.0355 5.24384 20.182 5.75339 20.5657 7.2927C20.7122 7.88776 20.8968 8.62535 21.1399 9.49835C21.6292 11.2693 22.1008 12.5948 22.5168 13.7671C22.9563 15.0035 23.3049 15.9834 23.51 17.0382C23.7912 18.4777 24.0607 18.9766 24.465 19.397C24.4738 19.4077 24.4826 19.4148 24.4943 19.4255C24.506 19.454 24.5294 19.5289 24.5587 19.6821C24.9542 21.6739 25.3116 22.6467 26.1905 24.5637L26.1993 24.5851C27.4209 27.1079 27.7227 27.9844 27.7578 28.273C27.7432 29.1211 28.168 30.1651 28.8711 31.7721C29.246 32.6344 29.6708 33.6108 29.7558 34.1061C29.829 34.5515 29.996 35.2819 30.2069 36.2119C30.3505 36.8498 30.5145 37.5695 30.661 38.2537L30.6786 38.3285C30.8895 39.0839 31.1415 40.103 31.1239 40.8833C30.6698 40.5947 29.9902 39.9854 29.7265 39.7502C29.665 39.6932 29.5947 39.6505 29.5244 39.6148C28.1416 38.9628 26.4337 37.9686 24.7228 36.8141C24.424 36.6146 24.0988 36.3901 23.7502 36.1549C20.806 34.1488 18.2573 32.4563 16.8745 32.075C15.4976 31.6938 10.0135 27.8668 8.31432 25.7289C6.40424 23.3273 4.93067 22.5897 3.95513 22.1051L3.90532 22.0801C3.43952 21.8485 3.13485 21.7416 2.88876 21.6561C2.61631 21.5599 2.4171 21.4922 2.04212 21.2606C1.72866 21.0682 1.42398 20.9577 1.17497 20.8686C1.08708 20.8366 0.978689 20.7974 0.896662 20.7617C0.90545 20.6976 0.920098 20.6085 0.949394 20.4838C1.33903 18.8804 3.87603 12.9725 7.03117 8.79283C10.5496 4.11786 16.4058 1.42049 18.31 1.10336ZM18.6352 0.00231934C17.018 0.00231934 10.365 2.78521 6.37787 8.06949C3.2491 12.21 0.556832 18.2889 0.0998205 20.1774C-0.327896 21.934 0.700381 21.6347 1.63784 22.212C2.45226 22.7108 2.6251 22.6004 3.56549 23.0672C4.50588 23.5375 5.86227 24.1896 7.67567 26.47C9.48907 28.7505 15.0875 32.6772 16.6724 33.1155C18.2573 33.5538 22.0862 36.2618 24.2892 37.7477C26.1876 39.0269 27.8867 39.9925 29.2021 40.609C30.1161 41.425 30.9364 42.1055 31.4403 42.1055C31.6746 42.1055 31.8416 41.9559 31.9207 41.6067C32.1317 40.6446 31.8973 39.3868 31.5047 37.9829C31.159 36.3545 30.7313 34.6014 30.6112 33.8887C30.3739 32.4705 28.5957 29.4311 28.6338 28.2766C28.6543 27.6673 27.8955 25.989 26.9551 24.0399C26.1173 22.2155 25.7833 21.3069 25.4083 19.4291C25.1417 18.0857 24.8283 19.1868 24.3595 16.7887C23.9347 14.6009 22.9709 12.7908 21.969 9.15628C21.0667 5.88522 21.011 4.67372 20.182 4.11786C19.7425 2.14382 19.2123 1.31715 18.9926 0.148412C18.975 0.0486414 18.849 0.00231934 18.6352 0.00231934Z" fill="#424242"/>
<path d="M13.1218 30.272C12.1551 29.7625 11.1531 29.0178 10.3241 28.3657C9.28409 27.5462 8.24995 26.3774 7.14258 25.5294C7.88083 24.5281 9.10539 23.8974 10.4061 23.8867C12.489 23.8689 14.4811 24.7882 14.2028 27.8063C14.1091 28.8289 13.7194 29.6378 13.1218 30.272Z" fill="#DA455A"/>
<path d="M13.4029 26.7658C13.3063 26.6161 13.1568 26.4807 13.0074 26.5377C12.8815 26.5841 12.8141 26.7587 12.8141 26.919C12.8112 27.0793 12.861 27.2326 12.8961 27.3858C13.0192 27.8989 12.9635 28.355 12.9049 28.8681C12.861 29.2565 12.8258 29.6021 13.2008 29.3776C13.8834 28.9643 13.7896 27.3608 13.4029 26.7658Z" fill="#DE7C8A"/>
<path d="M10.4647 25.0127C10.2743 25.0626 10.0839 25.198 10.0136 25.4189C9.95204 25.622 10.0048 25.8537 10.0985 26.0354C10.286 26.3988 10.6434 26.6233 10.995 26.6019C11.1854 26.5912 11.3172 26.5734 11.4901 26.6803C11.5955 26.7445 11.6893 27.001 11.8211 26.9868C12.0643 26.9654 12.1053 26.4772 12.073 26.2563C11.9529 25.4653 11.0946 24.8453 10.4647 25.0127Z" fill="#DE7C8A"/>
<path d="M10.2098 24.5139C9.86997 24.6457 9.51257 24.7205 9.15516 24.7348C9.10243 24.7383 9.03798 24.7277 9.0204 24.6671C8.99989 24.5994 9.06142 24.5388 9.11415 24.5032C9.32215 24.3642 9.536 24.2252 9.76744 24.1789C10.0018 24.1326 10.2625 24.1932 10.4237 24.407C10.3797 24.4426 10.3328 24.4747 10.2889 24.5103" fill="#DE7C8A"/>
<path d="M13.0281 25.9604C12.8406 25.6112 12.6033 25.2977 12.3338 25.0411C12.2429 24.9556 12.0965 24.8879 12.035 25.0019C12.0027 25.0625 12.0174 25.1444 12.0379 25.2121C12.1756 25.6647 12.5154 26.021 12.905 26.1208" fill="#DE7C8A"/>
<path d="M11.7683 24.8417C11.4197 24.8239 11.0769 24.6493 10.822 24.3535C10.989 24.2181 11.2087 24.1825 11.3991 24.2609C11.5896 24.3393 11.7478 24.5281 11.8122 24.7597" fill="#DE7C8A"/>
<path d="M14.5368 18.6345C15.0114 16.4396 13.7664 14.1733 12.1375 13.646C10.5087 13.1186 8.51953 14.3052 8.04494 16.5037C7.57035 18.6987 8.78612 21.0753 10.4179 21.6027C12.0496 22.1301 14.0623 20.8295 14.5368 18.6345Z" fill="#DA455A"/>
<path d="M8.98814 15.8409C9.04966 15.7161 9.11411 15.595 9.21078 15.5095C9.30746 15.424 9.43636 15.3741 9.55354 15.4168C9.6678 15.4596 9.75275 15.5843 9.7967 15.7161C9.87873 15.9691 9.79963 16.297 9.59163 16.3967C9.47152 16.4537 9.32797 16.4359 9.21664 16.5072C9.11411 16.5749 9.05552 16.7067 9.01157 16.835C8.91783 17.0951 8.73913 17.4301 8.62487 17.0132C8.53113 16.6747 8.85631 16.1081 8.98814 15.8409Z" fill="#DE7C8A"/>
<path d="M11.648 15.5915C11.6187 15.3065 11.358 15.1212 11.1119 15.0927C10.652 15.0392 9.74381 15.7234 10.318 16.2685C10.7047 16.6391 11.7154 16.2329 11.648 15.5915Z" fill="#DE7C8A"/>
<path d="M11.6423 14.1342C11.7595 14.1484 11.8825 14.1769 11.9763 14.266C12.0671 14.3551 12.1169 14.519 12.0554 14.6366C11.9763 14.7827 11.7947 14.7684 11.6453 14.7542C11.3757 14.7257 10.4471 15.0998 10.3504 14.6722C10.2332 14.1769 11.3845 14.1057 11.6423 14.1342Z" fill="#DE7C8A"/>
<path d="M10.0924 17.8613C10.1452 17.7793 10.236 17.7223 10.321 17.7472C10.4499 17.7829 10.5026 17.9575 10.5524 18.0964C10.6579 18.3958 11.3522 19.846 10.567 19.6037C10.0397 19.4433 9.79949 18.3209 10.0924 17.8613Z" fill="#DE7C8A"/>
<path d="M13.3767 18.3601C13.3826 18.1463 13.3299 17.9112 13.1805 17.7865C13.0457 17.6724 12.8611 17.6689 12.7 17.7223C12.3836 17.8292 12.1317 18.1499 12.0672 18.5276C12.0321 18.7307 12.0145 18.8732 11.8914 19.03C11.8182 19.1227 11.6043 19.1619 11.5838 19.3008C11.5428 19.561 11.8973 19.7284 12.0701 19.7462C12.6912 19.8139 13.3533 19.0621 13.3767 18.3601Z" fill="#DE7C8A"/>
<path d="M13.4265 16.3006C13.3532 16.0618 13.2478 15.8302 13.0954 15.6485C12.9431 15.4668 12.7351 15.3385 12.5183 15.3314C12.3015 15.3278 12.0847 15.4632 11.9969 15.6913C11.909 15.9193 11.9822 16.2293 12.1726 16.354C12.2576 16.411 12.3601 16.4253 12.448 16.4716C12.6238 16.5607 12.7439 16.7567 12.8904 16.9028C13.3679 17.3874 13.5847 16.8065 13.4265 16.3006Z" fill="#DE7C8A"/>
<path d="M13.8103 18.2141C13.7927 17.8221 13.8191 17.4302 13.8923 17.0489C13.904 16.9955 13.9246 16.9278 13.9744 16.9242C14.03 16.9206 14.0593 16.999 14.074 17.0632C14.1267 17.3161 14.1824 17.5763 14.1619 17.8328C14.1413 18.0894 14.0359 18.3495 13.8367 18.4635C13.822 18.4065 13.8074 18.3495 13.7927 18.296" fill="#DE7C8A"/>
<path d="M13.198 19.7747C13.2917 19.4113 13.5056 19.0941 13.7839 18.9017C13.8454 19.112 13.822 19.3507 13.7165 19.5324C13.6111 19.7142 13.4353 19.8317 13.2478 19.8424" fill="#DE7C8A"/>
<path d="M12.3865 17.2484C12.5095 17.2769 12.6355 17.3054 12.7585 17.3339C12.738 17.0667 12.4861 16.8493 12.2634 16.9099C12.2634 16.9811 12.2664 17.0524 12.2664 17.1201" fill="#DE7C8A"/>
<path d="M9.55944 15.0178C9.48327 14.8823 9.58581 14.6757 9.72057 14.6792C9.85826 14.6828 9.96372 14.8752 9.91685 15.0213C9.86997 15.171 9.6942 15.2315 9.57409 15.1496" fill="#DE7C8A"/>
<path d="M10.7838 17.0418C10.8629 17.0596 10.9303 17.1131 10.9948 17.1701C11.1998 17.3589 11.8619 18.3103 11.2496 18.1393C10.942 18.0538 10.2419 16.9278 10.7838 17.0418Z" fill="#DE7C8A"/>
<path d="M11.5074 17.3481C11.4488 17.2091 11.3727 17.0737 11.3404 16.9205C11.3082 16.7673 11.3346 16.5856 11.4459 16.5036C11.5719 16.411 11.7535 16.4858 11.8472 16.6248C11.9439 16.7637 11.9761 16.9455 12.0054 17.1201C12.0406 17.3303 12.1988 18.1783 11.9205 18.2639C11.6275 18.3565 11.5836 17.5334 11.5074 17.3481Z" fill="#DE7C8A"/>
<path d="M23.1058 21.7666C23.5862 19.4505 22.3265 17.0595 20.6801 16.5037C19.0337 15.9478 17.0211 17.1985 16.5406 19.5182C16.0602 21.8343 17.2906 24.3392 18.9399 24.8951C20.5893 25.4509 22.6253 24.0827 23.1058 21.7666Z" fill="#DA455A"/>
<path d="M17.4956 18.8161C17.5571 18.6879 17.6245 18.556 17.7211 18.4634C17.8178 18.3707 17.9496 18.3208 18.0668 18.3672C18.184 18.4135 18.269 18.5418 18.3129 18.6843C18.3949 18.9515 18.3158 19.2972 18.1049 19.4041C17.9848 19.4646 17.8383 19.4433 17.727 19.5217C17.6215 19.5929 17.5659 19.7319 17.519 19.8673C17.4223 20.1417 17.2436 20.498 17.1294 20.0561C17.0327 19.6998 17.3608 19.1012 17.4956 18.8161Z" fill="#DE7C8A"/>
<path d="M20.1849 18.556C20.1556 18.2567 19.889 18.0572 19.6429 18.0287C19.1771 17.9717 18.2601 18.695 18.8402 19.2687C19.2328 19.6606 20.2522 19.2331 20.1849 18.556Z" fill="#DE7C8A"/>
<path d="M19.9154 24.2787C20.0502 24.211 20.1879 24.0791 20.182 23.901C20.1761 23.7513 20.0619 23.6302 19.9418 23.5874C19.8217 23.5446 19.6957 23.5589 19.5727 23.5589C19.1567 23.5625 18.8285 23.3807 18.4536 23.1776C18.1694 23.0244 17.9204 22.8997 17.9995 23.3701C18.143 24.2359 19.3705 24.553 19.9154 24.2787Z" fill="#DE7C8A"/>
<path d="M18.6117 20.9506C18.6644 20.8651 18.7552 20.8046 18.8431 20.8331C18.972 20.8723 19.0277 21.054 19.0775 21.2036C19.1858 21.5172 19.886 23.0494 19.0921 22.7928C18.5589 22.6182 18.3158 21.4352 18.6117 20.9506Z" fill="#DE7C8A"/>
<path d="M21.9309 21.4779C21.9368 21.2535 21.8811 21.004 21.7317 20.8722C21.594 20.751 21.4065 20.7475 21.2483 20.8045C20.929 20.9185 20.6741 21.2535 20.6067 21.6525C20.5716 21.8663 20.5511 22.0196 20.431 22.1835C20.3577 22.2832 20.1409 22.3224 20.1204 22.4685C20.0794 22.7429 20.4368 22.9175 20.6126 22.9389C21.2395 23.0101 21.9104 22.2191 21.9309 21.4779Z" fill="#DE7C8A"/>
<path d="M21.9836 19.3044C21.9074 19.0514 21.8049 18.8091 21.6496 18.6167C21.4944 18.4243 21.2834 18.2889 21.0667 18.2853C20.8499 18.2818 20.6272 18.4243 20.5393 18.663C20.4515 18.9018 20.5247 19.2296 20.7151 19.3614C20.803 19.422 20.9026 19.4398 20.9934 19.4862C21.1721 19.5824 21.2922 19.7855 21.4416 19.9422C21.9221 20.4518 22.1418 19.8354 21.9836 19.3044Z" fill="#DE7C8A"/>
<path d="M21.1458 17.8542C21.4651 17.954 21.7581 18.1998 21.9485 18.5312C22.0013 18.6239 22.0716 18.7379 22.1624 18.7201C22.2298 18.7058 22.2708 18.6096 22.2649 18.5241C22.2591 18.4386 22.221 18.3637 22.18 18.2925C21.9807 17.9433 21.72 17.644 21.4241 17.4195C21.2982 17.3233 21.1224 17.2484 21.0169 17.3696C20.9525 17.4444 20.9466 17.5727 20.9788 17.676C21.0111 17.7794 21.0696 17.8649 21.1312 17.9504" fill="#DE7C8A"/>
<path d="M20.0413 20.4089C19.9828 20.2593 19.9037 20.1203 19.8714 19.96C19.8392 19.7996 19.8656 19.6072 19.9769 19.5217C20.1029 19.4219 20.2874 19.5039 20.3841 19.65C20.4808 19.7961 20.5159 19.9885 20.5452 20.1702C20.5804 20.3911 20.7415 21.2891 20.4573 21.3781C20.1644 21.4708 20.1204 20.6049 20.0413 20.4089Z" fill="#DE7C8A"/>
<path d="M27.1397 31.9825C27.5674 29.9193 26.4483 27.7921 24.9806 27.3004C23.5129 26.8051 21.7229 27.9204 21.2981 29.9835C20.8704 32.0466 21.9661 34.2772 23.4338 34.7689C24.8986 35.2606 26.712 34.0456 27.1397 31.9825Z" fill="#DA455A"/>
<path d="M22.1447 29.3561C22.2004 29.2421 22.259 29.1245 22.3439 29.0425C22.4289 28.9606 22.5461 28.9143 22.6515 28.957C22.7541 28.9962 22.8302 29.1138 22.8713 29.2385C22.9445 29.4773 22.8742 29.7837 22.6867 29.8799C22.5783 29.9333 22.4494 29.9155 22.3498 29.9832C22.256 30.0474 22.2062 30.1685 22.1652 30.2897C22.0803 30.5355 21.9192 30.8491 21.8195 30.4571C21.7346 30.14 22.0246 29.6091 22.1447 29.3561Z" fill="#DE7C8A"/>
<path d="M22.1857 32.6487C22.3468 32.8233 22.6369 32.834 22.7453 32.613C22.8126 32.4776 22.7951 32.303 22.7746 32.1427C22.7482 31.9253 22.7189 31.7044 22.6925 31.4871C22.6779 31.3659 22.6603 31.2448 22.6046 31.1414C22.3908 30.753 21.9777 30.9633 21.9191 31.3303C21.8605 31.7044 21.9367 32.3814 22.1857 32.6487Z" fill="#DE7C8A"/>
<path d="M24.5381 29.1246C24.5118 28.8573 24.2745 28.6827 24.0548 28.6542C23.6417 28.6043 22.8243 29.2457 23.34 29.7588C23.6915 30.108 24.5997 29.7268 24.5381 29.1246Z" fill="#DE7C8A"/>
<path d="M24.5323 27.7563C24.6378 27.7706 24.7491 27.7991 24.8311 27.881C24.9131 27.963 24.9571 28.1198 24.9014 28.2267C24.8311 28.3656 24.6671 28.3514 24.5323 28.3371C24.2892 28.3086 23.4542 28.6614 23.3663 28.2587C23.2667 27.7955 24.3038 27.7278 24.5323 27.7563Z" fill="#DE7C8A"/>
<path d="M24.298 34.22C24.4181 34.1594 24.5411 34.0418 24.5353 33.8815C24.5294 33.7461 24.4298 33.6392 24.3214 33.6C24.216 33.5608 24.1017 33.575 23.9904 33.575C23.6183 33.5786 23.3283 33.4147 22.9943 33.2365C22.7424 33.1011 22.5197 32.9871 22.5901 33.4076C22.7219 34.1808 23.8146 34.4623 24.298 34.22Z" fill="#DE7C8A"/>
<path d="M23.1408 31.2554C23.1876 31.177 23.2697 31.1271 23.3488 31.1485C23.463 31.1842 23.5128 31.3445 23.5568 31.4763C23.6534 31.7578 24.2774 33.119 23.5685 32.8909C23.091 32.7413 22.8771 31.6866 23.1408 31.2554Z" fill="#DE7C8A"/>
<path d="M26.0937 31.7257C26.0996 31.5261 26.0498 31.3052 25.915 31.184C25.792 31.0736 25.625 31.0736 25.4844 31.1235C25.2002 31.2232 24.9746 31.5226 24.9131 31.8789C24.8809 32.0677 24.8633 32.2031 24.7549 32.3492C24.6904 32.4383 24.4971 32.4739 24.4795 32.6058C24.4444 32.8516 24.7607 33.0049 24.916 33.0227C25.4785 33.0904 26.0732 32.3849 26.0937 31.7257Z" fill="#DE7C8A"/>
<path d="M26.1408 29.7909C26.0734 29.5664 25.9796 29.3491 25.842 29.178C25.7043 29.007 25.5168 28.8858 25.3234 28.8823C25.1301 28.8787 24.9309 29.0034 24.8547 29.2208C24.7785 29.4381 24.84 29.7268 25.0129 29.8408C25.0891 29.8942 25.1799 29.9085 25.2619 29.9512C25.4201 30.0368 25.5285 30.2185 25.6603 30.3575C26.0851 30.81 26.2814 30.2648 26.1408 29.7909Z" fill="#DE7C8A"/>
<path d="M26.4836 31.5867C26.4661 31.2197 26.4924 30.8492 26.5569 30.4928C26.5657 30.4394 26.5862 30.3788 26.6301 30.3752C26.6799 30.3717 26.7092 30.4465 26.7209 30.5071C26.7707 30.7458 26.8176 30.9881 26.8 31.2304C26.7825 31.4727 26.6858 31.7186 26.5071 31.8255C26.4924 31.772 26.4807 31.7186 26.4661 31.6651" fill="#DE7C8A"/>
<path d="M25.3936 28.5009C25.6777 28.59 25.9385 28.8074 26.1084 29.1031C26.1552 29.1851 26.2197 29.2884 26.2988 29.2706C26.3603 29.2563 26.3955 29.1744 26.3896 29.096C26.3837 29.0212 26.3486 28.9535 26.3134 28.8893C26.1347 28.5793 25.9033 28.3121 25.6396 28.1125C25.5283 28.027 25.3701 27.9593 25.2793 28.0698C25.2236 28.1375 25.2178 28.2479 25.2441 28.3406C25.2705 28.4332 25.3262 28.508 25.3789 28.5829" fill="#DE7C8A"/>
<path d="M24.9192 34.0382C25.1946 33.9349 25.4524 33.7746 25.6838 33.5643C25.76 33.4966 25.8391 33.3648 25.7717 33.2793C25.7365 33.233 25.6809 33.2294 25.6311 33.233C25.2971 33.265 24.9866 33.518 24.8372 33.8779" fill="#DE7C8A"/>
<path d="M22.9827 28.5901C22.9387 28.7291 22.7834 28.7896 22.675 28.7112L22.9827 28.5901Z" fill="#DE7C8A"/>
<path d="M22.6604 28.5829C22.593 28.4546 22.6838 28.2622 22.8069 28.2658L22.6604 28.5829Z" fill="#DE7C8A"/>
<path d="M16.0045 11.4759C15.9752 12.5057 16.7486 13.3751 17.7329 13.4179C18.7172 13.4606 19.5404 12.6589 19.5697 11.6291C19.599 10.5994 18.8256 9.72994 17.8413 9.68718C16.857 9.64442 16.0338 10.4461 16.0045 11.4759ZM16.9507 11.5187C16.9654 11.0376 17.3491 10.6635 17.812 10.6813C18.2749 10.6991 18.6352 11.1089 18.6206 11.5899C18.6059 12.071 18.2221 12.4451 17.7593 12.4273C17.2993 12.4059 16.9361 11.9997 16.9507 11.5187Z" fill="url(#paint2_radial_10_709)"/>
<path d="M15.8521 28.8859C16.0953 29.8337 17.0415 30.6247 17.812 30.3361C18.5825 30.0439 18.8842 28.7825 18.6411 27.8347C18.3979 26.8869 17.5776 26.3524 16.8072 26.6446C16.0367 26.9332 15.609 27.9381 15.8521 28.8859ZM16.5933 28.6079C16.4791 28.1625 16.6812 27.6922 17.0415 27.5568C17.4019 27.4214 17.7856 27.6708 17.8999 28.1127C18.0141 28.5581 17.812 29.0284 17.4517 29.1638C17.0913 29.2992 16.7076 29.0498 16.5933 28.6079Z" fill="url(#paint3_radial_10_709)"/>
<defs>
<linearGradient id="paint0_linear_10_709" x1="30.5104" y1="42.6685" x2="1.33948" y2="12.6453" gradientUnits="userSpaceOnUse">
<stop stop-color="#FFE165"/>
<stop offset="0.0157" stop-color="#C7A259"/>
<stop offset="0.0246" stop-color="#A67C52"/>
<stop offset="0.8259" stop-color="#DA8108"/>
<stop offset="0.9114" stop-color="#E08200"/>
<stop offset="0.9342" stop-color="#DD7E00"/>
<stop offset="0.9555" stop-color="#D27300"/>
<stop offset="0.976" stop-color="#C16000"/>
<stop offset="0.9961" stop-color="#AA4600"/>
<stop offset="1" stop-color="#A44000"/>
</linearGradient>
<linearGradient id="paint1_linear_10_709" x1="30.0979" y1="40.4701" x2="5.92961" y2="15.5967" gradientUnits="userSpaceOnUse">
<stop stop-color="#FFE165"/>
<stop offset="0.4987" stop-color="#FFDF64"/>
<stop offset="0.6792" stop-color="#FFD85F"/>
<stop offset="0.8079" stop-color="#FECC56"/>
<stop offset="0.9114" stop-color="#FEBC4A"/>
<stop offset="1" stop-color="#FDA63A"/>
</linearGradient>
<radialGradient id="paint2_radial_10_709" cx="0" cy="0" r="1" gradientUnits="userSpaceOnUse" gradientTransform="translate(17.7872 11.5542) rotate(-177.506) scale(1.79534 1.8554)">
<stop stop-color="#B9B789"/>
<stop offset="1"/>
</radialGradient>
<radialGradient id="paint3_radial_10_709" cx="0" cy="0" r="1" gradientUnits="userSpaceOnUse" gradientTransform="translate(17.2817 28.4991) rotate(159.312) scale(1.5632 1.82443)">
<stop stop-color="#B9B789"/>
<stop offset="1"/>
</radialGradient>
</defs>
</svg>
