<svg width="37" height="29" viewBox="0 0 37 29" fill="none" xmlns="http://www.w3.org/2000/svg">
<path d="M8.62427 2.63888C8.87445 2.07873 8.12391 0.0838982 7.38572 0.00387629C6.55797 -0.0875773 5.45223 1.45284 5.56034 3.18189C5.63138 4.35078 8.36174 3.2219 8.62427 2.63888Z" fill="#865B52"/>
<path d="M8.90521 15.9768C8.90521 15.9768 8.42647 16.7827 7.6018 17.2229C6.77713 17.6658 4.68921 18.5918 4.68921 18.5918L5.64669 19.9207L11.5182 19.2777C11.5151 19.2777 10.3414 14.6507 8.90521 15.9768Z" fill="#865B52"/>
<path d="M12.5159 7.52883L14.4741 4.51086C14.4741 4.51086 15.0393 7.00583 15.3883 7.68888C15.7373 8.37192 16.4755 9.70086 17.1705 9.90091C17.8654 10.101 19.3881 9.53796 21.8652 10.7068C24.3423 11.8757 27.1252 15.1338 27.3012 18.3118C27.4773 21.4898 26.6927 22.1328 27.085 22.6158C27.4773 23.0988 29.6517 22.6158 30.1273 20.8468C30.603 19.0777 29.9976 16.5827 29.0834 14.7708C28.1691 12.9589 26.9522 11.1498 27.9962 8.41479C29.0401 5.67976 32.6909 4.75379 34.4761 5.03386C36.2583 5.3168 36.981 6.07701 36.9995 7.04584C37.0428 9.46079 33.6515 8.61485 33.6947 11.2699C33.7379 13.9249 36.3602 16.7028 35.9556 20.4038C35.5201 24.3877 32.521 26.3997 28.3884 26.6398C24.4844 26.8684 20.8212 25.8339 20.8212 25.8339L18.0816 14.4879L12.6888 10.8669L12.5159 7.52883Z" fill="#865B52"/>
<path d="M17.0068 10.641C17.0068 11.607 20.9572 12.8016 22.7177 14.5021C25.9639 17.6401 25.7045 21.2868 26.282 20.8581C26.4148 20.761 27.1685 17.0857 23.9347 13.5904C21.5317 10.9897 17.0068 10.4839 17.0068 10.641Z" fill="#FEE5C1"/>
<path d="M2.42825 18.5804C2.42825 18.5804 1.17735 19.8522 2.13792 21.0468C3.24365 22.4272 5.41497 21.3155 5.41497 21.3155L2.42825 18.5804Z" fill="#C49166"/>
<path d="M2.54572 17.8688C2.54572 17.8688 1.7087 18.8805 2.65691 20.0694C3.64219 21.304 4.55643 21.9728 5.73011 21.827C6.9038 21.6784 7.25281 21.0211 7.26517 20.2437C7.2837 19.4635 2.54572 17.8688 2.54572 17.8688Z" fill="#AD3421"/>
<path d="M4.02206 16.9685C3.38271 16.9685 2.64452 17.2514 2.38508 18.0402C2.03606 19.0977 3.02134 19.8636 3.25608 20.1065C3.49081 20.3494 3.92322 20.6838 4.70465 20.6838C5.48608 20.6838 6.76169 19.3292 6.76169 19.3292C6.76169 19.3292 6.62887 18.3003 5.74243 17.6173C4.99807 17.0428 4.41123 16.9685 4.02206 16.9685Z" fill="#D97755"/>
<path d="M2.15044 19.975C2.0794 20.3094 2.12264 20.5637 2.33884 20.6066C2.55505 20.6495 2.51181 20.338 2.55505 20.1379C2.59829 19.9378 2.64153 19.6521 2.48401 19.6149C2.2431 19.5549 2.18441 19.815 2.15044 19.975Z" fill="#865B52"/>
<path d="M2.84858 20.7524C2.82078 21.0611 2.78989 21.2754 3.00919 21.2897C3.22848 21.304 3.19141 20.9925 3.20068 20.8267C3.21304 20.6181 3.23466 20.3838 3.15435 20.338C2.92888 20.2037 2.8702 20.5124 2.84858 20.7524Z" fill="#865B52"/>
<path d="M9.3561 21.061C9.3561 21.061 9.23873 22.187 9.96456 23.1787C10.6904 24.1704 11.6757 24.842 11.617 24.9478C11.5583 25.0535 10.3692 25.1878 8.83412 25.2964C7.29906 25.405 6.65971 25.3507 6.19642 25.7794C5.73312 26.2081 5.00729 27.1484 5.56015 27.4685C6.11302 27.7885 8.05269 27.6828 8.69204 27.6285C9.33139 27.5742 11.0394 27.3884 11.0394 27.3884C11.0394 27.3884 10.1406 28.2458 10.6348 28.6231C11.129 28.9974 12.3459 28.9174 13.2447 28.8917C14.1435 28.866 18.0846 28.6516 19.7092 28.5973C21.3339 28.543 22.6373 28.6774 23.0419 28.06C23.4465 27.4427 22.8967 27.0683 22.8967 27.0683C22.8967 27.0683 25.0124 26.211 24.9846 22.67C24.9568 19.129 23.4774 16.3797 20.4042 14.1391C18.1031 12.4615 15.7094 11.9385 14.4338 10.0894C13.1582 8.24033 13.3899 7.46011 13.3899 7.46011C13.3899 7.46011 14.6068 5.95684 14.6933 4.24209C14.7798 2.52447 14.5419 0.60109 13.3899 0.381029C12.5868 0.226701 11.3328 1.18696 10.6935 2.17867C10.0572 3.17037 8.49128 5.29095 8.49128 5.29095L8.20094 13.6047L10.3167 17.6286C10.3167 17.6286 10.1437 18.1116 9.88117 18.2173C9.62172 18.3259 6.95313 18.2173 6.43115 18.2431C5.90917 18.2688 4.59341 18.6632 4.52855 19.4777C4.46986 20.2065 4.4884 20.2293 5.15554 20.3636C5.8196 20.498 9.3561 21.061 9.3561 21.061Z" fill="#C49166"/>
<path d="M4.63672 19.1919C4.63672 19.3291 5.07222 19.3005 5.44903 19.2062C5.82585 19.1119 6.33238 19.0462 6.32003 18.8318C6.30459 18.6175 5.75481 18.6632 5.43668 18.7775C5.02898 18.9233 4.63672 18.9919 4.63672 19.1919Z" fill="#865B52"/>
<path d="M5.96503 19.6121C5.96503 19.8579 5.54188 19.8065 5.25464 19.8665C4.99519 19.9208 4.52881 20.0408 4.52881 19.8522C4.52881 19.6636 4.92107 19.5979 5.19596 19.5436C5.47084 19.4921 5.96503 19.3578 5.96503 19.6121Z" fill="#865B52"/>
<path d="M10.6008 21.1668L13.3621 20.2809L15.7094 17.0629L17.3403 18.2289C17.3403 18.2289 16.2098 19.2949 16.0801 20.3009C15.9071 21.627 16.2747 22.9959 16.9048 23.8219C17.5348 24.6478 18.5572 26.0139 18.5572 26.0139C18.5572 26.0139 17.4484 26.2768 16.2098 26.0939C15.1072 25.9339 13.0687 24.9765 12.0247 23.7904C11.3514 23.0274 10.885 22.4358 10.6008 21.1668Z" fill="#FDC397"/>
<path d="M15.2246 16.7285L15.9072 17.1972C15.9072 17.1972 15.1381 19.5979 13.0965 20.6696C11.6788 21.4127 10.2611 21.4327 7.55857 21.0583C5.32549 20.7496 4.79424 20.3609 4.63363 20.2409C4.44831 20.1009 4.90543 20.3495 5.61582 20.4152C6.32621 20.481 8.48517 20.7639 9.34072 20.8296C10.1963 20.8954 11.4194 20.7582 12.3552 20.2809C13.1676 19.8665 13.8625 19.1406 14.5296 18.1203C14.8385 17.6516 15.2246 16.7285 15.2246 16.7285Z" fill="#865B52"/>
<path d="M6.34152 26.0367C6.184 25.9767 5.89367 26.3911 5.6682 26.7712C5.50141 27.057 5.34698 27.3742 5.51995 27.4714C5.69291 27.5686 5.97706 27.1199 6.11605 26.8769C6.25504 26.6312 6.6473 26.151 6.34152 26.0367Z" fill="#865B52"/>
<path d="M6.5425 26.7482C6.33247 27.0398 5.99889 27.5599 6.18421 27.6685C6.36953 27.7771 6.69384 27.3084 6.87916 27.054C7.06448 26.8025 7.44438 26.331 7.23744 26.2338C7.0305 26.1367 6.74944 26.4596 6.5425 26.7482Z" fill="#865B52"/>
<path d="M11.8363 27.2628C11.5583 27.1857 11.163 27.5943 10.9993 27.8858C10.8356 28.1774 10.7707 28.7032 10.9437 28.8004C11.1939 28.9404 11.2495 28.3088 11.4966 27.9944C11.685 27.7658 12.1946 27.3628 11.8363 27.2628Z" fill="#865B52"/>
<path d="M11.8425 28.0516C11.6727 28.4545 11.6356 28.9232 11.8549 28.9547C12.102 28.989 12.0958 28.5403 12.3058 28.1773C12.5159 27.8144 12.9483 27.4286 12.7568 27.3485C12.5344 27.2514 12.0989 27.4486 11.8425 28.0516Z" fill="#865B52"/>
<path d="M11.0365 11.5212C12.1237 12.0985 12.4943 12.8187 12.4943 12.8187C12.4943 12.8187 12.1021 13.4418 11.6696 14.0648C11.2342 14.6878 10.8388 16.4397 10.7122 16.9427C10.428 18.0602 9.87823 18.2574 9.87823 18.2574C9.87823 18.2574 9.26668 17.3057 8.96091 16.8227C8.68911 16.394 8.23199 15.3537 8.0374 15.2937C7.84282 15.2337 6.04214 15.9082 4.83448 16.0053C3.51563 16.1111 2.57359 15.4166 2.57359 15.4166L1.60376 14.2306L2.2987 12.9016L4.01599 11.8356L8.32156 10.6496C8.31847 10.6467 9.65585 10.7868 11.0365 11.5212Z" fill="#FDC397"/>
<path d="M9.47051 8.0718L9.79791 7.58881C9.79791 7.58881 9.26975 6.09697 9.63421 4.66229C10.0141 3.17331 10.5793 2.39024 10.5793 2.39024C10.5793 2.39024 8.03429 1.4557 4.51324 3.76776C0.992185 6.07983 1.25163 9.23783 1.16515 10.1038C1.07867 10.9697 1.03851 11.4556 0.70803 11.7128C0.0872129 12.1958 -0.0641306 12.6388 0.0223514 12.9989C0.108833 13.3618 1.51108 13.0989 1.51108 13.0989L2.2925 12.8988L6.20582 10.7468L9.47051 8.0718Z" fill="#9F7157"/>
<path d="M12.7909 2.47314C12.5901 2.44171 11.6017 3.28194 11.3268 4.28507C10.9933 5.5054 11.1909 6.32849 11.8488 6.45709C12.5314 6.59142 13.0781 5.574 13.2387 4.83379C13.3993 4.10788 13.2264 2.53888 12.7909 2.47314Z" fill="#FFD2B2"/>
<path d="M0.964434 12.6245C0.427011 12.6845 -0.0640837 12.7845 0.0223984 13.1618C0.10888 13.5361 0.603063 13.9134 0.748229 14.0477C0.893396 14.182 1.60378 14.2278 1.60378 14.2278C1.60378 14.2278 2.49022 13.1189 2.48405 12.8702C2.47169 12.4959 1.90647 12.5159 0.964434 12.6245Z" fill="#F69C9C"/>
<path d="M9.79788 7.58884C9.75773 7.36307 6.35095 7.18587 5.06608 8.60055C3.92019 9.86089 4.22288 10.7926 3.87386 11.2984C3.25922 12.1901 2.70327 12.6359 2.74651 12.6902C2.79593 12.7531 3.4291 12.5359 4.12404 12.3559C4.70162 12.2044 5.46142 12.3073 6.19034 12.3159C7.02737 12.3273 8.46667 12.1701 9.26663 10.8697C10.187 9.36076 9.87818 8.05183 9.79788 7.58884Z" fill="#FFEAC6"/>
<path d="M6.03585 9.58089C5.66213 9.88954 5.54476 10.4411 5.68683 10.8555C5.80729 11.2042 6.28603 11.6643 7.04893 11.5671C8.10833 11.4328 8.41102 10.3725 7.91992 9.68949C7.66048 9.32653 6.84816 8.90927 6.03585 9.58089Z" fill="#100D0F"/>
<path d="M1.28574 13.9849C1.28574 13.9849 2.05172 12.5559 2.48413 12.9332C2.76211 13.1732 2.0023 14.2278 2.0023 14.2278C2.0023 14.2278 2.5181 15.008 3.15745 15.0595C3.79989 15.1109 4.50101 14.5993 4.69869 14.4707C4.89327 14.3393 5.19905 14.0792 5.45849 14.1678C5.71794 14.2564 5.81369 14.525 5.43996 14.8651C5.09094 15.1795 3.90799 15.9311 2.84859 15.6568C1.96833 15.4281 1.34751 14.6822 1.06644 14.4793C0.782287 14.2793 -0.252409 13.5934 0.0657215 13.2818C0.278838 13.0761 1.28574 13.9849 1.28574 13.9849Z" fill="#494949"/>
</svg>
