<svg width="37" height="37" viewBox="0 0 37 37" fill="none" xmlns="http://www.w3.org/2000/svg">
<path d="M6.93757 8.52161L3.78101 15.6528L4.04405 24.2755C4.04405 24.2755 5.79866 29.9296 5.88538 29.9903C5.9721 30.0481 6.26405 29.918 6.96647 28.6606C7.6689 27.4032 9.45241 24.8883 9.59694 24.2755C9.74437 23.6627 9.80218 19.2487 9.80218 19.2487L10.2126 9.74723L6.93757 8.52161Z" fill="#757F3E"/>
<path d="M6.94624 8.81064C6.94624 8.81064 1.18233 14.352 1.17944 19.6881C1.17944 23.4025 2.99187 25.4462 3.43124 26.1775C3.87062 26.9088 4.8939 28.4871 5.12804 28.808C5.36218 29.1288 5.64546 29.7359 5.8478 29.97C6.05304 30.2042 5.82757 28.4264 5.59343 27.698C5.35929 26.9667 4.72046 22.9978 4.71757 20.3905C4.71468 17.5345 4.95749 14.0745 5.95476 11.9788C7.05608 9.66626 8.09093 8.57361 8.09093 8.57361L6.94624 8.81064Z" fill="#94A61D"/>
<path d="M8.86839 9.54485C8.86839 9.54485 7.1716 10.3918 7.11378 11.4151C7.05597 12.4384 7.58207 13.4906 7.7873 14.8925C7.99253 16.2945 7.99253 18.078 8.02144 18.6041C8.04746 19.1331 9.53902 22.7001 9.53902 22.7001L18.8064 31.002L30.4122 31.3517C30.4122 31.3517 34.066 31.557 34.5343 31.002C35.0025 30.447 35.8871 29.2011 35.9969 28.3715C36.2021 26.8221 35.6471 26.0041 35.2367 23.5181C35.0632 22.4602 35.0025 18.3208 33.4243 15.011C31.6407 11.2706 28.1026 7.99547 20.9425 7.05891C15.7365 6.37961 13.1089 7.46938 12.3487 7.35086C11.5885 7.23524 10.9757 6.88258 10.0969 7.29305C8.97246 7.81625 8.86839 9.54485 8.86839 9.54485Z" fill="#FCC219"/>
<path d="M32.0194 32.4328C33.3982 32.4791 34.1238 31.7015 34.4157 31.3806C34.7077 31.0598 35.2945 29.9555 35.2945 29.9555C35.2945 29.9555 34.2972 30.7967 33.1583 30.736C32.0194 30.6782 30.4989 30.3862 29.5913 30.2966C28.6836 30.207 25.819 30.8516 22.3416 30.0914C18.8641 29.3312 15.0254 27.4089 12.4903 24.9172C9.0707 21.5554 7.98094 17.7947 7.98094 17.7947C7.98094 17.7947 7.81328 22.4601 11.0884 26.7296C14.3634 30.9991 17.6963 32.5166 21.7866 32.956C26.4116 33.4503 29.0073 32.401 29.678 32.3721C30.3544 32.3461 31.1724 32.4039 32.0194 32.4328Z" fill="#F7932A"/>
<path d="M15.329 10.2155C15.2423 11.1231 15.7973 11.7938 16.4679 11.9123C17.1906 12.0366 18.2804 11.8545 19.8875 12.7592C21.4947 13.6669 23.7523 15.9273 25.0907 14.7191C26.3192 13.6091 24.3304 11.5625 23.628 10.9468C22.9256 10.334 21.1739 8.7557 17.8699 8.695C15.9707 8.6632 15.3868 9.60266 15.329 10.2155Z" fill="#FFEBC9"/>
<path d="M5.88525 5.01234C5.87947 4.79554 5.68002 3.58148 5.099 3.86187C4.09595 4.34171 3.71728 5.04703 4.04392 5.86218C4.45439 6.88546 5.14236 7.55031 5.88525 8.31632C6.4547 8.90601 7.58205 10.0998 7.98963 10.4496C8.40009 10.7994 9.00424 11.2763 9.71533 10.3629C10.4727 9.38874 9.96103 9.21242 9.31642 8.59671C8.67181 7.98101 8.38275 7.77577 7.14267 6.5039C6.52119 5.86507 5.89103 5.22913 5.88525 5.01234Z" fill="#757F3E"/>
</svg>
