<svg width="37" height="37" viewBox="0 0 37 37" fill="none" xmlns="http://www.w3.org/2000/svg">
<path d="M18.3843 34.3406C10.3194 34.3406 1.61865 29.282 1.61865 18.182C1.61865 7.08203 10.3194 2.02344 18.3843 2.02344C22.8647 2.02344 26.9983 3.49766 30.0624 6.18594C33.3866 9.13437 35.1499 13.2969 35.1499 18.182C35.1499 23.0672 33.3866 27.2008 30.0624 30.1492C26.9983 32.8375 22.8358 34.3406 18.3843 34.3406Z" fill="url(#paint0_radial_33_931)"/>
<path d="M32.2275 8.57654C33.7682 11.0625 34.5718 14.0225 34.5718 17.3149C34.5718 22.2001 32.8085 26.3336 29.4843 29.2821C26.4202 31.9704 22.2577 33.4735 17.8062 33.4735C12.5857 33.4735 7.09931 31.3489 3.87915 26.8424C6.98946 31.9472 12.8372 34.3407 18.3843 34.3407C22.8359 34.3407 26.9984 32.8376 30.0624 30.1493C33.3867 27.2008 35.1499 23.0672 35.1499 18.1821C35.1499 14.4994 34.1469 11.2272 32.2275 8.57654Z" fill="#EB8F00"/>
<path d="M18.1156 23.2464C14.4388 23.2464 11.022 22.9371 8.16899 22.4111C7.46079 22.281 6.83641 22.9025 6.98094 23.6078C7.92907 28.2443 12.4934 32.0513 18.1127 32.0513C24.2611 32.0513 28.4005 28.12 29.259 23.5904C29.392 22.8909 28.7676 22.281 28.0681 22.4111C25.2121 22.9371 21.7925 23.2464 18.1156 23.2464Z" fill="#422B0D"/>
<path d="M25.8941 16.5661C25.8074 16.3522 25.6773 16.1615 25.5125 15.9996C25.3449 15.8348 25.1425 15.6932 24.9026 15.5718C24.7118 15.4764 24.4979 15.3868 24.2667 15.3058V12.8748C24.31 12.8893 24.3563 12.9008 24.3968 12.9211C24.5442 12.9933 24.6685 13.0974 24.7697 13.2275C24.8708 13.3575 24.9489 13.5136 25.0009 13.6929C25.0211 13.7651 25.0385 13.8374 25.05 13.9125C25.0847 14.1236 25.2582 14.2854 25.4721 14.2854H25.4836C25.7611 14.2854 25.9664 14.0397 25.9259 13.768C25.8652 13.3518 25.7265 13.0078 25.5125 12.7361C25.2177 12.3603 24.8014 12.1348 24.2667 12.0597V11.4208C24.2627 11.3124 24.2167 11.2097 24.1386 11.1344C24.0604 11.059 23.9561 11.017 23.8475 11.017C23.739 11.017 23.6347 11.059 23.5565 11.1344C23.4784 11.2097 23.4324 11.3124 23.4284 11.4208V12.0799C23.2145 12.1146 23.015 12.1695 22.8358 12.2533C22.6219 12.3516 22.4427 12.4817 22.2924 12.6436C22.145 12.8054 22.0293 12.9962 21.9455 13.213C21.8646 13.4298 21.8241 13.6726 21.8241 13.9443C21.8241 14.2305 21.8704 14.482 21.9629 14.6988C22.0554 14.9156 22.1883 15.1093 22.3589 15.2769C22.5294 15.4446 22.7347 15.5891 22.9775 15.7105C23.1162 15.7799 23.2694 15.8464 23.4284 15.9071V18.4133L23.4255 18.4161C23.2221 18.3821 23.0315 18.2943 22.8734 18.1618C22.7462 18.0548 22.645 17.9132 22.5641 17.7368C22.5236 17.6472 22.4947 17.549 22.4745 17.4362C22.4369 17.2281 22.2693 17.0662 22.0554 17.0662H22.012C21.749 17.0662 21.5495 17.3033 21.5929 17.5605C21.6189 17.7195 21.6593 17.864 21.7143 17.997C21.8212 18.2572 21.96 18.4711 22.1363 18.6416C22.3126 18.8122 22.515 18.9422 22.7433 19.0318C22.9601 19.1186 23.1885 19.1706 23.4255 19.1995V19.7025C23.4295 19.8109 23.4755 19.9136 23.5536 19.9889C23.6318 20.0643 23.7361 20.1063 23.8447 20.1063C23.9532 20.1063 24.0575 20.0643 24.1357 19.9889C24.2138 19.9136 24.2598 19.8109 24.2638 19.7025V19.185C24.5066 19.1533 24.7321 19.0983 24.9344 19.0145C25.1628 18.9191 25.3564 18.7919 25.5183 18.6329C25.6773 18.474 25.8016 18.2861 25.8912 18.0635C25.9779 17.8438 26.0242 17.5923 26.0242 17.3148C26.0271 17.0315 25.9837 16.78 25.8941 16.5661ZM23.0324 14.6988C22.9225 14.5976 22.8416 14.482 22.7896 14.3577C22.7375 14.2334 22.7115 14.0918 22.7115 13.9299C22.7144 13.5859 22.8156 13.3142 23.015 13.1118C23.122 13.002 23.2636 12.924 23.4284 12.8748V14.9647C23.2694 14.8838 23.1365 14.7942 23.0324 14.6988ZM25.0414 17.7975C24.9778 17.9363 24.8911 18.0548 24.7754 18.1531C24.6598 18.2514 24.5182 18.3265 24.3534 18.3757C24.3274 18.3843 24.2985 18.3872 24.2696 18.393V16.2222C24.4979 16.3291 24.6829 16.4447 24.8159 16.5719C25.0327 16.78 25.1397 17.0286 25.1339 17.3206C25.1339 17.5027 25.1021 17.6588 25.0414 17.7975Z" fill="#422B0D" stroke="#422B0D" stroke-width="0.5" stroke-miterlimit="10"/>
<path d="M12.8748 25.3739V31.4876C12.8748 34.2366 15.1034 36.4624 17.8495 36.4624H18.7976C21.5466 36.4624 23.7724 34.2337 23.7724 31.4876V25.3306C18.2773 26.4059 14.1842 25.6774 12.8748 25.3739Z" fill="#05E005"/>
<path d="M18.1126 24.579C16.3233 24.579 14.5629 24.5067 12.8748 24.3651V25.3739C14.1871 25.6774 18.2773 26.4058 23.7753 25.3305V24.3246C21.9571 24.4894 20.0522 24.579 18.1126 24.579Z" fill="#05E005"/>
<path opacity="0.3" d="M18.1126 24.579C16.3233 24.579 14.5629 24.5067 12.8748 24.3651V25.3739C14.1871 25.6774 18.2773 26.4058 23.7753 25.3305V24.3246C21.9571 24.4894 20.0522 24.579 18.1126 24.579Z" fill="#AB3F2E"/>
<path d="M20.5147 31.2969C20.428 31.0829 20.2979 30.8922 20.1331 30.7303C19.9655 30.5655 19.7631 30.4239 19.5232 30.3025C19.3324 30.2071 19.1185 30.1175 18.8872 30.0365V27.6055C18.9306 27.62 18.9769 27.6315 19.0173 27.6518C19.1647 27.724 19.289 27.8281 19.3902 27.9582C19.4914 28.0883 19.5694 28.2444 19.6215 28.4236C19.6417 28.4958 19.659 28.5681 19.6706 28.6433C19.7053 28.8543 19.8787 29.0162 20.0926 29.0162H20.1042C20.3817 29.0162 20.5869 28.7704 20.5465 28.4987C20.4858 28.0854 20.347 27.7414 20.1331 27.4668C19.8383 27.091 19.422 26.8655 18.8872 26.7904V26.1515C18.8832 26.0431 18.8373 25.9404 18.7591 25.8651C18.681 25.7898 18.5767 25.7477 18.4681 25.7477C18.3596 25.7477 18.2552 25.7898 18.1771 25.8651C18.0989 25.9404 18.053 26.0431 18.049 26.1515V26.8106C17.8351 26.8453 17.6356 26.9002 17.4564 26.984C17.2425 27.0823 17.0633 27.2124 16.913 27.3743C16.7655 27.5361 16.6499 27.7269 16.5661 27.9437C16.4851 28.1605 16.4447 28.4033 16.4447 28.6751C16.4447 28.9612 16.4909 29.2127 16.5834 29.4295C16.6759 29.6463 16.8089 29.84 16.9794 30.0076C17.15 30.1753 17.3552 30.3198 17.598 30.4412C17.7368 30.5106 17.89 30.5771 18.049 30.6378V33.144L18.0461 33.1469C17.8426 33.1128 17.652 33.025 17.494 32.8925C17.3668 32.7855 17.2656 32.6439 17.1847 32.4676C17.1442 32.3779 17.1153 32.2797 17.0951 32.1669C17.0546 31.9588 16.8869 31.7969 16.673 31.7969H16.6297C16.3666 31.7969 16.1672 32.034 16.2105 32.2912C16.2365 32.4502 16.277 32.5947 16.3319 32.7277C16.4389 32.9879 16.5776 33.2018 16.754 33.3723C16.9303 33.5429 17.1326 33.6729 17.361 33.7626C17.5778 33.8493 17.8062 33.9013 18.0432 33.9302V34.4332C18.0472 34.5417 18.0931 34.6443 18.1713 34.7197C18.2495 34.795 18.3538 34.837 18.4623 34.837C18.5709 34.837 18.6752 34.795 18.7534 34.7197C18.8315 34.6443 18.8774 34.5417 18.8815 34.4332V33.9158C19.1243 33.884 19.3497 33.829 19.5521 33.7452C19.7805 33.6498 19.9741 33.5226 20.136 33.3637C20.295 33.2047 20.4193 33.0168 20.5089 32.7942C20.5956 32.5745 20.6419 32.323 20.6419 32.0455C20.6448 31.7622 20.6014 31.5137 20.5147 31.2969ZM17.6501 29.4295C17.5402 29.3283 17.4593 29.2127 17.4072 29.0884C17.3552 28.9641 17.3292 28.8225 17.3292 28.6606C17.3321 28.3166 17.4333 28.0449 17.6327 27.8426C17.7397 27.7327 17.8813 27.6547 18.0461 27.6055V29.6954C17.8871 29.6145 17.7541 29.5249 17.6501 29.4295ZM19.659 32.5312C19.5955 32.6699 19.5087 32.7884 19.3931 32.8867C19.2775 32.985 19.1358 33.0601 18.9711 33.1093C18.9451 33.1179 18.9162 33.1208 18.8872 33.1266V30.9558C19.1156 31.0627 19.3006 31.1783 19.4336 31.3055C19.6504 31.5137 19.7573 31.7622 19.7515 32.0542C19.7515 32.2334 19.7197 32.3895 19.659 32.5312Z" fill="#404040"/>
<path d="M8.59968 9.47832C8.11695 9.89168 7.40007 9.29621 7.85101 8.72965C8.18632 8.31918 8.63726 7.92894 9.12867 7.6341C10.4526 6.78136 12.0829 6.50675 13.4733 6.78136C14.1815 6.93457 13.9647 7.83644 13.3172 7.83933C11.6782 7.81621 9.96984 8.36832 8.59968 9.47832ZM28.1894 9.47832C28.6722 9.89168 29.3891 9.29621 28.9381 8.72965C28.6028 8.31918 28.1519 7.92894 27.6605 7.6341C26.3366 6.78136 24.7062 6.50675 23.3159 6.78136C22.6077 6.93457 22.8244 7.83644 23.4719 7.83933C25.1109 7.81621 26.8222 8.36832 28.1894 9.47832Z" fill="#422B0D"/>
<path d="M14.6526 16.5661C14.5659 16.3522 14.4359 16.1615 14.2711 15.9996C14.1034 15.8348 13.9011 15.6932 13.6612 15.5718C13.4704 15.4764 13.2565 15.3868 13.0252 15.3058V12.8748C13.0686 12.8893 13.1148 12.9008 13.1553 12.9211C13.3027 12.9933 13.427 13.0974 13.5282 13.2275C13.6294 13.3575 13.7074 13.5136 13.7594 13.6929C13.7797 13.7651 13.797 13.8374 13.8086 13.9125C13.8433 14.1236 14.0167 14.2854 14.2306 14.2854H14.2422C14.5197 14.2854 14.7249 14.0397 14.6844 13.768C14.6237 13.3547 14.485 13.0107 14.2711 12.7361C13.9762 12.3603 13.56 12.1348 13.0252 12.0597V11.4208C13.0212 11.3124 12.9753 11.2097 12.8971 11.1344C12.8189 11.059 12.7146 11.017 12.6061 11.017C12.4975 11.017 12.3932 11.059 12.3151 11.1344C12.2369 11.2097 12.191 11.3124 12.1869 11.4208V12.0799C11.973 12.1146 11.7736 12.1695 11.5944 12.2533C11.3805 12.3516 11.2012 12.4817 11.0509 12.6436C10.9035 12.8054 10.7879 12.9962 10.7041 13.213C10.6231 13.4298 10.5827 13.6726 10.5827 13.9443C10.5827 14.2305 10.6289 14.482 10.7214 14.6988C10.8139 14.9156 10.9469 15.1093 11.1174 15.2769C11.288 15.4446 11.4932 15.5891 11.736 15.7105C11.8748 15.7799 12.028 15.8464 12.1869 15.9071V18.4133L12.1841 18.4161C11.9806 18.3821 11.79 18.2943 11.6319 18.1618C11.5048 18.0548 11.4036 17.9132 11.3226 17.7368C11.2822 17.6472 11.2533 17.549 11.233 17.4362C11.1955 17.2281 11.0278 17.0662 10.8139 17.0662H10.7705C10.5075 17.0662 10.308 17.3033 10.3514 17.5605C10.3774 17.7195 10.4179 17.864 10.4728 17.997C10.5798 18.2572 10.7185 18.4711 10.8948 18.6416C11.0712 18.8122 11.2735 18.9422 11.5019 19.0318C11.7187 19.1186 11.947 19.1706 12.1841 19.1995V19.7025C12.1881 19.8109 12.234 19.9136 12.3122 19.9889C12.3903 20.0643 12.4947 20.1063 12.6032 20.1063C12.7117 20.1063 12.8161 20.0643 12.8942 19.9889C12.9724 19.9136 13.0183 19.8109 13.0223 19.7025V19.185C13.2651 19.1533 13.4906 19.0983 13.693 19.0145C13.9213 18.9191 14.115 18.7919 14.2769 18.6329C14.4359 18.474 14.5602 18.2861 14.6498 18.0635C14.7365 17.8438 14.7827 17.5923 14.7827 17.3148C14.7856 17.0315 14.7423 16.78 14.6526 16.5661ZM11.7909 14.6988C11.6811 14.5976 11.6002 14.482 11.5481 14.3577C11.4961 14.2334 11.4701 14.0918 11.4701 13.9299C11.473 13.5859 11.5741 13.3142 11.7736 13.1118C11.8805 13.002 12.0222 12.924 12.1869 12.8748V14.9647C12.028 14.8838 11.895 14.7942 11.7909 14.6988ZM13.7999 17.7975C13.7363 17.9363 13.6496 18.0548 13.534 18.1531C13.4184 18.2514 13.2767 18.3265 13.1119 18.3757C13.0859 18.3843 13.057 18.3872 13.0281 18.393V16.2222C13.2565 16.3291 13.4415 16.4447 13.5744 16.5719C13.7912 16.78 13.8982 17.0286 13.8924 17.3206C13.8924 17.5027 13.8606 17.6588 13.7999 17.7975Z" fill="#422B0D" stroke="#422B0D" stroke-width="0.5" stroke-miterlimit="10"/>
<defs>
<radialGradient id="paint0_radial_33_931" cx="0" cy="0" r="1" gradientUnits="userSpaceOnUse" gradientTransform="translate(18.3843 18.182) scale(16.465)">
<stop offset="0.5" stop-color="#FDE030"/>
<stop offset="0.919" stop-color="#F7C02B"/>
<stop offset="1" stop-color="#F4A223"/>
</radialGradient>
</defs>
</svg>
