<svg width="32" height="32" viewBox="0 0 32 32" fill="none" xmlns="http://www.w3.org/2000/svg">
<g filter="url(#filter0_ii_10_52)">
<path d="M2.05795 19.3291L5.42795 12.9191C5.71795 12.3691 6.28795 12.0291 6.90795 12.0291H13.7479C13.7877 12.0291 13.8259 12.0449 13.854 12.073C13.8821 12.1011 13.8979 12.1393 13.8979 12.1791V21.9661L1.89795 20.1191C1.89795 19.8491 1.94795 19.5791 2.05795 19.3291Z" fill="url(#paint0_linear_10_52)"/>
</g>
<path d="M2.05795 19.3291L5.42795 12.9191C5.71795 12.3691 6.28795 12.0291 6.90795 12.0291H13.7479C13.7877 12.0291 13.8259 12.0449 13.854 12.073C13.8821 12.1011 13.8979 12.1393 13.8979 12.1791V21.9661L1.89795 20.1191C1.89795 19.8491 1.94795 19.5791 2.05795 19.3291Z" fill="url(#paint1_linear_10_52)"/>
<path d="M2.05795 19.3291L5.42795 12.9191C5.71795 12.3691 6.28795 12.0291 6.90795 12.0291H13.7479C13.7877 12.0291 13.8259 12.0449 13.854 12.073C13.8821 12.1011 13.8979 12.1393 13.8979 12.1791V21.9661L1.89795 20.1191C1.89795 19.8491 1.94795 19.5791 2.05795 19.3291Z" fill="url(#paint2_linear_10_52)"/>
<g filter="url(#filter1_ii_10_52)">
<path d="M26.898 7.02905H16.898C15.238 7.02905 13.8979 8.36905 13.8979 10.0291V21.2801H29.8979V10.0301C29.8979 8.37005 28.558 7.03005 26.898 7.03005V7.02905Z" fill="url(#paint3_linear_10_52)"/>
</g>
<path d="M26.898 7.02905H16.898C15.238 7.02905 13.8979 8.36905 13.8979 10.0291V21.2801H29.8979V10.0301C29.8979 8.37005 28.558 7.03005 26.898 7.03005V7.02905Z" fill="url(#paint4_linear_10_52)"/>
<path d="M26.898 7.02905H16.898C15.238 7.02905 13.8979 8.36905 13.8979 10.0291V21.2801H29.8979V10.0301C29.8979 8.37005 28.558 7.03005 26.898 7.03005V7.02905Z" fill="url(#paint5_linear_10_52)"/>
<path d="M2.20801 19.0291H8.79801C9.40801 19.0291 9.89801 18.5391 9.89801 17.9291V14.1391C9.89801 13.5291 9.40801 13.0391 8.79801 13.0391H5.37801L2.20801 19.0291Z" fill="url(#paint6_linear_10_52)"/>
<path d="M2.20801 19.0291H8.79801C9.40801 19.0291 9.89801 18.5391 9.89801 17.9291V14.1391C9.89801 13.5291 9.40801 13.0391 8.79801 13.0391H5.37801L2.20801 19.0291Z" fill="url(#paint7_linear_10_52)"/>
<path d="M2.20801 19.0291H8.79801C9.40801 19.0291 9.89801 18.5391 9.89801 17.9291V14.1391C9.89801 13.5291 9.40801 13.0391 8.79801 13.0391H5.37801L2.20801 19.0291Z" fill="url(#paint8_linear_10_52)"/>
<path d="M13.8979 27.034V20.024H29.8979V25.234C29.8979 26.224 29.0879 27.034 28.0979 27.034H13.8979Z" fill="url(#paint9_linear_10_52)"/>
<path d="M13.8979 27.034V20.024H29.8979V25.234C29.8979 26.224 29.0879 27.034 28.0979 27.034H13.8979Z" fill="url(#paint10_linear_10_52)"/>
<path d="M13.8979 27.034V20.024H29.8979V25.234C29.8979 26.224 29.0879 27.034 28.0979 27.034H13.8979Z" fill="url(#paint11_linear_10_52)"/>
<g filter="url(#filter2_ii_10_52)">
<path d="M23.3979 28.0291C23.7958 28.0291 24.1773 27.871 24.4586 27.5897C24.7399 27.3084 24.8979 26.9269 24.8979 26.5291C24.8979 26.1312 24.7399 25.7497 24.4586 25.4684C24.1773 25.1871 23.7958 25.0291 23.3979 25.0291C23.0001 25.0291 22.6186 25.1871 22.3373 25.4684C22.056 25.7497 21.8979 26.1312 21.8979 26.5291C21.8979 26.9269 22.056 27.3084 22.3373 27.5897C22.6186 27.871 23.0001 28.0291 23.3979 28.0291Z" fill="#D9C3F0"/>
</g>
<path d="M29.8979 22.0291H29.3979C28.5479 22.0291 27.8579 22.7391 27.8979 23.5991C27.9379 24.4091 28.6379 25.0291 29.4479 25.0291H29.8979V22.0291Z" fill="url(#paint12_linear_10_52)"/>
<path d="M13.8979 20.0291H1.89795V25.2591C1.89795 26.2391 2.69795 27.0391 3.67795 27.0391H13.8979V20.0291Z" fill="url(#paint13_linear_10_52)"/>
<path d="M13.8979 20.0291H1.89795V25.2591C1.89795 26.2391 2.69795 27.0391 3.67795 27.0391H13.8979V20.0291Z" fill="url(#paint14_linear_10_52)"/>
<path d="M13.8979 20.0291H1.89795V25.2591C1.89795 26.2391 2.69795 27.0391 3.67795 27.0391H13.8979V20.0291Z" fill="url(#paint15_linear_10_52)"/>
<path d="M13.8979 20.0291H1.89795V25.2591C1.89795 26.2391 2.69795 27.0391 3.67795 27.0391H13.8979V20.0291Z" fill="url(#paint16_linear_10_52)"/>
<path fill-rule="evenodd" clip-rule="evenodd" d="M12.4789 27.039C12.5511 26.487 12.5046 25.926 12.3426 25.3934C12.1807 24.8608 11.9069 24.3689 11.5397 23.9505C11.1724 23.5321 10.7201 23.1969 10.213 22.9673C9.70588 22.7377 9.1556 22.6189 8.59891 22.6189C8.04223 22.6189 7.49195 22.7377 6.98482 22.9673C6.4777 23.1969 6.02542 23.5321 5.65817 23.9505C5.29093 24.3689 5.01718 24.8608 4.8552 25.3934C4.69323 25.926 4.64677 26.487 4.71891 27.039H12.4789Z" fill="url(#paint17_linear_10_52)"/>
<path fill-rule="evenodd" clip-rule="evenodd" d="M27.278 27.039C27.3501 26.487 27.3037 25.926 27.1417 25.3934C26.9797 24.8608 26.706 24.3689 26.3387 23.9505C25.9715 23.5321 25.5192 23.1969 25.0121 22.9673C24.505 22.7377 23.9547 22.6189 23.398 22.6189C22.8413 22.6189 22.291 22.7377 21.7839 22.9673C21.2768 23.1969 20.8245 23.5321 20.4572 23.9505C20.09 24.3689 19.8162 24.8608 19.6543 25.3934C19.4923 25.926 19.4458 26.487 19.518 27.039H27.278Z" fill="url(#paint18_linear_10_52)"/>
<g filter="url(#filter3_ii_10_52)">
<path d="M23.4269 30.0001C24.3475 30.0001 25.2304 29.6344 25.8813 28.9835C26.5322 28.3325 26.8979 27.4497 26.8979 26.5291C26.8979 25.6085 26.5322 24.7257 25.8813 24.0747C25.2304 23.4238 24.3475 23.0581 23.4269 23.0581C22.5064 23.0581 21.6235 23.4238 20.9726 24.0747C20.3216 24.7257 19.9559 25.6085 19.9559 26.5291C19.9559 27.4497 20.3216 28.3325 20.9726 28.9835C21.6235 29.6344 22.5064 30.0001 23.4269 30.0001Z" fill="url(#paint19_linear_10_52)"/>
<path d="M23.4269 30.0001C24.3475 30.0001 25.2304 29.6344 25.8813 28.9835C26.5322 28.3325 26.8979 27.4497 26.8979 26.5291C26.8979 25.6085 26.5322 24.7257 25.8813 24.0747C25.2304 23.4238 24.3475 23.0581 23.4269 23.0581C22.5064 23.0581 21.6235 23.4238 20.9726 24.0747C20.3216 24.7257 19.9559 25.6085 19.9559 26.5291C19.9559 27.4497 20.3216 28.3325 20.9726 28.9835C21.6235 29.6344 22.5064 30.0001 23.4269 30.0001Z" fill="url(#paint20_radial_10_52)"/>
</g>
<g filter="url(#filter4_ii_10_52)">
<path d="M23.4299 27.81C23.7697 27.81 24.0955 27.6751 24.3357 27.4349C24.576 27.1946 24.7109 26.8688 24.7109 26.529C24.7109 26.1893 24.576 25.8635 24.3357 25.6232C24.0955 25.383 23.7697 25.248 23.4299 25.248C23.0902 25.248 22.7644 25.383 22.5241 25.6232C22.2839 25.8635 22.1489 26.1893 22.1489 26.529C22.1489 26.8688 22.2839 27.1946 22.5241 27.4349C22.7644 27.6751 23.0902 27.81 23.4299 27.81Z" fill="#D9C3F0"/>
</g>
<path d="M2.80795 25.0291H1.89795V21.0291H2.80795C3.40795 21.0291 3.89795 21.5191 3.89795 22.1191V23.9391C3.89795 24.5391 3.40795 25.0291 2.80795 25.0291Z" fill="#F8DA4B"/>
<g filter="url(#filter5_ii_10_52)">
<path d="M8.59893 30.0001C9.5195 30.0001 10.4024 29.6344 11.0533 28.9835C11.7042 28.3325 12.0699 27.4497 12.0699 26.5291C12.0699 25.6085 11.7042 24.7257 11.0533 24.0747C10.4024 23.4238 9.5195 23.0581 8.59893 23.0581C7.67836 23.0581 6.7955 23.4238 6.14456 24.0747C5.49362 24.7257 5.12793 25.6085 5.12793 26.5291C5.12793 27.4497 5.49362 28.3325 6.14456 28.9835C6.7955 29.6344 7.67836 30.0001 8.59893 30.0001Z" fill="url(#paint21_linear_10_52)"/>
<path d="M8.59893 30.0001C9.5195 30.0001 10.4024 29.6344 11.0533 28.9835C11.7042 28.3325 12.0699 27.4497 12.0699 26.5291C12.0699 25.6085 11.7042 24.7257 11.0533 24.0747C10.4024 23.4238 9.5195 23.0581 8.59893 23.0581C7.67836 23.0581 6.7955 23.4238 6.14456 24.0747C5.49362 24.7257 5.12793 25.6085 5.12793 26.5291C5.12793 27.4497 5.49362 28.3325 6.14456 28.9835C6.7955 29.6344 7.67836 30.0001 8.59893 30.0001Z" fill="url(#paint22_radial_10_52)"/>
</g>
<g filter="url(#filter6_ii_10_52)">
<path d="M8.60095 27.81C8.94069 27.81 9.26652 27.6751 9.50675 27.4349C9.74698 27.1946 9.88195 26.8688 9.88195 26.529C9.88195 26.1893 9.74698 25.8635 9.50675 25.6232C9.26652 25.383 8.94069 25.248 8.60095 25.248C8.2612 25.248 7.93538 25.383 7.69514 25.6232C7.45491 25.8635 7.31995 26.1893 7.31995 26.529C7.31995 26.8688 7.45491 27.1946 7.69514 27.4349C7.93538 27.6751 8.2612 27.81 8.60095 27.81Z" fill="#D9C3F0"/>
</g>
<g filter="url(#filter7_f_10_52)">
<path d="M8.75601 28.585C10.0798 28.585 11.153 27.5118 11.153 26.188C11.153 24.8642 10.0798 23.791 8.75601 23.791C7.43218 23.791 6.35901 24.8642 6.35901 26.188C6.35901 27.5118 7.43218 28.585 8.75601 28.585Z" stroke="url(#paint23_linear_10_52)" stroke-width="0.85"/>
</g>
<g filter="url(#filter8_f_10_52)">
<path d="M23.627 28.585C24.9508 28.585 26.024 27.5118 26.024 26.188C26.024 24.8642 24.9508 23.791 23.627 23.791C22.3032 23.791 21.23 24.8642 21.23 26.188C21.23 27.5118 22.3032 28.585 23.627 28.585Z" stroke="url(#paint24_linear_10_52)" stroke-width="0.85"/>
</g>
<defs>
<filter id="filter0_ii_10_52" x="1.39795" y="12.0291" width="13" height="10.137" filterUnits="userSpaceOnUse" color-interpolation-filters="sRGB">
<feFlood flood-opacity="0" result="BackgroundImageFix"/>
<feBlend mode="normal" in="SourceGraphic" in2="BackgroundImageFix" result="shape"/>
<feColorMatrix in="SourceAlpha" type="matrix" values="0 0 0 0 0 0 0 0 0 0 0 0 0 0 0 0 0 0 127 0" result="hardAlpha"/>
<feOffset dx="-1" dy="0.2"/>
<feGaussianBlur stdDeviation="0.25"/>
<feComposite in2="hardAlpha" operator="arithmetic" k2="-1" k3="1"/>
<feColorMatrix type="matrix" values="0 0 0 0 1 0 0 0 0 0.945098 0 0 0 0 0.996078 0 0 0 1 0"/>
<feBlend mode="normal" in2="shape" result="effect1_innerShadow_10_52"/>
<feColorMatrix in="SourceAlpha" type="matrix" values="0 0 0 0 0 0 0 0 0 0 0 0 0 0 0 0 0 0 127 0" result="hardAlpha"/>
<feOffset dx="0.5"/>
<feGaussianBlur stdDeviation="0.25"/>
<feComposite in2="hardAlpha" operator="arithmetic" k2="-1" k3="1"/>
<feColorMatrix type="matrix" values="0 0 0 0 0.678431 0 0 0 0 0.639216 0 0 0 0 0.643137 0 0 0 1 0"/>
<feBlend mode="normal" in2="effect1_innerShadow_10_52" result="effect2_innerShadow_10_52"/>
</filter>
<filter id="filter1_ii_10_52" x="13.3979" y="7.02905" width="17" height="14.251" filterUnits="userSpaceOnUse" color-interpolation-filters="sRGB">
<feFlood flood-opacity="0" result="BackgroundImageFix"/>
<feBlend mode="normal" in="SourceGraphic" in2="BackgroundImageFix" result="shape"/>
<feColorMatrix in="SourceAlpha" type="matrix" values="0 0 0 0 0 0 0 0 0 0 0 0 0 0 0 0 0 0 127 0" result="hardAlpha"/>
<feOffset dx="0.8"/>
<feGaussianBlur stdDeviation="0.25"/>
<feComposite in2="hardAlpha" operator="arithmetic" k2="-1" k3="1"/>
<feColorMatrix type="matrix" values="0 0 0 0 0.784314 0 0 0 0 0.615686 0 0 0 0 0.258824 0 0 0 1 0"/>
<feBlend mode="normal" in2="shape" result="effect1_innerShadow_10_52"/>
<feColorMatrix in="SourceAlpha" type="matrix" values="0 0 0 0 0 0 0 0 0 0 0 0 0 0 0 0 0 0 127 0" result="hardAlpha"/>
<feOffset dx="-1"/>
<feGaussianBlur stdDeviation="0.25"/>
<feComposite in2="hardAlpha" operator="arithmetic" k2="-1" k3="1"/>
<feColorMatrix type="matrix" values="0 0 0 0 0.909804 0 0 0 0 0.756863 0 0 0 0 0.27451 0 0 0 1 0"/>
<feBlend mode="normal" in2="effect1_innerShadow_10_52" result="effect2_innerShadow_10_52"/>
</filter>
<filter id="filter2_ii_10_52" x="21.8479" y="24.9791" width="3.1" height="3.1" filterUnits="userSpaceOnUse" color-interpolation-filters="sRGB">
<feFlood flood-opacity="0" result="BackgroundImageFix"/>
<feBlend mode="normal" in="SourceGraphic" in2="BackgroundImageFix" result="shape"/>
<feColorMatrix in="SourceAlpha" type="matrix" values="0 0 0 0 0 0 0 0 0 0 0 0 0 0 0 0 0 0 127 0" result="hardAlpha"/>
<feOffset dx="0.05" dy="-0.05"/>
<feGaussianBlur stdDeviation="0.05"/>
<feComposite in2="hardAlpha" operator="arithmetic" k2="-1" k3="1"/>
<feColorMatrix type="matrix" values="0 0 0 0 0.478431 0 0 0 0 0.364706 0 0 0 0 0.584314 0 0 0 1 0"/>
<feBlend mode="normal" in2="shape" result="effect1_innerShadow_10_52"/>
<feColorMatrix in="SourceAlpha" type="matrix" values="0 0 0 0 0 0 0 0 0 0 0 0 0 0 0 0 0 0 127 0" result="hardAlpha"/>
<feOffset dx="-0.05" dy="0.05"/>
<feGaussianBlur stdDeviation="0.05"/>
<feComposite in2="hardAlpha" operator="arithmetic" k2="-1" k3="1"/>
<feColorMatrix type="matrix" values="0 0 0 0 0.807843 0 0 0 0 0.764706 0 0 0 0 0.858824 0 0 0 1 0"/>
<feBlend mode="normal" in2="effect1_innerShadow_10_52" result="effect2_innerShadow_10_52"/>
</filter>
<filter id="filter3_ii_10_52" x="19.9559" y="23.0581" width="6.94202" height="7.09202" filterUnits="userSpaceOnUse" color-interpolation-filters="sRGB">
<feFlood flood-opacity="0" result="BackgroundImageFix"/>
<feBlend mode="normal" in="SourceGraphic" in2="BackgroundImageFix" result="shape"/>
<feColorMatrix in="SourceAlpha" type="matrix" values="0 0 0 0 0 0 0 0 0 0 0 0 0 0 0 0 0 0 127 0" result="hardAlpha"/>
<feOffset/>
<feGaussianBlur stdDeviation="0.5"/>
<feComposite in2="hardAlpha" operator="arithmetic" k2="-1" k3="1"/>
<feColorMatrix type="matrix" values="0 0 0 0 0.145098 0 0 0 0 0.0823529 0 0 0 0 0.215686 0 0 0 1 0"/>
<feBlend mode="normal" in2="shape" result="effect1_innerShadow_10_52"/>
<feColorMatrix in="SourceAlpha" type="matrix" values="0 0 0 0 0 0 0 0 0 0 0 0 0 0 0 0 0 0 127 0" result="hardAlpha"/>
<feOffset dy="0.15"/>
<feGaussianBlur stdDeviation="0.125"/>
<feComposite in2="hardAlpha" operator="arithmetic" k2="-1" k3="1"/>
<feColorMatrix type="matrix" values="0 0 0 0 0.207843 0 0 0 0 0.0313726 0 0 0 0 0.235294 0 0 0 1 0"/>
<feBlend mode="normal" in2="effect1_innerShadow_10_52" result="effect2_innerShadow_10_52"/>
</filter>
<filter id="filter4_ii_10_52" x="22.0989" y="25.198" width="2.66201" height="2.66201" filterUnits="userSpaceOnUse" color-interpolation-filters="sRGB">
<feFlood flood-opacity="0" result="BackgroundImageFix"/>
<feBlend mode="normal" in="SourceGraphic" in2="BackgroundImageFix" result="shape"/>
<feColorMatrix in="SourceAlpha" type="matrix" values="0 0 0 0 0 0 0 0 0 0 0 0 0 0 0 0 0 0 127 0" result="hardAlpha"/>
<feOffset dx="0.05" dy="-0.05"/>
<feGaussianBlur stdDeviation="0.05"/>
<feComposite in2="hardAlpha" operator="arithmetic" k2="-1" k3="1"/>
<feColorMatrix type="matrix" values="0 0 0 0 0.478431 0 0 0 0 0.364706 0 0 0 0 0.584314 0 0 0 1 0"/>
<feBlend mode="normal" in2="shape" result="effect1_innerShadow_10_52"/>
<feColorMatrix in="SourceAlpha" type="matrix" values="0 0 0 0 0 0 0 0 0 0 0 0 0 0 0 0 0 0 127 0" result="hardAlpha"/>
<feOffset dx="-0.05" dy="0.05"/>
<feGaussianBlur stdDeviation="0.05"/>
<feComposite in2="hardAlpha" operator="arithmetic" k2="-1" k3="1"/>
<feColorMatrix type="matrix" values="0 0 0 0 0.807843 0 0 0 0 0.764706 0 0 0 0 0.858824 0 0 0 1 0"/>
<feBlend mode="normal" in2="effect1_innerShadow_10_52" result="effect2_innerShadow_10_52"/>
</filter>
<filter id="filter5_ii_10_52" x="5.12793" y="23.0581" width="6.94202" height="7.09202" filterUnits="userSpaceOnUse" color-interpolation-filters="sRGB">
<feFlood flood-opacity="0" result="BackgroundImageFix"/>
<feBlend mode="normal" in="SourceGraphic" in2="BackgroundImageFix" result="shape"/>
<feColorMatrix in="SourceAlpha" type="matrix" values="0 0 0 0 0 0 0 0 0 0 0 0 0 0 0 0 0 0 127 0" result="hardAlpha"/>
<feOffset/>
<feGaussianBlur stdDeviation="0.5"/>
<feComposite in2="hardAlpha" operator="arithmetic" k2="-1" k3="1"/>
<feColorMatrix type="matrix" values="0 0 0 0 0.145098 0 0 0 0 0.0823529 0 0 0 0 0.215686 0 0 0 1 0"/>
<feBlend mode="normal" in2="shape" result="effect1_innerShadow_10_52"/>
<feColorMatrix in="SourceAlpha" type="matrix" values="0 0 0 0 0 0 0 0 0 0 0 0 0 0 0 0 0 0 127 0" result="hardAlpha"/>
<feOffset dy="0.15"/>
<feGaussianBlur stdDeviation="0.125"/>
<feComposite in2="hardAlpha" operator="arithmetic" k2="-1" k3="1"/>
<feColorMatrix type="matrix" values="0 0 0 0 0.207843 0 0 0 0 0.0313726 0 0 0 0 0.235294 0 0 0 1 0"/>
<feBlend mode="normal" in2="effect1_innerShadow_10_52" result="effect2_innerShadow_10_52"/>
</filter>
<filter id="filter6_ii_10_52" x="7.26995" y="25.198" width="2.66201" height="2.66201" filterUnits="userSpaceOnUse" color-interpolation-filters="sRGB">
<feFlood flood-opacity="0" result="BackgroundImageFix"/>
<feBlend mode="normal" in="SourceGraphic" in2="BackgroundImageFix" result="shape"/>
<feColorMatrix in="SourceAlpha" type="matrix" values="0 0 0 0 0 0 0 0 0 0 0 0 0 0 0 0 0 0 127 0" result="hardAlpha"/>
<feOffset dx="0.05" dy="-0.05"/>
<feGaussianBlur stdDeviation="0.05"/>
<feComposite in2="hardAlpha" operator="arithmetic" k2="-1" k3="1"/>
<feColorMatrix type="matrix" values="0 0 0 0 0.478431 0 0 0 0 0.364706 0 0 0 0 0.584314 0 0 0 1 0"/>
<feBlend mode="normal" in2="shape" result="effect1_innerShadow_10_52"/>
<feColorMatrix in="SourceAlpha" type="matrix" values="0 0 0 0 0 0 0 0 0 0 0 0 0 0 0 0 0 0 127 0" result="hardAlpha"/>
<feOffset dx="-0.05" dy="0.05"/>
<feGaussianBlur stdDeviation="0.05"/>
<feComposite in2="hardAlpha" operator="arithmetic" k2="-1" k3="1"/>
<feColorMatrix type="matrix" values="0 0 0 0 0.807843 0 0 0 0 0.764706 0 0 0 0 0.858824 0 0 0 1 0"/>
<feBlend mode="normal" in2="effect1_innerShadow_10_52" result="effect2_innerShadow_10_52"/>
</filter>
<filter id="filter7_f_10_52" x="5.18396" y="22.616" width="7.14404" height="7.14404" filterUnits="userSpaceOnUse" color-interpolation-filters="sRGB">
<feFlood flood-opacity="0" result="BackgroundImageFix"/>
<feBlend mode="normal" in="SourceGraphic" in2="BackgroundImageFix" result="shape"/>
<feGaussianBlur stdDeviation="0.375" result="effect1_foregroundBlur_10_52"/>
</filter>
<filter id="filter8_f_10_52" x="20.0549" y="22.616" width="7.14404" height="7.14404" filterUnits="userSpaceOnUse" color-interpolation-filters="sRGB">
<feFlood flood-opacity="0" result="BackgroundImageFix"/>
<feBlend mode="normal" in="SourceGraphic" in2="BackgroundImageFix" result="shape"/>
<feGaussianBlur stdDeviation="0.375" result="effect1_foregroundBlur_10_52"/>
</filter>
<linearGradient id="paint0_linear_10_52" x1="2.46095" y1="16.0731" x2="13.8979" y2="16.0731" gradientUnits="userSpaceOnUse">
<stop stop-color="#C9BDD1"/>
<stop offset="1" stop-color="#EBDDF3"/>
</linearGradient>
<linearGradient id="paint1_linear_10_52" x1="8.50095" y1="11.8651" x2="8.50095" y2="12.6321" gradientUnits="userSpaceOnUse">
<stop stop-color="#C8C6C5"/>
<stop offset="0.495" stop-color="#C8C6C5" stop-opacity="0"/>
</linearGradient>
<linearGradient id="paint2_linear_10_52" x1="13.8979" y1="15.8101" x2="13.6919" y2="15.8101" gradientUnits="userSpaceOnUse">
<stop stop-color="#604114"/>
<stop offset="1" stop-color="#604114" stop-opacity="0"/>
</linearGradient>
<linearGradient id="paint3_linear_10_52" x1="14.6589" y1="21.0261" x2="29.898" y2="12.5851" gradientUnits="userSpaceOnUse">
<stop stop-color="#F1C147"/>
<stop offset="1" stop-color="#E0B343"/>
</linearGradient>
<linearGradient id="paint4_linear_10_52" x1="21.8979" y1="7.02905" x2="21.8979" y2="9.11905" gradientUnits="userSpaceOnUse">
<stop stop-color="#EAC439"/>
<stop offset="1" stop-color="#EAC439" stop-opacity="0"/>
</linearGradient>
<linearGradient id="paint5_linear_10_52" x1="29.8979" y1="15.1541" x2="29.6089" y2="15.1541" gradientUnits="userSpaceOnUse">
<stop stop-color="#DDBE7A"/>
<stop offset="1" stop-color="#DDBE7A" stop-opacity="0"/>
</linearGradient>
<linearGradient id="paint6_linear_10_52" x1="9.33601" y1="13.9041" x2="3.27301" y2="19.0291" gradientUnits="userSpaceOnUse">
<stop stop-color="#35A5E2"/>
<stop offset="1" stop-color="#4AD3F9"/>
</linearGradient>
<linearGradient id="paint7_linear_10_52" x1="6.05301" y1="13.0391" x2="6.05301" y2="16.8691" gradientUnits="userSpaceOnUse">
<stop stop-color="#1D95DD"/>
<stop offset="1" stop-color="#1D95DD" stop-opacity="0"/>
</linearGradient>
<linearGradient id="paint8_linear_10_52" x1="10.312" y1="16.5521" x2="8.88301" y2="16.5521" gradientUnits="userSpaceOnUse">
<stop stop-color="#48B8E6"/>
<stop offset="1" stop-color="#48B8E6" stop-opacity="0"/>
</linearGradient>
<linearGradient id="paint9_linear_10_52" x1="18.7279" y1="20.024" x2="18.7729" y2="26.091" gradientUnits="userSpaceOnUse">
<stop stop-color="#FD6E33"/>
<stop offset="1" stop-color="#EB3C3D"/>
</linearGradient>
<linearGradient id="paint10_linear_10_52" x1="13.8979" y1="22.614" x2="14.9989" y2="22.614" gradientUnits="userSpaceOnUse">
<stop offset="0.513" stop-color="#EA3A0C"/>
<stop offset="1" stop-color="#EA3A0C" stop-opacity="0"/>
</linearGradient>
<linearGradient id="paint11_linear_10_52" x1="21.8979" y1="27.899" x2="21.8979" y2="25.336" gradientUnits="userSpaceOnUse">
<stop stop-color="#BC2447"/>
<stop offset="1" stop-color="#BC2447" stop-opacity="0"/>
</linearGradient>
<linearGradient id="paint12_linear_10_52" x1="27.8959" y1="22.5911" x2="29.4919" y2="24.4351" gradientUnits="userSpaceOnUse">
<stop stop-color="#BD0663"/>
<stop offset="1" stop-color="#C8166A"/>
</linearGradient>
<linearGradient id="paint13_linear_10_52" x1="7.89795" y1="19.5911" x2="7.89795" y2="27.0391" gradientUnits="userSpaceOnUse">
<stop stop-color="#FF7233"/>
<stop offset="1" stop-color="#EE3124"/>
</linearGradient>
<linearGradient id="paint14_linear_10_52" x1="13.8979" y1="23.6851" x2="12.0539" y2="23.6851" gradientUnits="userSpaceOnUse">
<stop stop-color="#FF7B3D"/>
<stop offset="1" stop-color="#FF7B3D" stop-opacity="0"/>
</linearGradient>
<linearGradient id="paint15_linear_10_52" x1="7.89795" y1="27.0391" x2="7.89795" y2="25.3411" gradientUnits="userSpaceOnUse">
<stop stop-color="#BC2447"/>
<stop offset="1" stop-color="#BC2447" stop-opacity="0"/>
</linearGradient>
<linearGradient id="paint16_linear_10_52" x1="13.8979" y1="22.6961" x2="13.6919" y2="22.6961" gradientUnits="userSpaceOnUse">
<stop stop-color="#BC2303"/>
<stop offset="1" stop-color="#BC2303" stop-opacity="0"/>
</linearGradient>
<linearGradient id="paint17_linear_10_52" x1="8.59891" y1="22.616" x2="8.59891" y2="27.039" gradientUnits="userSpaceOnUse">
<stop stop-color="#99160C"/>
<stop offset="1" stop-color="#AC0819"/>
</linearGradient>
<linearGradient id="paint18_linear_10_52" x1="23.398" y1="22.616" x2="23.398" y2="27.039" gradientUnits="userSpaceOnUse">
<stop stop-color="#99160C"/>
<stop offset="1" stop-color="#AC0819"/>
</linearGradient>
<linearGradient id="paint19_linear_10_52" x1="21.8269" y1="25.6561" x2="27.0399" y2="25.6561" gradientUnits="userSpaceOnUse">
<stop offset="0.239" stop-color="#34214F"/>
<stop offset="1" stop-color="#241337"/>
</linearGradient>
<radialGradient id="paint20_radial_10_52" cx="0" cy="0" r="1" gradientUnits="userSpaceOnUse" gradientTransform="translate(23.4269 26.2181) rotate(-65.5365) scale(1.89393 1.97814)">
<stop offset="0.523" stop-color="#2D114D"/>
<stop offset="1" stop-color="#2B1249" stop-opacity="0"/>
</radialGradient>
<linearGradient id="paint21_linear_10_52" x1="6.99793" y1="25.6561" x2="12.2119" y2="25.6561" gradientUnits="userSpaceOnUse">
<stop offset="0.239" stop-color="#34214F"/>
<stop offset="1" stop-color="#241337"/>
</linearGradient>
<radialGradient id="paint22_radial_10_52" cx="0" cy="0" r="1" gradientUnits="userSpaceOnUse" gradientTransform="translate(8.59893 26.2181) rotate(-65.5365) scale(1.89393 1.97814)">
<stop offset="0.523" stop-color="#2D114D"/>
<stop offset="1" stop-color="#2B1249" stop-opacity="0"/>
</radialGradient>
<linearGradient id="paint23_linear_10_52" x1="10.061" y1="24.286" x2="7.15001" y2="28.307" gradientUnits="userSpaceOnUse">
<stop offset="0.083" stop-color="#615B6B"/>
<stop offset="0.391" stop-color="#615B6B" stop-opacity="0"/>
<stop offset="0.692" stop-color="#615B6B" stop-opacity="0"/>
<stop offset="0.935" stop-color="#615B6B"/>
</linearGradient>
<linearGradient id="paint24_linear_10_52" x1="24.933" y1="24.286" x2="22.021" y2="28.307" gradientUnits="userSpaceOnUse">
<stop offset="0.083" stop-color="#615B6B"/>
<stop offset="0.391" stop-color="#615B6B" stop-opacity="0"/>
<stop offset="0.692" stop-color="#615B6B" stop-opacity="0"/>
<stop offset="0.935" stop-color="#615B6B"/>
</linearGradient>
</defs>
</svg>
