<svg width="35" height="34" viewBox="0 0 35 34" fill="none" xmlns="http://www.w3.org/2000/svg">
<g clip-path="url(#clip0_10_102)">
<path d="M29.5312 24.9156C29.5312 31.3438 24.1719 31.3438 17.5 31.3438C10.8281 31.3438 5.46875 31.3438 5.46875 24.9156C5.46875 18.4875 10.8828 7.96875 17.5 7.96875C24.1172 7.96875 29.5312 18.4344 29.5312 24.9156Z" fill="#DBB471"/>
<path opacity="0.5" d="M29.5312 24.9156C29.5312 22.7375 28.9297 20.0813 27.8359 17.5312C28.0547 19.1781 27.6172 22.1 22.4219 23.2156C15.0391 24.7563 18.8672 26.775 15.9688 27.0406C13.5078 27.2531 6.94531 26.2969 5.63281 22.6844C5.52344 23.4813 5.41406 24.225 5.41406 24.9688C5.46875 31.3438 10.8828 31.3438 17.5 31.3438C24.1172 31.3438 29.5312 31.3438 29.5312 24.9156Z" fill="#89664C"/>
<path d="M20.7266 21.8343C20.5078 20.7718 19.5782 20.4531 18.5938 20.4V18.9124C18.8672 19.0187 19.1953 19.1781 19.4141 19.3375C19.8516 19.6031 20.2891 18.9124 19.8516 18.6468C19.4688 18.4343 19.0313 18.2218 18.5938 18.0625V16.3093C18.5938 15.7781 17.7735 15.7781 17.7735 16.3093V17.8499C17.336 17.7968 16.8985 17.7968 16.461 17.8499C16.4063 17.4781 16.2969 17.1062 16.1875 16.7343C16.0782 16.2031 15.2578 16.4156 15.4219 16.9468C15.5313 17.3187 15.586 17.6906 15.6953 18.0625C15.6407 18.0625 15.6407 18.0624 15.586 18.1156C14.4922 18.5406 13.7813 19.6031 14.6016 20.6125C14.9844 21.0906 15.4766 21.25 16.0235 21.3562C16.0782 22.0468 16.0782 22.7375 16.0782 23.4281C15.6953 23.2156 15.3672 22.8968 15.0938 22.6312C14.711 22.2593 14.1641 22.8437 14.4922 23.2156C14.9844 23.7468 15.5313 24.1187 16.0782 24.3843C16.0782 24.9687 16.1328 25.5531 16.1875 26.1375C16.2422 26.6687 17.0625 26.6687 17.0078 26.1375C16.9532 25.6062 16.8985 25.1281 16.8985 24.5968C17.2266 24.65 17.5547 24.65 17.8828 24.65C17.9375 25.1812 17.9922 25.7125 18.0469 26.2968C18.1016 26.8281 18.9219 26.8281 18.8672 26.2968C18.8125 25.7125 18.7578 25.1281 18.7032 24.4906C19.9063 24.0656 21 23.1624 20.7266 21.8343ZM17.7735 18.6468V20.4C17.5 20.4 17.2813 20.4531 17.0625 20.4531H16.7891L16.625 18.5406C17.0078 18.5406 17.3907 18.5937 17.7735 18.6468ZM15.8047 20.3468C15.586 20.2937 15.3672 20.1343 15.1485 19.9749C14.6563 19.4968 15.3672 19.0718 15.8047 18.8593C15.8594 19.3906 15.9141 19.8687 15.9688 20.4C15.9141 20.4 15.8594 20.4 15.8047 20.3468ZM17.6094 23.7468C17.336 23.8 17.1172 23.7468 16.8985 23.6937C16.8438 22.8968 16.8438 22.1 16.8438 21.25C17.1719 21.25 17.5 21.1968 17.8282 21.1968C17.8282 22.0468 17.8828 22.8437 17.8828 23.6937C17.7735 23.7468 17.7188 23.7468 17.6094 23.7468ZM19.4141 23.1624C19.1953 23.3218 18.9219 23.4281 18.7032 23.5343C18.6485 22.7375 18.6485 21.9937 18.6485 21.1968H18.9219C19.961 21.4093 20.2344 22.525 19.4141 23.1624Z" fill="#89664C"/>
<path d="M18.5937 29.2188H17.3359V31.3438L22.4219 34L33.9062 30.5469V28.6875L29.6953 26.2969L18.5937 29.2188Z" fill="#699635"/>
<path d="M17.5 27.9969C17.5 27.9969 18.8125 30.0687 22.5313 31.875C22.5313 31.875 28.3281 31.6094 33.9062 27.9969C33.9062 27.9969 30.6797 26.4562 29.75 24.4375C29.75 24.4375 27.5625 27.4125 17.5 27.9969Z" fill="#83BF4F"/>
<path d="M15.0391 29.1657L16.2422 29.1125L16.4062 31.0782L11.6484 34L0.21875 31.6094L0.0546875 29.8563L3.9375 27.2532L15.0391 29.1657Z" fill="#699635"/>
<path d="M15.9688 27.9437C15.9688 27.9437 14.8203 30.0156 11.375 31.9813C11.375 31.9813 5.74219 32.1406 0 29.2188C0 29.2188 3.0625 27.5187 3.77344 25.5C3.77344 25.5 6.17969 28.1562 15.9688 27.9437Z" fill="#83BF4F"/>
<path d="M13.2344 28.5281C13.2344 28.5281 13.0703 28.9531 13.8359 29.0062L11.8125 30.6531C11.8125 30.6531 10.6094 30.5468 10.3359 31.3437C10.3359 31.3437 5.41406 30.8125 2.24219 29.4312C2.24219 29.4312 2.89844 28.9531 2.07812 28.6343C2.07812 28.6343 3.00781 27.9968 3.22656 27.4125C3.22656 27.4125 4.10156 27.5187 4.375 26.8812C4.48437 26.8281 7.76563 28.7406 13.2344 28.5281V28.5281Z" stroke="#699635" stroke-miterlimit="10"/>
<path d="M4.8125 29.2719C5.38636 29.2719 5.85156 28.9627 5.85156 28.5812C5.85156 28.1998 5.38636 27.8906 4.8125 27.8906C4.23864 27.8906 3.77344 28.1998 3.77344 28.5812C3.77344 28.9627 4.23864 29.2719 4.8125 29.2719Z" fill="#699635"/>
<path d="M10.3906 27.7313C10.3906 27.7313 9.13281 29.325 6.39844 31.5031L6.5625 32.9375L4.64844 32.5125L4.53906 30.9719C4.53906 30.9719 7.32812 28.475 7.92969 27.2531C7.875 27.2531 8.85938 27.5719 10.3906 27.7313ZM23.0234 27.3594C23.0234 27.3594 23.5156 28.6344 27.2344 30.9719V32.5125L29.3672 31.875V30.2813C29.3672 30.2813 26.7969 28.5281 25.2656 26.775L23.0234 27.3594Z" fill="#F9F3D9"/>
<path d="M19.9063 25.6594L18.7031 25.6062L18.5938 27.7844L23.4609 30.8125L34.8906 27.7844L34.9453 25.8719L30.9531 23.1625L19.9063 25.6594Z" fill="#699635"/>
<path d="M18.9219 24.3312C18.9219 24.3312 20.125 26.5625 23.6797 28.5812C23.6797 28.5812 29.3672 28.5813 35 25.1813C35 25.1813 31.8828 23.4281 31.1172 21.25C31.1172 21.25 28.7656 24.225 18.9219 24.3312Z" fill="#83BF4F"/>
<path d="M21.3828 24.9156C21.3828 24.9156 21.6563 25.3406 20.7812 25.5L23.0781 27.2531C23.0781 27.2531 24.3906 26.9344 24.8281 27.6781C24.8281 27.6781 30.2969 26.7219 32.8125 25.4469C32.8125 25.4469 31.9922 25.075 32.8125 24.5969C32.8125 24.5969 31.8281 23.8 31.4453 23.2687C31.4453 23.2687 30.5156 23.5344 30.0234 22.8969C30.0234 22.95 28.0547 24.65 21.3828 24.9156V24.9156Z" stroke="#699635" stroke-miterlimit="10"/>
<path d="M25.5937 26.2437C25.375 26.5093 24.6641 26.6156 24.0625 26.4562C23.4609 26.2968 23.1875 25.925 23.4062 25.6593C23.625 25.3937 24.3359 25.2875 24.9375 25.4468C25.5391 25.6062 25.8125 25.925 25.5937 26.2437Z" fill="#699635"/>
<path d="M24.5 23.9063C24.5 23.9063 25.8125 25.6063 28.6016 27.8906L28.5469 29.4844L30.4609 28.9531L30.5156 27.2531C30.5156 27.2531 27.6719 24.5969 26.9609 23.3219C27.0156 23.3219 26.0859 23.6938 24.5 23.9063Z" fill="#F9F3D9"/>
<path d="M25.1562 1.0625C25.1562 4.30312 20.8359 9.5625 17.5 9.5625C14.1641 9.5625 9.84375 4.83437 9.84375 1.59375C9.84375 -1.64687 10.3359 1.59375 13.6719 1.59375C14.1641 1.59375 16.4609 0 17.5 0C18.2109 0 20.2344 1.59375 21.3281 1.59375C24.2266 1.59375 25.1562 -1.38125 25.1562 1.0625Z" fill="#DBB471"/>
<path d="M16.5156 7.06564C16.1874 7.27814 14.6015 7.11876 14.1093 7.49064C13.4531 7.96876 14.3828 9.08439 13.7265 9.77501C12.414 11.05 11.3749 12.4844 11.7031 13.2813C12.2499 14.6625 13.289 10.7313 14.2187 12.2188C15.1484 13.7063 14.9843 11.2094 16.4062 12.4844C17.8281 13.7594 16.6249 10.2 17.9921 11.7406C19.3593 13.2813 19.414 15.0344 20.3984 15.0344C21.5468 15.0344 19.1953 10.8375 20.7265 11.8469C22.2578 12.8563 23.9531 12.4844 22.4218 10.9438C21.9296 10.4656 21.2734 9.61564 20.5078 8.87189C20.2343 8.60626 20.4531 7.22501 20.1796 7.01251C19.8515 6.74689 19.0312 7.59689 18.7031 7.43751C18.0468 7.11876 18.2656 7.70314 17.2812 7.86251C16.6249 8.07501 17.1718 6.64064 16.5156 7.06564Z" fill="#89664C"/>
<path d="M10.2265 10.1999C12.3593 8.23432 16.2422 9.34995 18.539 10.3062C20.7812 11.2624 22.1484 8.23432 20.7265 6.6937C19.9062 5.79057 18.5937 6.85307 18.1015 7.49057C17.5547 8.12807 17.1172 8.8187 16.5156 9.4562C15.6406 10.4124 13.5078 9.61557 14.164 8.28745C14.875 6.9062 17.8828 8.49995 18.8672 8.76557C20.7812 9.29682 22.8047 9.50932 24.7187 8.8187C25.375 8.6062 25.1015 7.5437 24.4453 7.80932C22.3125 8.55307 20.1797 8.07495 18.1562 7.43745C17.1172 7.1187 15.4765 6.2687 14.3828 6.74682C11.2656 8.1812 14.164 12.2718 16.789 10.6781C17.3906 10.3062 17.7734 9.72182 18.2109 9.19057C18.4843 8.87182 19.8515 6.85307 20.1797 7.86245C20.3437 8.3937 20.1797 9.34995 19.5781 9.50932C19.1953 9.6687 18.4297 9.13745 18.0468 9.0312C17.3359 8.76557 16.625 8.55307 15.8593 8.3937C13.8359 7.9687 11.1015 8.07495 9.51559 9.50932C8.96871 9.93432 9.73434 10.6781 10.2265 10.1999Z" fill="#E8E8E8"/>
<path d="M24.5 0.265625C23.9531 0.690625 22.9688 1.59375 21.3281 1.59375C20.2344 1.59375 18.2109 0 17.5 0C16.4609 0 14.1641 1.59375 13.6719 1.59375C11.8672 1.59375 10.8828 0.690625 10.3906 0.31875C10.3906 0.31875 10.9922 2.70938 12.8516 3.93125C14.2188 4.78125 14.0547 3.77188 14.7656 2.81563C15.4766 1.85938 15.9688 1.38125 17.2266 3.77187C17.8828 5.1 19.1406 0.159375 20.125 1.75312C21.9297 4.675 22.5859 3.08125 24.5 0.265625Z" fill="#89664C"/>
<path d="M28.6562 27.8375L28.6015 29.4312L30.5156 28.9L30.5703 27.2C30.5703 27.2531 29.4218 27.6781 28.6562 27.8375ZM27.2343 31.025V32.5656L29.3671 31.9281V30.3343C29.3124 30.2812 28.7656 30.6 27.2343 31.025ZM6.39838 31.45L6.56244 32.9375L4.64838 32.5125L4.53901 30.9718C4.48432 30.9718 5.24994 31.2375 6.39838 31.45Z" fill="#DBB471"/>
</g>
<defs>
<clipPath id="clip0_10_102">
<rect width="35" height="34" fill="white"/>
</clipPath>
</defs>
</svg>
