<svg width="32" height="33" viewBox="0 0 32 33" fill="none" xmlns="http://www.w3.org/2000/svg">
<path d="M30.5 10.7766C27.4 7.88906 24.3 4.95 21.2 2.0625C16.65 9.17812 8.95 15.5203 1.65 20.1094C1.45 21.0891 1.25 22.0172 1 22.9453C4.2 25.9359 7.4 28.9781 10.6 31.9688C18.15 27.6891 26.15 21.6047 31 14.6953C30.85 13.4062 30.65 12.1172 30.5 10.7766Z" fill="#699635"/>
<path d="M11.2 28.1531C8.05 25.1625 4.9 22.1719 1.75 19.2328C9.6 14.6438 16.2 8.40469 21.05 1.03125C24.2 4.02188 27.35 6.96094 30.5 9.95156C25.65 17.325 19.05 23.5641 11.2 28.1531Z" fill="#83BF4F"/>
<path d="M10.4 26.1938C8.29998 24.2344 6.19998 22.2235 4.09998 20.2641C4.24998 20.161 4.34998 20.1094 4.49998 20.0063C4.89998 19.7485 4.99998 19.2844 4.64998 18.9235L4.34998 18.6141C10.7 14.5922 16.2 9.43599 20.5 3.45474L20.8 3.76411C21.15 4.07349 21.65 4.02192 21.95 3.66099C22.05 3.55786 22.1 3.40317 22.2 3.30005C24.3 5.25942 26.4 7.27036 28.5 9.22974C28.4 9.33286 28.35 9.48755 28.25 9.59067C27.95 10.0032 28 10.5704 28.35 10.9313L28.65 11.2407C24.35 17.1704 18.85 22.3266 12.5 26.3485L12.2 26.0391C11.85 25.7297 11.25 25.6782 10.8 25.936C10.65 26.0391 10.55 26.0907 10.4 26.1938ZM5.44998 20.3157C7.14998 21.9141 8.84998 23.5125 10.6 25.1625C11.25 24.9563 12 25.0079 12.6 25.3172C18.4 21.5016 23.45 16.7579 27.5 11.2407C27.15 10.6735 27.1 9.95161 27.35 9.33286C25.65 7.73442 23.95 6.13599 22.2 4.48599C21.75 4.89849 21.1 4.95005 20.55 4.64067C16.5 10.2094 11.45 14.9532 5.64998 18.7688C5.94998 19.2844 5.89998 19.9032 5.44998 20.3157Z" fill="#699635"/>
<path d="M10 19.2329C10.55 19.0266 11.15 19.0782 11.55 19.4391C11.3 19.6454 11 19.8516 10.75 20.0579C10.65 19.9547 10.4 19.9547 10.3 20.0579C10.15 20.161 10.1 20.3157 10.25 20.4188C10.35 20.5219 10.6 20.5219 10.75 20.4188C11.35 20.0063 12.2 19.9547 12.65 20.4188C13 20.7797 13.05 21.2954 12.7 21.7079C12.8 21.811 12.9 21.8625 13 21.9657C12.75 22.1204 12.5 22.3266 12.25 22.4813C12.15 22.3782 12.05 22.275 11.95 22.2235C11.4 22.3782 10.8 22.3266 10.45 21.9657C10.75 21.7594 11 21.6047 11.3 21.3985C11.4 21.5016 11.65 21.5016 11.8 21.3985C11.95 21.2954 11.95 21.1407 11.85 21.0375C11.75 20.9344 11.55 20.9344 11.4 21.0375C11.05 21.2954 10.6 21.3985 10.2 21.3469C9.90002 21.2954 9.65002 21.1922 9.45002 21.0375C9.10002 20.6766 9.10002 20.2126 9.40002 19.8C9.30002 19.7485 9.25002 19.6454 9.15002 19.5422C9.40002 19.3875 9.65002 19.1813 9.90002 19.0266C9.85002 19.0782 9.95002 19.1297 10 19.2329ZM21.6 8.19849C22.05 7.88911 22.6 7.88911 22.95 8.25005L22.35 9.02349C22.25 8.92036 22.05 8.92036 21.95 9.07505C21.85 9.22974 21.85 9.43599 21.95 9.53911C22.05 9.64224 22.25 9.64224 22.35 9.48755C22.8 8.92036 23.55 8.81724 24 9.22974C24.35 9.59067 24.45 10.1579 24.25 10.6735C24.35 10.7766 24.45 10.8282 24.55 10.9313C24.35 11.1891 24.2 11.3954 24 11.6532C23.9 11.55 23.8 11.4469 23.7 11.3954C23.25 11.6532 22.75 11.6532 22.4 11.2922C22.6 11.0344 22.85 10.7766 23.05 10.5188C23.15 10.6219 23.35 10.6219 23.45 10.4672C23.55 10.3125 23.55 10.1063 23.45 10.0032C23.35 9.90005 23.15 9.90005 23.05 10.0547C22.8 10.3641 22.4 10.5704 22.05 10.5704C21.8 10.5704 21.55 10.4672 21.35 10.3125C21 9.95161 20.9 9.43599 21.1 8.92036C21 8.8688 20.95 8.76567 20.85 8.66255C21.05 8.4563 21.25 8.19849 21.4 7.94067C21.4 8.0438 21.5 8.09536 21.6 8.19849ZM20.1 18.3047C18.5 19.8 15.8 19.7485 14.25 18.3047C12.7 16.8094 12.8 14.4891 14.4 12.9938C16 11.4985 18.5 11.3438 20.05 12.8391C21.65 14.2829 21.7 16.8094 20.1 18.3047Z" fill="#699635"/>
<path d="M10.9 12.6328L20.35 21.5531C21.45 20.625 22.45 19.6453 23.45 18.614L14.05 9.69373C13.05 10.6734 12 11.6531 10.9 12.6328Z" fill="#FFDD7D"/>
<path d="M20.4 25.4719C21.45 24.6469 22.5 23.7703 23.5 22.8938V18.5625C22.5 19.5938 21.45 20.5734 20.4 21.5016V25.4719Z" fill="#DBB471"/>
<path d="M6.05005 12.736C6.60005 12.5297 7.05005 12.2203 7.50005 11.8594C7.95005 11.4985 8.35005 11.1375 8.80005 10.725C9.25005 10.3641 9.70005 9.95159 10.2 9.69378C10.7 9.3844 11.35 9.22972 11.9 9.33284C11.35 9.43597 10.85 9.69378 10.4 10.0547C9.95005 10.3641 9.55005 10.7766 9.10005 11.1375C8.65005 11.4985 8.20005 11.911 7.70005 12.2203C7.20005 12.5297 6.60005 12.736 6.05005 12.736Z" fill="#8D9998"/>
<path d="M19.9 17.0672C19.9 17.0672 22.35 17.7891 28.05 16.2422C33.75 14.6953 31.05 31.6078 20.65 31.6078C19.5 31.6078 19.45 30.1125 22.65 27.4313C22.65 27.4313 18.15 28.5141 20.1 25.0594C20.1 25.0594 16.9 25.6266 18.35 22.9969C18.35 22.9969 19 21.0375 18.4 18.8203C18.45 18.8203 18.8 17.686 19.9 17.0672Z" fill="#E8E8E8"/>
<path d="M30.75 17.8922C30.85 22.4297 27.35 29.9578 20.4 29.9578H20.3C19.65 31.0406 19.95 31.6594 20.65 31.6594C28.55 31.6078 32 21.9141 30.75 17.8922Z" fill="#D1D1D1"/>
<path d="M27.15 20.3672C25.65 25.9359 19.65 26.4 19.65 26.4C19.4 27.5859 19.9 28.1016 20.55 28.1016C22.75 28.1531 26.85 24.3891 27.15 20.3672ZM22.95 20.3672C19.4 25.5234 18.15 23.6156 18.15 23.6156C17.25 25.6781 19.6 25.6781 20 25.2141C21.15 23.925 23 21.2438 22.95 20.3672Z" fill="#D1D1D1"/>
<path d="M20.25 30.1125C20.85 29.2875 21.6 28.6172 22.35 27.9469C23.1 27.2766 23.85 26.6063 24.6 25.8844C25.3 25.1625 26 24.3375 26.5 23.4094C27 22.4813 27.25 21.3984 27.15 20.3672C27.05 21.3984 26.7 22.3781 26.15 23.2031C25.6 24.0281 24.95 24.8016 24.25 25.5234C23.55 26.2453 22.8 26.9156 22.1 27.6891C21.35 28.3594 20.7 29.1844 20.25 30.1125ZM19.65 26.4C19.85 25.8328 20.15 25.3687 20.5 24.9047C20.85 24.4406 21.2 24.0281 21.6 23.5641C21.95 23.1 22.35 22.6359 22.6 22.1203C22.9 21.6047 23.05 20.9344 22.95 20.3672C22.85 20.9344 22.6 21.45 22.25 21.9141C21.95 22.3781 21.55 22.7906 21.2 23.2547C20.85 23.7187 20.45 24.1828 20.15 24.6984C19.85 25.2141 19.65 25.8328 19.65 26.4Z" fill="#8D9998"/>
<path d="M15.1 12.4781C15.1 12.4781 14.4 9.95158 15.9 4.07346C17.4 -1.80467 1 0.979707 1 11.7047C1 12.8906 2.45 12.9422 5.05 9.64221C5.05 9.64221 4 14.2828 7.35 12.2719C7.35 12.2719 6.8 15.5719 9.35 14.0766C9.35 14.0766 11.25 13.4063 13.4 14.025C13.4 13.9735 14.5 13.6125 15.1 12.4781Z" fill="#E8E8E8"/>
<path d="M14.3 1.28911C9.9 1.18598 2.6 4.79536 2.6 11.9625V12.0657C1.55 12.6844 1 12.4266 1 11.7047C1 3.55786 10.4 4.58956e-05 14.3 1.28911Z" fill="#D1D1D1"/>
<path d="M11.9 5.00159C6.50004 6.54846 6.05004 12.736 6.05004 12.736C4.90004 12.9938 4.40004 12.4781 4.40004 11.8078C4.35004 9.53909 8.00004 5.31096 11.9 5.00159ZM11.9 9.33284C6.90004 12.9938 8.75004 14.2828 8.75004 14.2828C6.75004 15.211 6.75004 12.7875 7.20004 12.375C8.45004 11.1891 11.05 9.28127 11.9 9.33284Z" fill="#D1D1D1"/>
<path d="M2.44995 12.1172C3.24995 11.4984 3.89995 10.725 4.54995 9.95153C5.19995 9.1781 5.84995 8.40466 6.54995 7.63122C7.24995 6.90935 8.04995 6.18747 8.94995 5.67185C9.84995 5.15622 10.9 4.89841 11.9 5.00153C10.9 5.10466 9.94995 5.4656 9.14995 6.03278C8.34995 6.59997 7.59995 7.27028 6.89995 7.99216C6.19995 8.71403 5.54995 9.48747 4.79995 10.2093C4.09995 10.9828 3.34995 11.6531 2.44995 12.1172Z" fill="#8D9998"/>
<path d="M6.05005 12.736C6.60005 12.5297 7.05005 12.2203 7.50005 11.8594C7.95005 11.4985 8.35005 11.1375 8.80005 10.725C9.25005 10.3641 9.70005 9.95159 10.2 9.69378C10.7 9.3844 11.35 9.22972 11.9 9.33284C11.35 9.43597 10.85 9.69378 10.4 10.0547C9.95005 10.3641 9.55005 10.7766 9.10005 11.1375C8.65005 11.4985 8.20005 11.911 7.70005 12.2203C7.20005 12.5297 6.60005 12.736 6.05005 12.736Z" fill="#8D9998"/>
</svg>
