<svg width="35" height="33" viewBox="0 0 35 33" fill="none" xmlns="http://www.w3.org/2000/svg">
<path d="M18.8917 1.09313C18.5964 1.34063 16.2996 5.63836 16.2996 5.63836L14.5906 12.1378L21.2406 11.5629C21.2406 11.5629 26.7722 1.86398 26.8843 1.63969C27.0839 1.23234 27.1906 1.06477 26.4277 1.06477C25.6648 1.06219 19.1679 0.861094 18.8917 1.09313Z" fill="#176CC7"/>
<path d="M22.3343 11.1607C22.0035 10.9931 12.2582 10.8487 12.0285 11.1607C11.8207 11.4443 11.8507 12.7411 11.9519 12.9086C12.0531 13.0762 15.3289 14.5122 15.3289 14.5122L15.3261 15.0356C15.3261 15.0356 15.5066 15.4455 17.3332 15.4455C19.1597 15.4455 19.3484 15.0975 19.3484 15.0975L19.3648 14.5689C19.3648 14.5689 22.2332 13.218 22.3836 13.0994C22.5367 12.9782 22.6652 11.3282 22.3343 11.1607ZM19.332 13.3082C19.332 13.3082 19.3238 12.9473 19.1351 12.8571C18.9464 12.7668 15.9086 12.7823 15.6515 12.7952C15.3945 12.8081 15.3945 13.2412 15.3945 13.2412L13.3164 12.2873V12.0965L21.0546 12.1481L21.0683 12.3646L19.332 13.3082Z" fill="#FCC417"/>
<path d="M16.2039 13.1923C15.9469 13.1923 15.7992 13.4449 15.7992 13.8806C15.7992 14.288 15.9469 14.6309 16.2722 14.6051C16.5402 14.5844 16.6332 14.1977 16.6086 13.8548C16.584 13.4475 16.5293 13.1923 16.2039 13.1923Z" fill="#FDFFFF"/>
<path d="M7.92419 23.3888C7.92419 29.566 13.8469 32.3168 17.7844 32.1854C22.1265 32.0384 27.3273 28.8467 27.0129 22.9531C26.7148 17.3689 21.7328 14.7211 17.4179 14.7495C12.4031 14.783 7.92419 17.9928 7.92419 23.3888Z" fill="#FCC417"/>
<path d="M17.6449 31.1102C17.5765 31.1102 17.5054 31.1102 17.4371 31.1077C15.3863 31.0432 13.3601 30.2285 11.8781 28.875C10.2922 27.4261 9.42264 25.4667 9.43357 23.3604C9.45818 18.217 14.2269 15.8323 17.4617 15.8323H17.489C21.8722 15.8503 25.4707 19.0627 25.5719 23.4171C25.6156 25.3559 24.7734 27.39 23.1219 28.9214C21.5797 30.3471 19.5344 31.1102 17.6449 31.1102ZM17.4562 16.6882C14.5551 16.6882 10.2648 18.926 10.2539 23.3604C10.2457 26.6759 12.9691 30.0842 17.5054 30.2285C19.2336 30.2801 21.0137 29.6562 22.4519 28.3233C23.9449 26.9388 24.7844 25.1548 24.7543 23.4274C24.6887 19.6814 21.4402 16.7011 17.4972 16.6856C17.4863 16.6856 17.4644 16.6882 17.4562 16.6882Z" fill="#FA912C"/>
<path d="M15.8102 15.626C15.6215 15.3811 13.4832 15.4275 11.4625 17.2889C9.51291 19.0859 9.30237 20.7797 9.67698 20.8777C10.1008 20.9885 10.6176 19.1942 12.4031 17.686C14.0438 16.3041 16.1875 16.1133 15.8102 15.626ZM24.0817 22.2956C23.4227 22.3833 24.1063 24.2447 22.5778 26.3278C21.2516 28.1351 19.7477 28.7899 19.9227 29.187C20.1578 29.7181 22.5668 28.3955 23.6824 26.2402C24.6942 24.2885 24.5739 22.2286 24.0817 22.2956Z" fill="#FEFFFA"/>
<path d="M15.2715 19.8567C15.1293 20.0552 15.2579 21.7954 15.3426 21.8728C15.5067 22.0274 16.7536 21.4731 16.7536 21.4731L16.7071 26.1267C16.7071 26.1267 15.7911 26.1163 15.6954 26.1499C15.5067 26.2169 15.5313 28.0113 15.6708 28.0989C15.8102 28.1866 19.5481 28.233 19.6903 28.0551C19.8325 27.8772 19.7969 26.3071 19.7313 26.2349C19.6137 26.1009 18.7196 26.155 18.7196 26.155C18.7196 26.155 18.7961 19.3024 18.7715 19.0832C18.7469 18.8641 18.4899 18.7274 18.1836 18.7945C17.8774 18.8615 15.3618 19.7278 15.2715 19.8567Z" fill="#FA912C"/>
<path d="M6.97537 0.959109C6.8031 1.10864 13.3902 12.1688 13.3902 12.1688C13.3902 12.1688 14.4949 12.3029 16.9613 12.3235C19.4277 12.3441 20.65 12.1894 20.65 12.1894C20.65 12.1894 15.5285 1.06997 15.2222 0.959109C15.0718 0.90239 13.0429 0.881765 11.0605 0.86114C9.07537 0.837937 7.13943 0.814734 6.97537 0.959109Z" fill="#2E9DF4"/>
</svg>
