<svg width="39" height="29" viewBox="0 0 39 29" fill="none" xmlns="http://www.w3.org/2000/svg">
<path d="M1.62362 6.58943L19.2172 0.0462085C19.2988 0.0158488 19.3887 3.07362e-05 19.4799 4.47481e-08C19.5711 -3.06467e-05 19.6611 0.0157269 19.7427 0.0460316L37.3715 6.58925C37.9286 6.79606 37.7313 7.42199 37.1089 7.42199H1.88658C1.26446 7.42199 1.06688 6.79648 1.62362 6.58943ZM37.4308 7.90749H1.56923C1.41826 7.90749 1.27348 7.95221 1.16672 8.03182C1.05997 8.11142 1 8.21939 1 8.33197V11.7906C1 11.9032 1.05997 12.0112 1.16672 12.0908C1.27348 12.1704 1.41826 12.2151 1.56923 12.2151H2.77885V25.151C2.77885 25.6199 3.28854 26 3.91731 26H35.0827C35.7115 26 36.2212 25.6199 36.2212 25.151V12.2151H37.4308C37.5817 12.2151 37.7265 12.1704 37.8333 12.0908C37.94 12.0112 38 11.9032 38 11.7906V8.33197C38 8.21939 37.94 8.11142 37.8333 8.03182C37.7265 7.95221 37.5817 7.90749 37.4308 7.90749Z" fill="#F70615"/>
<path d="M10.4278 26H6.90839V11.2625H10.4278V26ZM32.0613 11.2625H28.5419V26H32.0613V11.2625ZM37.6217 7.03414L19.7854 0.0560538C19.6911 0.0191564 19.5872 -3.16956e-05 19.4819 3.93003e-08C19.3766 3.17742e-05 19.2727 0.0192825 19.1784 0.0562367L1.37785 7.03433C0.734827 7.2864 0.963075 8.04798 1.68163 8.04798H1.85459C1.9597 8.04797 2.06338 8.02884 2.15752 7.99208L19.2011 1.3336C19.2949 1.29698 19.3981 1.27785 19.5027 1.27769C19.6074 1.27753 19.7107 1.29635 19.8046 1.33269L37.0178 7.99299C37.1114 8.02918 37.2142 8.048 37.3184 8.04798C38.0372 8.04804 38.2652 7.28591 37.6217 7.03414Z" fill="#767777"/>
<path d="M38.4327 7H0.567273C0.416823 7 0.272535 7.04547 0.16615 7.12641C0.0597661 7.20735 0 7.31712 0 7.43159V8.62499C0 8.73945 0.0597661 8.84923 0.16615 8.93017C0.272535 9.0111 0.416823 9.05658 0.567273 9.05658H38.4327C38.5832 9.05658 38.7275 9.0111 38.8339 8.93017C38.9402 8.84923 39 8.73945 39 8.62499V7.43159C39 7.31712 38.9402 7.20735 38.8339 7.12641C38.7275 7.04547 38.5832 7 38.4327 7ZM38.4327 11.0255H0.567273C0.416823 11.0255 0.272535 11.0709 0.16615 11.1519C0.0597661 11.2328 0 11.3426 0 11.457V12.6504C0 12.7649 0.0597661 12.8747 0.16615 12.9556C0.272535 13.0366 0.416823 13.082 0.567273 13.082H13.453V25.5607H2.62773C2.25554 25.5607 1.91076 25.7096 1.72002 25.9528L0.284109 27.7838C-0.136303 28.3198 0.371406 29 1.19182 29H37.8082C38.6286 29 39.1363 28.3198 38.7159 27.7838L37.28 25.9528C37.1862 25.8333 37.0533 25.7343 36.8942 25.6656C36.7351 25.5968 36.5552 25.5607 36.3723 25.5607H25.5114V13.082H38.4327C38.5832 13.082 38.7275 13.0366 38.8339 12.9556C38.9402 12.8747 39 12.7649 39 12.6504V11.457C39 11.3426 38.9402 11.2328 38.8339 11.1519C38.7275 11.0709 38.5832 11.0255 38.4327 11.0255Z" fill="#B1A7A7"/>
<path d="M14 26.0106L25.9962 26L26 27.9894L14.0038 28L14 26.0106Z" fill="#C8CACB"/>
<path d="M27 29H12V27.5167C12 27.3797 12.0575 27.2483 12.1598 27.1513C12.2621 27.0544 12.4008 27 12.5455 27H26.4545C26.5992 27 26.7379 27.0544 26.8402 27.1513C26.9425 27.2483 27 27.3797 27 27.5167V29Z" fill="#EBECED"/>
<path d="M23.9999 26H15V19.7825C15 17.6935 17.0147 16 19.5 16C21.9852 16 24 17.6935 24 19.7825V26H23.9999Z" fill="#2B3B47"/>
</svg>
