<svg width="37" height="37" viewBox="0 0 37 37" fill="none" xmlns="http://www.w3.org/2000/svg">
<path d="M18.5 20.8125C21.5599 20.8125 24.3349 22.3688 26.3459 24.8802L23.73 28.1501C22.3906 26.4758 20.5406 25.4375 18.5 25.4375C16.4595 25.4375 14.6095 26.4758 13.2701 28.1501L10.6542 24.8802C11.6832 23.5897 12.906 22.5661 14.2525 21.868C15.5989 21.1699 17.0424 20.8113 18.5 20.8125ZM5.41867 18.3358C8.91332 13.9675 13.5587 11.5625 18.5 11.5625C23.4414 11.5625 28.0867 13.9675 31.5814 18.3358L28.9655 21.6057C26.1701 18.1115 22.4535 16.1875 18.5 16.1875C14.5466 16.1875 10.8299 18.1115 8.03457 21.6057L5.41867 18.3358ZM28.5825 4.85859C31.6597 6.48408 34.4555 8.84007 36.815 11.7961L34.1991 15.066C30.0052 9.82584 24.4311 6.93753 18.5019 6.93753C12.5726 6.93753 6.99672 9.82353 2.80462 15.066L0.188721 11.7961C2.59106 8.78484 5.44585 6.39681 8.58898 4.76928C11.7321 3.14176 15.1016 2.30684 18.5037 2.31253C22.0002 2.31253 25.3913 3.16815 28.5862 4.85859H28.5825ZM16.65 32.375C16.65 31.7617 16.8449 31.1735 17.1919 30.7398C17.5388 30.3062 18.0094 30.0625 18.5 30.0625C18.9907 30.0625 19.4612 30.3062 19.8082 30.7398C20.1551 31.1735 20.35 31.7617 20.35 32.375C20.35 32.9883 20.1551 33.5765 19.8082 34.0102C19.4612 34.4439 18.9907 34.6875 18.5 34.6875C18.0094 34.6875 17.5388 34.4439 17.1919 34.0102C16.8449 33.5765 16.65 32.9883 16.65 32.375Z" fill="black"/>
</svg>
