<svg width="36" height="33" viewBox="0 0 36 33" fill="none" xmlns="http://www.w3.org/2000/svg">
<path d="M19.8685 18.27C19.4425 18.27 19.0105 18.28 18.5745 18.301C18.1385 19.569 18.1065 21.048 18.5745 23.398C18.9025 25.044 21.2335 29.697 23.1585 31.331C23.8415 31.911 24.7965 32.215 25.8485 32.215C27.9925 32.215 30.5395 30.95 32.0055 28.181C35.0065 22.51 28.5315 18.27 19.8685 18.27Z" fill="#1C6399"/>
<path d="M33.5305 0C33.3265 0 33.1055 0.021 32.8675 0.066C29.6855 0.667 23.5655 5.192 18.5805 11.837C18.5805 11.837 17.7915 16.997 17.7915 18.031C17.7915 18.367 19.0555 18.531 20.8495 18.531C24.5665 18.531 30.5585 17.826 32.2735 16.49C34.1715 15.011 35.9235 6.686 35.7615 2.411C35.7155 1.236 35.0995 0 33.5305 0Z" fill="#1C6399"/>
<path d="M26.9625 11.9629L33.5915 11.5269C33.5915 11.5269 32.5365 15.1459 30.4895 16.1829C28.4425 17.2199 22.7705 17.6829 22.7705 17.6829C22.7705 17.6829 25.1005 13.4219 26.0565 12.3929C26.2935 12.1369 26.6155 11.9849 26.9625 11.9629ZM27.4825 10.0109L35.0085 1.85994C35.0085 1.85994 35.0105 7.22494 33.8025 10.4949C33.8025 10.4949 28.4195 10.8739 27.8885 10.8859C27.1855 10.9019 26.9195 10.6209 27.4825 10.0109ZM21.4145 17.6829L26.9145 9.13594C27.0072 9.02768 27.0714 8.89799 27.1012 8.75863C27.1311 8.61928 27.1257 8.47468 27.0855 8.33794L26.1175 5.10494L19.3955 11.7139L18.5515 17.7449L21.4145 17.6829ZM27.7265 6.90694C27.8985 7.31294 28.2425 7.40694 28.6645 7.03194C29.0865 6.65694 34.7385 0.937944 34.6645 0.813944C34.6645 0.813944 31.8325 -0.380056 26.8645 4.27694C26.8645 4.27694 27.5545 6.50094 27.7265 6.90694ZM18.8015 19.0059L24.1745 24.2339C24.2729 24.3202 24.339 24.4375 24.3617 24.5665C24.3844 24.6954 24.3625 24.8282 24.2995 24.9429L21.9245 29.2769C21.9245 29.2769 17.7375 23.7979 18.8015 19.0059ZM26.0835 25.3069L31.6325 26.0479C31.6325 26.0479 30.5745 29.8929 28.2385 30.9019C24.3325 32.5899 22.9265 30.2769 22.9265 30.2769L25.2785 25.7149C25.3517 25.5701 25.4693 25.4523 25.6141 25.379C25.7589 25.3056 25.9234 25.2803 26.0835 25.3069ZM20.1335 18.8809L25.5085 23.8389C25.5855 23.9049 25.6775 23.9489 25.7775 23.9679L31.8965 24.8709C31.8965 24.8709 30.6775 21.8399 27.4675 20.3399C23.7575 18.6069 20.1335 18.8809 20.1335 18.8809Z" fill="#55ACEE"/>
<path d="M19.8685 18.27C19.4425 18.27 19.0105 18.28 18.5745 18.301C18.1385 19.569 18.1065 21.048 18.5745 23.398C18.9025 25.044 21.2335 29.697 23.1585 31.331C23.8415 31.911 24.7965 32.215 25.8485 32.215C27.9925 32.215 30.5395 30.95 32.0055 28.181C35.0065 22.51 28.5315 18.27 19.8685 18.27ZM30.4055 27.596C29.0895 30.082 27.3555 31.069 25.8475 31.069C25.0805 31.069 24.1435 30.756 23.6975 30.378C22.0025 28.939 20.2605 25.798 19.4475 23.154C18.9825 21.641 19.0935 19.132 19.0935 19.132L19.7605 19.111C24.9285 19.111 29.0095 21.169 30.4865 23.623C31.2005 24.809 31.1735 26.146 30.4055 27.596Z" fill="#292F33"/>
<path d="M33.5305 1.25C33.7615 1.25 34.4655 1.25 34.5115 2.458C34.6135 5.139 33.9175 8.519 33.1145 11.34C32.5735 13.241 31.5285 14.632 31.0205 15.027C30.4605 15.463 29.1575 16.265 27.3015 16.59C25.2715 16.945 23.0945 17.423 20.8455 17.423C20.0185 17.423 19.4125 17.442 19.0515 17.402C19.1825 16.184 19.5405 13.851 19.7685 12.338C23.5365 7.398 29.4795 1.977 33.0995 1.294C33.2545 1.265 33.3995 1.25 33.5305 1.25ZM33.5305 0C33.3265 0 33.1055 0.021 32.8675 0.066C29.6855 0.667 23.5655 5.192 18.5805 11.837C18.5805 11.837 17.7915 16.997 17.7915 18.031C17.7915 18.367 19.0555 18.531 20.8495 18.531C24.5665 18.531 30.5585 17.826 32.2735 16.49C34.1715 15.011 35.9235 6.686 35.7615 2.411C35.7155 1.236 35.0995 0 33.5305 0Z" fill="#292F33"/>
<path d="M3.76649 28.181C5.23249 30.95 7.77849 32.215 9.92349 32.215C10.9755 32.215 11.9305 31.911 12.6135 31.331C14.5385 29.698 16.8695 25.045 17.1975 23.398C17.6655 21.048 17.6335 19.57 17.1975 18.301C16.7665 18.2803 16.335 18.27 15.9035 18.27C7.23849 18.27 0.76449 22.51 3.76649 28.181Z" fill="#1C6399"/>
<path d="M2.24042 0C0.671422 0 0.0544218 1.236 0.0104218 2.41C-0.151578 6.685 1.60042 15.011 3.49842 16.489C5.21342 17.825 11.2044 18.53 14.9224 18.53C16.7164 18.53 17.9804 18.366 17.9804 18.03C17.9804 16.997 17.1914 11.836 17.1914 11.836C12.2054 5.192 6.08442 0.667 2.90342 0.066C2.68496 0.023409 2.46299 0.00131311 2.24042 0Z" fill="#1C6399"/>
<path d="M8.80745 11.9629L2.17945 11.5269C2.17945 11.5269 3.23445 15.1459 5.28145 16.1829C7.32845 17.2199 13.0005 17.6829 13.0005 17.6829C13.0005 17.6829 10.6705 13.4219 9.71445 12.3929C9.47893 12.1379 9.15395 11.9839 8.80745 11.9629ZM8.28845 10.0109L0.762451 1.85994C0.762451 1.85994 0.760451 7.22494 1.96845 10.4949C1.96845 10.4949 7.35145 10.8739 7.88245 10.8859C8.58545 10.9019 8.85145 10.6209 8.28845 10.0109ZM14.3565 17.6829L8.85645 9.13594C8.76377 9.02768 8.69959 8.89799 8.66973 8.75863C8.63987 8.61928 8.64527 8.47468 8.68545 8.33794L9.65345 5.10494L16.3755 11.7139L17.2194 17.7449L14.3565 17.6829ZM8.04345 6.90694C7.87145 7.31294 7.52745 7.40694 7.10545 7.03194C6.68345 6.65694 1.03145 0.937944 1.10545 0.813944C1.10545 0.813944 3.93745 -0.380056 8.90545 4.27694C8.90645 4.27694 8.21545 6.50094 8.04345 6.90694ZM16.9694 19.0059L11.5965 24.2339C11.498 24.3202 11.432 24.4375 11.4093 24.5665C11.3865 24.6954 11.4085 24.8282 11.4715 24.9429L13.8465 29.2759C13.8455 29.2769 18.0334 23.7979 16.9694 19.0059ZM9.68645 25.3069L4.13745 26.0479C4.13745 26.0479 5.19545 29.8929 7.53145 30.9019C11.4375 32.5899 12.8435 30.2769 12.8435 30.2769L10.4915 25.7149C10.4185 25.5698 10.3009 25.4519 10.1561 25.3785C10.0112 25.3051 9.84662 25.28 9.68645 25.3069ZM15.6375 18.8809L10.2625 23.8389C10.1856 23.9048 10.0929 23.9493 9.99345 23.9679L3.87445 24.8709C3.87445 24.8709 5.09345 21.8399 8.30345 20.3399C12.0125 18.6069 15.6375 18.8809 15.6375 18.8809Z" fill="#55ACEE"/>
<path d="M3.76649 28.181C5.23249 30.95 7.77849 32.215 9.92349 32.215C10.9755 32.215 11.9305 31.911 12.6135 31.331C14.5385 29.698 16.8695 25.045 17.1975 23.398C17.6655 21.048 17.6335 19.57 17.1975 18.301C16.7665 18.2803 16.335 18.27 15.9035 18.27C7.23849 18.27 0.76449 22.51 3.76649 28.181ZM5.28449 23.622C6.76149 21.168 10.8425 19.11 16.0105 19.11L16.6775 19.131C16.6775 19.131 16.7885 21.641 16.3235 23.153C15.5105 25.797 13.7685 28.938 12.0735 30.377C11.6275 30.756 10.6905 31.068 9.92349 31.068C8.41549 31.068 6.68149 30.082 5.36549 27.595C4.59749 26.146 4.57049 24.809 5.28449 23.622Z" fill="#292F33"/>
<path d="M2.24042 1.25C2.37142 1.25 2.51642 1.265 2.67142 1.294C6.29042 1.977 12.2344 7.398 16.0024 12.338C16.2304 13.851 16.5884 16.184 16.7194 17.402C16.3584 17.442 15.7524 17.423 14.9254 17.423C12.6764 17.423 10.4994 16.945 8.46942 16.59C6.61342 16.265 5.31042 15.463 4.75042 15.027C4.24242 14.631 3.19742 13.241 2.65642 11.34C1.85342 8.519 1.15742 5.139 1.25942 2.458C1.30542 1.25 2.00842 1.25 2.24042 1.25ZM2.24042 0C0.671422 0 0.0544218 1.236 0.0104218 2.41C-0.151578 6.685 1.60042 15.011 3.49842 16.489C5.21342 17.825 11.2044 18.53 14.9224 18.53C16.7164 18.53 17.9804 18.366 17.9804 18.03C17.9804 16.997 17.1914 11.836 17.1914 11.836C12.2054 5.192 6.08442 0.667 2.90342 0.066C2.68496 0.023409 2.46299 0.00131311 2.24042 0Z" fill="#292F33"/>
<path d="M21.7514 2.78897C21.6921 2.75614 21.6269 2.73533 21.5595 2.72777C21.4921 2.7202 21.4239 2.72601 21.3588 2.74487C21.2936 2.76373 21.2329 2.79527 21.18 2.83768C21.127 2.88008 21.083 2.93252 21.0504 2.99197L18.3104 7.97197C18.2924 8.00497 18.2884 8.03997 18.2784 8.07397C18.1514 8.06697 18.0344 8.05597 17.8854 8.05597C17.7374 8.05597 17.6194 8.06597 17.4934 8.07397C17.4834 8.03997 17.4794 8.00497 17.4614 7.97197L14.7214 2.99197C14.6554 2.87196 14.5444 2.7831 14.4128 2.74494C14.2813 2.70677 14.1399 2.72243 14.0199 2.78847C13.8999 2.85451 13.8111 2.96552 13.7729 3.09708C13.7347 3.22863 13.7504 3.36996 13.8164 3.48997L16.4714 8.31597C15.2924 9.09997 17.6214 11.754 16.8524 17.52C15.8194 25.27 17.8854 27.337 17.8854 27.337C17.8854 27.337 19.9524 25.27 18.9184 17.52C18.1494 11.754 20.4784 9.09997 19.2994 8.31597L21.9554 3.48997C21.9881 3.43056 22.0087 3.36529 22.0162 3.29789C22.0236 3.2305 22.0177 3.1623 21.9987 3.0972C21.9798 3.03209 21.9482 2.97136 21.9057 2.91848C21.8633 2.86559 21.8109 2.82158 21.7514 2.78897Z" fill="#292F33"/>
</svg>
