<svg width="37" height="32" viewBox="0 0 37 32" fill="none" xmlns="http://www.w3.org/2000/svg">
<path d="M18.5221 0.000140935C18.0057 0.0533101 1.91097 9.33133 1.8182 9.61312C1.72543 9.89758 1.68833 12.8538 1.68833 12.8538L3.76318 13.42L3.77246 15.7701L4.88255 17.7241V25.9839L4.05384 27.5391L1.78109 28.116V29.5143L0 29.9796C0 29.9796 0.0247375 31.1785 0.0247375 31.3779C0.0247375 31.5773 0.102042 32 1.03279 32C1.96353 32 35.9342 31.8644 36.2774 31.8644C36.6207 31.8644 36.9762 31.8059 36.9948 31.2769C37.0134 30.7479 36.9763 30.0008 36.9763 30.0008L35.2508 29.2671L35.2446 28.0947L32.4369 27.3504L31.7597 25.7021L31.769 17.9368L32.8451 15.9854L33.1698 15.4564V13.3562L34.9787 12.7687C34.9787 12.7687 35.0127 9.7301 34.9602 9.64237C34.9138 9.5573 18.9489 -0.0423944 18.5221 0.000140935Z" fill="#CDDFEE"/>
<path d="M3.28748 10.133C3.19161 10.3386 3.16687 11.8556 3.25346 11.9303C3.34006 12.0051 33.2336 11.9651 33.3356 11.893C33.4377 11.8209 33.4531 10.1731 33.4037 10.0716C33.3542 9.97009 24.9267 5 24.9267 5L11.8974 5.05608C11.8943 5.05608 3.34315 10.0101 3.28748 10.133ZM0.0123706 29.9786C-0.0154632 29.9199 0.0123706 29.6421 0.0123706 29.53C0.0123706 29.4178 0.136076 29.2896 0.414415 29.2896C0.692753 29.2896 36.0231 29.2469 36.1963 29.2522C36.6324 29.2656 36.9262 29.3457 36.9695 29.5861C37.0128 29.8264 36.9973 30 36.9973 30L0.0123706 29.9786ZM35.2654 28.0825L1.79683 28.1038C1.79683 28.1038 1.8092 27.8074 1.8092 27.7059C1.8092 27.6044 1.87105 27.4388 2.27 27.4388C2.66895 27.4388 34.4088 27.3347 34.6809 27.3347C34.9531 27.3347 35.25 27.4442 35.2871 27.6071C35.3242 27.77 35.2654 28.0825 35.2654 28.0825ZM32.0274 26.2931L31.78 25.6682L4.88947 25.6629L4.68845 26.3599L32.0274 26.2931ZM4.58021 17.0927L32.1852 17.1755L31.7893 17.8752L4.89875 17.9634L4.58021 17.0927ZM3.97714 16.1099C3.97714 16.1099 3.73282 15.9577 3.69262 15.7574C3.65241 15.5571 3.76066 15.4396 3.76066 15.4396L33.1903 15.3835C33.1903 15.3835 33.3016 15.5811 33.2057 15.72C33.1099 15.8616 32.8377 15.9897 32.8377 15.9897L3.97714 16.1099ZM1.70095 12.7689L34.9995 12.6835C34.9995 12.6835 35.0211 12.9586 34.9995 13.0734C34.9809 13.1882 34.8077 13.2897 34.3655 13.2897H33.9232C33.9232 13.2897 2.75245 13.4232 2.40608 13.4232C2.0597 13.4232 1.81229 13.2577 1.75353 13.1241C1.71951 13.036 1.70095 12.7689 1.70095 12.7689Z" fill="#94ADBC"/>
<path d="M4 10.9255L11.1226 7.12671L11.6006 11L4 10.9255ZM25.8679 7L33 10.9752H25.6761L25.8679 7Z" fill="#657582"/>
<path d="M8.90515 16.0773L10.0734 16.0747L10.9879 17.8801L10.9034 25.313L10.1423 26.9974L8.783 27L8.03445 25.3233L8 17.8647L8.90515 16.0773ZM15.1253 16.0515L13.9633 17.8389L14.051 25.313L14.74 26.9845L22.3289 26.9588L23.0116 25.313L23.0304 17.8235L22.1441 16.0232L15.1253 16.0515ZM27.0582 16.0052L28.0886 16L29 17.8054L28.9969 25.3156L28.4676 26.9433L26.7481 26.9459L26.2219 25.3156L26.1812 17.8132L27.0582 16.0052Z" fill="#54636E"/>
<path d="M15 27V21L20.9877 21.0512L21 26.9838L15 27Z" fill="#6BA4AE"/>
<path d="M18.0049 21L18 27L19 26.9974V21.0878L18.0049 21Z" fill="#A5D0D7"/>
<path d="M15 22V20H21V22C21 22 15.0523 21.9391 15 22Z" fill="#95ACBC"/>
<path d="M17.9526 2.00015C13.431 2.02326 9.85182 4.96571 10.0047 8.68615C10.1576 12.4066 14.3048 15.023 17.9526 14.9998C21.7814 14.9767 25.8131 12.7224 25.9941 8.66561C26.1782 4.61139 22.028 1.97704 17.9526 2.00015Z" fill="#CDDFEE"/>
<path d="M18.474 3.00011C14.8117 3.0204 11.88 5.54453 12.0038 8.746C12.1245 11.9475 15.3491 13.9769 18.3049 13.9997C21.7136 14.0251 24.8506 12.1529 24.9955 8.66482C25.1404 5.1767 21.774 2.98235 18.474 3.00011Z" fill="#94ADBC"/>
<path d="M17.099 4.27261C17.099 4.27261 17.0302 3.18582 17.1147 3.09291C17.1991 3 17.5431 3 18.2091 3C18.8783 3 19.1504 3 19.2536 3.07602C19.3568 3.15204 19.3036 4.34019 19.3036 4.34019C19.3036 4.34019 20.2105 4.64708 20.7765 5.04125C21.3768 5.45794 21.8053 6.0126 21.7709 6.10551C21.7365 6.19843 20.5388 7.13881 20.3668 7.10784C20.1948 7.07687 19.2192 6.0492 18.0559 5.98163C16.2078 5.87464 16.2235 7.16978 17.3711 7.52453C18.5187 7.87929 22.1367 8.16084 21.996 10.7539C21.8772 12.936 19.4287 13.0908 19.4287 13.0908C19.4287 13.0908 19.4975 13.9073 19.4287 13.9552C19.3599 14.003 17.2022 14.0312 17.1334 13.9411C17.0646 13.851 17.1178 13.0148 17.1178 13.0148C17.1178 13.0148 16.1578 12.8459 15.3698 12.3672C14.5818 11.8886 14.0158 11.2579 14.0001 11.1791C13.9845 11.1031 15.3885 10.0388 15.4886 10.0078C15.5887 9.97685 17.0177 11.2438 18.3655 11.348C19.7351 11.455 20.3168 10.2387 18.4155 9.715C16.5143 9.19132 14.2722 8.74365 14.3754 6.60104C14.4786 4.42465 17.099 4.27261 17.099 4.27261Z" fill="#024FAC"/>
</svg>
