<svg version="1.1" id="Layer_1" xmlns="http://www.w3.org/2000/svg" xmlns:xlink="http://www.w3.org/1999/xlink" x="0px" y="0px"
	 width="100%" viewBox="0 0 474 312" enable-background="new 0 0 474 312" xml:space="preserve">
<path fill="#413F3F" opacity="1.000000" stroke="none" 
	d="
M297.000000,313.000000 
	C198.000015,313.000000 99.500038,313.000000 1.000040,313.000000 
	C1.000026,209.000031 1.000026,105.000076 1.000013,1.000054 
	C79.999947,1.000000 158.999893,1.000000 237.999847,1.000000 
	C316.999847,1.000000 395.999817,1.000000 474.999878,1.000000 
	C474.999908,104.999916 474.999908,208.999832 474.999939,312.999878 
	C415.833344,313.000000 356.666656,313.000000 297.000000,313.000000 
M431.950012,51.063297 
	C431.950012,51.063297 431.907013,51.023518 431.681946,50.502228 
	C431.105347,50.044384 430.528717,49.586540 429.216736,48.963120 
	C427.499451,48.629242 425.782135,48.295364 423.398956,47.449856 
	C422.922363,47.318993 422.445984,47.074600 421.969147,47.073647 
	C403.712677,47.037155 385.456177,47.006348 367.199799,47.047806 
	C366.122314,47.050251 365.046204,47.658287 363.306732,47.997166 
	C362.865112,48.012432 362.423523,48.027695 361.578918,48.257042 
	C361.327972,48.440418 361.133881,48.671574 360.307648,49.079548 
	C355.954254,51.358921 354.265381,55.164383 353.982697,59.864994 
	C353.778259,63.264542 353.388489,66.652946 353.037476,70.956512 
	C352.688019,75.002502 352.338593,79.048485 351.413483,82.719658 
	C347.036255,76.497604 343.134857,69.867500 338.205139,64.119240 
	C304.376617,24.673588 260.484497,10.731654 210.382187,17.633650 
	C174.700241,22.549128 145.407562,41.131115 123.950943,70.323280 
	C93.698967,111.481705 88.310783,156.484177 106.317993,204.087433 
	C114.590302,225.955856 128.174850,244.315353 146.866135,259.806335 
	C147.291336,261.561401 147.934555,263.296265 148.099319,265.075470 
	C148.528397,269.708679 148.608170,274.375580 149.081207,279.003082 
	C149.920731,287.215790 155.876678,293.203186 163.798645,293.220001 
	C209.788971,293.317688 255.779907,293.343384 301.769897,293.179626 
	C311.143829,293.146271 315.959900,288.516083 317.442719,279.048157 
	C318.412750,272.854431 318.928711,266.589600 320.162262,260.032684 
	C320.798676,259.038483 321.435089,258.044312 322.033020,256.998016 
	C322.033020,256.998016 322.026611,257.062439 322.637573,257.066895 
	C322.781647,256.719849 322.925690,256.372803 323.004791,256.013702 
	C323.004791,256.013702 323.026947,256.075928 323.698242,256.149200 
	C324.813171,255.104309 325.928101,254.059402 326.996582,252.999176 
	C326.996582,252.999176 327.013611,253.045013 327.666962,252.896957 
	C329.460266,250.940750 331.253571,248.984543 333.008362,246.994659 
	C333.008362,246.994659 333.016022,247.045151 333.547363,246.927322 
	C333.712097,246.620773 333.876831,246.314224 333.995270,246.001648 
	C333.995270,246.001648 334.020691,246.040817 334.603180,245.856201 
	C335.308289,244.885239 336.013397,243.914261 337.084839,242.353760 
	C340.188843,238.291580 343.437378,234.330750 346.370148,230.148499 
	C355.719635,216.815811 362.262085,202.190735 366.669556,185.802185 
	C367.128693,183.193817 367.587860,180.585449 367.987488,177.997467 
	C367.987488,177.997467 368.014618,178.054230 368.565247,177.491928 
	C369.077545,173.379150 369.589874,169.266373 370.496368,164.410629 
	C370.600555,157.678909 370.783966,150.946518 370.726746,144.216171 
	C370.717804,143.161850 369.615631,142.116837 369.039886,140.192444 
	C368.851257,129.047302 366.454987,118.363914 362.539734,107.955101 
	C361.772583,105.915604 361.786011,103.582497 361.827759,101.048744 
	C363.207092,100.054665 364.586426,99.060585 366.817078,98.057098 
	C369.256927,98.378029 371.695129,98.961685 374.136902,98.976883 
	C389.032623,99.069603 403.929352,99.067253 418.825226,98.993713 
	C420.551086,98.985191 422.273834,98.342628 424.735107,97.978447 
	C430.086945,96.283539 434.978790,90.112297 434.996185,84.915192 
	C435.025726,76.089752 435.132111,67.260643 434.901154,58.441071 
	C434.844574,56.280689 433.607513,54.151222 432.706299,51.614143 
	C432.523834,51.369408 432.289551,51.193775 431.950012,51.063297 
z"/>
<path fill="#43A3CA" opacity="1.000000" stroke="none" 
	d="
M146.503708,259.015717 
	C128.174850,244.315353 114.590302,225.955856 106.317993,204.087433 
	C88.310783,156.484177 93.698967,111.481705 123.950943,70.323280 
	C145.407562,41.131115 174.700241,22.549128 210.382187,17.633650 
	C260.484497,10.731654 304.376617,24.673588 338.205139,64.119240 
	C343.134857,69.867500 347.036255,76.497604 351.748749,83.247131 
	C352.291779,84.183105 352.499542,84.591606 352.527710,85.357422 
	C350.967957,89.994370 349.432556,94.233391 348.296936,98.576958 
	C347.928650,99.985573 348.074036,102.260826 348.958740,103.056778 
	C349.827271,103.838142 351.970551,103.460587 353.489105,103.204498 
	C356.165405,102.753159 358.792023,102.007332 361.439453,101.384804 
	C361.786011,103.582497 361.772583,105.915604 362.539734,107.955101 
	C366.454987,118.363914 368.851257,129.047302 369.027771,141.090332 
	C369.074615,149.004990 369.133545,156.021759 369.132996,163.457733 
	C368.720520,168.602692 368.367554,173.328461 368.014618,178.054230 
	C368.014618,178.054230 367.987488,177.997467 367.723938,178.228882 
	C367.008514,181.094315 366.556580,183.728348 366.104645,186.362381 
	C362.262085,202.190735 355.719635,216.815811 346.370148,230.148499 
	C343.437378,234.330750 340.188843,238.291580 336.585419,242.722382 
	C335.397552,244.074280 334.709106,245.057541 334.020691,246.040802 
	C334.020691,246.040817 333.995270,246.001648 333.764587,246.080414 
	C333.361237,246.454498 333.188629,246.749817 333.016022,247.045151 
	C333.016022,247.045151 333.008362,246.994659 332.679169,247.011871 
	C330.571167,249.034393 328.792389,251.039703 327.013611,253.045013 
	C327.013611,253.045013 326.996582,252.999176 326.682739,253.012604 
	C325.254913,254.042664 324.140930,255.059296 323.026947,256.075928 
	C323.026947,256.075928 323.004791,256.013702 322.800049,256.120850 
	C322.405701,256.506104 322.216156,256.784271 322.026611,257.062439 
	C322.026611,257.062439 322.033020,256.998016 321.711060,257.025177 
	C320.556854,257.421295 319.724579,257.790253 318.874573,258.136749 
	C318.856842,258.114288 318.882904,258.063354 318.944275,257.613708 
	C319.215973,251.357086 319.426331,245.550140 319.622131,239.291061 
	C319.940460,226.932266 320.273376,215.025589 320.719452,202.743210 
	C319.202026,193.427170 314.195038,189.063812 305.172638,188.981873 
	C294.212555,188.882324 283.251129,188.928543 272.231842,188.516327 
	C269.284698,176.108917 265.580872,164.516373 255.880722,155.818985 
	C257.397247,154.094208 258.730072,152.654648 260.291229,151.072113 
	C260.702209,150.627350 260.884827,150.325562 261.034393,150.018555 
	C261.001343,150.013351 261.046631,150.062607 261.284607,149.878540 
	C261.689697,149.126907 261.856750,148.559357 262.367371,147.764923 
	C265.479462,147.391678 268.247345,147.232010 271.016632,147.101639 
	C277.040497,146.818008 283.065002,146.549347 289.326721,146.226410 
	C289.564178,146.178253 289.987122,145.941849 290.329224,145.891296 
	C295.449677,143.318985 297.845978,139.487183 297.274963,133.692245 
	C297.521545,132.836044 297.688080,132.266983 298.301514,131.717102 
	C302.282043,130.824692 306.732361,130.956482 309.178741,128.807281 
	C316.742188,122.162628 316.840729,103.763115 309.954956,95.552650 
	C306.539551,92.661949 305.969116,89.236481 306.155426,85.258530 
	C306.424103,79.521210 306.198700,73.760750 306.462830,67.836685 
	C308.721100,65.073448 310.700623,62.483688 312.749664,59.517086 
	C312.390320,53.930584 309.749023,50.584202 305.604340,49.999382 
	C300.741486,49.313229 297.628601,51.389851 295.476990,56.845161 
	C295.156738,57.361233 295.158691,57.682236 295.304352,58.315693 
	C295.361481,59.038460 295.440918,59.447742 295.437500,60.201920 
	C297.534271,63.035648 299.713867,65.524483 301.864410,68.402252 
	C301.864166,69.829956 301.893005,70.868706 301.732971,72.274277 
	C301.673645,78.119568 301.803162,83.598061 301.892090,89.354927 
	C301.857758,90.007889 301.863983,90.382477 301.644470,90.899506 
	C301.186920,91.310181 300.955078,91.578400 300.415771,91.815727 
	C299.491394,91.801445 298.874451,91.818054 298.083130,91.644196 
	C297.602203,91.301514 297.295685,91.149307 296.924744,90.609306 
	C296.614441,89.083221 296.375977,87.943283 296.121674,86.806892 
	C286.935974,45.757988 241.234009,24.073076 203.701294,43.222336 
	C185.293274,52.614155 173.904633,67.752853 169.260818,87.970192 
	C168.942230,89.357224 167.293579,90.438751 166.263489,91.662354 
	C165.505539,90.264778 164.148849,88.890945 164.092331,87.465561 
	C163.835342,80.985504 163.944489,74.490921 164.216095,67.821533 
	C166.313004,65.412300 168.115723,63.183086 170.033539,60.542786 
	C170.315857,54.424644 168.128403,51.023521 163.683899,50.080189 
	C158.635147,49.008598 155.064697,51.336605 152.897217,57.120171 
	C152.613205,57.545341 152.689133,57.813957 152.969696,58.380287 
	C153.070312,59.455326 153.196716,60.167431 153.273163,61.225494 
	C155.300766,63.752625 157.378311,65.933792 159.404266,68.572418 
	C159.333374,74.181465 159.128082,79.341187 159.352539,84.482140 
	C159.538620,88.743896 159.239471,92.674843 155.487274,95.865982 
	C150.986710,101.538567 150.789459,107.958702 151.035248,114.459999 
	C151.497482,126.686363 156.107544,131.379181 168.122620,132.220108 
	C168.232010,132.997040 168.300827,133.439896 168.261612,134.265991 
	C168.724060,136.544739 169.294556,138.440262 169.920746,140.668732 
	C172.574249,145.410767 176.441223,147.250366 181.531281,147.112442 
	C187.464645,146.951660 193.408890,146.980408 199.341553,147.157227 
	C200.804886,147.200821 202.592789,147.765503 203.619675,148.737198 
	C205.970428,150.961639 207.943466,153.585251 209.836273,156.285202 
	C199.754135,165.066818 196.318146,176.819641 193.004883,188.869003 
	C181.666122,188.918518 170.745926,188.825302 159.830276,189.006332 
	C151.392014,189.146255 145.854187,194.333328 145.265808,202.462555 
	C145.148056,203.546524 145.131729,204.277664 145.014465,205.448044 
	C145.059357,208.554550 145.205154,211.221802 145.311676,214.323334 
	C145.756973,224.886337 146.330750,235.011932 146.686005,245.145203 
	C146.847824,249.760910 146.577835,254.391739 146.503708,259.015717 
z"/>
<path fill="#EDF0F1" opacity="1.000000" stroke="none" 
	d="
M145.115387,205.008804 
	C145.131729,204.277664 145.148056,203.546524 145.563721,202.355682 
	C150.480850,196.100021 156.310226,193.876785 163.733582,193.910660 
	C208.132187,194.113220 252.533630,194.199921 296.930573,193.861084 
	C306.422821,193.788620 314.744598,194.806595 320.606262,203.118927 
	C320.273376,215.025589 319.940460,226.932266 319.440186,239.659882 
	C319.142822,246.341675 319.012848,252.202515 318.882904,258.063354 
	C318.882904,258.063354 318.856842,258.114288 318.943604,258.519379 
	C319.236237,259.401855 319.442139,259.879211 319.648041,260.356598 
	C318.928711,266.589600 318.412750,272.854431 317.442719,279.048157 
	C315.959900,288.516083 311.143829,293.146271 301.769897,293.179626 
	C255.779907,293.343384 209.788971,293.317688 163.798645,293.220001 
	C155.876678,293.203186 149.920731,287.215790 149.081207,279.003082 
	C148.608170,274.375580 148.528397,269.708679 148.099319,265.075470 
	C147.934555,263.296265 147.291336,261.561401 146.684921,259.411011 
	C146.577835,254.391739 146.847824,249.760910 146.686005,245.145203 
	C146.330750,235.011932 145.756973,224.886337 145.494141,214.002014 
	C145.515717,210.500549 145.315552,207.754669 145.115387,205.008804 
M221.489197,234.050171 
	C217.094543,240.306366 216.526886,248.018082 220.123978,252.596786 
	C224.742249,258.475342 232.373856,260.888947 238.812164,258.507172 
	C244.407013,256.437439 248.612122,249.366745 247.957077,242.697861 
	C247.371475,236.735931 244.240967,232.589722 238.611115,230.253311 
	C232.288635,227.629425 226.967087,229.474564 221.489197,234.050171 
z"/>
<path fill="#1D2E4F" opacity="1.000000" stroke="none" 
	d="
M361.633606,101.216774 
	C358.792023,102.007332 356.165405,102.753159 353.489105,103.204498 
	C351.970551,103.460587 349.827271,103.838142 348.958740,103.056778 
	C348.074036,102.260826 347.928650,99.985573 348.296936,98.576958 
	C349.432556,94.233391 350.967957,89.994370 352.815460,85.150772 
	C353.215668,79.739967 353.148529,74.893143 353.081360,70.046318 
	C353.388489,66.652946 353.778259,63.264542 353.982697,59.864994 
	C354.265381,55.164383 355.954254,51.358921 360.853149,48.907448 
	C361.649597,48.552185 361.844025,48.321388 361.981903,48.042957 
	C362.423523,48.027695 362.865112,48.012432 364.110046,47.997585 
	C384.630493,47.985832 404.347687,47.973660 424.064850,47.961487 
	C425.782135,48.295364 427.499451,48.629242 429.659851,49.331497 
	C430.704346,50.141094 431.305664,50.582306 431.907013,51.023521 
	C431.907013,51.023518 431.950012,51.063297 432.090179,51.262886 
	C432.415802,51.696957 432.643433,51.878643 432.913208,52.007542 
	C433.607513,54.151222 434.844574,56.280689 434.901154,58.441071 
	C435.132111,67.260643 435.025726,76.089752 434.996185,84.915192 
	C434.978790,90.112297 430.086945,96.283539 424.041077,97.732193 
	C422.702087,97.355247 422.057312,97.111526 421.412079,97.110344 
	C403.989594,97.078453 386.567047,97.053810 369.144714,97.103355 
	C368.084167,97.106369 367.025360,97.731071 365.965759,98.066498 
	C364.586426,99.060585 363.207092,100.054665 361.633606,101.216774 
M423.675446,52.042202 
	C422.632782,51.693832 421.591125,51.045425 420.547272,51.041786 
	C402.918304,50.980339 385.288849,50.963924 367.660370,51.076622 
	C366.441559,51.084415 365.229736,52.186428 363.453064,53.178417 
	C361.891144,54.791836 360.329224,56.405254 358.057861,58.324825 
	C357.705597,59.678265 357.071808,61.026989 357.049042,62.385944 
	C356.941864,68.788315 356.923676,75.195160 357.060059,81.596451 
	C357.092529,83.120003 357.841736,84.628281 358.277557,86.986465 
	C357.716431,89.411362 357.155334,91.836258 356.826324,93.258125 
	C364.508026,92.711327 371.664673,91.879318 378.833130,91.760338 
	C392.775421,91.528931 406.724487,91.732872 420.670471,91.684151 
	C426.884552,91.662445 429.133423,89.451965 429.198792,83.333038 
	C429.276825,76.028732 429.096008,68.720200 429.262482,61.418869 
	C429.357330,57.259739 427.798828,54.391033 423.675446,52.042202 
z"/>
<path fill="#555661" opacity="1.000000" stroke="none" 
	d="
M366.391418,98.061798 
	C367.025360,97.731071 368.084167,97.106369 369.144714,97.103355 
	C386.567047,97.053810 403.989594,97.078453 421.412079,97.110344 
	C422.057312,97.111526 422.702087,97.355247 423.672546,97.739975 
	C422.273834,98.342628 420.551086,98.985191 418.825226,98.993713 
	C403.929352,99.067253 389.032623,99.069603 374.136902,98.976883 
	C371.695129,98.961685 369.256927,98.378029 366.391418,98.061798 
z"/>
<path fill="#252735" opacity="1.000000" stroke="none" 
	d="
M423.731903,47.705673 
	C404.347687,47.973660 384.630493,47.985832 364.441406,47.991257 
	C365.046204,47.658287 366.122314,47.050251 367.199799,47.047806 
	C385.456177,47.006348 403.712677,47.037155 421.969147,47.073647 
	C422.445984,47.074600 422.922363,47.318993 423.731903,47.705673 
z"/>
<path fill="#749AA9" opacity="1.000000" stroke="none" 
	d="
M369.192505,163.038544 
	C369.133545,156.021759 369.074615,149.004990 369.017334,141.527863 
	C369.615631,142.116837 370.717804,143.161850 370.726746,144.216171 
	C370.783966,150.946518 370.600555,157.678909 370.241150,164.490463 
	C369.721466,164.059708 369.456970,163.549133 369.192505,163.038544 
z"/>
<path fill="#86A5B1" opacity="1.000000" stroke="none" 
	d="
M369.132996,163.457733 
	C369.456970,163.549133 369.721466,164.059708 370.044067,164.861938 
	C369.589874,169.266373 369.077545,173.379150 368.289917,177.773071 
	C368.367554,173.328461 368.720520,168.602692 369.132996,163.457733 
z"/>
<path fill="#2A3752" opacity="1.000000" stroke="none" 
	d="
M353.059418,70.501419 
	C353.148529,74.893143 353.215668,79.739967 352.995056,84.793442 
	C352.499542,84.591606 352.291779,84.183105 352.036591,83.434540 
	C352.338593,79.048485 352.688019,75.002502 353.059418,70.501419 
z"/>
<path fill="#8DAFBC" opacity="1.000000" stroke="none" 
	d="
M327.340271,252.970978 
	C328.792389,251.039703 330.571167,249.034393 332.698425,247.028717 
	C331.253571,248.984543 329.460266,250.940750 327.340271,252.970978 
z"/>
<path fill="#86A5B1" opacity="1.000000" stroke="none" 
	d="
M366.387085,186.082275 
	C366.556580,183.728348 367.008514,181.094315 367.753723,178.218689 
	C367.587860,180.585449 367.128693,183.193817 366.387085,186.082275 
z"/>
<path fill="#8DAFBC" opacity="1.000000" stroke="none" 
	d="
M319.905151,260.194641 
	C319.442139,259.879211 319.236237,259.401855 318.961304,258.541840 
	C319.724579,257.790253 320.556854,257.421295 321.730316,257.051208 
	C321.435089,258.044312 320.798676,259.038483 319.905151,260.194641 
z"/>
<path fill="#8DAFBC" opacity="1.000000" stroke="none" 
	d="
M323.362610,256.112549 
	C324.140930,255.059296 325.254913,254.042664 326.705963,253.020279 
	C325.928101,254.059402 324.813171,255.104309 323.362610,256.112549 
z"/>
<path fill="#8DAFBC" opacity="1.000000" stroke="none" 
	d="
M334.311951,245.948502 
	C334.709106,245.057541 335.397552,244.074280 336.402252,243.017151 
	C336.013397,243.914261 335.308289,244.885239 334.311951,245.948502 
z"/>
<path fill="#2A3752" opacity="1.000000" stroke="none" 
	d="
M431.794495,50.762875 
	C431.305664,50.582306 430.704346,50.141094 430.027527,49.414284 
	C430.528717,49.586540 431.105347,50.044384 431.794495,50.762875 
z"/>
<path fill="#2A3752" opacity="1.000000" stroke="none" 
	d="
M432.809753,51.810841 
	C432.643433,51.878643 432.415802,51.696957 432.116882,51.274857 
	C432.289551,51.193775 432.523834,51.369408 432.809753,51.810841 
z"/>
<path fill="#8DAFBC" opacity="1.000000" stroke="none" 
	d="
M333.281677,246.986237 
	C333.188629,246.749817 333.361237,246.454498 333.787720,246.083420 
	C333.876831,246.314224 333.712097,246.620773 333.281677,246.986237 
z"/>
<path fill="#8DAFBC" opacity="1.000000" stroke="none" 
	d="
M322.332092,257.064667 
	C322.216156,256.784271 322.405701,256.506104 322.832520,256.126862 
	C322.925690,256.372803 322.781647,256.719849 322.332092,257.064667 
z"/>
<path fill="#2A3752" opacity="1.000000" stroke="none" 
	d="
M361.780396,48.150002 
	C361.844025,48.321388 361.649597,48.552185 361.197662,48.842926 
	C361.133881,48.671574 361.327972,48.440418 361.780396,48.150002 
z"/>
<path fill="#EBEFF0" opacity="1.000000" stroke="none" 
	d="
M155.801163,95.708290 
	C159.239471,92.674843 159.538620,88.743896 159.352539,84.482140 
	C159.128082,79.341187 159.333374,74.181465 159.772202,68.536171 
	C161.435135,68.028839 162.678528,68.015205 163.921921,68.001564 
	C163.944489,74.490921 163.835342,80.985504 164.092331,87.465561 
	C164.148849,88.890945 165.505539,90.264778 166.263489,91.662354 
	C167.293579,90.438751 168.942230,89.357224 169.260818,87.970192 
	C173.904633,67.752853 185.293274,52.614155 203.701294,43.222336 
	C241.234009,24.073076 286.935974,45.757988 296.121674,86.806892 
	C296.375977,87.943283 296.614441,89.083221 297.056702,90.849167 
	C297.587891,91.596107 297.922699,91.715385 298.257507,91.834656 
	C298.874451,91.818054 299.491394,91.801445 300.701294,91.751801 
	C301.486237,91.398201 301.678223,91.077637 301.870178,90.757065 
	C301.863983,90.382477 301.857758,90.007889 301.957581,88.884346 
	C302.016357,82.726074 301.969086,77.316772 301.921814,71.907463 
	C301.893005,70.868706 301.864166,69.829956 302.293396,68.387596 
	C303.895660,67.992714 305.039886,68.001442 306.184143,68.010162 
	C306.198700,73.760750 306.424103,79.521210 306.155426,85.258530 
	C305.969116,89.236481 306.539551,92.661949 309.923279,95.993729 
	C309.975922,102.675514 310.884888,108.804771 309.592438,114.428047 
	C308.650330,118.527100 305.567169,123.367714 302.032990,125.279312 
	C298.710815,127.076271 297.751160,128.545349 297.854584,131.697906 
	C297.688080,132.266983 297.521545,132.836044 296.978333,133.877472 
	C293.467102,139.307587 289.006836,141.099640 283.136963,141.070984 
	C250.424805,140.911346 217.710693,140.891251 184.999115,141.105957 
	C179.182266,141.144135 174.218613,139.966858 169.929565,135.726700 
	C169.383865,134.919662 168.876770,134.401215 168.369659,133.882767 
	C168.300827,133.439896 168.232010,132.997040 168.117325,131.806320 
	C167.399246,129.409744 166.948563,126.477455 166.019440,126.317078 
	C159.108551,125.124214 156.685776,120.102158 156.034744,114.340881 
	C155.340775,108.199638 155.829041,101.924805 155.801163,95.708290 
M186.178925,84.005280 
	C186.086609,84.664581 185.994293,85.323883 185.885544,86.655739 
	C185.719391,87.068802 185.553238,87.481873 184.925812,88.022224 
	C184.878433,88.670364 184.831055,89.318504 184.752945,90.807983 
	C184.505798,99.262611 183.761276,107.739906 184.145157,116.165787 
	C184.566513,125.414200 188.731613,129.279617 198.916870,131.063766 
	C221.612991,131.005905 244.309128,130.948059 267.767181,131.002213 
	C276.779266,129.014862 279.767456,126.293884 281.316650,118.247025 
	C281.310760,110.107117 281.304901,101.967201 281.425232,93.007812 
	C280.766907,89.896133 280.108582,86.784447 279.726257,82.863510 
	C277.883575,71.917358 271.117554,64.323395 262.191772,58.744125 
	C243.108490,46.815704 214.311234,47.279854 196.548248,65.647308 
	C192.604660,69.725105 190.749283,75.822395 187.853043,81.631271 
	C187.465225,82.397354 187.077408,83.163437 186.178925,84.005280 
z"/>
<path fill="#EDF0F1" opacity="1.000000" stroke="none" 
	d="
M193.425400,188.844360 
	C196.318146,176.819641 199.754135,165.066818 210.202072,156.335892 
	C217.710510,157.443451 224.587402,158.957840 231.536865,159.977753 
	C239.932831,161.209915 247.838623,158.630371 255.696991,156.104187 
	C265.580872,164.516373 269.284698,176.108917 271.740356,188.542694 
	C245.346649,188.924423 219.386032,188.884384 193.425400,188.844360 
z"/>
<path fill="#D0D4D5" opacity="1.000000" stroke="none" 
	d="
M255.880722,155.818985 
	C247.838623,158.630371 239.932831,161.209915 231.536865,159.977753 
	C224.587402,158.957840 217.710510,157.443451 210.435669,156.097458 
	C207.943466,153.585251 205.970428,150.961639 203.619675,148.737198 
	C202.592789,147.765503 200.804886,147.200821 199.341553,147.157227 
	C193.408890,146.980408 187.464645,146.951660 181.531281,147.112442 
	C176.441223,147.250366 172.574249,145.410767 169.955536,140.331772 
	C169.945801,138.446335 169.956985,137.230804 169.968170,136.015289 
	C174.218613,139.966858 179.182266,141.144135 184.999115,141.105957 
	C217.710693,140.891251 250.424805,140.911346 283.136963,141.070984 
	C289.006836,141.099640 293.467102,139.307587 296.898285,134.164581 
	C297.845978,139.487183 295.449677,143.318985 290.205536,145.769058 
	C289.522888,145.889755 289.306061,146.082153 289.089264,146.274536 
	C283.065002,146.549347 277.040497,146.818008 271.016632,147.101639 
	C268.247345,147.232010 265.479462,147.391678 262.135193,147.956238 
	C261.388489,148.937164 261.217560,149.499878 261.046631,150.062607 
	C261.046631,150.062607 261.001343,150.013351 260.803406,150.157104 
	C260.424591,150.605591 260.243713,150.910324 260.062866,151.215073 
	C258.730072,152.654648 257.397247,154.094208 255.880722,155.818985 
z"/>
<path fill="#CDD4D7" opacity="1.000000" stroke="none" 
	d="
M193.004883,188.868988 
	C219.386032,188.884384 245.346649,188.924423 271.798767,188.938080 
	C283.251129,188.928543 294.212555,188.882324 305.172638,188.981873 
	C314.195038,189.063812 319.202026,193.427170 320.719452,202.743210 
	C314.744598,194.806595 306.422821,193.788620 296.930573,193.861084 
	C252.533630,194.199921 208.132187,194.113220 163.733582,193.910660 
	C156.310226,193.876785 150.480850,196.100021 145.665131,202.002869 
	C145.854187,194.333328 151.392014,189.146255 159.830276,189.006332 
	C170.745926,188.825302 181.666122,188.918518 193.004883,188.868988 
z"/>
<path fill="#C6D1D5" opacity="1.000000" stroke="none" 
	d="
M298.301514,131.717102 
	C297.751160,128.545349 298.710815,127.076271 302.032990,125.279312 
	C305.567169,123.367714 308.650330,118.527100 309.592438,114.428047 
	C310.884888,108.804771 309.975922,102.675514 310.042023,96.322014 
	C316.840729,103.763115 316.742188,122.162628 309.178741,128.807281 
	C306.732361,130.956482 302.282043,130.824692 298.301514,131.717102 
z"/>
<path fill="#C9D1D7" opacity="1.000000" stroke="none" 
	d="
M155.487274,95.865982 
	C155.829041,101.924805 155.340775,108.199638 156.034744,114.340881 
	C156.685776,120.102158 159.108551,125.124214 166.019440,126.317078 
	C166.948563,126.477455 167.399246,129.409744 168.076782,131.472260 
	C156.107544,131.379181 151.497482,126.686363 151.035248,114.459999 
	C150.789459,107.958702 150.986710,101.538567 155.487274,95.865982 
z"/>
<path fill="#E9EEF1" opacity="1.000000" stroke="none" 
	d="
M153.323120,60.879539 
	C153.196716,60.167431 153.070312,59.455326 153.009064,58.134079 
	C153.074234,57.524933 153.026779,57.028831 153.026779,57.028831 
	C155.064697,51.336605 158.635147,49.008598 163.683899,50.080189 
	C168.128403,51.023521 170.315857,54.424644 169.677338,60.611996 
	C163.849915,65.637703 158.564819,64.877518 153.323120,60.879539 
z"/>
<path fill="#EBF0F1" opacity="1.000000" stroke="none" 
	d="
M295.633240,56.651119 
	C297.628601,51.389851 300.741486,49.313229 305.604340,49.999382 
	C309.749023,50.584202 312.390320,53.930584 312.441498,59.637161 
	C305.736633,65.656693 303.931000,65.626457 295.520355,59.857025 
	C295.440918,59.447742 295.361481,59.038460 295.447266,58.119106 
	C295.759460,57.292831 295.766357,56.973526 295.633240,56.651119 
z"/>
<path fill="#C5D3DA" opacity="1.000000" stroke="none" 
	d="
M295.437500,60.201923 
	C303.931000,65.626457 305.736633,65.656693 312.372009,60.014000 
	C310.700623,62.483688 308.721100,65.073448 306.462830,67.836685 
	C305.039886,68.001442 303.895660,67.992714 302.322449,67.998657 
	C299.713867,65.524483 297.534271,63.035648 295.437500,60.201923 
z"/>
<path fill="#BFD5DF" opacity="1.000000" stroke="none" 
	d="
M153.273163,61.225498 
	C158.564819,64.877518 163.849915,65.637703 169.562256,61.023087 
	C168.115723,63.183086 166.313004,65.412300 164.216095,67.821533 
	C162.678528,68.015205 161.435135,68.028839 159.823807,68.078720 
	C157.378311,65.933792 155.300766,63.752625 153.273163,61.225498 
z"/>
<path fill="#8DAFBC" opacity="1.000000" stroke="none" 
	d="
M318.944275,257.613708 
	C319.012848,252.202515 319.142822,246.341675 319.454712,240.112015 
	C319.426331,245.550140 319.215973,251.357086 318.944275,257.613708 
z"/>
<path fill="#C5D3DA" opacity="1.000000" stroke="none" 
	d="
M301.732971,72.274277 
	C301.969086,77.316772 302.016357,82.726074 301.998169,88.605965 
	C301.803162,83.598061 301.673645,78.119568 301.732971,72.274277 
z"/>
<path fill="#C9D1D7" opacity="1.000000" stroke="none" 
	d="
M169.929565,135.726700 
	C169.956985,137.230804 169.945801,138.446335 169.899841,139.998810 
	C169.294556,138.440262 168.724060,136.544739 168.261612,134.265991 
	C168.876770,134.401215 169.383865,134.919662 169.929565,135.726700 
z"/>
<path fill="#CDD4D7" opacity="1.000000" stroke="none" 
	d="
M145.014481,205.448044 
	C145.315552,207.754669 145.515717,210.500549 145.533417,213.567749 
	C145.205154,211.221802 145.059357,208.554550 145.014481,205.448044 
z"/>
<path fill="#C6D1D5" opacity="1.000000" stroke="none" 
	d="
M261.284607,149.878540 
	C261.217560,149.499878 261.388489,148.937164 261.791626,148.183121 
	C261.856750,148.559357 261.689697,149.126907 261.284607,149.878540 
z"/>
<path fill="#C6D1D5" opacity="1.000000" stroke="none" 
	d="
M260.291229,151.072113 
	C260.243713,150.910324 260.424591,150.605591 260.836426,150.162308 
	C260.884827,150.325562 260.702209,150.627350 260.291229,151.072113 
z"/>
<path fill="#C6D1D5" opacity="1.000000" stroke="none" 
	d="
M289.326721,146.226395 
	C289.306061,146.082153 289.522888,145.889755 289.863403,145.819611 
	C289.987122,145.941849 289.564178,146.178253 289.326721,146.226395 
z"/>
<path fill="#C5D3DA" opacity="1.000000" stroke="none" 
	d="
M301.644470,90.899506 
	C301.678223,91.077637 301.486237,91.398201 301.008728,91.782692 
	C300.955078,91.578400 301.186920,91.310181 301.644470,90.899506 
z"/>
<path fill="#C5D3DA" opacity="1.000000" stroke="none" 
	d="
M298.083130,91.644196 
	C297.922699,91.715385 297.587891,91.596107 297.121124,91.236969 
	C297.295685,91.149307 297.602203,91.301514 298.083130,91.644196 
z"/>
<path fill="#C5D3DA" opacity="1.000000" stroke="none" 
	d="
M295.476990,56.845161 
	C295.766357,56.973526 295.759460,57.292831 295.469604,57.805622 
	C295.158691,57.682236 295.156738,57.361233 295.476990,56.845161 
z"/>
<path fill="#BFD5DF" opacity="1.000000" stroke="none" 
	d="
M152.897217,57.120171 
	C153.026779,57.028831 153.074234,57.524933 153.034851,57.771145 
	C152.689133,57.813957 152.613205,57.545341 152.897217,57.120171 
z"/>
<path fill="#D2D4D5" opacity="1.000000" stroke="none" 
	d="
M221.754028,233.784027 
	C226.967087,229.474564 232.288635,227.629425 238.611115,230.253311 
	C244.240967,232.589722 247.371475,236.735931 247.957077,242.697861 
	C248.612122,249.366745 244.407013,256.437439 238.812164,258.507172 
	C232.373856,260.888947 224.742249,258.475342 220.123978,252.596786 
	C216.526886,248.018082 217.094543,240.306366 221.754028,233.784027 
z"/>
<path fill="#F9FAFA" opacity="1.000000" stroke="none" 
	d="
M358.767303,58.018673 
	C360.329224,56.405254 361.891144,54.791836 364.201233,53.004662 
	C384.629059,52.803261 404.308716,52.775616 423.988373,52.747967 
	C427.798828,54.391033 429.357330,57.259739 429.262482,61.418869 
	C429.096008,68.720200 429.276825,76.028732 429.198792,83.333038 
	C429.133423,89.451965 426.884552,91.662445 420.670471,91.684151 
	C406.724487,91.732872 392.775421,91.528931 378.833130,91.760338 
	C371.664673,91.879318 364.508026,92.711327 356.826324,93.258125 
	C357.155334,91.836258 357.716431,89.411362 358.482422,86.199890 
	C358.713928,76.281769 358.740601,67.150223 358.767303,58.018673 
M398.768921,76.351143 
	C398.691589,74.233192 399.410217,71.358368 398.315857,70.207451 
	C397.193054,69.026596 393.391998,68.583130 392.399841,69.530693 
	C391.064606,70.805954 390.310852,74.173706 391.071442,75.836540 
	C392.456512,78.864754 395.448303,78.931168 398.768921,76.351143 
M381.679382,70.025444 
	C379.566620,69.789803 377.270294,68.965141 375.411499,69.544434 
	C374.335449,69.879791 373.249512,72.588730 373.475739,74.023209 
	C373.703461,75.467102 375.327759,77.213280 376.757172,77.785789 
	C377.980225,78.275681 380.700500,77.753700 381.154572,76.862251 
	C382.062378,75.079926 381.871674,72.738075 381.679382,70.025444 
M408.249390,70.017281 
	C406.284149,72.535507 406.269104,75.204254 408.897675,76.923920 
	C410.246582,77.806396 413.260437,78.095032 414.175323,77.229195 
	C415.522552,75.954185 416.668304,73.059334 416.117035,71.474693 
	C414.927490,68.055473 411.970123,67.566833 408.249390,70.017281 
z"/>
<path fill="#131D35" opacity="1.000000" stroke="none" 
	d="
M423.831909,52.395084 
	C404.308716,52.775616 384.629059,52.803261 364.482056,52.805248 
	C365.229736,52.186428 366.441559,51.084415 367.660370,51.076622 
	C385.288849,50.963924 402.918304,50.980339 420.547272,51.041786 
	C421.591125,51.045425 422.632782,51.693832 423.831909,52.395084 
z"/>
<path fill="#131D35" opacity="1.000000" stroke="none" 
	d="
M358.412598,58.171753 
	C358.740601,67.150223 358.713928,76.281769 358.474243,85.778450 
	C357.841736,84.628281 357.092529,83.120003 357.060059,81.596451 
	C356.923676,75.195160 356.941864,68.788315 357.049042,62.385944 
	C357.071808,61.026989 357.705597,59.678265 358.412598,58.171753 
z"/>
<path fill="#16294E" opacity="1.000000" stroke="none" 
	d="
M280.944244,119.003372 
	C279.767456,126.293884 276.779266,129.014862 267.253662,130.758575 
	C266.530853,130.284180 266.282349,130.109116 265.674255,129.726868 
	C264.548584,129.311508 263.743378,129.026947 262.937805,129.025894 
	C242.866852,128.999832 222.795837,128.986176 202.725021,129.044540 
	C201.483658,129.048157 200.244080,129.660675 198.808960,130.091888 
	C198.368073,130.361359 198.165054,130.570709 198.005219,130.821930 
	C188.731613,129.279617 184.566513,125.414200 184.145157,116.165787 
	C183.761276,107.739906 184.505798,99.262611 184.968445,90.178848 
	C185.251678,88.998123 185.319382,88.446533 185.387100,87.894943 
	C185.553238,87.481873 185.719391,87.068802 186.103149,86.117165 
	C186.443710,85.028900 186.566650,84.479210 186.689575,83.929520 
	C187.077408,83.163437 187.465225,82.397354 188.175262,81.124115 
	C192.438995,73.333397 197.651321,67.193787 204.684036,62.709129 
	C231.027542,45.910244 264.556122,55.314323 279.450287,83.672760 
	C280.108582,86.784447 280.766907,89.896133 281.051025,93.723236 
	C280.765930,102.626900 280.855103,110.815140 280.944244,119.003372 
M229.488327,116.406593 
	C227.544174,114.946129 225.652557,113.406952 223.632919,112.059631 
	C222.675491,111.420921 221.473526,111.148735 220.382355,110.710495 
	C220.224213,112.015884 219.477997,113.665367 220.006683,114.568886 
	C222.735336,119.232346 227.111389,121.397766 232.433014,121.497604 
	C237.914062,121.600426 242.569366,119.671791 245.576736,114.919952 
	C246.188614,113.953133 245.685547,112.280663 245.696457,110.933487 
	C244.477173,111.327751 242.768951,111.343803 242.121704,112.180550 
	C239.020111,116.190178 235.064835,117.436485 229.488327,116.406593 
M252.629852,96.837852 
	C255.391846,101.228020 259.040314,102.361794 262.347534,99.857635 
	C265.303864,97.619186 265.973236,93.076538 263.089661,90.789055 
	C261.421173,89.465500 257.868835,88.335335 256.585999,89.207993 
	C254.560120,90.586128 253.729416,93.721191 252.629852,96.837852 
M200.933990,94.602814 
	C202.463486,96.699669 203.618912,99.402679 205.663696,100.664513 
	C206.877228,101.413383 210.260849,100.508331 211.284943,99.234444 
	C212.592529,97.607918 213.447723,94.493820 212.752182,92.696404 
	C212.054092,90.892380 208.886505,88.542686 207.381500,88.897003 
	C205.004654,89.456566 203.112473,92.074631 200.933990,94.602814 
z"/>
<path fill="#C7CACE" opacity="1.000000" stroke="none" 
	d="
M279.588257,83.268135 
	C264.556122,55.314323 231.027542,45.910244 204.684036,62.709129 
	C197.651321,67.193787 192.438995,73.333397 188.214966,80.803398 
	C190.749283,75.822395 192.604660,69.725105 196.548248,65.647308 
	C214.311234,47.279854 243.108490,46.815704 262.191772,58.744125 
	C271.117554,64.323395 277.883575,71.917358 279.588257,83.268135 
z"/>
<path fill="#1B1F30" opacity="1.000000" stroke="none" 
	d="
M265.994598,129.989761 
	C266.282349,130.109116 266.530853,130.284180 266.872681,130.702576 
	C244.309128,130.948059 221.612991,131.005905 198.461044,130.942841 
	C198.165054,130.570709 198.368073,130.361359 199.277100,130.096344 
	C221.958145,129.995789 243.976379,129.992767 265.994598,129.989761 
z"/>
<path fill="#19243D" opacity="1.000000" stroke="none" 
	d="
M281.130432,118.625198 
	C280.855103,110.815140 280.765930,102.626900 280.987915,94.132980 
	C281.304901,101.967201 281.310760,110.107117 281.130432,118.625198 
z"/>
<path fill="#C7CACE" opacity="1.000000" stroke="none" 
	d="
M185.156464,87.958588 
	C185.319382,88.446533 185.251678,88.998123 184.983810,89.758179 
	C184.831055,89.318504 184.878433,88.670364 185.156464,87.958588 
z"/>
<path fill="#C7CACE" opacity="1.000000" stroke="none" 
	d="
M186.434265,83.967400 
	C186.566650,84.479210 186.443710,85.028900 186.111374,85.780884 
	C185.994293,85.323883 186.086609,84.664581 186.434265,83.967400 
z"/>
<path fill="#2B3854" opacity="1.000000" stroke="none" 
	d="
M398.487122,76.622169 
	C395.448303,78.931168 392.456512,78.864754 391.071442,75.836540 
	C390.310852,74.173706 391.064606,70.805954 392.399841,69.530693 
	C393.391998,68.583130 397.193054,69.026596 398.315857,70.207451 
	C399.410217,71.358368 398.691589,74.233192 398.487122,76.622169 
z"/>
<path fill="#2D3853" opacity="1.000000" stroke="none" 
	d="
M381.906982,70.326347 
	C381.871674,72.738075 382.062378,75.079926 381.154572,76.862251 
	C380.700500,77.753700 377.980225,78.275681 376.757172,77.785789 
	C375.327759,77.213280 373.703461,75.467102 373.475739,74.023209 
	C373.249512,72.588730 374.335449,69.879791 375.411499,69.544434 
	C377.270294,68.965141 379.566620,69.789803 381.906982,70.326347 
z"/>
<path fill="#2A3752" opacity="1.000000" stroke="none" 
	d="
M408.536865,69.773949 
	C411.970123,67.566833 414.927490,68.055473 416.117035,71.474693 
	C416.668304,73.059334 415.522552,75.954185 414.175323,77.229195 
	C413.260437,78.095032 410.246582,77.806396 408.897675,76.923920 
	C406.269104,75.204254 406.284149,72.535507 408.536865,69.773949 
z"/>
<path fill="#2BE0EA" opacity="1.000000" stroke="none" 
	d="
M229.869110,116.513885 
	C235.064835,117.436485 239.020111,116.190178 242.121704,112.180550 
	C242.768951,111.343803 244.477173,111.327751 245.696457,110.933487 
	C245.685547,112.280663 246.188614,113.953133 245.576736,114.919952 
	C242.569366,119.671791 237.914062,121.600426 232.433014,121.497604 
	C227.111389,121.397766 222.735336,119.232346 220.006683,114.568886 
	C219.477997,113.665367 220.224213,112.015884 220.382355,110.710495 
	C221.473526,111.148735 222.675491,111.420921 223.632919,112.059631 
	C225.652557,113.406952 227.544174,114.946129 229.869110,116.513885 
z"/>
<path fill="#2BE5F0" opacity="1.000000" stroke="none" 
	d="
M252.511353,96.475250 
	C253.729416,93.721191 254.560120,90.586128 256.585999,89.207993 
	C257.868835,88.335335 261.421173,89.465500 263.089661,90.789055 
	C265.973236,93.076538 265.303864,97.619186 262.347534,99.857635 
	C259.040314,102.361794 255.391846,101.228020 252.511353,96.475250 
z"/>
<path fill="#2CE8F2" opacity="1.000000" stroke="none" 
	d="
M200.974579,94.212128 
	C203.112473,92.074631 205.004654,89.456566 207.381500,88.897003 
	C208.886505,88.542686 212.054092,90.892380 212.752182,92.696404 
	C213.447723,94.493820 212.592529,97.607918 211.284943,99.234444 
	C210.260849,100.508331 206.877228,101.413383 205.663696,100.664513 
	C203.618912,99.402679 202.463486,96.699669 200.974579,94.212128 
z"/>
<path fill="#212E50" opacity="1.000000" stroke="none" 
	d="
M265.674255,129.726868 
	C243.976379,129.992767 221.958145,129.995789 199.471802,129.994339 
	C200.244080,129.660675 201.483658,129.048157 202.725021,129.044540 
	C222.795837,128.986176 242.866852,128.999832 262.937805,129.025894 
	C263.743378,129.026947 264.548584,129.311508 265.674255,129.726868 
z"/>
</svg>