<svg width="62" height="60" viewBox="0 0 62 60" fill="none" xmlns="http://www.w3.org/2000/svg">
<path d="M61.692 29.8139C61.692 29.1236 61.344 28.5168 60.8144 28.1362L60.8256 28.1174L53.3664 23.9187L57.66 16.6678L57.6456 16.6592C57.7812 16.3604 57.8427 16.0346 57.825 15.7083C57.8074 15.382 57.7111 15.0643 57.544 14.781C57.3757 14.498 57.1412 14.2577 56.8597 14.0796C56.5783 13.9015 56.2577 13.7907 55.924 13.7561V13.7358H47.3096V5.36094H47.292C47.2561 5.03603 47.1423 4.72392 46.9597 4.44991C46.777 4.1759 46.5308 3.94769 46.2408 3.78378C45.9498 3.62035 45.6233 3.52633 45.288 3.50938C44.9526 3.49244 44.6179 3.55305 44.3112 3.68628L44.3008 3.66834L36.716 7.93806L32.516 0.844739L32.5008 0.85332C32.3031 0.589469 32.0444 0.374725 31.7457 0.226477C31.447 0.0782282 31.1168 0.000642198 30.7816 0C30.0736 0 29.4504 0.339299 29.0608 0.855659L29.0416 0.844739L24.772 8.05506L17.42 3.91638L17.4112 3.9312C17.1047 3.79897 16.7706 3.73903 16.4359 3.75624C16.1012 3.77345 15.7753 3.86733 15.4848 4.03026C15.1943 4.19426 14.9477 4.42278 14.7649 4.69724C14.5821 4.9717 14.4683 5.28435 14.4328 5.60976H14.4112V13.9355H5.9216V13.9519C5.58836 13.9868 5.26825 14.0978 4.98721 14.2759C4.70617 14.454 4.47211 14.6941 4.304 14.9768C4.13682 15.2603 4.04057 15.5783 4.02305 15.9049C4.00554 16.2315 4.06726 16.5576 4.2032 16.8566L4.1848 16.8675L8.3816 23.9554L0.8664 28.1861L0.8752 28.2009C0.604584 28.3937 0.384334 28.6459 0.232285 28.9371C0.0802348 29.2283 0.000658664 29.5503 0 29.8771C0 30.5674 0.348 31.175 0.8776 31.5549L0.8664 31.5736L8.3256 35.7724L4.032 43.0232L4.0464 43.031C3.91078 43.3299 3.8493 43.6557 3.86696 43.982C3.88461 44.3083 3.98089 44.626 4.148 44.9093C4.31635 45.1923 4.55078 45.4326 4.83226 45.6107C5.11374 45.7888 5.43433 45.8996 5.768 45.9342V45.9553H14.3816V54.3293H14.3992C14.4728 54.9658 14.8384 55.5617 15.4504 55.9065C15.7414 56.0698 16.0679 56.1637 16.4032 56.1806C16.7385 56.1976 17.0732 56.1371 17.38 56.004L17.3904 56.0219L24.9752 51.7522L29.1752 58.8455L29.1904 58.837C29.3881 59.1008 29.6468 59.3156 29.9455 59.4638C30.2442 59.6121 30.5744 59.6896 30.9096 59.6903C31.6176 59.6903 32.2408 59.351 32.6304 58.8354L32.6488 58.8455L36.9184 51.6352L44.2712 55.7739L44.28 55.7591C44.5865 55.8913 44.9206 55.9513 45.2553 55.934C45.59 55.9168 45.9159 55.823 46.2064 55.66C46.4969 55.4961 46.7437 55.2676 46.9265 54.9932C47.1093 54.7187 47.223 54.406 47.2584 54.0805H47.28V45.7556H55.7704V45.7392C56.1036 45.7043 56.4238 45.5932 56.7048 45.4152C56.9858 45.2371 57.2199 44.997 57.388 44.7143C57.5552 44.4307 57.6514 44.1128 57.6689 43.7861C57.6865 43.4595 57.6247 43.1335 57.4888 42.8345L57.5072 42.8243L53.3104 35.7365L60.8256 31.5058L60.8168 31.4909C61.0874 31.298 61.3077 31.0456 61.4597 30.7543C61.6118 30.463 61.6913 30.1408 61.692 29.8139V29.8139ZM20.8752 41.6988C19.0912 42.7034 17.4736 42.8407 16.0984 42.4804L16.2912 40.3767C17.3328 40.6708 18.6792 40.6692 19.9512 39.9524C21.0448 39.337 21.2776 38.5757 20.9664 38.0507C20.0392 36.4861 15.3728 40.5701 13.3672 37.1842C12.4808 35.6866 13.0736 33.6968 15.2472 32.4737C16.7136 31.6477 18.1872 31.395 19.588 31.7031L19.3408 33.749C18.1944 33.4963 17.0144 33.7459 16.0736 34.2748C15.2432 34.7428 14.98 35.3582 15.3 35.8987C16.1392 37.3152 20.872 33.3746 22.8608 36.7325C23.836 38.3776 23.3536 40.3049 20.8752 41.6988V41.6988ZM32.0296 35.2045L30.5464 34.0072L26.5888 36.2349L26.9096 38.0866L24.6816 39.3401L22.9096 28.3397L25.3728 26.9537L34.2576 33.9511L32.0296 35.2045V35.2045ZM35.032 33.515L29.7032 24.5154L31.6824 23.4008L36.0128 30.7133L39.9152 28.5168L40.9144 30.2039L35.032 33.515V33.515ZM42.2416 29.4567L36.9128 20.4578L43.444 16.7801L44.4424 18.4665L39.8768 21.0374L40.9952 22.9265L45.464 20.4103L46.4624 22.0966L41.9936 24.6121L43.208 26.6635L47.7744 24.0926L48.7736 25.779L42.2416 29.4567V29.4567Z" fill="white"/>
</svg>
