<svg width="90" height="55" viewBox="0 0 90 55" fill="none" xmlns="http://www.w3.org/2000/svg">
<g filter="url(#filter0_d_10_15)">
<rect x="14.1953" y="7" width="69.1614" height="20.0729" rx="8" transform="rotate(15 14.1953 7)" fill="white" shape-rendering="crispEdges"/>
<path d="M19.9789 21.9852L19.9258 15.8746L20.9604 16.1519L21.0017 20.8452L23.4711 16.8242L24.4354 17.083L24.5619 21.8241L26.9557 17.7595L27.9907 18.0352L24.8889 23.2998L23.69 22.9772L23.5683 18.392L21.1688 22.3028L19.9789 21.9852Z" fill="#AD28A0"/>
<path d="M28.7034 18.2299L29.6882 18.4937L28.1659 24.1751L27.1811 23.9112L28.7034 18.2299Z" fill="#AD28A0"/>
<path d="M30.5103 23.848L32.9079 24.4904L32.6691 25.3816L29.307 24.4808L30.8293 18.7994L31.7938 19.0579L30.5103 23.848Z" fill="#AD28A0"/>
<path d="M37.219 20.5186C38.0273 20.7352 38.626 21.1906 39.01 21.8764C39.4008 22.5641 39.4917 23.3119 39.2775 24.1113C39.065 24.9042 38.6125 25.5063 37.9284 25.913C37.2529 26.315 36.5067 26.41 35.6985 26.1934L33.3824 25.5728L34.9047 19.8915L37.2208 20.5121L37.219 20.5186ZM35.9355 25.3088C36.4924 25.458 36.9967 25.3965 37.4346 25.1205C37.8861 24.8482 38.1892 24.4237 38.3384 23.8667C38.4912 23.2966 38.4375 22.7906 38.1826 22.329C37.9345 21.8692 37.5286 21.5638 36.9785 21.4164L35.6336 21.056L34.5907 24.9484L35.9355 25.3088Z" fill="#AD28A0"/>
<path d="M44.148 26.7179C44.0233 27.1834 43.75 27.5248 43.321 27.7401C42.892 27.9554 42.4422 28.0035 41.9397 27.8689L39.4198 27.1937L40.9429 21.5094L43.2794 22.1355C43.7616 22.2647 44.1268 22.5312 44.3807 22.9154C44.6396 23.308 44.7025 23.7254 44.583 24.1712C44.4495 24.6695 44.1437 24.9952 43.6744 25.1716C44.1202 25.5721 44.3061 26.1279 44.148 26.7179ZM41.6787 22.6482L41.2781 24.143L42.6501 24.5106C43.0781 24.6253 43.4919 24.3848 43.6044 23.9652C43.7168 23.5456 43.4787 23.1305 43.0506 23.0158L41.6787 22.6482ZM42.1818 26.9922C42.63 27.1123 43.0765 26.8594 43.1959 26.4136C43.3154 25.9678 43.0552 25.5256 42.6069 25.4055L41.0515 24.9888L40.6246 26.5819L42.18 26.9987L42.1818 26.9922Z" fill="#AD28A0"/>
<path d="M45.8327 27.9563L48.4409 28.6552L48.202 29.5468L44.6294 28.5896L46.1525 22.9053L49.6844 23.8516L49.4455 24.7433L46.8779 24.0553L46.4826 25.5305L48.8396 26.162L48.6025 27.0471L46.2455 26.4156L45.8327 27.9563Z" fill="#AD28A0"/>
<path d="M52.4268 30.6788L51.732 28.2721L50.5909 27.9664L50.0358 30.0381L49.0714 29.7797L50.5945 24.0955L52.9513 24.727C53.4811 24.8689 53.882 25.1661 54.1453 25.6231C54.4189 26.0689 54.4933 26.5526 54.3563 27.064C54.163 27.7851 53.5169 28.3217 52.7471 28.3965L53.493 30.9645L52.4268 30.6788ZM51.3234 25.2324L50.814 27.1337L52.1997 27.505C52.7158 27.6433 53.2358 27.3329 53.3781 26.8019C53.5187 26.2774 53.2186 25.7402 52.7092 25.6037L51.3234 25.2324Z" fill="#AD28A0"/>
<path d="M57.5819 32.0602L56.8944 29.6543L55.7532 29.3485L55.1978 31.4213L54.2334 31.1629L55.7573 25.4757L58.1141 26.1072C58.644 26.2492 59.0448 26.5464 59.3081 27.0037C59.5816 27.4496 59.656 27.9335 59.5189 28.4452C59.3255 29.1667 58.6793 29.7037 57.9094 29.7786L58.655 32.3477L57.5819 32.0602ZM56.4862 26.6131L55.9764 28.5154L57.3622 28.8867C57.8783 29.025 58.3983 28.7144 58.5407 28.1831C58.6813 27.6583 58.3813 27.1209 57.8719 26.9844L56.4862 26.6131Z" fill="#AD28A0"/>
<path d="M60.8851 26.8503L61.8497 27.1088L60.326 32.7954L59.3614 32.5369L60.8851 26.8503Z" fill="#AD28A0"/>
<path d="M62.6704 32.468L65.2786 33.1668L65.0397 34.0585L61.4669 33.1011L62.99 27.4169L66.5219 28.3632L66.283 29.2549L63.7157 28.567L63.3204 30.0421L65.6772 30.6736L65.44 31.5587L63.0832 30.9272L62.6704 32.468Z" fill="#AD28A0"/>
<path d="M66.0588 32.9448L67.0206 32.6969C67.0862 33.4028 67.4843 33.8465 68.2245 34.0449C68.958 34.2414 69.3988 34.0365 69.5182 33.5909C69.5814 33.355 69.5252 33.1573 69.3667 32.9884C69.2097 32.8129 68.8935 32.5807 68.4296 32.3019C67.9096 31.9869 67.6593 31.8075 67.332 31.4529C67.022 31.0889 66.9318 30.6644 67.0687 30.1533C67.2039 29.6487 67.4927 29.3047 67.9453 29.1099C68.3929 28.9068 68.8798 28.8827 69.4028 29.0229C70.347 29.2758 70.9472 29.9424 71.1187 30.8241L70.1824 31.0578C70.0783 30.4681 69.736 30.0884 69.1588 29.9337C68.5949 29.7826 68.1611 29.9614 68.0453 30.3939C67.9329 30.8133 68.1655 31.0863 68.9969 31.597C69.2017 31.7292 69.3507 31.8253 69.442 31.8919C69.5419 31.9538 69.6687 32.0509 69.8328 32.1722C70.0038 32.2952 70.1304 32.4205 70.1994 32.5162C70.4486 32.8358 70.6777 33.3116 70.4912 33.8446C70.3543 34.3557 70.0535 34.7176 69.5856 34.9153C69.1244 35.1148 68.5833 35.1243 67.9584 34.9569C66.8191 34.6445 66.1308 33.8983 66.0588 32.9448Z" fill="#AD28A0"/>
<rect x="14.4694" y="7.47478" width="68.386" height="19.2976" rx="7.61234" transform="rotate(15 14.4694 7.47478)" stroke="#AD28A0" stroke-width="0.775318" shape-rendering="crispEdges"/>
</g>
<defs>
<filter id="filter0_d_10_15" x="-1" y="-1" width="92" height="57.2893" filterUnits="userSpaceOnUse" color-interpolation-filters="sRGB">
<feFlood flood-opacity="0" result="BackgroundImageFix"/>
<feColorMatrix in="SourceAlpha" type="matrix" values="0 0 0 0 0 0 0 0 0 0 0 0 0 0 0 0 0 0 127 0" result="hardAlpha"/>
<feOffset dy="2"/>
<feGaussianBlur stdDeviation="5"/>
<feComposite in2="hardAlpha" operator="out"/>
<feColorMatrix type="matrix" values="0 0 0 0 0.0734871 0 0 0 0 0.0711569 0 0 0 0 0.187667 0 0 0 0.2 0"/>
<feBlend mode="normal" in2="BackgroundImageFix" result="effect1_dropShadow_10_15"/>
<feBlend mode="normal" in="SourceGraphic" in2="effect1_dropShadow_10_15" result="shape"/>
</filter>
</defs>
</svg>
