<svg width="88" height="53" viewBox="0 0 88 53" fill="none" xmlns="http://www.w3.org/2000/svg">
<g filter="url(#filter0_d_1_72)">
<rect x="13" y="7" width="69.0032" height="18.1056" rx="8" transform="rotate(15 13 7)" fill="white" shape-rendering="crispEdges"/>
<path d="M18.9619 21.0147L18.9088 14.9041L19.9434 15.1813L19.9847 19.8747L22.4541 15.8537L23.4184 16.1125L23.5449 20.8536L25.9387 16.7889L26.9737 17.0647L23.8719 22.3292L22.673 22.0067L22.5513 17.4214L20.1518 21.3323L18.9619 21.0147Z" fill="#AD28A0"/>
<path d="M27.6863 17.2592L28.6712 17.5231L27.1489 23.2044L26.164 22.9405L27.6863 17.2592Z" fill="#AD28A0"/>
<path d="M29.4933 22.8775L31.8909 23.5199L31.6521 24.4111L28.29 23.5102L29.8123 17.8289L30.7768 18.0873L29.4933 22.8775Z" fill="#AD28A0"/>
<path d="M36.202 19.548C37.0102 19.7646 37.6089 20.22 37.993 20.9058C38.3838 21.5935 38.4747 22.3412 38.2605 23.1407C38.048 23.9336 37.5954 24.5357 36.9114 24.9424C36.2359 25.3443 35.4897 25.4393 34.6814 25.2228L32.3653 24.6022L33.8876 18.9208L36.2038 19.5414L36.202 19.548ZM34.9185 24.3381C35.4754 24.4874 35.9797 24.4258 36.4176 24.1499C36.8691 23.8775 37.1721 23.4531 37.3214 22.8961C37.4741 22.326 37.4204 21.8199 37.1656 21.3583C36.9175 20.8986 36.5116 20.5931 35.9614 20.4457L34.6166 20.0854L33.5736 23.9778L34.9185 24.3381Z" fill="#AD28A0"/>
<path d="M43.131 25.7473C43.0062 26.2128 42.7329 26.5541 42.3039 26.7695C41.8749 26.9848 41.4252 27.0329 40.9227 26.8983L38.4027 26.223L39.9258 20.5388L42.2623 21.1648C42.7446 21.294 43.1098 21.5606 43.3636 21.9448C43.6226 22.3374 43.6854 22.7548 43.566 23.2006C43.4324 23.6989 43.1267 24.0245 42.6573 24.2009C43.1031 24.6015 43.2891 25.1572 43.131 25.7473ZM40.6616 21.6775L40.2611 23.1724L41.633 23.54C42.0611 23.6547 42.4749 23.4142 42.5873 22.9946C42.6998 22.575 42.4616 22.1598 42.0336 22.0452L40.6616 21.6775ZM41.1647 26.0215C41.613 26.1416 42.0594 25.8888 42.1789 25.443C42.2984 24.9972 42.0381 24.555 41.5899 24.4349L40.0345 24.0181L39.6076 25.6113L41.163 26.0281L41.1647 26.0215Z" fill="#AD28A0"/>
<path d="M44.8156 26.9857L47.4238 27.6846L47.1849 28.5763L43.6123 27.619L45.1354 21.9347L48.6673 22.8811L48.4284 23.7727L45.8608 23.0847L45.4656 24.5599L47.8225 25.1915L47.5854 26.0766L45.2284 25.445L44.8156 26.9857Z" fill="#AD28A0"/>
<path d="M51.4097 29.7083L50.715 27.3016L49.5738 26.9958L49.0187 29.0676L48.0543 28.8092L49.5774 23.1249L51.9342 23.7564C52.4641 23.8984 52.8649 24.1955 53.1283 24.6526C53.4018 25.0983 53.4762 25.5821 53.3392 26.0934C53.146 26.8146 52.4998 27.3512 51.73 27.426L52.4759 29.994L51.4097 29.7083ZM50.3064 24.2619L49.7969 26.1632L51.1827 26.5345C51.6988 26.6728 52.2188 26.3624 52.3611 25.8313C52.5016 25.3068 52.2015 24.7697 51.6921 24.6332L50.3064 24.2619Z" fill="#AD28A0"/>
<path d="M56.5648 31.0896L55.8773 28.6837L54.7361 28.378L54.1807 30.4508L53.2164 30.1924L54.7402 24.5052L57.097 25.1367C57.6269 25.2787 58.0277 25.5759 58.291 26.0331C58.5645 26.479 58.6389 26.963 58.5018 27.4746C58.3084 28.1962 57.6622 28.7331 56.8923 28.8081L57.6379 31.3772L56.5648 31.0896ZM55.4691 25.6426L54.9594 27.5449L56.3451 27.9162C56.8612 28.0545 57.3813 27.7439 57.5236 27.2125C57.6642 26.6878 57.3642 26.1504 56.8548 26.0139L55.4691 25.6426Z" fill="#AD28A0"/>
<path d="M59.8681 25.8798L60.8326 26.1383L59.3089 31.8249L58.3443 31.5664L59.8681 25.8798Z" fill="#AD28A0"/>
<path d="M61.6533 31.4974L64.2616 32.1963L64.0227 33.0879L60.4499 32.1306L61.9729 26.4464L65.5049 27.3927L65.266 28.2844L62.6986 27.5965L62.3033 29.0716L64.6601 29.7031L64.4229 30.5882L62.0662 29.9567L61.6533 31.4974Z" fill="#AD28A0"/>
<path d="M65.0418 31.9742L66.0036 31.7262C66.0692 32.4321 66.4672 32.8759 67.2074 33.0742C67.941 33.2708 68.3818 33.0658 68.5012 32.6202C68.5644 32.3843 68.5082 32.1867 68.3497 32.0178C68.1927 31.8423 67.8765 31.61 67.4126 31.3312C66.8926 31.0163 66.6423 30.8369 66.315 30.4823C66.005 30.1183 65.9147 29.6938 66.0517 29.1826C66.1869 28.6781 66.4757 28.3341 66.9282 28.1393C67.3759 27.9361 67.8628 27.9121 68.3858 28.0522C69.3299 28.3052 69.9302 28.9717 70.1017 29.8534L69.1654 30.0872C69.0612 29.4974 68.719 29.1177 68.1417 28.9631C67.5778 28.812 67.1441 28.9907 67.0282 29.4232C66.9158 29.8426 67.1484 30.1156 67.9799 30.6264C68.1847 30.7585 68.3336 30.8546 68.425 30.9212C68.5249 30.9831 68.6516 31.0803 68.8158 31.2015C68.9868 31.3246 69.1134 31.4498 69.1823 31.5456C69.4315 31.8652 69.6606 32.3409 69.4742 32.8739C69.3372 33.385 69.0365 33.7469 68.5686 33.9446C68.1074 34.1441 67.5662 34.1536 66.9414 33.9862C65.802 33.6739 65.1138 32.9276 65.0418 31.9742Z" fill="#AD28A0"/>
<rect x="13.2741" y="7.47478" width="68.2279" height="17.3303" rx="7.61234" transform="rotate(15 13.2741 7.47478)" stroke="#AD28A0" stroke-width="0.775318" shape-rendering="crispEdges"/>
</g>
<defs>
<filter id="filter0_d_1_72" x="-1.68608" y="-1" width="91.3381" height="55.348" filterUnits="userSpaceOnUse" color-interpolation-filters="sRGB">
<feFlood flood-opacity="0" result="BackgroundImageFix"/>
<feColorMatrix in="SourceAlpha" type="matrix" values="0 0 0 0 0 0 0 0 0 0 0 0 0 0 0 0 0 0 127 0" result="hardAlpha"/>
<feOffset dy="2"/>
<feGaussianBlur stdDeviation="5"/>
<feComposite in2="hardAlpha" operator="out"/>
<feColorMatrix type="matrix" values="0 0 0 0 0.0734871 0 0 0 0 0.0711569 0 0 0 0 0.187667 0 0 0 0.2 0"/>
<feBlend mode="normal" in2="BackgroundImageFix" result="effect1_dropShadow_1_72"/>
<feBlend mode="normal" in="SourceGraphic" in2="effect1_dropShadow_1_72" result="shape"/>
</filter>
</defs>
</svg>
